<svg width="500" height="500" viewBox="0 0 500 500" fill="none" xmlns="http://www.w3.org/2000/svg">
<g clip-path="url(#clip0)">
<rect width="500" height="500" fill="white"/>
<rect x="160.5" y="110.5" width="9" height="9" rx="4.5" fill="#318B1A" stroke="white"/>
<rect x="215.5" y="185.5" width="14" height="14" rx="7" fill="#318B1A" stroke="white"/>
<rect x="260.5" y="140.5" width="9" height="9" rx="4.5" fill="#318B1A" stroke="white"/>
<rect x="310.5" y="195.5" width="9" height="9" rx="4.5" fill="#318B1A" stroke="white"/>
<rect x="360.5" y="130.5" width="4" height="4" rx="2" fill="#318B1A" stroke="white"/>
<rect x="290.5" y="70.5" width="4" height="4" rx="2" fill="#318B1A" stroke="white"/>
<rect x="330.5" y="240.5" width="9" height="9" rx="4.5" fill="#318B1A" stroke="white"/>
<rect x="420.5" y="260.5" width="9" height="9" rx="4.5" fill="#318B1A" stroke="white"/>
<rect x="390.5" y="180.5" width="6" height="6" rx="3" fill="#318B1A" stroke="white"/>
<rect x="140.5" y="25.5" width="9" height="9" rx="4.5" fill="#318B1A" stroke="white"/>
<rect x="355.5" y="25.5" width="4" height="4" rx="2" fill="#318B1A" stroke="white"/>
<rect x="450.5" y="90.5" width="4" height="4" rx="2" fill="#318B1A" stroke="white"/>
<rect x="460.5" y="190.5" width="4" height="4" rx="2" fill="#318B1A" stroke="white"/>
<rect x="405.5" y="355.5" width="19" height="19" rx="9.5" fill="#318B1A" stroke="white"/>
<rect x="350.5" y="424.5" width="9" height="9" transform="rotate(-90 350.5 424.5)" fill="#A42323" stroke="white"/>
<rect x="240.5" y="439.5" width="6" height="6" transform="rotate(-90 240.5 439.5)" fill="#A42323" stroke="white"/>
<rect x="160.5" y="444.5" width="4" height="4" transform="rotate(-90 160.5 444.5)" fill="#A42323" stroke="white"/>
<rect x="230.5" y="339.5" width="9" height="9" transform="rotate(-90 230.5 339.5)" fill="#A42323" stroke="white"/>
<rect x="170.5" y="289.5" width="9" height="9" transform="rotate(-90 170.5 289.5)" fill="#A42323" stroke="white"/>
<rect x="130.5" y="349.5" width="4" height="4" transform="rotate(-90 130.5 349.5)" fill="#A42323" stroke="white"/>
<rect x="310.5" y="324.5" width="14" height="14" transform="rotate(-90 310.5 324.5)" fill="#A42323" stroke="white"/>
<rect x="70.5" y="104.5" width="19" height="19" transform="rotate(-90 70.5 104.5)" fill="#A42323" stroke="white"/>
<rect x="220.5" y="259.5" width="14" height="14" transform="rotate(-90 220.5 259.5)" fill="#A42323" stroke="white"/>
<rect x="40.5" y="394.5" width="4" height="4" transform="rotate(-90 40.5 394.5)" fill="#A42323" stroke="white"/>
<rect x="90.5" y="269.5" width="6" height="6" transform="rotate(-90 90.5 269.5)" fill="#A42323" stroke="white"/>
<rect x="130.5" y="239.5" width="14" height="14" transform="rotate(-90 130.5 239.5)" fill="#A42323" stroke="white"/>
<rect x="50.5" y="209.5" width="6" height="6" transform="rotate(-90 50.5 209.5)" fill="#A42323" stroke="white"/>
<rect x="370.5" y="389.5" width="19" height="19" transform="rotate(-90 370.5 389.5)" fill="#A42323" stroke="white"/>
<line x1="0.679437" y1="-0.733734" x2="501.178" y2="462.728" stroke="#003E58" stroke-width="2" stroke-dasharray="4 4"/>
<path d="M430.154 463.106C430.051 463.003 430 462.935 430 462.9C430 462.849 430.677 460.107 432.03 454.676C433.384 449.244 434.104 446.408 434.189 446.168C434.566 445.003 435.055 443.984 435.654 443.11C436.254 442.236 436.82 441.602 437.351 441.208C438.31 440.403 439.338 440 440.435 440H440.486C441.549 440 442.423 440.326 443.108 440.977C443.793 441.628 444.136 442.459 444.136 443.47C444.136 445.269 443.245 446.76 441.463 447.942L441.797 448.276C442.671 449.15 443.108 450.272 443.108 451.643C443.108 453.579 442.38 455.181 440.923 456.449C439.467 457.717 437.83 458.36 436.014 458.377C435.5 458.377 435.038 458.308 434.626 458.171C434.215 458.034 433.89 457.871 433.65 457.683C433.41 457.494 433.221 457.297 433.084 457.092C432.947 456.886 432.844 456.723 432.776 456.603C432.707 456.483 432.664 456.432 432.647 456.449L431.002 462.952C430.968 463.055 430.797 463.106 430.488 463.106H430.154ZM438.482 447.042C439.15 447.042 439.784 447.145 440.384 447.351L440.512 447.274C440.581 447.205 440.641 447.145 440.692 447.094C440.743 447.042 440.829 446.957 440.949 446.837C441.069 446.717 441.172 446.597 441.257 446.477C441.343 446.357 441.437 446.203 441.54 446.014C441.643 445.826 441.746 445.62 441.849 445.397C441.951 445.175 442.028 444.926 442.08 444.652C442.131 444.378 442.2 444.069 442.285 443.727C442.32 443.573 442.337 443.29 442.337 442.879C442.337 442.57 442.328 442.373 442.311 442.287C442.054 441.414 441.403 440.977 440.358 440.977C439.638 440.977 438.961 441.182 438.327 441.594C437.693 442.005 437.171 442.527 436.76 443.161C436.348 443.795 436.014 444.378 435.757 444.909C435.5 445.44 435.303 445.946 435.166 446.425C435.08 446.7 434.755 447.959 434.189 450.204C433.624 452.448 433.333 453.648 433.316 453.802C433.298 453.888 433.29 454.067 433.29 454.342C433.29 455.164 433.478 455.841 433.855 456.372C434.386 457.092 435.132 457.452 436.091 457.452C436.811 457.452 437.573 457.237 438.379 456.809C439.184 456.381 439.835 455.644 440.332 454.599C440.606 454.016 440.812 453.356 440.949 452.62C441.086 451.883 441.155 451.326 441.155 450.949C441.155 449.955 440.855 449.158 440.255 448.559C439.535 448.799 438.893 448.919 438.327 448.919H438.07C436.717 448.919 436.04 448.653 436.04 448.122C436.04 448.002 436.066 447.882 436.117 447.762C436.357 447.282 437.145 447.042 438.482 447.042Z" fill="#003E58"/>
<path d="M444.628 453.344C444.41 453.344 444.301 453.271 444.301 453.126C444.301 452.532 444.81 451.823 445.828 451C446.845 450.176 448.202 449.703 449.898 449.582H450.425C450.788 449.57 451.103 449.564 451.37 449.564H451.57C452.248 449.564 452.775 449.576 453.151 449.6C453.526 449.625 453.987 449.703 454.532 449.837C455.077 449.97 455.592 450.182 456.076 450.473C457.276 451.224 457.875 452.332 457.875 453.798C457.875 454.828 457.615 455.815 457.094 456.76C456.573 457.705 455.895 458.522 455.059 459.213C454.223 459.903 453.278 460.479 452.224 460.939C451.17 461.4 450.104 461.708 449.026 461.866C448.65 461.926 447.93 461.963 446.864 461.975C446.718 461.975 446.542 461.975 446.337 461.975C446.131 461.975 445.991 461.981 445.919 461.993C445.483 461.993 445.264 461.92 445.264 461.775C445.264 461.618 445.373 461.442 445.592 461.248C445.81 461.054 446.07 460.909 446.373 460.812L446.573 460.739L446.718 460.376C447.869 457.468 448.596 454.446 448.899 451.308C448.935 450.993 448.935 450.836 448.899 450.836C448.899 450.836 448.881 450.836 448.844 450.836C448.311 450.872 447.863 450.939 447.5 451.036C447.136 451.133 446.857 451.272 446.664 451.454C446.47 451.636 446.349 451.775 446.3 451.872C446.252 451.969 446.191 452.114 446.118 452.308C446.106 452.332 446.088 452.374 446.064 452.435C446.04 452.496 446.022 452.538 446.009 452.562C445.876 452.756 445.676 452.926 445.41 453.071C445.143 453.216 444.883 453.307 444.628 453.344ZM456.04 454.579C456.04 452.29 454.508 451.042 451.443 450.836C451.334 450.824 451.158 450.818 450.916 450.818C450.758 450.818 450.679 450.83 450.679 450.854C450.679 451.024 450.637 451.448 450.552 452.126C450.467 452.805 450.225 453.925 449.825 455.488C449.426 457.051 448.935 458.589 448.354 460.103L448.099 460.721H448.771C450.298 460.673 451.606 460.37 452.696 459.813C453.363 459.461 453.932 459.043 454.405 458.559C454.877 458.074 455.228 457.59 455.458 457.105C455.689 456.62 455.84 456.197 455.913 455.833C455.985 455.47 456.028 455.143 456.04 454.852V454.579Z" fill="#003E58"/>
<path d="M458.311 459.302C458.765 459.267 459.116 459.027 459.364 458.582C459.613 458.136 459.75 457.614 459.776 457.014V456.821H460.29V459.186H462.025V459.777H460.29V461.628C460.298 462.698 460.303 463.302 460.303 463.44C460.303 463.577 460.333 463.714 460.392 463.851C460.512 464.185 460.722 464.352 461.022 464.352C461.399 464.352 461.63 464.048 461.716 463.44C461.725 463.371 461.729 463.174 461.729 462.848V462.399H462.243V462.848V463.003C462.243 463.662 462.063 464.163 461.703 464.506C461.472 464.737 461.172 464.853 460.804 464.853C460.512 464.853 460.26 464.802 460.045 464.699C459.831 464.596 459.669 464.463 459.557 464.301C459.446 464.138 459.364 463.988 459.313 463.851C459.262 463.714 459.232 463.577 459.223 463.44C459.214 463.38 459.21 462.746 459.21 461.538V459.777H458.195V459.302H458.311Z" fill="#003E58"/>
<path d="M463.425 464.134H463.605C463.939 464.134 464.141 464.074 464.209 463.954V463.851C464.209 463.774 464.209 463.676 464.209 463.556C464.209 463.436 464.213 463.303 464.222 463.157C464.231 463.012 464.231 462.845 464.222 462.656C464.213 462.468 464.213 462.288 464.222 462.116C464.222 461.851 464.222 461.568 464.222 461.268C464.222 460.968 464.222 460.716 464.222 460.51L464.209 460.214C464.183 460.052 464.123 459.945 464.029 459.893C463.935 459.842 463.742 459.803 463.451 459.778H463.22V459.482C463.22 459.285 463.228 459.186 463.245 459.186L463.374 459.174C463.459 459.165 463.579 459.156 463.734 459.148C463.888 459.139 464.042 459.131 464.196 459.122C464.333 459.114 464.483 459.105 464.646 459.096C464.809 459.088 464.933 459.075 465.019 459.058C465.104 459.041 465.152 459.036 465.16 459.045H465.199V459.932C465.533 459.349 465.948 459.058 466.445 459.058H466.522C466.908 459.058 467.191 459.152 467.37 459.341C467.55 459.529 467.64 459.726 467.64 459.932C467.64 460.112 467.585 460.266 467.473 460.394C467.362 460.523 467.199 460.587 466.985 460.587C466.771 460.587 466.612 460.519 466.509 460.382C466.407 460.244 466.351 460.099 466.342 459.945C466.342 459.867 466.351 459.799 466.368 459.739C466.385 459.679 466.407 459.628 466.432 459.585C466.458 459.542 466.471 459.52 466.471 459.52C466.454 459.503 466.355 459.52 466.175 459.572C466.038 459.64 465.935 459.705 465.867 459.765C465.464 460.15 465.263 460.917 465.263 462.065V462.746C465.263 462.857 465.263 462.973 465.263 463.093C465.263 463.213 465.263 463.324 465.263 463.427C465.263 463.53 465.267 463.616 465.276 463.684C465.284 463.753 465.284 463.817 465.276 463.877V463.941C465.284 463.958 465.297 463.975 465.314 463.993C465.331 464.01 465.353 464.023 465.379 464.031C465.404 464.04 465.426 464.053 465.443 464.07C465.46 464.087 465.49 464.095 465.533 464.095C465.576 464.095 465.606 464.1 465.623 464.108C465.64 464.117 465.678 464.121 465.738 464.121C465.798 464.121 465.837 464.121 465.854 464.121C465.871 464.121 465.914 464.125 465.983 464.134C466.051 464.143 466.094 464.143 466.111 464.134H466.509V464.725H466.394C466.24 464.699 465.696 464.687 464.762 464.687C463.879 464.687 463.4 464.699 463.322 464.725H463.22V464.134H463.425Z" fill="#003E58"/>
<path d="M469.774 460.806C469.774 460.806 469.679 460.806 469.491 460.806C469.302 460.806 469.144 460.741 469.015 460.613C468.887 460.484 468.823 460.317 468.823 460.112C468.823 459.812 468.968 459.546 469.26 459.315C469.551 459.084 470.069 458.968 470.814 458.968C471.44 458.968 471.945 459.105 472.331 459.379C472.716 459.653 472.973 459.979 473.102 460.356C473.145 460.476 473.166 460.609 473.166 460.754C473.166 460.9 473.17 461.392 473.179 462.232V463.132C473.179 463.543 473.2 463.826 473.243 463.98C473.286 464.134 473.376 464.211 473.513 464.211C473.642 464.211 473.727 464.143 473.77 464.005C473.813 463.868 473.834 463.641 473.834 463.324V462.862H474.348V463.363C474.34 463.706 474.327 463.907 474.31 463.967C474.233 464.224 474.083 464.425 473.86 464.571C473.637 464.717 473.402 464.794 473.153 464.802C472.905 464.811 472.704 464.734 472.549 464.571C472.395 464.408 472.292 464.228 472.241 464.031V463.98L472.215 464.018C472.198 464.044 472.177 464.07 472.151 464.095C472.125 464.121 472.091 464.16 472.048 464.211C472.005 464.262 471.954 464.31 471.894 464.352C471.834 464.395 471.77 464.447 471.701 464.507C471.633 464.567 471.556 464.614 471.47 464.648C471.384 464.682 471.29 464.717 471.187 464.751C471.084 464.785 470.973 464.811 470.853 464.828C470.733 464.845 470.6 464.858 470.455 464.866C469.941 464.866 469.478 464.734 469.067 464.468C468.656 464.202 468.45 463.83 468.45 463.35C468.45 463.17 468.48 462.999 468.54 462.836C468.6 462.673 468.715 462.498 468.887 462.309C469.058 462.121 469.264 461.962 469.504 461.834C469.744 461.705 470.078 461.585 470.506 461.474C470.934 461.362 471.406 461.298 471.92 461.281H472.1V460.998C472.1 460.707 472.074 460.493 472.022 460.356C471.834 459.748 471.418 459.443 470.776 459.443C470.622 459.443 470.476 459.448 470.339 459.456C470.202 459.465 470.095 459.482 470.018 459.508C469.941 459.533 469.906 459.546 469.915 459.546C470.103 459.675 470.198 459.863 470.198 460.112C470.198 460.326 470.129 460.493 469.992 460.613L469.774 460.806ZM469.632 463.363C469.632 463.628 469.735 463.864 469.941 464.07C470.146 464.275 470.399 464.382 470.699 464.391C471.024 464.391 471.311 464.292 471.56 464.095C471.808 463.898 471.975 463.641 472.061 463.324C472.078 463.264 472.091 462.982 472.1 462.476C472.1 461.979 472.095 461.731 472.087 461.731C472.018 461.731 471.928 461.735 471.817 461.744C471.705 461.752 471.513 461.791 471.239 461.859C470.964 461.928 470.716 462.014 470.493 462.116C470.27 462.219 470.073 462.378 469.902 462.592C469.731 462.806 469.641 463.063 469.632 463.363Z" fill="#003E58"/>
<path d="M475.325 456.899C475.325 456.659 475.402 456.471 475.556 456.333C475.711 456.196 475.899 456.128 476.122 456.128C476.319 456.145 476.49 456.218 476.636 456.346C476.782 456.475 476.854 456.659 476.854 456.899C476.854 457.156 476.782 457.349 476.636 457.477C476.49 457.606 476.31 457.67 476.096 457.67C475.882 457.67 475.702 457.606 475.556 457.477C475.411 457.349 475.334 457.156 475.325 456.899ZM477.613 464.725C477.484 464.699 477.039 464.687 476.276 464.687C476.182 464.687 476.023 464.687 475.801 464.687C475.578 464.687 475.364 464.695 475.158 464.712L474.875 464.725H474.773V464.134H474.978C475.218 464.134 475.428 464.121 475.608 464.095C475.685 464.061 475.732 464.014 475.749 463.954C475.766 463.894 475.775 463.714 475.775 463.414V462.091V460.96C475.775 460.514 475.766 460.232 475.749 460.112C475.732 459.992 475.672 459.91 475.569 459.867C475.449 459.808 475.248 459.778 474.965 459.778H474.824V459.482C474.824 459.285 474.833 459.186 474.85 459.186L474.978 459.174C475.064 459.165 475.184 459.156 475.338 459.148C475.492 459.139 475.646 459.131 475.801 459.122C475.946 459.114 476.101 459.105 476.263 459.096C476.426 459.088 476.55 459.075 476.636 459.058C476.722 459.041 476.769 459.036 476.777 459.045H476.816V463.928C476.859 464.014 476.91 464.065 476.97 464.083C477.03 464.1 477.18 464.117 477.42 464.134H477.715V464.725H477.613Z" fill="#003E58"/>
<path d="M478.551 464.134H478.731C479.065 464.134 479.266 464.074 479.335 463.954V463.851C479.335 463.774 479.335 463.676 479.335 463.556C479.335 463.436 479.335 463.303 479.335 463.157C479.335 463.012 479.339 462.845 479.348 462.656C479.356 462.468 479.356 462.288 479.348 462.116C479.348 461.851 479.348 461.568 479.348 461.268C479.348 460.968 479.343 460.716 479.335 460.51V460.214C479.309 460.052 479.249 459.945 479.155 459.893C479.061 459.842 478.868 459.803 478.577 459.778H478.345V459.482C478.345 459.285 478.354 459.186 478.371 459.186L478.499 459.174C478.585 459.165 478.705 459.156 478.859 459.148C479.013 459.139 479.172 459.131 479.335 459.122C479.48 459.114 479.635 459.105 479.797 459.096C479.96 459.088 480.084 459.075 480.17 459.058C480.256 459.041 480.303 459.036 480.311 459.045H480.35V459.559C480.35 459.885 480.354 460.047 480.363 460.047C480.371 460.047 480.393 460.026 480.427 459.983C480.461 459.94 480.513 459.876 480.581 459.79C480.65 459.705 480.731 459.628 480.825 459.559C480.92 459.491 481.044 459.409 481.198 459.315C481.352 459.221 481.515 459.152 481.686 459.109C481.858 459.066 482.076 459.045 482.342 459.045C483.318 459.079 483.863 459.563 483.974 460.497C483.982 460.557 483.987 461.153 483.987 462.283V463.389C483.987 463.714 483.995 463.907 484.012 463.967C484.03 464.027 484.077 464.07 484.154 464.095C484.334 464.121 484.544 464.134 484.783 464.134H484.989V464.725H484.886L484.578 464.712C484.381 464.704 484.167 464.699 483.935 464.699C483.704 464.699 483.541 464.695 483.447 464.687C482.565 464.687 482.085 464.699 482.008 464.725H481.905V464.134H482.111C482.633 464.134 482.894 464.065 482.894 463.928C482.903 463.911 482.907 463.32 482.907 462.155C482.899 460.998 482.89 460.386 482.882 460.317C482.83 460.077 482.744 459.897 482.625 459.778C482.505 459.658 482.402 459.585 482.316 459.559C482.23 459.533 482.119 459.525 481.982 459.533C481.596 459.533 481.258 459.679 480.967 459.97C480.735 460.202 480.59 460.437 480.53 460.677C480.47 460.917 480.436 461.273 480.427 461.744V462.566V463.337C480.427 463.594 480.431 463.766 480.44 463.851C480.448 463.937 480.461 463.993 480.478 464.018C480.496 464.044 480.534 464.07 480.594 464.095C480.774 464.121 480.984 464.134 481.224 464.134H481.429V464.725H481.327L481.031 464.712C480.825 464.704 480.607 464.699 480.376 464.699C480.144 464.699 479.982 464.695 479.887 464.687C479.005 464.687 478.525 464.699 478.448 464.725H478.345V464.134H478.551Z" fill="#003E58"/>
</g>
<defs>
<clipPath id="clip0">
<rect width="500" height="500" fill="white"/>
</clipPath>
</defs>
</svg>
