<svg width="960" height="380" viewBox="0 0 960 380" fill="none" xmlns="http://www.w3.org/2000/svg">
<g clip-path="url(#clip0)">
<path d="M139.934 106.418L129.934 100.644L129.934 112.191L139.934 106.418ZM44.9343 106.418L44.9343 105.418L43.9343 105.418L43.9343 106.418L44.9343 106.418ZM45.9343 206.418L45.9343 106.418L43.9343 106.418L43.9343 206.418L45.9343 206.418ZM44.9343 107.418L130.934 107.418L130.934 105.418L44.9343 105.418L44.9343 107.418Z" fill="black"/>
<path d="M350 106.418L340 100.644L340 112.191L350 106.418ZM225 107.418L341 107.418L341 105.418L225 105.418L225 107.418Z" fill="black"/>
<path d="M350 305.418L340 299.644L340 311.191L350 305.418ZM225 306.418L341 306.418L341 304.418L225 304.418L225 306.418Z" fill="black"/>
<path d="M139.934 306.98L129.934 312.754L129.934 301.207L139.934 306.98ZM44.9343 306.98L44.9343 307.98L43.9343 307.98L43.9343 306.98L44.9343 306.98ZM45.9343 206.98L45.9343 306.98L43.9343 306.98L43.9343 206.98L45.9343 206.98ZM44.9343 305.98L130.934 305.98L130.934 307.98L44.9343 307.98L44.9343 305.98Z" fill="black"/>
<path d="M495 180L489.226 170L500.773 170L495 180ZM495 106.418L495 105.418L496 105.418L496 106.418L495 106.418ZM494 171L494 106.418L496 106.418L496 171L494 171ZM495 107.418L400 107.418L400 105.418L495 105.418L495 107.418Z" fill="black"/>
<path d="M495 230L489.226 240L500.773 240L495 230ZM495 306.98L495 307.98L496 307.98L496 306.98L495 306.98ZM494 239L494 306.98L496 306.98L496 239L494 239ZM495 305.98L400 305.98L400 307.98L495 307.98L495 305.98Z" fill="black"/>
<path d="M219 213.685C219 213.334 219.124 213.027 219.373 212.764C219.621 212.501 219.935 212.369 220.315 212.369C220.666 212.369 220.973 212.486 221.236 212.72C221.499 212.954 221.638 213.268 221.653 213.663C221.653 214.028 221.528 214.342 221.28 214.605C221.031 214.868 220.717 215 220.337 215C219.957 215 219.643 214.876 219.395 214.627C219.146 214.379 219.015 214.065 219 213.685ZM219 204.696C219 204.345 219.124 204.038 219.373 203.775C219.621 203.512 219.935 203.38 220.315 203.38C220.666 203.38 220.973 203.497 221.236 203.731C221.499 203.965 221.638 204.279 221.653 204.674C221.653 205.039 221.528 205.353 221.28 205.616C221.031 205.879 220.717 206.011 220.337 206.011C219.957 206.011 219.643 205.887 219.395 205.638C219.146 205.39 219.015 205.076 219 204.696ZM219 195.926C219 195.575 219.124 195.268 219.373 195.005C219.621 194.742 219.935 194.61 220.315 194.61C220.666 194.61 220.973 194.727 221.236 194.961C221.499 195.195 221.638 195.509 221.653 195.904C221.653 196.269 221.528 196.584 221.28 196.847C221.031 197.11 220.717 197.241 220.337 197.241C219.957 197.241 219.643 197.117 219.395 196.869C219.146 196.62 219.015 196.306 219 195.926Z" fill="black"/>
<path d="M384 213.685C384 213.334 384.124 213.027 384.373 212.764C384.621 212.501 384.935 212.369 385.315 212.369C385.666 212.369 385.973 212.486 386.236 212.72C386.499 212.954 386.638 213.268 386.653 213.663C386.653 214.028 386.528 214.342 386.28 214.605C386.031 214.868 385.717 215 385.337 215C384.957 215 384.643 214.876 384.395 214.627C384.146 214.379 384.015 214.065 384 213.685ZM384 204.696C384 204.345 384.124 204.038 384.373 203.775C384.621 203.512 384.935 203.38 385.315 203.38C385.666 203.38 385.973 203.497 386.236 203.731C386.499 203.965 386.638 204.279 386.653 204.674C386.653 205.039 386.528 205.353 386.28 205.616C386.031 205.879 385.717 206.011 385.337 206.011C384.957 206.011 384.643 205.887 384.395 205.638C384.146 205.39 384.015 205.076 384 204.696ZM384 195.926C384 195.575 384.124 195.268 384.373 195.005C384.621 194.742 384.935 194.61 385.315 194.61C385.666 194.61 385.973 194.727 386.236 194.961C386.499 195.195 386.638 195.509 386.653 195.904C386.653 196.269 386.528 196.584 386.28 196.847C386.031 197.11 385.717 197.241 385.337 197.241C384.957 197.241 384.643 197.117 384.395 196.869C384.146 196.62 384.015 196.306 384 195.926Z" fill="black"/>
<rect x="140" y="80" width="160" height="50" rx="10" fill="#9BCC8F"/>
<path d="M157.351 115.284H157.307C157.102 115.284 157 115.204 157 115.043C157 114.985 157.022 114.868 157.066 114.692C157.124 114.488 157.175 114.371 157.219 114.342C157.263 114.312 157.402 114.29 157.636 114.276C158.893 114.232 159.879 113.852 160.595 113.136C160.741 112.99 161.589 112.069 163.138 110.373C164.687 108.678 165.455 107.815 165.44 107.786C163.847 103.723 163.014 101.655 162.941 101.582C162.809 101.421 162.349 101.333 161.56 101.319H160.946C160.858 101.231 160.814 101.172 160.814 101.143C160.814 101.114 160.829 100.975 160.858 100.727C160.917 100.537 160.99 100.398 161.077 100.31H161.384C161.881 100.339 162.765 100.354 164.037 100.354C164.519 100.354 164.965 100.354 165.374 100.354C165.783 100.354 166.112 100.347 166.361 100.332C166.609 100.317 166.755 100.317 166.799 100.332C167.048 100.332 167.172 100.412 167.172 100.573C167.172 100.588 167.157 100.683 167.128 100.858C167.069 101.077 167.018 101.209 166.974 101.253C166.931 101.297 166.814 101.319 166.624 101.319C166.171 101.362 165.776 101.487 165.44 101.691L167.128 105.945L168.29 104.651C169.824 102.999 170.592 102.086 170.592 101.911C170.592 101.647 170.416 101.465 170.065 101.362C169.992 101.362 169.897 101.348 169.781 101.319C169.561 101.319 169.452 101.238 169.452 101.077C169.452 101.048 169.466 100.931 169.496 100.727C169.554 100.537 169.627 100.398 169.715 100.31H169.978C169.992 100.31 170.175 100.31 170.526 100.31C170.877 100.31 171.271 100.325 171.71 100.354C172.148 100.383 172.448 100.39 172.608 100.376C173.924 100.376 174.647 100.354 174.779 100.31H174.954C175.056 100.412 175.108 100.493 175.108 100.551C175.078 100.917 174.991 101.172 174.844 101.319H174.494C173.997 101.333 173.551 101.399 173.156 101.516C172.762 101.633 172.462 101.757 172.258 101.889C172.053 102.02 171.878 102.152 171.732 102.283L171.49 102.481C171.49 102.466 170.796 103.226 169.408 104.761L167.501 106.865C167.501 106.88 167.727 107.465 168.18 108.619C168.633 109.774 169.108 110.958 169.605 112.171C170.102 113.384 170.372 114.013 170.416 114.057C170.562 114.188 171.008 114.261 171.753 114.276C172.265 114.276 172.521 114.342 172.521 114.473C172.521 114.502 172.506 114.605 172.477 114.78C172.418 115.014 172.367 115.153 172.323 115.197C172.28 115.241 172.177 115.262 172.017 115.262C171.973 115.262 171.732 115.262 171.293 115.262C170.855 115.262 170.204 115.255 169.342 115.241C168.451 115.241 167.771 115.241 167.303 115.241C166.836 115.241 166.58 115.248 166.536 115.262C166.288 115.262 166.163 115.197 166.163 115.065C166.163 115.051 166.178 114.941 166.207 114.736C166.236 114.59 166.266 114.488 166.295 114.429C166.324 114.371 166.361 114.334 166.405 114.32C166.448 114.305 166.514 114.29 166.602 114.276C166.69 114.261 166.806 114.254 166.953 114.254C167.099 114.254 167.289 114.203 167.523 114.1C167.771 113.984 167.895 113.91 167.895 113.881C167.881 113.881 167.537 113.026 166.865 111.316L165.835 108.729C163.087 111.711 161.677 113.282 161.604 113.443C161.545 113.56 161.516 113.647 161.516 113.706C161.516 113.984 161.728 114.166 162.152 114.254C162.166 114.254 162.21 114.254 162.283 114.254C162.356 114.254 162.4 114.261 162.415 114.276C162.459 114.276 162.488 114.276 162.502 114.276C162.517 114.276 162.539 114.283 162.568 114.298C162.597 114.312 162.619 114.334 162.634 114.364C162.649 114.393 162.656 114.444 162.656 114.517C162.656 114.649 162.641 114.765 162.612 114.868C162.568 115.058 162.524 115.167 162.48 115.197C162.437 115.226 162.327 115.248 162.152 115.262C162.108 115.262 161.976 115.262 161.757 115.262C161.538 115.262 161.231 115.255 160.836 115.241C160.442 115.226 160.011 115.226 159.543 115.241C158.403 115.241 157.672 115.255 157.351 115.284Z" fill="black"/>
<path d="M164.936 96.3854L165.221 95.9689L165.418 95.6619C165.447 95.6619 165.864 95.8958 166.667 96.3635C167.471 96.8166 167.888 97.0432 167.917 97.0432L169.145 96.3635C169.948 95.8958 170.365 95.6619 170.394 95.6619L170.876 96.3854L169.408 97.4597L167.895 98.534L164.936 96.3854Z" fill="black"/>
<path d="M176.564 97.7503C176.564 97.0372 176.616 96.3604 176.719 95.7197C176.823 95.079 176.942 94.5262 177.076 94.0611C177.21 93.5961 177.401 93.1414 177.649 92.6971C177.897 92.2527 178.094 91.9066 178.238 91.6586C178.383 91.4106 178.6 91.1419 178.889 90.8525C179.179 90.5632 179.349 90.3875 179.401 90.3255C179.452 90.2635 179.581 90.155 179.788 90H179.99H180.052C180.196 90 180.269 90.0465 180.269 90.1395C180.269 90.1705 180.181 90.279 180.005 90.465C179.829 90.651 179.618 90.9249 179.37 91.2865C179.122 91.6482 178.869 92.0926 178.61 92.6196C178.352 93.1466 178.135 93.8596 177.959 94.7587C177.784 95.6577 177.696 96.6549 177.696 97.7503C177.696 98.8456 177.784 99.8377 177.959 100.726C178.135 101.615 178.347 102.333 178.595 102.881C178.843 103.429 179.096 103.873 179.354 104.214C179.612 104.555 179.829 104.829 180.005 105.036C180.181 105.242 180.269 105.351 180.269 105.361C180.269 105.454 180.191 105.501 180.036 105.501H179.99H179.788L179.354 105.129C178.383 104.25 177.675 103.155 177.231 101.842C176.787 100.53 176.564 99.166 176.564 97.7503Z" fill="black"/>
<path d="M184.438 92.6661L184.237 92.7436C184.092 92.7952 183.885 92.8469 183.617 92.8986C183.348 92.9502 183.048 92.9864 182.718 93.0071H182.423V92.2941H182.718C183.203 92.2734 183.653 92.1959 184.066 92.0615C184.479 91.9272 184.769 91.8032 184.934 91.6895C185.099 91.5759 185.244 91.4622 185.368 91.3485C185.389 91.3175 185.451 91.302 185.554 91.302C185.647 91.302 185.735 91.333 185.817 91.395V96.0297L185.833 100.68C185.905 100.752 185.967 100.799 186.019 100.819C186.071 100.84 186.195 100.861 186.391 100.881C186.587 100.902 186.908 100.912 187.352 100.912H187.755V101.625H187.584C187.367 101.594 186.546 101.579 185.12 101.579C183.715 101.579 182.904 101.594 182.687 101.625H182.501V100.912H182.904C183.131 100.912 183.327 100.912 183.493 100.912C183.658 100.912 183.787 100.907 183.88 100.897C183.973 100.887 184.056 100.871 184.128 100.85C184.2 100.83 184.242 100.819 184.252 100.819C184.262 100.819 184.293 100.794 184.345 100.742C184.397 100.69 184.428 100.67 184.438 100.68V92.6661Z" fill="black"/>
<path d="M189.831 90.0155L189.893 90C189.945 90 189.997 90 190.048 90H190.234L190.668 90.372C191.64 91.2504 192.347 92.3457 192.792 93.6581C193.236 94.9705 193.458 96.3345 193.458 97.7503C193.458 98.453 193.406 99.1298 193.303 99.7808C193.2 100.432 193.081 100.985 192.947 101.439C192.812 101.894 192.621 102.349 192.373 102.803C192.125 103.258 191.929 103.604 191.784 103.842C191.64 104.08 191.428 104.343 191.149 104.632C190.87 104.922 190.704 105.092 190.653 105.144C190.601 105.196 190.482 105.294 190.296 105.439C190.265 105.47 190.245 105.49 190.234 105.501H190.048C189.966 105.501 189.909 105.501 189.878 105.501C189.847 105.501 189.821 105.485 189.8 105.454C189.78 105.423 189.764 105.377 189.754 105.315C189.764 105.304 189.821 105.237 189.924 105.113C191.526 103.449 192.327 100.995 192.327 97.7503C192.327 94.5055 191.526 92.0512 189.924 90.3875C189.821 90.2635 189.764 90.1963 189.754 90.186C189.754 90.1033 189.78 90.0465 189.831 90.0155Z" fill="black"/>
<path d="M178.408 111.75L178.206 111.828C178.061 111.879 177.855 111.931 177.586 111.983C177.318 112.034 177.018 112.07 176.687 112.091H176.393V111.378H176.687C177.173 111.357 177.622 111.28 178.036 111.146C178.449 111.011 178.738 110.887 178.904 110.774C179.069 110.66 179.214 110.546 179.338 110.433C179.358 110.402 179.42 110.386 179.524 110.386C179.617 110.386 179.704 110.417 179.787 110.479V115.114L179.802 119.764C179.875 119.836 179.937 119.883 179.988 119.903C180.04 119.924 180.164 119.945 180.36 119.965C180.557 119.986 180.877 119.996 181.321 119.996H181.724V120.709H181.554C181.337 120.678 180.515 120.663 179.09 120.663C177.684 120.663 176.873 120.678 176.656 120.709H176.47V119.996H176.873C177.101 119.996 177.297 119.996 177.462 119.996C177.627 119.996 177.757 119.991 177.85 119.981C177.943 119.971 178.025 119.955 178.098 119.934C178.17 119.914 178.211 119.903 178.222 119.903C178.232 119.903 178.263 119.878 178.315 119.826C178.366 119.774 178.397 119.754 178.408 119.764V111.75Z" fill="black"/>
<path d="M198.849 114.517C198.849 114.517 198.849 114.334 198.849 113.969C198.849 113.603 198.966 113.289 199.2 113.026C199.434 112.763 199.748 112.631 200.143 112.631C200.552 112.631 200.917 112.814 201.239 113.179C201.56 113.545 201.728 114.188 201.743 115.109C201.743 115.62 201.677 116.117 201.546 116.6C201.414 117.082 201.261 117.499 201.085 117.849C200.91 118.2 200.72 118.5 200.515 118.748C200.311 118.997 200.135 119.194 199.989 119.34C199.843 119.486 199.748 119.552 199.704 119.538C199.646 119.538 199.551 119.472 199.419 119.34C199.288 119.209 199.222 119.114 199.222 119.055C199.222 118.997 199.302 118.88 199.463 118.704C199.624 118.529 199.806 118.31 200.011 118.047C200.216 117.784 200.406 117.418 200.581 116.95C200.756 116.483 200.873 115.949 200.932 115.35V115.087L200.91 115.109C200.881 115.123 200.844 115.138 200.8 115.153C200.756 115.167 200.713 115.189 200.669 115.218C200.625 115.248 200.559 115.262 200.471 115.262C200.384 115.262 200.296 115.27 200.208 115.284C199.814 115.284 199.492 115.16 199.244 114.911L198.849 114.517Z" fill="black"/>
<path d="M208.604 113.969C208.604 113.618 208.728 113.311 208.977 113.048C209.225 112.785 209.539 112.653 209.919 112.653C210.27 112.653 210.577 112.77 210.84 113.004C211.103 113.238 211.242 113.552 211.257 113.947C211.257 114.312 211.132 114.627 210.884 114.89C210.635 115.153 210.321 115.284 209.941 115.284C209.561 115.284 209.247 115.16 208.999 114.912C208.75 114.663 208.619 114.349 208.604 113.969ZM218.403 113.969C218.403 113.618 218.527 113.311 218.776 113.048C219.024 112.785 219.338 112.653 219.718 112.653C220.069 112.653 220.376 112.77 220.639 113.004C220.902 113.238 221.041 113.552 221.056 113.947C221.056 114.312 220.931 114.627 220.683 114.89C220.435 115.153 220.12 115.284 219.74 115.284C219.36 115.284 219.046 115.16 218.798 114.912C218.549 114.663 218.418 114.349 218.403 113.969ZM228.202 113.969C228.202 113.618 228.326 113.311 228.575 113.048C228.823 112.785 229.138 112.653 229.518 112.653C229.868 112.653 230.175 112.77 230.438 113.004C230.701 113.238 230.84 113.552 230.855 113.947C230.855 114.312 230.731 114.627 230.482 114.89C230.234 115.153 229.919 115.284 229.539 115.284C229.16 115.284 228.845 115.16 228.597 114.912C228.348 114.663 228.217 114.349 228.202 113.969Z" fill="black"/>
<path d="M237.958 114.517C237.958 114.517 237.958 114.334 237.958 113.969C237.958 113.603 238.075 113.289 238.309 113.026C238.542 112.763 238.857 112.631 239.251 112.631C239.66 112.631 240.026 112.814 240.347 113.179C240.669 113.545 240.837 114.188 240.852 115.109C240.852 115.62 240.786 116.117 240.654 116.6C240.523 117.082 240.369 117.499 240.194 117.849C240.019 118.2 239.829 118.5 239.624 118.748C239.419 118.997 239.244 119.194 239.098 119.34C238.952 119.486 238.857 119.552 238.813 119.538C238.754 119.538 238.659 119.472 238.528 119.34C238.396 119.209 238.331 119.114 238.331 119.055C238.331 118.997 238.411 118.88 238.572 118.704C238.732 118.529 238.915 118.31 239.12 118.047C239.324 117.784 239.514 117.418 239.69 116.95C239.865 116.483 239.982 115.949 240.04 115.35V115.087L240.019 115.109C239.989 115.123 239.953 115.138 239.909 115.153C239.865 115.167 239.821 115.189 239.777 115.218C239.734 115.248 239.668 115.262 239.58 115.262C239.492 115.262 239.405 115.27 239.317 115.284C238.922 115.284 238.601 115.16 238.352 114.911L237.958 114.517Z" fill="black"/>
<path d="M246.924 115.284H246.88C246.676 115.284 246.573 115.204 246.573 115.043C246.573 114.985 246.595 114.868 246.639 114.692C246.697 114.488 246.749 114.371 246.792 114.342C246.836 114.312 246.975 114.29 247.209 114.276C248.466 114.232 249.452 113.852 250.168 113.136C250.315 112.99 251.162 112.069 252.711 110.373C254.261 108.678 255.028 107.815 255.013 107.786C253.42 103.723 252.587 101.655 252.514 101.582C252.383 101.421 251.922 101.333 251.133 101.319H250.519C250.431 101.231 250.388 101.172 250.388 101.143C250.388 101.114 250.402 100.975 250.431 100.727C250.49 100.537 250.563 100.398 250.651 100.31H250.958C251.455 100.339 252.339 100.354 253.61 100.354C254.092 100.354 254.538 100.354 254.947 100.354C255.357 100.354 255.685 100.347 255.934 100.332C256.182 100.317 256.328 100.317 256.372 100.332C256.621 100.332 256.745 100.412 256.745 100.573C256.745 100.588 256.73 100.683 256.701 100.858C256.643 101.077 256.592 101.209 256.548 101.253C256.504 101.297 256.387 101.319 256.197 101.319C255.744 101.362 255.349 101.487 255.013 101.691L256.701 105.945L257.863 104.651C259.398 102.999 260.165 102.086 260.165 101.911C260.165 101.647 259.989 101.465 259.639 101.362C259.566 101.362 259.471 101.348 259.354 101.319C259.134 101.319 259.025 101.238 259.025 101.077C259.025 101.048 259.039 100.931 259.069 100.727C259.127 100.537 259.2 100.398 259.288 100.31H259.551C259.566 100.31 259.748 100.31 260.099 100.31C260.45 100.31 260.844 100.325 261.283 100.354C261.721 100.383 262.021 100.39 262.182 100.376C263.497 100.376 264.22 100.354 264.352 100.31H264.527C264.63 100.412 264.681 100.493 264.681 100.551C264.652 100.917 264.564 101.172 264.418 101.319H264.067C263.57 101.333 263.124 101.399 262.73 101.516C262.335 101.633 262.036 101.757 261.831 101.889C261.626 102.02 261.451 102.152 261.305 102.283L261.064 102.481C261.064 102.466 260.369 103.226 258.981 104.761L257.074 106.865C257.074 106.88 257.3 107.465 257.753 108.619C258.206 109.774 258.681 110.958 259.178 112.171C259.675 113.384 259.946 114.013 259.989 114.057C260.136 114.188 260.581 114.261 261.327 114.276C261.838 114.276 262.094 114.342 262.094 114.473C262.094 114.502 262.079 114.605 262.05 114.78C261.992 115.014 261.941 115.153 261.897 115.197C261.853 115.241 261.751 115.262 261.59 115.262C261.546 115.262 261.305 115.262 260.866 115.262C260.428 115.262 259.778 115.255 258.915 115.241C258.024 115.241 257.344 115.241 256.877 115.241C256.409 115.241 256.153 115.248 256.109 115.262C255.861 115.262 255.737 115.197 255.737 115.065C255.737 115.051 255.751 114.941 255.78 114.736C255.81 114.59 255.839 114.488 255.868 114.429C255.897 114.371 255.934 114.334 255.978 114.32C256.022 114.305 256.087 114.29 256.175 114.276C256.263 114.261 256.38 114.254 256.526 114.254C256.672 114.254 256.862 114.203 257.096 114.1C257.344 113.984 257.468 113.91 257.468 113.881C257.454 113.881 257.11 113.026 256.438 111.316L255.408 108.729C252.66 111.711 251.25 113.282 251.177 113.443C251.118 113.56 251.089 113.647 251.089 113.706C251.089 113.984 251.301 114.166 251.725 114.254C251.739 114.254 251.783 114.254 251.856 114.254C251.929 114.254 251.973 114.261 251.988 114.276C252.032 114.276 252.061 114.276 252.076 114.276C252.09 114.276 252.112 114.283 252.141 114.298C252.171 114.312 252.193 114.334 252.207 114.364C252.222 114.393 252.229 114.444 252.229 114.517C252.229 114.649 252.214 114.765 252.185 114.868C252.141 115.058 252.098 115.167 252.054 115.197C252.01 115.226 251.9 115.248 251.725 115.262C251.681 115.262 251.549 115.262 251.33 115.262C251.111 115.262 250.804 115.255 250.41 115.241C250.015 115.226 249.584 115.226 249.116 115.241C247.976 115.241 247.245 115.255 246.924 115.284Z" fill="black"/>
<path d="M254.509 96.3854L254.794 95.9689L254.991 95.6619C255.02 95.6619 255.437 95.8958 256.241 96.3635C257.044 96.8166 257.461 97.0432 257.49 97.0432L258.718 96.3635C259.522 95.8958 259.938 95.6619 259.967 95.6619L260.45 96.3854L258.981 97.4597L257.468 98.534L254.509 96.3854Z" fill="black"/>
<path d="M266.138 97.7503C266.138 97.0372 266.189 96.3604 266.293 95.7197C266.396 95.079 266.515 94.5262 266.649 94.0611C266.783 93.5961 266.975 93.1414 267.222 92.6971C267.47 92.2527 267.667 91.9066 267.811 91.6586C267.956 91.4106 268.173 91.1419 268.462 90.8525C268.752 90.5632 268.922 90.3875 268.974 90.3255C269.026 90.2635 269.155 90.155 269.361 90H269.563H269.625C269.769 90 269.842 90.0465 269.842 90.1395C269.842 90.1705 269.754 90.279 269.578 90.465C269.403 90.651 269.191 90.9249 268.943 91.2865C268.695 91.6482 268.442 92.0926 268.183 92.6196C267.925 93.1466 267.708 93.8596 267.532 94.7587C267.357 95.6577 267.269 96.6549 267.269 97.7503C267.269 98.8456 267.357 99.8377 267.532 100.726C267.708 101.615 267.92 102.333 268.168 102.881C268.416 103.429 268.669 103.873 268.927 104.214C269.186 104.555 269.403 104.829 269.578 105.036C269.754 105.242 269.842 105.351 269.842 105.361C269.842 105.454 269.764 105.501 269.609 105.501H269.563H269.361L268.927 105.129C267.956 104.25 267.248 103.155 266.804 101.842C266.36 100.53 266.138 99.166 266.138 97.7503Z" fill="black"/>
<path d="M274.011 92.6661L273.81 92.7436C273.665 92.7952 273.458 92.8469 273.19 92.8986C272.921 92.9502 272.621 92.9864 272.291 93.0071H271.996V92.2941H272.291C272.776 92.2734 273.226 92.1959 273.639 92.0615C274.053 91.9272 274.342 91.8032 274.507 91.6895C274.672 91.5759 274.817 91.4622 274.941 91.3485C274.962 91.3175 275.024 91.302 275.127 91.302C275.22 91.302 275.308 91.333 275.391 91.395V96.0297L275.406 100.68C275.478 100.752 275.54 100.799 275.592 100.819C275.644 100.84 275.768 100.861 275.964 100.881C276.16 100.902 276.481 100.912 276.925 100.912H277.328V101.625H277.157C276.94 101.594 276.119 101.579 274.693 101.579C273.288 101.579 272.477 101.594 272.26 101.625H272.074V100.912H272.477C272.704 100.912 272.9 100.912 273.066 100.912C273.231 100.912 273.36 100.907 273.453 100.897C273.546 100.887 273.629 100.871 273.701 100.85C273.774 100.83 273.815 100.819 273.825 100.819C273.836 100.819 273.867 100.794 273.918 100.742C273.97 100.69 274.001 100.67 274.011 100.68V92.6661Z" fill="black"/>
<path d="M279.405 90.0155L279.467 90C279.518 90 279.57 90 279.622 90H279.808L280.242 90.372C281.213 91.2504 281.921 92.3457 282.365 93.6581C282.809 94.9705 283.031 96.3345 283.031 97.7503C283.031 98.453 282.98 99.1298 282.876 99.7808C282.773 100.432 282.654 100.985 282.52 101.439C282.386 101.894 282.194 102.349 281.946 102.803C281.698 103.258 281.502 103.604 281.357 103.842C281.213 104.08 281.001 104.343 280.722 104.632C280.443 104.922 280.278 105.092 280.226 105.144C280.174 105.196 280.056 105.294 279.87 105.439C279.839 105.47 279.818 105.49 279.808 105.501H279.622C279.539 105.501 279.482 105.501 279.451 105.501C279.42 105.501 279.394 105.485 279.374 105.454C279.353 105.423 279.337 105.377 279.327 105.315C279.337 105.304 279.394 105.237 279.498 105.113C281.099 103.449 281.9 100.995 281.9 97.7503C281.9 94.5055 281.099 92.0512 279.498 90.3875C279.394 90.2635 279.337 90.1963 279.327 90.186C279.327 90.1033 279.353 90.0465 279.405 90.0155Z" fill="black"/>
<path d="M265.811 110.681C265.811 110.577 265.832 110.458 265.873 110.324C265.914 110.19 265.976 110.123 266.059 110.123C266.069 110.123 266.441 110.097 267.175 110.045C267.908 109.993 268.286 109.962 268.306 109.952C268.43 109.952 268.492 109.999 268.492 110.092C268.492 110.185 268.317 110.923 267.965 112.308C267.883 112.66 267.795 113.021 267.702 113.393C267.609 113.765 267.531 114.044 267.469 114.23L267.407 114.525C267.407 114.556 267.438 114.54 267.5 114.478C268.007 114.065 268.528 113.858 269.066 113.858C269.706 113.858 270.223 114.096 270.616 114.571C271.008 115.047 271.21 115.646 271.22 116.369C271.22 117.516 270.812 118.555 269.996 119.485C269.179 120.415 268.301 120.88 267.361 120.88C266.844 120.88 266.374 120.684 265.95 120.291C265.527 119.898 265.31 119.263 265.299 118.384V118.245C265.299 118.028 265.341 117.728 265.423 117.346C265.506 116.963 265.759 115.946 266.183 114.292C266.699 112.256 266.958 111.177 266.958 111.053C266.958 110.929 266.761 110.856 266.369 110.836C266.317 110.836 266.276 110.836 266.245 110.836H266.167C266.064 110.836 265.997 110.836 265.966 110.836C265.935 110.836 265.899 110.82 265.857 110.789C265.816 110.758 265.801 110.722 265.811 110.681ZM269.887 115.672V115.579C269.887 114.814 269.572 114.432 268.942 114.432C268.766 114.432 268.585 114.473 268.399 114.556C268.213 114.638 268.043 114.747 267.888 114.881C267.733 115.016 267.598 115.14 267.485 115.253C267.371 115.367 267.278 115.481 267.206 115.594L267.113 115.718L266.787 117.051C266.56 117.94 266.446 118.57 266.446 118.942C266.446 119.438 266.57 119.81 266.818 120.058C266.984 120.224 267.19 120.306 267.438 120.306C267.779 120.306 268.125 120.141 268.477 119.81C268.735 119.573 268.942 119.283 269.097 118.942C269.252 118.601 269.422 118.059 269.608 117.315C269.794 116.571 269.887 116.023 269.887 115.672Z" fill="black"/>
<rect x="140" y="280" width="160" height="50" rx="10" fill="#9BCC8F"/>
<path d="M157.351 315.404H157.307C157.102 315.404 157 315.324 157 315.163C157 315.105 157.022 314.988 157.066 314.812C157.124 314.608 157.175 314.491 157.219 314.462C157.263 314.432 157.402 314.411 157.636 314.396C158.893 314.352 159.879 313.972 160.595 313.256C160.741 313.11 161.589 312.189 163.138 310.493C164.687 308.798 165.455 307.936 165.44 307.906C163.847 303.843 163.014 301.775 162.941 301.702C162.809 301.541 162.349 301.453 161.56 301.439H160.946C160.858 301.351 160.814 301.292 160.814 301.263C160.814 301.234 160.829 301.095 160.858 300.847C160.917 300.657 160.99 300.518 161.077 300.43H161.384C161.881 300.459 162.765 300.474 164.037 300.474C164.519 300.474 164.965 300.474 165.374 300.474C165.783 300.474 166.112 300.467 166.361 300.452C166.609 300.437 166.755 300.437 166.799 300.452C167.048 300.452 167.172 300.532 167.172 300.693C167.172 300.708 167.157 300.803 167.128 300.978C167.069 301.197 167.018 301.329 166.974 301.373C166.931 301.417 166.814 301.439 166.624 301.439C166.171 301.482 165.776 301.607 165.44 301.811L167.128 306.065L168.29 304.771C169.824 303.119 170.592 302.206 170.592 302.031C170.592 301.767 170.416 301.585 170.065 301.482C169.992 301.482 169.897 301.468 169.78 301.439C169.561 301.439 169.452 301.358 169.452 301.197C169.452 301.168 169.466 301.051 169.496 300.847C169.554 300.657 169.627 300.518 169.715 300.43H169.978C169.992 300.43 170.175 300.43 170.526 300.43C170.877 300.43 171.271 300.445 171.71 300.474C172.148 300.503 172.448 300.51 172.608 300.496C173.924 300.496 174.647 300.474 174.779 300.43H174.954C175.056 300.532 175.108 300.613 175.108 300.671C175.078 301.037 174.991 301.292 174.844 301.439H174.494C173.997 301.453 173.551 301.519 173.156 301.636C172.762 301.753 172.462 301.877 172.258 302.009C172.053 302.14 171.878 302.272 171.732 302.403L171.49 302.601C171.49 302.586 170.796 303.346 169.408 304.881L167.501 306.985C167.501 307 167.727 307.585 168.18 308.739C168.633 309.894 169.108 311.078 169.605 312.291C170.102 313.504 170.372 314.133 170.416 314.177C170.562 314.308 171.008 314.381 171.753 314.396C172.265 314.396 172.521 314.462 172.521 314.593C172.521 314.622 172.506 314.725 172.477 314.9C172.418 315.134 172.367 315.273 172.323 315.317C172.28 315.361 172.177 315.382 172.017 315.382C171.973 315.382 171.732 315.382 171.293 315.382C170.855 315.382 170.204 315.375 169.342 315.361C168.451 315.361 167.771 315.361 167.303 315.361C166.836 315.361 166.58 315.368 166.536 315.382C166.288 315.382 166.163 315.317 166.163 315.185C166.163 315.171 166.178 315.061 166.207 314.856C166.236 314.71 166.266 314.608 166.295 314.549C166.324 314.491 166.361 314.454 166.405 314.44C166.448 314.425 166.514 314.411 166.602 314.396C166.689 314.381 166.806 314.374 166.953 314.374C167.099 314.374 167.289 314.323 167.523 314.221C167.771 314.104 167.895 314.03 167.895 314.001C167.881 314.001 167.537 313.146 166.865 311.436L165.835 308.849C163.087 311.831 161.677 313.402 161.604 313.563C161.545 313.68 161.516 313.767 161.516 313.826C161.516 314.104 161.728 314.286 162.152 314.374C162.166 314.374 162.21 314.374 162.283 314.374C162.356 314.374 162.4 314.381 162.415 314.396C162.459 314.396 162.488 314.396 162.502 314.396C162.517 314.396 162.539 314.403 162.568 314.418C162.597 314.432 162.619 314.454 162.634 314.484C162.649 314.513 162.656 314.564 162.656 314.637C162.656 314.769 162.641 314.886 162.612 314.988C162.568 315.178 162.524 315.287 162.48 315.317C162.437 315.346 162.327 315.368 162.152 315.382C162.108 315.382 161.976 315.382 161.757 315.382C161.538 315.382 161.231 315.375 160.836 315.361C160.442 315.346 160.011 315.346 159.543 315.361C158.403 315.361 157.672 315.375 157.351 315.404Z" fill="black"/>
<path d="M164.936 296.505L165.221 296.089L165.418 295.782C165.447 295.782 165.864 296.016 166.667 296.484C167.471 296.937 167.888 297.163 167.917 297.163L169.145 296.484C169.948 296.016 170.365 295.782 170.394 295.782L170.876 296.505L169.408 297.58L167.895 298.654L164.936 296.505Z" fill="black"/>
<path d="M176.564 297.87C176.564 297.157 176.616 296.48 176.719 295.84C176.823 295.199 176.942 294.646 177.076 294.181C177.21 293.716 177.401 293.261 177.649 292.817C177.897 292.373 178.094 292.027 178.238 291.779C178.383 291.531 178.6 291.262 178.889 290.973C179.179 290.683 179.349 290.508 179.401 290.446C179.452 290.384 179.582 290.275 179.788 290.12H179.99H180.052C180.196 290.12 180.269 290.167 180.269 290.26C180.269 290.291 180.181 290.399 180.005 290.585C179.83 290.771 179.618 291.045 179.37 291.407C179.122 291.768 178.869 292.213 178.61 292.74C178.352 293.267 178.135 293.98 177.959 294.879C177.784 295.778 177.696 296.775 177.696 297.87C177.696 298.966 177.784 299.958 177.959 300.846C178.135 301.735 178.347 302.453 178.595 303.001C178.843 303.549 179.096 303.993 179.354 304.334C179.613 304.675 179.83 304.949 180.005 305.156C180.181 305.362 180.269 305.471 180.269 305.481C180.269 305.574 180.191 305.621 180.036 305.621H179.99H179.788L179.354 305.249C178.383 304.37 177.675 303.275 177.231 301.962C176.787 300.65 176.564 299.286 176.564 297.87Z" fill="black"/>
<path d="M183.167 297.266C183.167 296.935 183.249 296.599 183.415 296.258C183.58 295.917 183.869 295.602 184.283 295.313C184.696 295.023 185.197 294.884 185.786 294.894C186.427 294.894 186.892 295.034 187.181 295.313C187.47 295.592 187.62 295.902 187.63 296.243C187.63 296.573 187.543 296.816 187.367 296.971C187.191 297.126 186.995 297.209 186.778 297.219C186.644 297.219 186.52 297.178 186.406 297.095C186.292 297.013 186.23 296.878 186.22 296.692C186.22 296.527 186.266 296.382 186.359 296.258C186.452 296.134 186.54 296.041 186.623 295.979C186.706 295.917 186.773 295.886 186.824 295.886C186.835 295.886 186.84 295.881 186.84 295.871C186.84 295.84 186.804 295.793 186.731 295.731C186.659 295.669 186.53 295.612 186.344 295.561C186.158 295.509 185.956 295.478 185.74 295.468C185.244 295.468 184.882 295.602 184.655 295.871C184.427 296.139 184.308 296.413 184.298 296.692C184.298 296.951 184.396 297.131 184.593 297.235C184.789 297.338 185.073 297.426 185.445 297.498C185.817 297.571 186.086 297.648 186.251 297.731C186.933 298.03 187.274 298.526 187.274 299.219C187.274 299.508 187.217 299.797 187.103 300.087C186.99 300.376 186.819 300.666 186.592 300.955C186.365 301.244 186.039 301.472 185.616 301.637C185.192 301.802 184.706 301.89 184.159 301.9C183.363 301.9 182.8 301.751 182.469 301.451C182.139 301.151 181.968 300.8 181.958 300.397C181.958 299.994 182.066 299.704 182.283 299.529C182.5 299.353 182.728 299.265 182.965 299.265C183.12 299.265 183.265 299.312 183.399 299.405C183.534 299.498 183.606 299.658 183.616 299.885C183.616 300.154 183.523 300.381 183.337 300.567C183.151 300.753 182.991 300.846 182.857 300.846C182.836 300.857 182.821 300.862 182.81 300.862C182.8 300.862 182.795 300.872 182.795 300.893C182.805 300.924 182.846 300.965 182.919 301.017C182.991 301.069 183.151 301.136 183.399 301.218C183.647 301.301 183.931 301.337 184.252 301.327C184.624 301.327 184.944 301.27 185.213 301.156C185.481 301.043 185.678 300.898 185.802 300.722C185.925 300.547 186.013 300.387 186.065 300.242C186.117 300.097 186.142 299.968 186.142 299.854C186.142 299.565 186.034 299.348 185.817 299.203C185.6 299.059 185.352 298.971 185.073 298.94C184.794 298.909 184.489 298.831 184.159 298.707C183.828 298.583 183.585 298.402 183.43 298.165C183.255 297.906 183.167 297.607 183.167 297.266Z" fill="black"/>
<path d="M189.351 290.136L189.413 290.12C189.465 290.12 189.516 290.12 189.568 290.12H189.754L190.188 290.492C191.159 291.37 191.867 292.466 192.311 293.778C192.756 295.091 192.978 296.455 192.978 297.87C192.978 298.573 192.926 299.25 192.823 299.901C192.719 300.552 192.601 301.105 192.466 301.559C192.332 302.014 192.141 302.469 191.893 302.923C191.645 303.378 191.448 303.724 191.304 303.962C191.159 304.2 190.947 304.463 190.668 304.753C190.389 305.042 190.224 305.212 190.172 305.264C190.121 305.316 190.002 305.414 189.816 305.559C189.785 305.59 189.764 305.61 189.754 305.621H189.568C189.485 305.621 189.428 305.621 189.397 305.621C189.366 305.621 189.341 305.605 189.32 305.574C189.299 305.543 189.284 305.497 189.273 305.435C189.284 305.424 189.341 305.357 189.444 305.233C191.046 303.569 191.846 301.115 191.846 297.87C191.846 294.626 191.046 292.171 189.444 290.508C189.341 290.384 189.284 290.316 189.273 290.306C189.273 290.223 189.299 290.167 189.351 290.136Z" fill="black"/>
<path d="M178.408 311.87L178.206 311.948C178.061 311.999 177.855 312.051 177.586 312.103C177.318 312.154 177.018 312.191 176.687 312.211H176.393V311.498H176.687C177.173 311.477 177.622 311.4 178.036 311.266C178.449 311.131 178.738 311.007 178.904 310.894C179.069 310.78 179.214 310.666 179.338 310.553C179.358 310.522 179.42 310.506 179.523 310.506C179.616 310.506 179.704 310.537 179.787 310.599V315.234L179.802 319.884C179.875 319.956 179.937 320.003 179.988 320.023C180.04 320.044 180.164 320.065 180.36 320.085C180.557 320.106 180.877 320.116 181.321 320.116H181.724V320.829H181.554C181.337 320.798 180.515 320.783 179.09 320.783C177.684 320.783 176.873 320.798 176.656 320.829H176.47V320.116H176.873C177.101 320.116 177.297 320.116 177.462 320.116C177.627 320.116 177.757 320.111 177.85 320.101C177.943 320.091 178.025 320.075 178.098 320.054C178.17 320.034 178.211 320.023 178.222 320.023C178.232 320.023 178.263 319.998 178.315 319.946C178.366 319.894 178.397 319.874 178.408 319.884V311.87Z" fill="black"/>
<path d="M198.367 314.637C198.367 314.637 198.367 314.454 198.367 314.089C198.367 313.723 198.484 313.409 198.718 313.146C198.952 312.883 199.266 312.751 199.66 312.751C200.07 312.751 200.435 312.934 200.756 313.3C201.078 313.665 201.246 314.308 201.261 315.229C201.261 315.74 201.195 316.237 201.063 316.72C200.932 317.202 200.778 317.619 200.603 317.969C200.428 318.32 200.238 318.62 200.033 318.868C199.828 319.117 199.653 319.314 199.507 319.46C199.361 319.606 199.266 319.672 199.222 319.658C199.163 319.658 199.068 319.592 198.937 319.46C198.805 319.329 198.74 319.234 198.74 319.175C198.74 319.117 198.82 319 198.981 318.824C199.142 318.649 199.324 318.43 199.529 318.167C199.733 317.904 199.923 317.538 200.099 317.071C200.274 316.603 200.391 316.069 200.45 315.47V315.207L200.428 315.229C200.398 315.244 200.362 315.258 200.318 315.273C200.274 315.287 200.23 315.309 200.186 315.339C200.143 315.368 200.077 315.382 199.989 315.382C199.901 315.382 199.814 315.39 199.726 315.404C199.332 315.404 199.01 315.28 198.762 315.032L198.367 314.637Z" fill="black"/>
<path d="M208.122 314.089C208.122 313.738 208.246 313.431 208.494 313.168C208.743 312.905 209.057 312.773 209.437 312.773C209.788 312.773 210.095 312.89 210.358 313.124C210.621 313.358 210.76 313.672 210.774 314.067C210.774 314.432 210.65 314.747 210.402 315.01C210.153 315.273 209.839 315.404 209.459 315.404C209.079 315.404 208.765 315.28 208.516 315.032C208.268 314.783 208.136 314.469 208.122 314.089ZM217.921 314.089C217.921 313.738 218.045 313.431 218.294 313.168C218.542 312.905 218.856 312.773 219.236 312.773C219.587 312.773 219.894 312.89 220.157 313.124C220.42 313.358 220.559 313.672 220.573 314.067C220.573 314.432 220.449 314.747 220.201 315.01C219.952 315.273 219.638 315.404 219.258 315.404C218.878 315.404 218.564 315.28 218.316 315.032C218.067 314.783 217.936 314.469 217.921 314.089ZM227.72 314.089C227.72 313.738 227.844 313.431 228.093 313.168C228.341 312.905 228.655 312.773 229.035 312.773C229.386 312.773 229.693 312.89 229.956 313.124C230.219 313.358 230.358 313.672 230.373 314.067C230.373 314.432 230.248 314.747 230 315.01C229.751 315.273 229.437 315.404 229.057 315.404C228.677 315.404 228.363 315.28 228.115 315.032C227.866 314.783 227.735 314.469 227.72 314.089Z" fill="black"/>
<path d="M237.476 314.637C237.476 314.637 237.476 314.454 237.476 314.089C237.476 313.723 237.593 313.409 237.826 313.146C238.06 312.883 238.374 312.751 238.769 312.751C239.178 312.751 239.544 312.934 239.865 313.3C240.187 313.665 240.355 314.308 240.369 315.229C240.369 315.74 240.304 316.237 240.172 316.72C240.041 317.202 239.887 317.619 239.712 317.969C239.536 318.32 239.346 318.62 239.142 318.868C238.937 319.117 238.762 319.314 238.616 319.46C238.469 319.606 238.374 319.672 238.331 319.658C238.272 319.658 238.177 319.592 238.046 319.46C237.914 319.329 237.848 319.234 237.848 319.175C237.848 319.117 237.929 319 238.089 318.824C238.25 318.649 238.433 318.43 238.638 318.167C238.842 317.904 239.032 317.538 239.207 317.071C239.383 316.603 239.5 316.069 239.558 315.47V315.207L239.536 315.229C239.507 315.244 239.471 315.258 239.427 315.273C239.383 315.287 239.339 315.309 239.295 315.339C239.251 315.368 239.186 315.382 239.098 315.382C239.01 315.382 238.922 315.39 238.835 315.404C238.44 315.404 238.119 315.28 237.87 315.032L237.476 314.637Z" fill="black"/>
<path d="M246.442 315.404H246.398C246.193 315.404 246.091 315.324 246.091 315.163C246.091 315.105 246.113 314.988 246.157 314.812C246.215 314.608 246.266 314.491 246.31 314.462C246.354 314.432 246.493 314.411 246.727 314.396C247.984 314.352 248.97 313.972 249.686 313.256C249.832 313.11 250.68 312.189 252.229 310.493C253.778 308.798 254.546 307.936 254.531 307.906C252.938 303.843 252.105 301.775 252.032 301.702C251.9 301.541 251.44 301.453 250.651 301.439H250.037C249.949 301.351 249.905 301.292 249.905 301.263C249.905 301.234 249.92 301.095 249.949 300.847C250.008 300.657 250.081 300.518 250.168 300.43H250.475C250.972 300.459 251.856 300.474 253.128 300.474C253.61 300.474 254.056 300.474 254.465 300.474C254.874 300.474 255.203 300.467 255.452 300.452C255.7 300.437 255.846 300.437 255.89 300.452C256.139 300.452 256.263 300.532 256.263 300.693C256.263 300.708 256.248 300.803 256.219 300.978C256.16 301.197 256.109 301.329 256.065 301.373C256.022 301.417 255.905 301.439 255.715 301.439C255.262 301.482 254.867 301.607 254.531 301.811L256.219 306.065L257.381 304.771C258.915 303.119 259.683 302.206 259.683 302.031C259.683 301.767 259.507 301.585 259.156 301.482C259.083 301.482 258.988 301.468 258.871 301.439C258.652 301.439 258.543 301.358 258.543 301.197C258.543 301.168 258.557 301.051 258.587 300.847C258.645 300.657 258.718 300.518 258.806 300.43H259.069C259.083 300.43 259.266 300.43 259.617 300.43C259.968 300.43 260.362 300.445 260.801 300.474C261.239 300.503 261.539 300.51 261.699 300.496C263.015 300.496 263.738 300.474 263.87 300.43H264.045C264.147 300.532 264.199 300.613 264.199 300.671C264.169 301.037 264.082 301.292 263.935 301.439H263.585C263.088 301.453 262.642 301.519 262.247 301.636C261.853 301.753 261.553 301.877 261.349 302.009C261.144 302.14 260.969 302.272 260.823 302.403L260.581 302.601C260.581 302.586 259.887 303.346 258.499 304.881L256.592 306.985C256.592 307 256.818 307.585 257.271 308.739C257.724 309.894 258.199 311.078 258.696 312.291C259.193 313.504 259.463 314.133 259.507 314.177C259.653 314.308 260.099 314.381 260.844 314.396C261.356 314.396 261.612 314.462 261.612 314.593C261.612 314.622 261.597 314.725 261.568 314.9C261.509 315.134 261.458 315.273 261.414 315.317C261.371 315.361 261.268 315.382 261.108 315.382C261.064 315.382 260.823 315.382 260.384 315.382C259.946 315.382 259.295 315.375 258.433 315.361C257.542 315.361 256.862 315.361 256.394 315.361C255.927 315.361 255.671 315.368 255.627 315.382C255.379 315.382 255.254 315.317 255.254 315.185C255.254 315.171 255.269 315.061 255.298 314.856C255.327 314.71 255.357 314.608 255.386 314.549C255.415 314.491 255.452 314.454 255.496 314.44C255.539 314.425 255.605 314.411 255.693 314.396C255.78 314.381 255.897 314.374 256.044 314.374C256.19 314.374 256.38 314.323 256.614 314.221C256.862 314.104 256.986 314.03 256.986 314.001C256.972 314.001 256.628 313.146 255.956 311.436L254.926 308.849C252.178 311.831 250.768 313.402 250.695 313.563C250.636 313.68 250.607 313.767 250.607 313.826C250.607 314.104 250.819 314.286 251.243 314.374C251.257 314.374 251.301 314.374 251.374 314.374C251.447 314.374 251.491 314.381 251.506 314.396C251.55 314.396 251.579 314.396 251.593 314.396C251.608 314.396 251.63 314.403 251.659 314.418C251.688 314.432 251.71 314.454 251.725 314.484C251.74 314.513 251.747 314.564 251.747 314.637C251.747 314.769 251.732 314.886 251.703 314.988C251.659 315.178 251.615 315.287 251.571 315.317C251.528 315.346 251.418 315.368 251.243 315.382C251.199 315.382 251.067 315.382 250.848 315.382C250.629 315.382 250.322 315.375 249.927 315.361C249.533 315.346 249.102 315.346 248.634 315.361C247.494 315.361 246.763 315.375 246.442 315.404Z" fill="black"/>
<path d="M254.027 296.505L254.312 296.089L254.509 295.782C254.538 295.782 254.955 296.016 255.758 296.484C256.562 296.937 256.979 297.163 257.008 297.163L258.236 296.484C259.039 296.016 259.456 295.782 259.485 295.782L259.967 296.505L258.499 297.58L256.986 298.654L254.027 296.505Z" fill="black"/>
<path d="M265.655 297.87C265.655 297.157 265.707 296.48 265.81 295.84C265.914 295.199 266.033 294.646 266.167 294.181C266.301 293.716 266.492 293.261 266.74 292.817C266.988 292.373 267.185 292.027 267.329 291.779C267.474 291.531 267.691 291.262 267.98 290.973C268.269 290.683 268.44 290.508 268.492 290.446C268.543 290.384 268.672 290.275 268.879 290.12H269.081H269.143C269.287 290.12 269.36 290.167 269.36 290.26C269.36 290.291 269.272 290.399 269.096 290.585C268.92 290.771 268.709 291.045 268.461 291.407C268.213 291.768 267.96 292.213 267.701 292.74C267.443 293.267 267.226 293.98 267.05 294.879C266.875 295.778 266.787 296.775 266.787 297.87C266.787 298.966 266.875 299.958 267.05 300.846C267.226 301.735 267.438 302.453 267.686 303.001C267.934 303.549 268.187 303.993 268.445 304.334C268.703 304.675 268.92 304.949 269.096 305.156C269.272 305.362 269.36 305.471 269.36 305.481C269.36 305.574 269.282 305.621 269.127 305.621H269.081H268.879L268.445 305.249C267.474 304.37 266.766 303.275 266.322 301.962C265.878 300.65 265.655 299.286 265.655 297.87Z" fill="black"/>
<path d="M272.258 297.266C272.258 296.935 272.341 296.599 272.506 296.258C272.671 295.917 272.961 295.602 273.374 295.313C273.787 295.023 274.288 294.884 274.877 294.894C275.518 294.894 275.983 295.034 276.272 295.313C276.562 295.592 276.711 295.902 276.722 296.243C276.722 296.573 276.634 296.816 276.458 296.971C276.283 297.126 276.086 297.209 275.869 297.219C275.735 297.219 275.611 297.178 275.497 297.095C275.384 297.013 275.322 296.878 275.311 296.692C275.311 296.527 275.358 296.382 275.451 296.258C275.544 296.134 275.632 296.041 275.714 295.979C275.797 295.917 275.864 295.886 275.916 295.886C275.926 295.886 275.931 295.881 275.931 295.871C275.931 295.84 275.895 295.793 275.823 295.731C275.751 295.669 275.621 295.612 275.435 295.561C275.249 295.509 275.048 295.478 274.831 295.468C274.335 295.468 273.973 295.602 273.746 295.871C273.519 296.139 273.4 296.413 273.39 296.692C273.39 296.951 273.488 297.131 273.684 297.235C273.88 297.338 274.164 297.426 274.536 297.498C274.908 297.571 275.177 297.648 275.342 297.731C276.024 298.03 276.365 298.526 276.365 299.219C276.365 299.508 276.308 299.797 276.195 300.087C276.081 300.376 275.911 300.666 275.683 300.955C275.456 301.244 275.131 301.472 274.707 301.637C274.283 301.802 273.798 301.89 273.25 301.9C272.454 301.9 271.891 301.751 271.561 301.451C271.23 301.151 271.06 300.8 271.049 300.397C271.049 299.994 271.158 299.704 271.375 299.529C271.592 299.353 271.819 299.265 272.057 299.265C272.212 299.265 272.356 299.312 272.491 299.405C272.625 299.498 272.697 299.658 272.708 299.885C272.708 300.154 272.615 300.381 272.429 300.567C272.243 300.753 272.082 300.846 271.948 300.846C271.927 300.857 271.912 300.862 271.902 300.862C271.891 300.862 271.886 300.872 271.886 300.893C271.896 300.924 271.938 300.965 272.01 301.017C272.082 301.069 272.243 301.136 272.491 301.218C272.739 301.301 273.023 301.337 273.343 301.327C273.715 301.327 274.035 301.27 274.304 301.156C274.573 301.043 274.769 300.898 274.893 300.722C275.017 300.547 275.105 300.387 275.156 300.242C275.208 300.097 275.234 299.968 275.234 299.854C275.234 299.565 275.125 299.348 274.908 299.203C274.691 299.059 274.443 298.971 274.164 298.94C273.885 298.909 273.581 298.831 273.25 298.707C272.919 298.583 272.677 298.402 272.522 298.165C272.346 297.906 272.258 297.607 272.258 297.266Z" fill="black"/>
<path d="M278.442 290.136L278.504 290.12C278.556 290.12 278.607 290.12 278.659 290.12H278.845L279.279 290.492C280.25 291.37 280.958 292.466 281.402 293.778C281.846 295.091 282.069 296.455 282.069 297.87C282.069 298.573 282.017 299.25 281.914 299.901C281.81 300.552 281.691 301.105 281.557 301.559C281.423 302.014 281.232 302.469 280.984 302.923C280.736 303.378 280.539 303.724 280.395 303.962C280.25 304.2 280.038 304.463 279.759 304.753C279.48 305.042 279.315 305.212 279.263 305.264C279.212 305.316 279.093 305.414 278.907 305.559C278.876 305.59 278.855 305.61 278.845 305.621H278.659C278.576 305.621 278.519 305.621 278.488 305.621C278.457 305.621 278.432 305.605 278.411 305.574C278.39 305.543 278.375 305.497 278.364 305.435C278.375 305.424 278.432 305.357 278.535 305.233C280.136 303.569 280.937 301.115 280.937 297.87C280.937 294.626 280.136 292.171 278.535 290.508C278.432 290.384 278.375 290.316 278.364 290.306C278.364 290.223 278.39 290.167 278.442 290.136Z" fill="black"/>
<path d="M265.329 310.801C265.329 310.697 265.349 310.578 265.391 310.444C265.432 310.31 265.494 310.243 265.577 310.243C265.587 310.243 265.959 310.217 266.693 310.165C267.426 310.113 267.803 310.082 267.824 310.072C267.948 310.072 268.01 310.119 268.01 310.212C268.01 310.305 267.834 311.044 267.483 312.428C267.4 312.78 267.313 313.141 267.22 313.513C267.127 313.885 267.049 314.164 266.987 314.35L266.925 314.645C266.925 314.676 266.956 314.66 267.018 314.598C267.524 314.185 268.046 313.978 268.583 313.978C269.224 313.978 269.741 314.216 270.133 314.691C270.526 315.167 270.727 315.766 270.738 316.489C270.738 317.636 270.33 318.675 269.513 319.605C268.697 320.535 267.819 321 266.879 321C266.362 321 265.892 320.804 265.468 320.411C265.045 320.018 264.828 319.383 264.817 318.504V318.365C264.817 318.148 264.859 317.848 264.941 317.466C265.024 317.084 265.277 316.066 265.701 314.412C266.217 312.377 266.476 311.297 266.476 311.173C266.476 311.049 266.279 310.976 265.887 310.956C265.835 310.956 265.794 310.956 265.763 310.956H265.685C265.582 310.956 265.515 310.956 265.484 310.956C265.453 310.956 265.417 310.94 265.375 310.909C265.334 310.878 265.318 310.842 265.329 310.801ZM269.405 315.792V315.699C269.405 314.934 269.09 314.552 268.459 314.552C268.284 314.552 268.103 314.593 267.917 314.676C267.731 314.758 267.561 314.867 267.406 315.001C267.251 315.136 267.116 315.26 267.003 315.373C266.889 315.487 266.796 315.601 266.724 315.714L266.631 315.838L266.305 317.171C266.078 318.06 265.964 318.69 265.964 319.062C265.964 319.558 266.088 319.93 266.336 320.178C266.501 320.344 266.708 320.426 266.956 320.426C267.297 320.426 267.643 320.261 267.994 319.93C268.253 319.693 268.459 319.403 268.614 319.062C268.769 318.721 268.94 318.179 269.126 317.435C269.312 316.691 269.405 316.143 269.405 315.792Z" fill="black"/>
<rect y="180" width="90" height="50" rx="10" fill="#8FC5CC"/>
<path d="M24.5682 196.772C24.5682 196.67 24.1517 196.604 23.3186 196.575C22.9825 196.575 22.7633 196.568 22.661 196.553C22.5587 196.538 22.5075 196.473 22.5075 196.356C22.5075 196.239 22.5367 196.093 22.5952 195.917C22.6537 195.742 22.7048 195.632 22.7487 195.588C22.7779 195.574 24.232 195.566 27.1111 195.566C29.5518 195.581 30.9182 195.588 31.2105 195.588C31.5028 195.588 31.7951 195.632 32.0874 195.72C33.1397 195.968 34.0311 196.546 34.7619 197.452C35.4926 198.358 35.8653 199.571 35.8799 201.091C35.8799 203.372 35.098 205.418 33.5343 207.23C31.9705 209.043 30.129 210.124 28.0099 210.475L27.703 210.519L23.4502 210.541H21.0168H19.855C19.5042 210.541 19.2777 210.526 19.1754 210.497C19.0731 210.468 19.0146 210.402 19 210.3C19 210.27 19.0219 210.168 19.0658 209.993C19.1242 209.759 19.1827 209.627 19.2411 209.598C19.2996 209.569 19.4677 209.547 19.7453 209.532C20.1399 209.532 20.5784 209.51 21.0607 209.467C21.2653 209.423 21.4041 209.335 21.4772 209.203C21.521 209.145 22.0472 207.113 23.0556 203.108C24.064 199.104 24.5682 196.992 24.5682 196.772ZM33.6877 200.258C33.6877 199.703 33.6073 199.206 33.4466 198.767C33.2858 198.329 33.0958 197.985 32.8766 197.737C32.6574 197.489 32.387 197.277 32.0655 197.101C31.744 196.926 31.459 196.809 31.2105 196.75C30.9621 196.692 30.7063 196.641 30.4433 196.597C30.414 196.597 30.3117 196.597 30.1363 196.597C29.961 196.597 29.7491 196.597 29.5006 196.597C29.2522 196.597 29.011 196.59 28.7772 196.575H27.8345C27.1915 196.575 26.8261 196.648 26.7384 196.794C26.7092 196.853 26.1758 198.957 25.1381 203.108C24.1005 207.259 23.5817 209.357 23.5817 209.401C23.5817 209.459 23.6621 209.488 23.8228 209.488C23.9836 209.488 24.5463 209.496 25.5108 209.51C25.5839 209.51 25.7227 209.51 25.9273 209.51C26.1319 209.51 26.3073 209.518 26.4535 209.532C28.2949 209.532 29.8148 208.933 31.0132 207.734C31.5394 207.208 31.9705 206.594 32.3066 205.893C32.6428 205.191 32.957 204.263 33.2493 203.108C33.5416 201.954 33.6877 201.004 33.6877 200.258Z" fill="black"/>
<path d="M37.8848 207.862C37.8125 207.789 37.7763 207.738 37.7763 207.707C37.7763 207.665 37.7918 207.583 37.8228 207.459C37.8538 207.335 37.8797 207.262 37.9003 207.242C37.921 207.19 37.9623 207.164 38.0243 207.164C38.0863 207.164 38.324 207.159 38.7373 207.149H39.4657L39.7602 205.909C39.7912 205.805 39.8273 205.661 39.8687 205.475C39.91 205.289 39.941 205.154 39.9617 205.072C39.9823 204.989 40.0133 204.886 40.0546 204.762C40.096 204.638 40.1373 204.545 40.1786 204.483C40.22 204.421 40.2665 204.359 40.3181 204.297C40.3698 204.235 40.437 204.193 40.5196 204.173C40.6023 204.152 40.6901 204.137 40.7831 204.126C41.0931 204.126 41.2687 204.276 41.31 204.576C41.31 204.638 41.2119 205.072 41.0156 205.878C40.8193 206.684 40.7108 207.097 40.6901 207.118C40.6901 207.138 40.9226 207.149 41.3875 207.149H42.1005C42.1728 207.221 42.209 207.278 42.209 207.319C42.209 207.547 42.1418 207.727 42.0075 207.862H40.5041L39.3572 212.496C39.3469 212.558 39.3417 212.688 39.3417 212.884V212.992C39.3417 213.251 39.4089 213.39 39.5432 213.411C39.6672 213.452 39.8118 213.437 39.9772 213.364C40.2251 213.292 40.4679 213.106 40.7056 212.806C40.9432 212.507 41.1499 212.135 41.3255 211.69C41.3772 211.577 41.4185 211.51 41.4495 211.489C41.4805 211.468 41.5735 211.458 41.7285 211.458H41.806C41.9817 211.458 42.0695 211.494 42.0695 211.566C42.0695 211.639 42.0488 211.721 42.0075 211.814C41.7078 212.507 41.3462 213.044 40.9226 213.426C40.4989 213.809 40.0443 214 39.5587 214C39.1041 214 38.7579 213.85 38.5203 213.55C38.2826 213.251 38.1586 212.925 38.1483 212.574C38.1483 212.45 38.2413 212 38.4273 211.225C38.6133 210.45 38.8044 209.696 39.0007 208.962L39.2797 207.893C39.2797 207.872 39.0472 207.862 38.5823 207.862H37.8848Z" fill="black"/>
<path d="M42.8288 209.52C42.7668 209.458 42.7358 209.402 42.7358 209.35C42.7565 209.226 42.8288 208.967 42.9528 208.575C43.2938 207.51 43.7794 206.978 44.4097 206.978C44.7817 206.978 45.0813 207.066 45.3086 207.242C45.5359 207.417 45.6909 207.629 45.7736 207.877L45.9596 207.691C46.4142 207.216 46.936 206.978 47.525 206.978C47.9383 206.978 48.2999 207.087 48.6099 207.304C48.9198 207.521 49.0748 207.826 49.0748 208.218C49.0748 208.58 48.9715 208.838 48.7649 208.993C48.5582 209.148 48.3516 209.231 48.1449 209.241C47.9693 209.241 47.8246 209.195 47.7109 209.102C47.5973 209.009 47.5405 208.874 47.5405 208.699C47.5405 208.482 47.5869 208.306 47.6799 208.172C47.7729 208.037 47.8763 207.939 47.9899 207.877C48.1036 207.815 48.1552 207.784 48.1449 207.784C47.9899 207.629 47.7523 207.552 47.432 207.552C46.8533 207.552 46.3264 208.017 45.8511 208.947L45.7271 209.179L45.2001 211.334C44.8488 212.739 44.6525 213.488 44.6112 213.581C44.4665 213.86 44.2392 214 43.9292 214C43.6193 214 43.4539 213.85 43.4333 213.55C43.4333 213.499 43.6348 212.657 44.0377 211.024C44.451 209.35 44.6577 208.497 44.6577 208.466C44.6887 208.322 44.7042 208.187 44.7042 208.063C44.7042 207.722 44.6009 207.552 44.3942 207.552C44.2082 207.552 44.0429 207.696 43.8982 207.986C43.7536 208.275 43.6399 208.59 43.5573 208.931C43.4746 209.272 43.4178 209.458 43.3868 209.489C43.3661 209.51 43.268 209.52 43.0923 209.52H42.8288Z" fill="black"/>
<path d="M54.6081 213.008C54.6081 213.287 54.7114 213.426 54.918 213.426C55.2074 213.426 55.4967 212.884 55.786 211.799C55.848 211.592 55.8996 211.484 55.941 211.473C55.972 211.463 56.034 211.458 56.1269 211.458H56.2044C56.3078 211.458 56.3749 211.458 56.4059 211.458C56.4369 211.458 56.4679 211.473 56.4989 211.504C56.5299 211.535 56.5454 211.566 56.5454 211.597C56.5454 211.628 56.5299 211.721 56.4989 211.876C56.4679 212.031 56.4111 212.228 56.3284 212.465C56.2458 212.703 56.1424 212.936 56.0185 213.163C55.8945 213.39 55.7291 213.587 55.5225 213.752C55.3158 213.917 55.0937 214 54.856 214C54.5461 214 54.2826 213.928 54.0656 213.783C53.8486 213.638 53.6988 213.499 53.6161 213.364C53.5335 213.23 53.4973 213.137 53.5077 213.085H53.4922C53.4818 213.096 53.4612 213.111 53.4302 213.132C53.3992 213.153 53.3733 213.178 53.3527 213.209C52.7844 213.736 52.2213 214 51.6633 214C51.0847 214 50.6145 213.767 50.2529 213.302C49.8913 212.837 49.7053 212.259 49.6949 211.566C49.6949 210.388 50.0876 209.329 50.8729 208.389C51.6581 207.448 52.4641 206.978 53.2907 206.978C53.394 206.978 53.4922 206.983 53.5851 206.994C53.6781 207.004 53.766 207.025 53.8486 207.056C53.9313 207.087 53.9984 207.118 54.0501 207.149C54.1018 207.18 54.1586 207.211 54.2206 207.242C54.2826 207.273 54.3291 207.314 54.3601 207.366C54.3911 207.417 54.4272 207.454 54.4686 207.474C54.5099 207.495 54.5357 207.536 54.5461 207.598C54.5564 207.66 54.5822 207.691 54.6236 207.691C54.6649 207.588 54.7527 207.495 54.887 207.412C55.0214 207.33 55.1505 207.288 55.2745 207.288C55.4192 207.288 55.538 207.335 55.631 207.428C55.724 207.521 55.7756 207.614 55.786 207.707C55.786 207.82 55.6052 208.601 55.2435 210.047C54.8819 211.494 54.6804 212.3 54.6391 212.465C54.6184 212.548 54.6081 212.703 54.6081 212.93V213.008ZM54.2826 208.823C54.2826 208.606 54.2051 208.342 54.0501 208.032C53.8951 207.722 53.642 207.562 53.2907 207.552C52.9704 207.552 52.6501 207.722 52.3297 208.063C52.1024 208.301 51.9164 208.59 51.7718 208.931C51.6271 209.272 51.4618 209.794 51.2758 210.497C51.0795 211.324 50.9813 211.876 50.9813 212.155V212.279V212.372C50.9813 212.786 51.1002 213.091 51.3378 213.287C51.4515 213.38 51.5961 213.426 51.7718 213.426C52.2264 213.426 52.7172 213.091 53.2442 212.419C53.3785 212.233 53.4612 212.093 53.4922 212C53.5231 211.907 53.6575 211.396 53.8951 210.466C54.1534 209.433 54.2826 208.885 54.2826 208.823Z" fill="black"/>
<path d="M59.676 204.545C59.676 204.328 59.7638 204.126 59.9395 203.94C60.1151 203.754 60.3269 203.661 60.5749 203.661C60.7196 203.661 60.8591 203.708 60.9934 203.801C61.1277 203.894 61.1949 204.049 61.1949 204.266C61.1949 204.503 61.0967 204.71 60.9004 204.886C60.7041 205.061 60.4974 205.149 60.2805 205.149C60.1461 205.149 60.0118 205.103 59.8775 205.01C59.7432 204.917 59.676 204.762 59.676 204.545ZM57.2117 209.381C57.2117 209.329 57.2479 209.195 57.3202 208.978C57.3925 208.761 57.501 208.508 57.6457 208.218C57.7903 207.929 57.9918 207.665 58.2501 207.428C58.5084 207.19 58.7874 207.045 59.087 206.994H59.366C59.7173 206.994 60.0066 207.107 60.234 207.335C60.4613 207.562 60.5801 207.882 60.5904 208.296C60.5801 208.492 60.5594 208.632 60.5284 208.714C60.4974 208.797 60.2701 209.427 59.8465 210.605C59.3092 212.011 59.0406 212.848 59.0406 213.116C59.0406 213.323 59.1232 213.426 59.2885 213.426C59.4849 213.426 59.6812 213.339 59.8775 213.163C60.1461 212.874 60.3786 212.393 60.5749 211.721C60.6059 211.597 60.6318 211.525 60.6524 211.504C60.6731 211.484 60.7454 211.468 60.8694 211.458H60.9624C61.0657 211.458 61.1329 211.458 61.1639 211.458C61.1949 211.458 61.231 211.473 61.2724 211.504C61.3137 211.535 61.3292 211.572 61.3189 211.613C61.3189 211.716 61.2672 211.913 61.1639 212.202C61.0606 212.491 60.8642 212.822 60.5749 213.194C60.2856 213.566 59.955 213.819 59.583 213.953C59.5003 213.974 59.3764 213.984 59.211 213.984C58.7564 213.984 58.4309 213.855 58.2346 213.597C58.0383 213.339 57.9401 213.049 57.9401 212.729C57.9401 212.45 58.1933 211.644 58.6996 210.311C59.2059 208.978 59.4642 208.167 59.4745 207.877C59.4745 207.753 59.459 207.671 59.428 207.629C59.397 207.588 59.3195 207.562 59.1955 207.552C58.9062 207.572 58.6634 207.733 58.4671 208.032C58.2708 208.332 58.1261 208.652 58.0331 208.993C57.9401 209.334 57.8781 209.505 57.8471 209.505C57.8368 209.515 57.7387 209.52 57.5527 209.52H57.3047C57.2427 209.458 57.2117 209.412 57.2117 209.381Z" fill="black"/>
<path d="M67.7823 213.147C67.7823 213.333 67.8649 213.426 68.0302 213.426C68.2059 213.426 68.397 213.339 68.6037 213.163C68.8723 212.874 69.1048 212.393 69.3011 211.721C69.3321 211.597 69.358 211.525 69.3786 211.504C69.3993 211.484 69.4716 211.468 69.5956 211.458H69.6886C69.7919 211.458 69.8591 211.458 69.8901 211.458C69.9211 211.458 69.9573 211.473 69.9986 211.504C70.0399 211.535 70.0554 211.572 70.0451 211.613C70.0451 211.716 69.9934 211.913 69.8901 212.202C69.7868 212.491 69.5905 212.822 69.3011 213.194C69.0118 213.566 68.6812 213.819 68.3092 213.953C68.2266 213.974 68.1026 213.984 67.9373 213.984C67.5446 213.984 67.2346 213.871 67.0073 213.643C66.78 213.416 66.6664 213.106 66.6664 212.713C66.6664 212.496 66.749 212.171 66.9143 211.737C67.4826 210.156 67.7668 209.05 67.7668 208.42C67.7668 208.234 67.7616 208.115 67.7513 208.063C67.6479 207.722 67.4465 207.552 67.1468 207.552C66.8678 207.552 66.6044 207.614 66.3564 207.738C66.1084 207.862 65.8914 208.032 65.7054 208.249C65.5194 208.466 65.3955 208.626 65.3335 208.73C65.2715 208.833 65.2043 208.936 65.132 209.04C65.0183 209.236 64.9357 209.417 64.884 209.582C64.8323 209.748 64.6722 210.383 64.4035 211.489C64.0729 212.801 63.8921 213.499 63.8611 213.581C63.7164 213.86 63.4891 214 63.1791 214C62.8691 214 62.7038 213.85 62.6832 213.55C62.6832 213.499 62.8846 212.657 63.2876 211.024C63.7009 209.35 63.9076 208.497 63.9076 208.466C63.9386 208.322 63.9541 208.187 63.9541 208.063C63.9541 207.712 63.8559 207.536 63.6596 207.536C63.4529 207.536 63.2721 207.702 63.1171 208.032C63.0551 208.177 62.988 208.363 62.9156 208.59C62.8433 208.818 62.7865 209.019 62.7452 209.195C62.7038 209.371 62.6677 209.469 62.6367 209.489C62.6057 209.51 62.5075 209.52 62.3422 209.52H62.0787C62.0167 209.458 61.9857 209.412 61.9857 209.381C61.9961 209.319 62.0115 209.236 62.0322 209.133C62.0529 209.03 62.1149 208.833 62.2182 208.544C62.3215 208.254 62.4249 208.012 62.5282 207.815C62.6315 207.619 62.7917 207.428 63.0086 207.242C63.2256 207.056 63.4478 206.968 63.6751 206.978C63.7887 206.978 63.8921 206.983 63.9851 206.994C64.0781 207.004 64.1659 207.03 64.2485 207.071C64.3312 207.113 64.4035 207.149 64.4655 207.18C64.5275 207.211 64.5895 207.252 64.6515 207.304C64.7135 207.355 64.76 207.402 64.791 207.443C64.822 207.485 64.853 207.531 64.884 207.583C64.915 207.634 64.9408 207.681 64.9615 207.722C64.9822 207.764 65.0028 207.8 65.0235 207.831C65.0441 207.862 65.0545 207.893 65.0545 207.924L65.07 207.97V208.032L65.2715 207.831C65.8397 207.262 66.4959 206.978 67.2398 206.978C67.8598 206.978 68.3041 207.144 68.5727 207.474C68.8413 207.805 68.9757 208.177 68.9757 208.59C68.9757 209.086 68.7794 209.913 68.3867 211.07C67.9941 212.228 67.7926 212.92 67.7823 213.147Z" fill="black"/>
<rect x="350" y="80" width="70" height="50" rx="10" fill="#9BCC8F"/>
<path d="M367 111.396C367 109.905 367.285 108.334 367.855 106.682C368.425 105.031 369.199 103.605 370.179 102.407C371.158 101.208 372.174 100.521 373.226 100.346C373.24 100.346 373.299 100.346 373.401 100.346C373.503 100.346 373.591 100.339 373.664 100.324C374.453 100.383 375.067 100.741 375.506 101.398C376.076 102.275 376.361 103.452 376.361 104.928C376.361 106.609 376.032 108.319 375.374 110.058C374.717 111.798 373.876 113.223 372.853 114.334C371.83 115.445 370.851 116 369.916 116H369.762C369.236 116 368.783 115.854 368.403 115.562C368.023 115.269 367.738 114.882 367.548 114.4C367.358 113.917 367.219 113.428 367.132 112.931C367.044 112.434 367 111.922 367 111.396ZM374.629 103.372C374.629 101.881 374.242 101.135 373.467 101.135C372.941 101.135 372.429 101.464 371.932 102.122C371.436 102.78 371.026 103.525 370.705 104.358C370.383 105.191 370.135 105.922 369.959 106.551C369.784 107.179 369.689 107.545 369.674 107.647C370.391 107.661 371.099 107.669 371.801 107.669L373.927 107.647C373.942 107.632 374 107.391 374.103 106.923C374.205 106.456 374.322 105.871 374.453 105.169C374.585 104.468 374.643 103.869 374.629 103.372ZM368.71 112.887C368.71 114.436 369.097 115.211 369.872 115.211C370.091 115.211 370.325 115.138 370.573 114.991C370.822 114.845 371.121 114.568 371.472 114.158C371.823 113.749 372.174 113.113 372.524 112.251C372.875 111.389 373.226 110.322 373.577 109.05L373.686 108.677H369.411C369.411 108.721 369.346 108.999 369.214 109.51C369.083 110.022 368.966 110.592 368.863 111.22C368.761 111.849 368.71 112.404 368.71 112.887Z" fill="black"/>
<path d="M380.063 102.315C379.929 100.93 379.862 100.155 379.862 99.9897C379.862 99.8037 379.986 99.659 380.234 99.5557C380.244 99.5557 380.27 99.5557 380.311 99.5557C380.353 99.5557 380.384 99.5505 380.404 99.5402C380.528 99.5505 380.642 99.597 380.745 99.6797C380.849 99.7624 380.9 99.8657 380.9 99.9897C380.9 100.165 380.869 100.579 380.807 101.23C380.745 101.881 380.709 102.242 380.699 102.315L381.598 101.664C382.176 101.24 382.491 101.013 382.543 100.982C382.595 100.951 382.646 100.935 382.698 100.935C382.832 100.935 382.956 100.987 383.07 101.09C383.184 101.194 383.246 101.333 383.256 101.509C383.256 101.643 383.204 101.762 383.101 101.865C383.049 101.896 382.698 102.067 382.047 102.377C381.396 102.687 381.045 102.852 380.993 102.873L382.016 103.353L383.101 103.896C383.194 103.989 383.241 104.108 383.241 104.252C383.241 104.407 383.194 104.537 383.101 104.64C383.008 104.743 382.884 104.8 382.729 104.81C382.646 104.81 382.553 104.779 382.45 104.717C382.347 104.655 382.063 104.449 381.598 104.097L380.699 103.446C380.833 104.831 380.9 105.606 380.9 105.771C380.9 105.875 380.864 105.973 380.792 106.066C380.719 106.159 380.585 106.205 380.389 106.205C380.192 106.205 380.058 106.159 379.986 106.066C379.914 105.973 379.872 105.875 379.862 105.771C379.862 105.596 379.893 105.182 379.955 104.531C380.017 103.88 380.053 103.519 380.063 103.446L379.164 104.097C378.586 104.521 378.271 104.748 378.219 104.779C378.178 104.81 378.126 104.826 378.064 104.826C377.93 104.826 377.806 104.774 377.692 104.671C377.578 104.568 377.516 104.428 377.506 104.252C377.506 104.201 377.506 104.159 377.506 104.128C377.506 104.097 377.522 104.066 377.553 104.035C377.584 104.004 377.609 103.973 377.63 103.942C377.651 103.911 377.697 103.875 377.77 103.834C377.842 103.793 377.909 103.756 377.971 103.725C378.033 103.694 378.131 103.648 378.265 103.586C378.4 103.524 378.529 103.467 378.653 103.415C378.777 103.364 378.942 103.286 379.149 103.183C379.356 103.079 379.562 102.976 379.769 102.873L377.661 101.865C377.568 101.772 377.522 101.653 377.522 101.509C377.522 101.354 377.568 101.225 377.661 101.121C377.754 101.018 377.878 100.961 378.033 100.951C378.116 100.951 378.209 100.982 378.312 101.044C378.415 101.106 378.699 101.312 379.164 101.664L380.063 102.315Z" fill="black"/>
<path d="M385.72 102.873C385.72 102.16 385.772 101.483 385.875 100.842C385.979 100.202 386.098 99.6487 386.232 99.1837C386.366 98.7187 386.557 98.264 386.805 97.8197C387.053 97.3753 387.25 97.0291 387.394 96.7811C387.539 96.5331 387.756 96.2645 388.045 95.9751C388.335 95.6858 388.505 95.5101 388.557 95.4481C388.608 95.3861 388.738 95.2776 388.944 95.1226H389.146H389.208C389.352 95.1226 389.425 95.1691 389.425 95.2621C389.425 95.2931 389.337 95.4016 389.161 95.5876C388.986 95.7736 388.774 96.0474 388.526 96.4091C388.278 96.7708 388.025 97.2151 387.766 97.7422C387.508 98.2692 387.291 98.9822 387.115 99.8812C386.94 100.78 386.852 101.777 386.852 102.873C386.852 103.968 386.94 104.96 387.115 105.849C387.291 106.738 387.503 107.456 387.751 108.003C387.999 108.551 388.252 108.995 388.51 109.337C388.769 109.678 388.986 109.951 389.161 110.158C389.337 110.365 389.425 110.473 389.425 110.484C389.425 110.577 389.347 110.623 389.192 110.623H389.146H388.944L388.51 110.251C387.539 109.373 386.831 108.277 386.387 106.965C385.943 105.653 385.72 104.289 385.72 102.873Z" fill="black"/>
<path d="M393.609 97.7886L393.408 97.8661C393.263 97.9178 393.056 97.9695 392.788 98.0211C392.519 98.0728 392.219 98.109 391.889 98.1297H391.594V97.4166H391.889C392.374 97.396 392.824 97.3185 393.237 97.1841C393.65 97.0498 393.94 96.9258 394.105 96.8121C394.27 96.6984 394.415 96.5848 394.539 96.4711C394.56 96.4401 394.622 96.4246 394.725 96.4246C394.818 96.4246 394.906 96.4556 394.988 96.5176V101.152L395.004 105.802C395.076 105.875 395.138 105.921 395.19 105.942C395.242 105.963 395.366 105.983 395.562 106.004C395.758 106.025 396.079 106.035 396.523 106.035H396.926V106.748H396.755C396.538 106.717 395.717 106.701 394.291 106.701C392.886 106.701 392.075 106.717 391.858 106.748H391.672V106.035H392.075C392.302 106.035 392.498 106.035 392.664 106.035C392.829 106.035 392.958 106.03 393.051 106.019C393.144 106.009 393.227 105.994 393.299 105.973C393.371 105.952 393.413 105.942 393.423 105.942C393.433 105.942 393.464 105.916 393.516 105.864C393.568 105.813 393.599 105.792 393.609 105.802V97.7886Z" fill="black"/>
<path d="M398.987 95.1381L399.049 95.1226C399.101 95.1226 399.153 95.1226 399.204 95.1226H399.39L399.824 95.4946C400.796 96.373 401.503 97.4683 401.948 98.7807C402.392 100.093 402.614 101.457 402.614 102.873C402.614 103.576 402.563 104.252 402.459 104.903C402.356 105.554 402.237 106.107 402.103 106.562C401.968 107.017 401.777 107.471 401.529 107.926C401.281 108.381 401.085 108.727 400.94 108.964C400.796 109.202 400.584 109.466 400.305 109.755C400.026 110.044 399.861 110.215 399.809 110.267C399.757 110.318 399.638 110.416 399.452 110.561C399.421 110.592 399.401 110.613 399.39 110.623H399.204C399.122 110.623 399.065 110.623 399.034 110.623C399.003 110.623 398.977 110.608 398.956 110.577C398.936 110.546 398.92 110.499 398.91 110.437C398.92 110.427 398.977 110.36 399.08 110.236C400.682 108.572 401.483 106.118 401.483 102.873C401.483 99.6281 400.682 97.1738 399.08 95.5101C398.977 95.3861 398.92 95.3189 398.91 95.3086C398.91 95.2259 398.936 95.1691 398.987 95.1381Z" fill="black"/>
<rect x="350" y="280" width="70" height="50" rx="10" fill="#9BCC8F"/>
<path d="M367 311.396C367 309.905 367.285 308.334 367.855 306.682C368.425 305.031 369.199 303.605 370.179 302.407C371.158 301.208 372.174 300.521 373.226 300.346C373.24 300.346 373.299 300.346 373.401 300.346C373.503 300.346 373.591 300.339 373.664 300.324C374.453 300.383 375.067 300.741 375.506 301.398C376.076 302.275 376.361 303.452 376.361 304.928C376.361 306.609 376.032 308.319 375.374 310.058C374.717 311.798 373.876 313.223 372.853 314.334C371.83 315.445 370.851 316 369.916 316H369.762C369.236 316 368.783 315.854 368.403 315.562C368.023 315.269 367.738 314.882 367.548 314.4C367.358 313.917 367.219 313.428 367.132 312.931C367.044 312.434 367 311.922 367 311.396ZM374.629 303.372C374.629 301.881 374.242 301.135 373.467 301.135C372.941 301.135 372.429 301.464 371.932 302.122C371.436 302.78 371.026 303.525 370.705 304.358C370.383 305.191 370.135 305.922 369.959 306.551C369.784 307.179 369.689 307.545 369.674 307.647C370.391 307.661 371.099 307.669 371.801 307.669L373.927 307.647C373.942 307.632 374 307.391 374.103 306.923C374.205 306.456 374.322 305.871 374.453 305.169C374.585 304.468 374.643 303.869 374.629 303.372ZM368.71 312.887C368.71 314.436 369.097 315.211 369.872 315.211C370.091 315.211 370.325 315.138 370.573 314.991C370.822 314.845 371.121 314.568 371.472 314.158C371.823 313.749 372.174 313.113 372.524 312.251C372.875 311.389 373.226 310.322 373.577 309.05L373.686 308.677H369.411C369.411 308.721 369.346 308.999 369.214 309.51C369.083 310.022 368.966 310.592 368.863 311.22C368.761 311.849 368.71 312.404 368.71 312.887Z" fill="black"/>
<path d="M380.063 302.315C379.929 300.93 379.862 300.155 379.862 299.99C379.862 299.804 379.986 299.659 380.234 299.556C380.244 299.556 380.27 299.556 380.311 299.556C380.353 299.556 380.384 299.551 380.404 299.54C380.528 299.551 380.642 299.597 380.745 299.68C380.849 299.762 380.9 299.866 380.9 299.99C380.9 300.165 380.869 300.579 380.807 301.23C380.745 301.881 380.709 302.243 380.699 302.315L381.598 301.664C382.176 301.24 382.491 301.013 382.543 300.982C382.595 300.951 382.646 300.935 382.698 300.935C382.832 300.935 382.956 300.987 383.07 301.09C383.184 301.194 383.246 301.333 383.256 301.509C383.256 301.643 383.204 301.762 383.101 301.865C383.049 301.896 382.698 302.067 382.047 302.377C381.396 302.687 381.045 302.852 380.993 302.873L382.016 303.353L383.101 303.896C383.194 303.989 383.241 304.108 383.241 304.252C383.241 304.407 383.194 304.537 383.101 304.64C383.008 304.743 382.884 304.8 382.729 304.81C382.646 304.81 382.553 304.779 382.45 304.717C382.347 304.655 382.063 304.449 381.598 304.097L380.699 303.446C380.833 304.831 380.9 305.606 380.9 305.771C380.9 305.875 380.864 305.973 380.792 306.066C380.719 306.159 380.585 306.205 380.389 306.205C380.192 306.205 380.058 306.159 379.986 306.066C379.914 305.973 379.872 305.875 379.862 305.771C379.862 305.596 379.893 305.182 379.955 304.531C380.017 303.88 380.053 303.519 380.063 303.446L379.164 304.097C378.586 304.521 378.271 304.748 378.219 304.779C378.178 304.81 378.126 304.826 378.064 304.826C377.93 304.826 377.806 304.774 377.692 304.671C377.578 304.568 377.516 304.428 377.506 304.252C377.506 304.201 377.506 304.159 377.506 304.128C377.506 304.097 377.522 304.066 377.553 304.035C377.584 304.004 377.609 303.973 377.63 303.942C377.651 303.911 377.697 303.875 377.77 303.834C377.842 303.793 377.909 303.756 377.971 303.725C378.033 303.694 378.131 303.648 378.265 303.586C378.4 303.524 378.529 303.467 378.653 303.415C378.777 303.364 378.942 303.286 379.149 303.183C379.356 303.08 379.562 302.976 379.769 302.873L377.661 301.865C377.568 301.772 377.522 301.653 377.522 301.509C377.522 301.354 377.568 301.225 377.661 301.121C377.754 301.018 377.878 300.961 378.033 300.951C378.116 300.951 378.209 300.982 378.312 301.044C378.415 301.106 378.699 301.312 379.164 301.664L380.063 302.315Z" fill="black"/>
<path d="M385.72 302.873C385.72 302.16 385.772 301.483 385.875 300.842C385.979 300.202 386.098 299.649 386.232 299.184C386.366 298.719 386.557 298.264 386.805 297.82C387.053 297.375 387.25 297.029 387.394 296.781C387.539 296.533 387.756 296.264 388.045 295.975C388.335 295.686 388.505 295.51 388.557 295.448C388.608 295.386 388.738 295.278 388.944 295.123H389.146H389.208C389.352 295.123 389.425 295.169 389.425 295.262C389.425 295.293 389.337 295.402 389.161 295.588C388.986 295.774 388.774 296.047 388.526 296.409C388.278 296.771 388.025 297.215 387.766 297.742C387.508 298.269 387.291 298.982 387.115 299.881C386.94 300.78 386.852 301.777 386.852 302.873C386.852 303.968 386.94 304.96 387.115 305.849C387.291 306.738 387.503 307.456 387.751 308.004C387.999 308.551 388.252 308.996 388.51 309.337C388.769 309.678 388.986 309.951 389.161 310.158C389.337 310.365 389.425 310.473 389.425 310.484C389.425 310.577 389.347 310.623 389.192 310.623H389.146H388.944L388.51 310.251C387.539 309.373 386.831 308.277 386.387 306.965C385.943 305.653 385.72 304.289 385.72 302.873Z" fill="black"/>
<path d="M392.338 302.268C392.338 301.938 392.421 301.602 392.586 301.261C392.752 300.92 393.041 300.605 393.454 300.315C393.867 300.026 394.369 299.886 394.958 299.897C395.598 299.897 396.063 300.036 396.352 300.315C396.642 300.594 396.792 300.904 396.802 301.245C396.802 301.576 396.714 301.819 396.538 301.974C396.363 302.129 396.166 302.211 395.949 302.222C395.815 302.222 395.691 302.18 395.578 302.098C395.464 302.015 395.402 301.881 395.392 301.695C395.392 301.529 395.438 301.385 395.531 301.261C395.624 301.137 395.712 301.044 395.794 300.982C395.877 300.92 395.944 300.889 395.996 300.889C396.006 300.889 396.011 300.884 396.011 300.873C396.011 300.842 395.975 300.796 395.903 300.734C395.831 300.672 395.701 300.615 395.516 300.563C395.33 300.512 395.128 300.481 394.911 300.47C394.415 300.47 394.053 300.605 393.826 300.873C393.599 301.142 393.48 301.416 393.47 301.695C393.47 301.953 393.568 302.134 393.764 302.237C393.96 302.341 394.245 302.428 394.617 302.501C394.989 302.573 395.257 302.651 395.423 302.733C396.104 303.033 396.445 303.529 396.445 304.221C396.445 304.511 396.389 304.8 396.275 305.089C396.161 305.379 395.991 305.668 395.763 305.957C395.536 306.247 395.211 306.474 394.787 306.639C394.363 306.805 393.878 306.893 393.33 306.903C392.535 306.903 391.971 306.753 391.641 306.453C391.31 306.154 391.14 305.802 391.129 305.399C391.129 304.996 391.238 304.707 391.455 304.531C391.672 304.356 391.899 304.268 392.137 304.268C392.292 304.268 392.436 304.314 392.571 304.407C392.705 304.5 392.777 304.66 392.788 304.888C392.788 305.157 392.695 305.384 392.509 305.57C392.323 305.756 392.163 305.849 392.028 305.849C392.008 305.859 391.992 305.864 391.982 305.864C391.971 305.864 391.966 305.875 391.966 305.895C391.977 305.926 392.018 305.968 392.09 306.019C392.163 306.071 392.323 306.138 392.571 306.221C392.819 306.304 393.103 306.34 393.423 306.329C393.795 306.329 394.115 306.273 394.384 306.159C394.653 306.045 394.849 305.901 394.973 305.725C395.097 305.549 395.185 305.389 395.237 305.244C395.288 305.1 395.314 304.97 395.314 304.857C395.314 304.567 395.206 304.35 394.989 304.206C394.772 304.061 394.524 303.973 394.245 303.942C393.966 303.911 393.661 303.834 393.33 303.71C393 303.586 392.757 303.405 392.602 303.167C392.426 302.909 392.338 302.609 392.338 302.268Z" fill="black"/>
<path d="M398.507 295.138L398.569 295.123C398.621 295.123 398.672 295.123 398.724 295.123H398.91L399.344 295.495C400.315 296.373 401.023 297.468 401.467 298.781C401.911 300.093 402.134 301.457 402.134 302.873C402.134 303.576 402.082 304.252 401.979 304.903C401.875 305.554 401.757 306.107 401.622 306.562C401.488 307.017 401.297 307.471 401.049 307.926C400.801 308.381 400.604 308.727 400.46 308.965C400.315 309.202 400.103 309.466 399.824 309.755C399.545 310.044 399.38 310.215 399.328 310.267C399.277 310.318 399.158 310.416 398.972 310.561C398.941 310.592 398.92 310.613 398.91 310.623H398.724C398.641 310.623 398.584 310.623 398.553 310.623C398.522 310.623 398.497 310.608 398.476 310.577C398.455 310.546 398.44 310.499 398.429 310.437C398.44 310.427 398.497 310.36 398.6 310.236C400.201 308.572 401.002 306.118 401.002 302.873C401.002 299.628 400.201 297.174 398.6 295.51C398.497 295.386 398.44 295.319 398.429 295.309C398.429 295.226 398.455 295.169 398.507 295.138Z" fill="black"/>
<rect x="470" y="180" width="50" height="50" rx="10" fill="#8FC5CC"/>
<path d="M487 208.396C487 206.905 487.285 205.334 487.855 203.682C488.425 202.031 489.199 200.605 490.179 199.407C491.158 198.208 492.174 197.521 493.226 197.346C493.24 197.346 493.299 197.346 493.401 197.346C493.503 197.346 493.591 197.339 493.664 197.324C494.453 197.383 495.067 197.741 495.506 198.398C496.076 199.275 496.361 200.452 496.361 201.928C496.361 203.609 496.032 205.319 495.374 207.059C494.717 208.798 493.876 210.223 492.853 211.334C491.83 212.445 490.851 213 489.916 213H489.762C489.236 213 488.783 212.854 488.403 212.562C488.023 212.269 487.738 211.882 487.548 211.4C487.358 210.917 487.219 210.428 487.132 209.931C487.044 209.434 487 208.922 487 208.396ZM494.629 200.372C494.629 198.881 494.242 198.135 493.467 198.135C492.941 198.135 492.429 198.464 491.932 199.122C491.436 199.78 491.026 200.525 490.705 201.358C490.383 202.191 490.135 202.922 489.959 203.551C489.784 204.179 489.689 204.545 489.674 204.647C490.391 204.661 491.099 204.669 491.801 204.669L493.927 204.647C493.942 204.632 494 204.391 494.103 203.923C494.205 203.456 494.322 202.871 494.453 202.169C494.585 201.468 494.643 200.869 494.629 200.372ZM488.71 209.887C488.71 211.436 489.097 212.211 489.872 212.211C490.091 212.211 490.325 212.138 490.573 211.991C490.822 211.845 491.121 211.568 491.472 211.158C491.823 210.749 492.174 210.113 492.524 209.251C492.875 208.389 493.226 207.322 493.577 206.05L493.686 205.677H489.411C489.411 205.721 489.346 205.999 489.214 206.51C489.083 207.022 488.966 207.592 488.863 208.22C488.761 208.849 488.71 209.404 488.71 209.887Z" fill="black"/>
<path d="M500.058 199.311C499.923 197.926 499.856 197.151 499.856 196.986C499.856 196.8 499.98 196.655 500.228 196.552C500.238 196.552 500.264 196.552 500.306 196.552C500.347 196.552 500.378 196.547 500.399 196.536C500.523 196.547 500.636 196.593 500.74 196.676C500.843 196.758 500.895 196.862 500.895 196.986C500.895 197.161 500.864 197.575 500.802 198.226C500.74 198.877 500.703 199.238 500.693 199.311L501.592 198.66C502.171 198.236 502.486 198.009 502.537 197.978C502.589 197.947 502.641 197.931 502.692 197.931C502.827 197.931 502.951 197.983 503.064 198.086C503.178 198.19 503.24 198.329 503.25 198.505C503.25 198.639 503.199 198.758 503.095 198.861C503.044 198.892 502.692 199.063 502.041 199.373C501.39 199.683 501.039 199.848 500.988 199.869L502.01 200.349L503.095 200.892C503.188 200.985 503.235 201.104 503.235 201.248C503.235 201.403 503.188 201.533 503.095 201.636C503.002 201.739 502.878 201.796 502.723 201.806C502.641 201.806 502.548 201.775 502.444 201.713C502.341 201.651 502.057 201.445 501.592 201.093L500.693 200.442C500.827 201.827 500.895 202.602 500.895 202.767C500.895 202.871 500.858 202.969 500.786 203.062C500.714 203.155 500.579 203.201 500.383 203.201C500.187 203.201 500.052 203.155 499.98 203.062C499.908 202.969 499.866 202.871 499.856 202.767C499.856 202.592 499.887 202.178 499.949 201.527C500.011 200.876 500.047 200.515 500.058 200.442L499.159 201.093C498.58 201.517 498.265 201.744 498.213 201.775C498.172 201.806 498.12 201.822 498.058 201.822C497.924 201.822 497.8 201.77 497.686 201.667C497.573 201.564 497.511 201.424 497.5 201.248C497.5 201.197 497.5 201.155 497.5 201.124C497.5 201.093 497.516 201.062 497.547 201.031C497.578 201 497.604 200.969 497.624 200.938C497.645 200.907 497.691 200.871 497.764 200.83C497.836 200.789 497.903 200.752 497.965 200.721C498.027 200.69 498.125 200.644 498.26 200.582C498.394 200.52 498.523 200.463 498.647 200.411C498.771 200.36 498.937 200.282 499.143 200.179C499.35 200.075 499.556 199.972 499.763 199.869L497.655 198.861C497.562 198.768 497.516 198.649 497.516 198.505C497.516 198.35 497.562 198.221 497.655 198.117C497.748 198.014 497.872 197.957 498.027 197.947C498.11 197.947 498.203 197.978 498.306 198.04C498.41 198.102 498.694 198.308 499.159 198.66L500.058 199.311Z" fill="black"/>
<text fill="black" xml:space="preserve" style="white-space: pre" font-family="Roboto" font-size="14" letter-spacing="0em"><tspan x="8.02707" y="18.4062">Full Dataset</tspan></text>
<text fill="black" xml:space="preserve" style="white-space: pre" font-family="Roboto" font-size="14" letter-spacing="0em"><tspan x="181.975" y="18.4062">Subsamples</tspan></text>
<text fill="black" xml:space="preserve" style="white-space: pre" font-family="Roboto" font-size="14" letter-spacing="0em"><tspan x="354.297" y="18.4062">Estimates</tspan></text>
<text fill="black" xml:space="preserve" style="white-space: pre" font-family="Roboto" font-size="14" letter-spacing="0em"><tspan x="449.321" y="18.4062">Combined Estimate</tspan></text>
</g>
<defs>
<clipPath id="clip0">
<rect width="960" height="380" fill="white"/>
</clipPath>
</defs>
</svg>
