<svg width="180" height="150" viewBox="0 0 180 150" fill="none" xmlns="http://www.w3.org/2000/svg">
<rect width="180" height="150" fill="white"/>
<circle cx="105" cy="75" r="75" fill="#C9CCE9"/>
<line x1="104.536" y1="74.8135" x2="132.512" y2="5.22661" stroke="#3B3B3B" stroke-dasharray="4 2"/>
<path d="M105 75L95 69.2265V80.7735L105 75ZM5 76H96V74H5V76Z" fill="black"/>
<path d="M58.9541 101.248L52.4875 91.6816L47.436 102.065L58.9541 101.248ZM4.56253 75.8992L50.4235 98.21L51.2985 96.4115L5.43747 74.1008L4.56253 75.8992Z" fill="#318B1A"/>
<path d="M62 94.2398C62 94.2063 62.0279 94.1672 62.0838 94.1225H74.314C74.3698 94.1672 74.3977 94.2063 74.3977 94.2398C74.3977 94.2622 73.454 96.2168 71.5664 100.104C69.6788 103.99 68.7127 105.956 68.668 106.001C68.6121 106.079 68.4558 106.118 68.1989 106.118C67.942 106.118 67.7856 106.079 67.7298 106.001C67.6963 105.956 66.7357 103.99 64.8481 100.104C62.9605 96.2168 62.0112 94.2622 62 94.2398ZM72.9067 95.5801C72.9067 95.5689 71.4994 95.5634 68.6847 95.5634C65.8701 95.5634 64.4628 95.5689 64.4628 95.5801C64.4851 95.636 65.1888 97.0879 66.5738 99.9361C67.9587 102.784 68.6624 104.214 68.6847 104.225L72.9067 95.5801Z" fill="#318B1A"/>
<path d="M82.6741 95.0943C82.6741 94.9603 82.1547 94.8932 81.116 94.8932H80.6971C80.6301 94.8374 80.5966 94.7927 80.5966 94.7592C80.5966 94.7257 80.6078 94.6196 80.6301 94.4409C80.6748 94.2957 80.7307 94.1896 80.7977 94.1226H81.0825C81.5404 94.1449 82.3558 94.1561 83.5285 94.1561C84.0088 94.1561 84.3997 94.1561 84.7013 94.1561C85.0029 94.1561 85.2095 94.1505 85.3212 94.1393C85.4329 94.1282 85.511 94.1282 85.5557 94.1393C85.7121 94.1393 85.7903 94.1952 85.7903 94.3069C85.7903 94.3292 85.7735 94.4074 85.74 94.5414C85.6953 94.7201 85.6562 94.8206 85.6227 94.843C85.5892 94.8653 85.4831 94.8821 85.3044 94.8932C84.7236 94.8932 84.3941 94.9714 84.3159 95.1278C84.2713 95.273 83.925 96.6524 83.2772 99.266C82.5736 102.036 82.2161 103.426 82.205 103.438C81.9593 104.141 81.479 104.733 80.7642 105.214C80.0493 105.694 79.2787 105.934 78.4521 105.934C77.8043 105.934 77.2571 105.766 76.8103 105.431C76.3635 105.096 76.1401 104.649 76.1401 104.091C76.1401 103.622 76.2686 103.265 76.5255 103.019C76.7824 102.773 77.0728 102.65 77.3967 102.65C77.8993 102.65 78.1785 102.896 78.2344 103.387C78.2344 103.745 78.1338 104.024 77.9328 104.225C77.7317 104.426 77.5028 104.56 77.2459 104.627C77.1565 104.649 77.1119 104.666 77.1119 104.677C77.1119 104.689 77.1509 104.739 77.2291 104.828C77.5195 105.152 77.9384 105.314 78.4857 105.314C78.9101 105.314 79.3233 105.135 79.7254 104.778C80.1275 104.421 80.4235 103.957 80.6134 103.387C80.6581 103.253 81.0099 101.857 81.6689 99.199C82.3278 96.5407 82.6629 95.1725 82.6741 95.0943Z" fill="#318B1A"/>
<path d="M91.0456 102.095C90.9035 102.095 90.8324 102.055 90.8324 101.976C90.8324 101.953 90.8443 101.885 90.868 101.775C90.8916 101.664 90.9035 101.566 90.9035 101.479C90.9035 101.289 90.8482 101.131 90.7377 101.005C90.635 100.91 90.4534 100.827 90.1928 100.756C89.9322 100.685 89.6479 100.646 89.34 100.638C89.0557 100.638 88.8148 100.681 88.6174 100.768C88.42 100.855 88.2739 100.973 88.1792 101.123C88.0844 101.274 88.0173 101.404 87.9778 101.514C87.9383 101.625 87.9186 101.739 87.9186 101.858C87.9186 102.071 87.9699 102.268 88.0726 102.45C88.1752 102.632 88.3292 102.79 88.5345 102.924C88.7398 103.058 88.882 103.149 88.9609 103.196C89.0399 103.244 89.1623 103.303 89.3281 103.374C89.5334 103.477 89.6993 103.56 89.8256 103.623C89.952 103.686 90.1217 103.789 90.3349 103.931C90.5481 104.073 90.71 104.207 90.8206 104.333C90.9311 104.46 91.0377 104.622 91.1404 104.819C91.243 105.016 91.2904 105.218 91.2825 105.423C91.2825 106.197 90.8482 106.888 89.9796 107.496C89.111 108.104 88.1476 108.412 87.0894 108.42C86.4419 108.42 85.8813 108.25 85.4075 107.911C84.9337 107.571 84.6968 107.168 84.6968 106.702C84.6968 106.221 84.8666 105.81 85.2061 105.471C85.5457 105.131 85.9207 104.945 86.3314 104.914C86.5051 104.914 86.592 104.957 86.592 105.044C86.592 105.068 86.588 105.088 86.5801 105.103C86.5406 105.19 86.4893 105.265 86.4261 105.328C86.363 105.392 86.3116 105.439 86.2721 105.471C86.2327 105.502 86.1734 105.538 86.0945 105.577L85.9879 105.636L85.9523 105.767C85.905 105.893 85.8813 106.047 85.8813 106.229C85.8971 106.537 86.0826 106.841 86.438 107.141C86.7933 107.441 87.2948 107.591 87.9423 107.591C88.5898 107.591 89.107 107.441 89.494 107.141C89.8809 106.841 90.0783 106.446 90.0862 105.956V105.873C90.0862 105.289 89.5887 104.76 88.5937 104.286C87.9699 103.994 87.5435 103.749 87.3145 103.552C86.9355 103.22 86.7459 102.837 86.7459 102.403C86.7459 101.921 86.9473 101.471 87.35 101.052C87.7528 100.634 88.2029 100.322 88.7003 100.117C89.1978 99.9114 89.6479 99.8087 90.0507 99.8087C90.0665 99.8087 90.098 99.8087 90.1454 99.8087C90.1928 99.8087 90.2362 99.8126 90.2757 99.8205C90.7653 99.8205 91.1878 99.9074 91.5431 100.081C91.8985 100.255 92.0801 100.539 92.088 100.934C92.088 101.281 92.0051 101.538 91.8392 101.704C91.6102 101.933 91.3457 102.063 91.0456 102.095Z" fill="#318B1A"/>
<path d="M95.3566 101.377C95.3566 100.606 95.4125 99.8746 95.5242 99.1821C95.6359 98.4896 95.7643 97.8921 95.9095 97.3895C96.0547 96.8869 96.2613 96.3954 96.5294 95.9152C96.7974 95.4349 97.0097 95.0607 97.166 94.7927C97.3224 94.5246 97.5569 94.2342 97.8697 93.9215C98.1824 93.6087 98.3667 93.4189 98.4226 93.3518C98.4784 93.2848 98.618 93.1675 98.8414 93H99.0592H99.1262C99.2826 93 99.3608 93.0503 99.3608 93.1508C99.3608 93.1843 99.2658 93.3016 99.076 93.5026C98.8861 93.7037 98.6571 93.9996 98.3891 94.3906C98.121 94.7815 97.8473 95.2618 97.5681 95.8314C97.2889 96.401 97.0543 97.1717 96.8645 98.1434C96.6746 99.1151 96.5796 100.193 96.5796 101.377C96.5796 102.561 96.6746 103.633 96.8645 104.594C97.0543 105.554 97.2833 106.33 97.5514 106.922C97.8194 107.514 98.0931 107.995 98.3723 108.363C98.6515 108.732 98.8861 109.028 99.076 109.251C99.2658 109.474 99.3608 109.592 99.3608 109.603C99.3608 109.703 99.277 109.754 99.1095 109.754H99.0592H98.8414L98.3723 109.352C97.3224 108.402 96.5573 107.218 96.077 105.8C95.5968 104.381 95.3566 102.907 95.3566 101.377Z" fill="#318B1A"/>
<path d="M110.016 99.1151C110.016 98.8806 110.122 98.6628 110.335 98.4617C110.547 98.2607 110.781 98.1546 111.038 98.1434C111.239 98.1434 111.424 98.2439 111.591 98.445C111.759 98.646 111.848 98.9643 111.859 99.3999C111.859 99.7238 111.753 100.366 111.541 101.327C111.373 101.952 111.222 102.466 111.088 102.868C110.954 103.27 110.759 103.722 110.502 104.225C110.245 104.728 109.938 105.107 109.581 105.364C109.223 105.621 108.821 105.75 108.374 105.75C107.883 105.75 107.447 105.66 107.068 105.482C106.688 105.303 106.414 105.063 106.247 104.761C106.235 104.772 106.219 104.795 106.196 104.828C105.738 105.442 105.18 105.75 104.521 105.75C104.231 105.75 103.951 105.716 103.683 105.649C103.415 105.582 103.153 105.476 102.896 105.331C102.639 105.186 102.432 104.968 102.276 104.677C102.12 104.387 102.041 104.035 102.041 103.622C102.041 103.019 102.231 102.203 102.611 101.176C102.991 100.148 103.186 99.4949 103.197 99.2156C103.197 99.2045 103.197 99.1933 103.197 99.1821C103.197 99.0816 103.197 99.0146 103.197 98.9811C103.197 98.9476 103.175 98.9085 103.13 98.8638C103.086 98.8191 103.024 98.7968 102.946 98.7968H102.879C102.622 98.7968 102.388 98.9029 102.175 99.1151C101.963 99.3273 101.796 99.5563 101.673 99.802C101.55 100.048 101.455 100.282 101.388 100.506C101.321 100.729 101.276 100.852 101.254 100.874C101.232 100.897 101.142 100.908 100.986 100.908H100.751C100.684 100.841 100.651 100.79 100.651 100.757C100.651 100.69 100.696 100.534 100.785 100.288C100.874 100.042 101.003 99.7573 101.17 99.4334C101.338 99.1095 101.584 98.8191 101.907 98.5622C102.231 98.3054 102.594 98.1769 102.996 98.1769C103.477 98.1769 103.845 98.3165 104.102 98.5958C104.359 98.875 104.487 99.1989 104.487 99.5675C104.487 99.7685 104.303 100.372 103.935 101.377C103.566 102.382 103.382 103.158 103.382 103.706C103.382 104.219 103.499 104.582 103.734 104.795C103.968 105.007 104.264 105.119 104.622 105.13C105.102 105.13 105.526 104.789 105.895 104.108L105.979 103.957V103.572C105.979 103.538 105.979 103.488 105.979 103.421C105.979 103.354 105.984 103.309 105.995 103.287C106.006 103.264 106.012 103.225 106.012 103.17C106.012 103.114 106.018 103.063 106.029 103.019C106.04 102.974 106.057 102.901 106.079 102.801C106.101 102.7 106.118 102.605 106.129 102.516C106.141 102.427 106.174 102.293 106.23 102.114C106.286 101.935 106.33 101.757 106.364 101.578C106.397 101.399 106.459 101.159 106.548 100.858C106.872 99.5842 107.056 98.8973 107.101 98.7968C107.246 98.4952 107.486 98.3444 107.821 98.3444C108.034 98.3444 108.179 98.4003 108.257 98.512C108.335 98.6237 108.38 98.7298 108.391 98.8303C108.391 98.9755 108.229 99.6903 107.905 100.975C107.581 102.259 107.403 102.996 107.369 103.186C107.347 103.309 107.336 103.505 107.336 103.773V103.89C107.336 104.057 107.352 104.219 107.386 104.376C107.419 104.532 107.525 104.694 107.704 104.862C107.883 105.029 108.134 105.119 108.458 105.13C109.251 105.13 109.882 104.448 110.351 103.086C110.452 102.829 110.563 102.466 110.686 101.997C110.809 101.528 110.876 101.193 110.887 100.992C110.887 100.623 110.815 100.333 110.67 100.12C110.524 99.9081 110.379 99.7294 110.234 99.5842C110.089 99.439 110.016 99.2827 110.016 99.1151Z" fill="#318B1A"/>
<path d="M113.317 93.0168L113.384 93C113.44 93 113.495 93 113.551 93H113.752L114.221 93.4021C115.271 94.3515 116.036 95.5354 116.517 96.9539C116.997 98.3724 117.237 99.8467 117.237 101.377C117.237 102.136 117.181 102.868 117.07 103.572C116.958 104.275 116.829 104.873 116.684 105.364C116.539 105.856 116.332 106.347 116.064 106.839C115.796 107.33 115.584 107.704 115.428 107.961C115.271 108.218 115.042 108.503 114.741 108.816C114.439 109.128 114.26 109.313 114.205 109.368C114.149 109.424 114.02 109.53 113.819 109.687C113.786 109.72 113.763 109.743 113.752 109.754H113.551C113.462 109.754 113.4 109.754 113.367 109.754C113.333 109.754 113.306 109.737 113.283 109.703C113.261 109.67 113.244 109.62 113.233 109.553C113.244 109.542 113.306 109.469 113.417 109.335C115.148 107.537 116.014 104.884 116.014 101.377C116.014 97.8698 115.148 95.2171 113.417 93.4189C113.306 93.2848 113.244 93.2122 113.233 93.2011C113.233 93.1117 113.261 93.0503 113.317 93.0168Z" fill="#318B1A"/>
<path d="M110 71.2398C110 71.2063 110.028 71.1672 110.084 71.1225H122.314C122.37 71.1672 122.398 71.2063 122.398 71.2398C122.398 71.2621 121.454 73.2167 119.566 77.1036C117.679 80.9905 116.713 82.9562 116.668 83.0009C116.612 83.0791 116.456 83.1182 116.199 83.1182C115.942 83.1182 115.786 83.0791 115.73 83.0009C115.696 82.9562 114.736 80.9905 112.848 77.1036C110.961 73.2167 110.011 71.2621 110 71.2398ZM120.907 72.5801C120.907 72.5689 119.499 72.5633 116.685 72.5633C113.87 72.5633 112.463 72.5689 112.463 72.5801C112.485 72.6359 113.189 74.0879 114.574 76.9361C115.959 79.7842 116.662 81.2138 116.685 81.225L120.907 72.5801Z" fill="black"/>
<path d="M130.674 72.0942C130.674 71.9601 130.155 71.8931 129.116 71.8931H128.697C128.63 71.8373 128.597 71.7926 128.597 71.7591C128.597 71.7256 128.608 71.6195 128.63 71.4408C128.675 71.2956 128.731 71.1895 128.798 71.1224H129.082C129.54 71.1448 130.356 71.1559 131.529 71.1559C132.009 71.1559 132.4 71.1559 132.701 71.1559C133.003 71.1559 133.209 71.1504 133.321 71.1392C133.433 71.128 133.511 71.128 133.556 71.1392C133.712 71.1392 133.79 71.195 133.79 71.3067C133.79 71.3291 133.774 71.4073 133.74 71.5413C133.695 71.72 133.656 71.8205 133.623 71.8428C133.589 71.8652 133.483 71.8819 133.304 71.8931C132.724 71.8931 132.394 71.9713 132.316 72.1277C132.271 72.2729 131.925 73.6523 131.277 76.2658C130.574 79.0358 130.216 80.4263 130.205 80.4375C129.959 81.1412 129.479 81.7331 128.764 82.2134C128.049 82.6937 127.279 82.9338 126.452 82.9338C125.804 82.9338 125.257 82.7663 124.81 82.4312C124.364 82.0961 124.14 81.6494 124.14 81.0909C124.14 80.6218 124.269 80.2644 124.525 80.0187C124.782 79.7729 125.073 79.6501 125.397 79.6501C125.899 79.6501 126.179 79.8958 126.234 80.3872C126.234 80.7447 126.134 81.0239 125.933 81.2249C125.732 81.426 125.503 81.56 125.246 81.627C125.157 81.6494 125.112 81.6661 125.112 81.6773C125.112 81.6884 125.151 81.7387 125.229 81.8281C125.52 82.152 125.938 82.3139 126.486 82.3139C126.91 82.3139 127.323 82.1352 127.725 81.7778C128.128 81.4204 128.424 80.9569 128.613 80.3872C128.658 80.2532 129.01 78.8571 129.669 76.1988C130.328 73.5406 130.663 72.1723 130.674 72.0942Z" fill="black"/>
<path d="M135.382 78.3769C135.382 77.6062 135.438 76.8746 135.549 76.1821C135.661 75.4896 135.79 74.8921 135.935 74.3895C136.08 73.8869 136.287 73.3954 136.555 72.9151C136.823 72.4349 137.035 72.0607 137.191 71.7926C137.348 71.5246 137.582 71.2342 137.895 70.9214C138.208 70.6087 138.392 70.4188 138.448 70.3518C138.504 70.2848 138.643 70.1675 138.867 70H139.085H139.152C139.308 70 139.386 70.0503 139.386 70.1508C139.386 70.1843 139.291 70.3016 139.101 70.5026C138.911 70.7036 138.682 70.9996 138.414 71.3906C138.146 71.7815 137.873 72.2617 137.593 72.8314C137.314 73.401 137.08 74.1717 136.89 75.1434C136.7 76.1151 136.605 77.1929 136.605 78.3769C136.605 79.5608 136.7 80.633 136.89 81.5936C137.08 82.5541 137.309 83.3304 137.577 83.9223C137.845 84.5143 138.118 84.9946 138.398 85.3631C138.677 85.7317 138.911 86.0277 139.101 86.2511C139.291 86.4745 139.386 86.5918 139.386 86.6029C139.386 86.7034 139.302 86.7537 139.135 86.7537H139.085H138.867L138.398 86.3516C137.348 85.4022 136.583 84.2183 136.102 82.7998C135.622 81.3814 135.382 79.907 135.382 78.3769Z" fill="black"/>
<path d="M150.041 76.1151C150.041 75.8805 150.147 75.6627 150.36 75.4617C150.572 75.2606 150.806 75.1545 151.063 75.1434C151.264 75.1434 151.449 75.2439 151.616 75.4449C151.784 75.646 151.873 75.9643 151.884 76.3999C151.884 76.7238 151.778 77.366 151.566 78.3266C151.398 78.952 151.248 79.4658 151.114 79.8679C150.98 80.27 150.784 80.7224 150.527 81.225C150.27 81.7276 149.963 82.1073 149.606 82.3642C149.248 82.6211 148.846 82.7496 148.399 82.7496C147.908 82.7496 147.472 82.6602 147.093 82.4815C146.713 82.3028 146.439 82.0627 146.272 81.7611C146.261 81.7723 146.244 81.7946 146.222 81.8281C145.764 82.4424 145.205 82.7496 144.546 82.7496C144.256 82.7496 143.977 82.7161 143.708 82.649C143.44 82.582 143.178 82.4759 142.921 82.3307C142.664 82.1855 142.458 81.9677 142.301 81.6773C142.145 81.3869 142.067 81.0351 142.067 80.6218C142.067 80.0187 142.256 79.2034 142.636 78.1758C143.016 77.1482 143.211 76.4948 143.223 76.2156C143.223 76.2044 143.223 76.1933 143.223 76.1821C143.223 76.0816 143.223 76.0146 143.223 75.9811C143.223 75.9476 143.2 75.9085 143.156 75.8638C143.111 75.8191 143.049 75.7968 142.971 75.7968H142.904C142.647 75.7968 142.413 75.9029 142.201 76.1151C141.988 76.3273 141.821 76.5563 141.698 76.802C141.575 77.0477 141.48 77.2823 141.413 77.5056C141.346 77.729 141.301 77.8519 141.279 77.8742C141.257 77.8966 141.167 77.9077 141.011 77.9077H140.777C140.71 77.8407 140.676 77.7905 140.676 77.757C140.676 77.6899 140.721 77.5336 140.81 77.2878C140.899 77.0421 141.028 76.7573 141.195 76.4334C141.363 76.1095 141.609 75.8191 141.933 75.5622C142.256 75.3053 142.619 75.1769 143.022 75.1769C143.502 75.1769 143.87 75.3165 144.127 75.5957C144.384 75.875 144.513 76.1989 144.513 76.5674C144.513 76.7685 144.328 77.3716 143.96 78.3768C143.591 79.3821 143.407 80.1583 143.407 80.7056C143.407 81.2194 143.524 81.5824 143.759 81.7946C143.993 82.0068 144.289 82.1185 144.647 82.1297C145.127 82.1297 145.551 81.789 145.92 81.1077L146.004 80.9569V80.5716C146.004 80.5381 146.004 80.4878 146.004 80.4208C146.004 80.3538 146.009 80.3091 146.02 80.2868C146.032 80.2644 146.037 80.2253 146.037 80.1695C146.037 80.1136 146.043 80.0634 146.054 80.0187C146.065 79.974 146.082 79.9014 146.104 79.8009C146.127 79.7004 146.143 79.6054 146.154 79.5161C146.166 79.4267 146.199 79.2927 146.255 79.114C146.311 78.9353 146.356 78.7566 146.389 78.5779C146.423 78.3992 146.484 78.159 146.573 77.8575C146.897 76.5842 147.082 75.8973 147.126 75.7968C147.271 75.4952 147.512 75.3444 147.847 75.3444C148.059 75.3444 148.204 75.4003 148.282 75.512C148.36 75.6236 148.405 75.7298 148.416 75.8303C148.416 75.9755 148.254 76.6903 147.93 77.9747C147.606 79.2592 147.428 79.9964 147.394 80.1862C147.372 80.3091 147.361 80.5046 147.361 80.7726V80.8899C147.361 81.0574 147.378 81.2194 147.411 81.3758C147.445 81.5321 147.551 81.6941 147.729 81.8616C147.908 82.0291 148.159 82.1185 148.483 82.1297C149.276 82.1297 149.907 81.4484 150.376 80.0857C150.477 79.8288 150.589 79.4658 150.712 78.9967C150.834 78.5276 150.901 78.1925 150.913 77.9915C150.913 77.6229 150.84 77.3325 150.695 77.1203C150.55 76.9081 150.404 76.7294 150.259 76.5842C150.114 76.439 150.041 76.2826 150.041 76.1151Z" fill="black"/>
<path d="M153.342 70.0167L153.409 70C153.465 70 153.521 70 153.576 70H153.777L154.247 70.4021C155.296 71.3515 156.062 72.5354 156.542 73.9539C157.022 75.3724 157.262 76.8467 157.262 78.3769C157.262 79.1364 157.206 79.8679 157.095 80.5716C156.983 81.2752 156.855 81.8728 156.709 82.3642C156.564 82.8557 156.357 83.3471 156.089 83.8386C155.821 84.33 155.609 84.7042 155.453 84.9611C155.296 85.218 155.067 85.5028 154.766 85.8155C154.464 86.1282 154.286 86.3125 154.23 86.3684C154.174 86.4242 154.045 86.5303 153.844 86.6867C153.811 86.7202 153.789 86.7425 153.777 86.7537H153.576C153.487 86.7537 153.426 86.7537 153.392 86.7537C153.359 86.7537 153.331 86.737 153.308 86.7034C153.286 86.6699 153.269 86.6197 153.258 86.5527C153.269 86.5415 153.331 86.4689 153.442 86.3349C155.174 84.5366 156.039 81.884 156.039 78.3769C156.039 74.8697 155.174 72.2171 153.442 70.4188C153.331 70.2848 153.269 70.2122 153.258 70.201C153.258 70.1117 153.286 70.0503 153.342 70.0167Z" fill="black"/>
<path d="M109 27.7692C109 26.7231 109.213 25.6205 109.639 24.4615C110.066 23.3026 110.645 22.3026 111.377 21.4615C112.109 20.6205 112.869 20.1385 113.656 20.0154C113.667 20.0154 113.71 20.0154 113.787 20.0154C113.863 20.0154 113.929 20.0103 113.984 20C114.574 20.041 115.033 20.2923 115.361 20.7538C115.787 21.3692 116 22.1949 116 23.2308C116 24.4103 115.754 25.6103 115.262 26.8308C114.77 28.0513 114.142 29.0513 113.377 29.8308C112.612 30.6103 111.88 31 111.18 31H111.066C110.672 31 110.333 30.8974 110.049 30.6923C109.765 30.4872 109.552 30.2154 109.41 29.8769C109.268 29.5385 109.164 29.1949 109.098 28.8462C109.033 28.4974 109 28.1385 109 27.7692ZM114.705 22.1385C114.705 21.0923 114.415 20.5692 113.836 20.5692C113.443 20.5692 113.06 20.8 112.689 21.2615C112.317 21.7231 112.011 22.2462 111.77 22.8308C111.53 23.4154 111.344 23.9282 111.213 24.3692C111.082 24.8103 111.011 25.0667 111 25.1385C111.536 25.1487 112.066 25.1538 112.59 25.1538L114.18 25.1385C114.191 25.1282 114.235 24.959 114.311 24.6308C114.388 24.3026 114.475 23.8923 114.574 23.4C114.672 22.9077 114.716 22.4872 114.705 22.1385ZM110.279 28.8154C110.279 29.9026 110.568 30.4462 111.148 30.4462C111.311 30.4462 111.486 30.3949 111.672 30.2923C111.858 30.1897 112.082 29.9949 112.344 29.7077C112.607 29.4205 112.869 28.9744 113.131 28.3692C113.393 27.7641 113.656 27.0154 113.918 26.1231L114 25.8615H110.803C110.803 25.8923 110.754 26.0872 110.656 26.4462C110.557 26.8051 110.47 27.2051 110.393 27.6462C110.317 28.0872 110.279 28.4769 110.279 28.8154Z" fill="black"/>
<rect x="0.5" y="70.5" width="9" height="9" rx="4.5" fill="#303030" stroke="white"/>
</svg>
