<svg width="180" height="150" viewBox="0 0 180 150" fill="none" xmlns="http://www.w3.org/2000/svg">
<rect width="180" height="150" fill="white"/>
<circle cx="105" cy="75" r="75" fill="#C9CCE9"/>
<line x1="104.536" y1="74.8135" x2="132.512" y2="5.22661" stroke="#3B3B3B" stroke-dasharray="4 2"/>
<path d="M105 75L95 69.2265V80.7735L105 75ZM5 76H96V74H5V76Z" fill="black"/>
<path d="M112 69.2398C112 69.2063 112.028 69.1672 112.084 69.1225H124.314C124.37 69.1672 124.398 69.2063 124.398 69.2398C124.398 69.2622 123.454 71.2168 121.566 75.1036C119.679 78.9905 118.713 80.9562 118.668 81.0009C118.612 81.0791 118.456 81.1182 118.199 81.1182C117.942 81.1182 117.786 81.0791 117.73 81.0009C117.696 80.9562 116.736 78.9905 114.848 75.1036C112.961 71.2168 112.011 69.2622 112 69.2398ZM122.907 70.5801C122.907 70.5689 121.499 70.5634 118.685 70.5634C115.87 70.5634 114.463 70.5689 114.463 70.5801C114.485 70.636 115.189 72.0879 116.574 74.9361C117.959 77.7842 118.662 79.2139 118.685 79.225L122.907 70.5801Z" fill="black"/>
<path d="M132.674 70.0943C132.674 69.9603 132.155 69.8932 131.116 69.8932H130.697C130.63 69.8374 130.597 69.7927 130.597 69.7592C130.597 69.7257 130.608 69.6196 130.63 69.4409C130.675 69.2957 130.731 69.1896 130.798 69.1226H131.082C131.54 69.1449 132.356 69.1561 133.529 69.1561C134.009 69.1561 134.4 69.1561 134.701 69.1561C135.003 69.1561 135.209 69.1505 135.321 69.1393C135.433 69.1282 135.511 69.1282 135.556 69.1393C135.712 69.1393 135.79 69.1952 135.79 69.3069C135.79 69.3292 135.774 69.4074 135.74 69.5414C135.695 69.7201 135.656 69.8206 135.623 69.843C135.589 69.8653 135.483 69.8821 135.304 69.8932C134.724 69.8932 134.394 69.9714 134.316 70.1278C134.271 70.273 133.925 71.6524 133.277 74.266C132.574 77.0359 132.216 78.4265 132.205 78.4376C131.959 79.1413 131.479 79.7333 130.764 80.2135C130.049 80.6938 129.279 80.9339 128.452 80.9339C127.804 80.9339 127.257 80.7664 126.81 80.4313C126.364 80.0963 126.14 79.6495 126.14 79.091C126.14 78.6219 126.269 78.2645 126.525 78.0188C126.782 77.7731 127.073 77.6502 127.397 77.6502C127.899 77.6502 128.179 77.8959 128.234 78.3874C128.234 78.7448 128.134 79.024 127.933 79.2251C127.732 79.4261 127.503 79.5601 127.246 79.6272C127.157 79.6495 127.112 79.6662 127.112 79.6774C127.112 79.6886 127.151 79.7388 127.229 79.8282C127.52 80.1521 127.938 80.3141 128.486 80.3141C128.91 80.3141 129.323 80.1354 129.725 79.7779C130.128 79.4205 130.424 78.957 130.613 78.3874C130.658 78.2534 131.01 76.8572 131.669 74.199C132.328 71.5407 132.663 70.1725 132.674 70.0943Z" fill="black"/>
<path d="M141.046 77.0948C140.903 77.0948 140.832 77.0553 140.832 76.9763C140.832 76.9526 140.844 76.8855 140.868 76.7749C140.892 76.6644 140.903 76.5657 140.903 76.4788C140.903 76.2893 140.848 76.1314 140.738 76.005C140.635 75.9103 140.453 75.8274 140.193 75.7563C139.932 75.6852 139.648 75.6457 139.34 75.6378C139.056 75.6378 138.815 75.6813 138.617 75.7681C138.42 75.855 138.274 75.9734 138.179 76.1235C138.084 76.2735 138.017 76.4038 137.978 76.5144C137.938 76.6249 137.919 76.7394 137.919 76.8579C137.919 77.0711 137.97 77.2685 138.073 77.4501C138.175 77.6317 138.329 77.7897 138.535 77.9239C138.74 78.0581 138.882 78.149 138.961 78.1963C139.04 78.2437 139.162 78.3029 139.328 78.374C139.533 78.4767 139.699 78.5596 139.826 78.6227C139.952 78.6859 140.122 78.7886 140.335 78.9307C140.548 79.0729 140.71 79.2071 140.821 79.3334C140.931 79.4598 141.038 79.6217 141.14 79.8191C141.243 80.0165 141.29 80.2179 141.283 80.4232C141.283 81.197 140.848 81.888 139.98 82.496C139.111 83.1041 138.148 83.412 137.089 83.4199C136.442 83.4199 135.881 83.2501 135.407 82.9106C134.934 82.571 134.697 82.1683 134.697 81.7024C134.697 81.2207 134.867 80.8101 135.206 80.4705C135.546 80.131 135.921 79.9454 136.331 79.9138C136.505 79.9138 136.592 79.9573 136.592 80.0441C136.592 80.0678 136.588 80.0876 136.58 80.1034C136.541 80.1902 136.489 80.2652 136.426 80.3284C136.363 80.3916 136.312 80.439 136.272 80.4705C136.233 80.5021 136.173 80.5377 136.094 80.5772L135.988 80.6364L135.952 80.7667C135.905 80.893 135.881 81.047 135.881 81.2286C135.897 81.5366 136.083 81.8406 136.438 82.1407C136.793 82.4407 137.295 82.5908 137.942 82.5908C138.59 82.5908 139.107 82.4407 139.494 82.1407C139.881 81.8406 140.078 81.4458 140.086 80.9562V80.8733C140.086 80.2889 139.589 79.7599 138.594 79.2861C137.97 78.9939 137.543 78.7491 137.314 78.5517C136.935 78.22 136.746 77.837 136.746 77.4027C136.746 76.921 136.947 76.4709 137.35 76.0524C137.753 75.6339 138.203 75.322 138.7 75.1167C139.198 74.9114 139.648 74.8087 140.051 74.8087C140.066 74.8087 140.098 74.8087 140.145 74.8087C140.193 74.8087 140.236 74.8126 140.276 74.8205C140.765 74.8205 141.188 74.9074 141.543 75.0811C141.898 75.2549 142.08 75.5391 142.088 75.934C142.088 76.2814 142.005 76.538 141.839 76.7039C141.61 76.9329 141.346 77.0632 141.046 77.0948Z" fill="black"/>
<path d="M145.357 76.3769C145.357 75.6062 145.412 74.8746 145.524 74.1821C145.636 73.4896 145.764 72.8921 145.91 72.3895C146.055 71.8869 146.261 71.3954 146.529 70.9152C146.797 70.4349 147.01 70.0607 147.166 69.7927C147.322 69.5246 147.557 69.2342 147.87 68.9215C148.182 68.6087 148.367 68.4189 148.423 68.3518C148.478 68.2848 148.618 68.1675 148.841 68H149.059H149.126C149.283 68 149.361 68.0503 149.361 68.1508C149.361 68.1843 149.266 68.3016 149.076 68.5026C148.886 68.7037 148.657 68.9996 148.389 69.3906C148.121 69.7815 147.847 70.2618 147.568 70.8314C147.289 71.401 147.054 72.1717 146.864 73.1434C146.675 74.1151 146.58 75.1929 146.58 76.3769C146.58 77.5608 146.675 78.633 146.864 79.5936C147.054 80.5541 147.283 81.3304 147.551 81.9223C147.819 82.5143 148.093 82.9946 148.372 83.3632C148.652 83.7317 148.886 84.0277 149.076 84.2511C149.266 84.4745 149.361 84.5918 149.361 84.6029C149.361 84.7035 149.277 84.7537 149.109 84.7537H149.059H148.841L148.372 84.3516C147.322 83.4023 146.557 82.2183 146.077 80.7998C145.597 79.3814 145.357 77.907 145.357 76.3769Z" fill="black"/>
<path d="M160.016 74.1151C160.016 73.8806 160.122 73.6628 160.335 73.4617C160.547 73.2607 160.781 73.1546 161.038 73.1434C161.239 73.1434 161.424 73.2439 161.591 73.445C161.759 73.646 161.848 73.9643 161.859 74.3999C161.859 74.7238 161.753 75.3661 161.541 76.3266C161.373 76.9521 161.222 77.4659 161.088 77.8679C160.954 78.27 160.759 78.7224 160.502 79.225C160.245 79.7276 159.938 80.1074 159.581 80.3643C159.223 80.6211 158.821 80.7496 158.374 80.7496C157.883 80.7496 157.447 80.6602 157.068 80.4815C156.688 80.3028 156.414 80.0627 156.247 79.7611C156.235 79.7723 156.219 79.7946 156.196 79.8281C155.738 80.4424 155.18 80.7496 154.521 80.7496C154.231 80.7496 153.951 80.7161 153.683 80.6491C153.415 80.5821 153.153 80.4759 152.896 80.3307C152.639 80.1855 152.432 79.9677 152.276 79.6774C152.12 79.387 152.041 79.0351 152.041 78.6219C152.041 78.0187 152.231 77.2034 152.611 76.1758C152.991 75.1483 153.186 74.4949 153.197 74.2156C153.197 74.2045 153.197 74.1933 153.197 74.1821C153.197 74.0816 153.197 74.0146 153.197 73.9811C153.197 73.9476 153.175 73.9085 153.13 73.8638C153.086 73.8191 153.024 73.7968 152.946 73.7968H152.879C152.622 73.7968 152.388 73.9029 152.175 74.1151C151.963 74.3273 151.796 74.5563 151.673 74.802C151.55 75.0477 151.455 75.2823 151.388 75.5057C151.321 75.7291 151.276 75.8519 151.254 75.8743C151.232 75.8966 151.142 75.9078 150.986 75.9078H150.751C150.684 75.8408 150.651 75.7905 150.651 75.757C150.651 75.69 150.696 75.5336 150.785 75.2879C150.874 75.0422 151.003 74.7573 151.17 74.4334C151.338 74.1095 151.584 73.8191 151.907 73.5622C152.231 73.3054 152.594 73.1769 152.996 73.1769C153.477 73.1769 153.845 73.3165 154.102 73.5958C154.359 73.875 154.487 74.1989 154.487 74.5675C154.487 74.7685 154.303 75.3716 153.935 76.3769C153.566 77.3821 153.382 78.1583 153.382 78.7056C153.382 79.2194 153.499 79.5824 153.734 79.7946C153.968 80.0068 154.264 80.1185 154.622 80.1297C155.102 80.1297 155.526 79.789 155.895 79.1077L155.979 78.9569V78.5716C155.979 78.5381 155.979 78.4878 155.979 78.4208C155.979 78.3538 155.984 78.3091 155.995 78.2868C156.006 78.2645 156.012 78.2254 156.012 78.1695C156.012 78.1137 156.018 78.0634 156.029 78.0187C156.04 77.9741 156.057 77.9015 156.079 77.8009C156.101 77.7004 156.118 77.6055 156.129 77.5161C156.141 77.4268 156.174 77.2927 156.23 77.114C156.286 76.9353 156.33 76.7566 156.364 76.5779C156.397 76.3992 156.459 76.1591 156.548 75.8575C156.872 74.5842 157.056 73.8973 157.101 73.7968C157.246 73.4952 157.486 73.3444 157.821 73.3444C158.034 73.3444 158.179 73.4003 158.257 73.512C158.335 73.6237 158.38 73.7298 158.391 73.8303C158.391 73.9755 158.229 74.6903 157.905 75.9748C157.581 77.2592 157.403 77.9964 157.369 78.1863C157.347 78.3091 157.336 78.5046 157.336 78.7726V78.8899C157.336 79.0575 157.352 79.2194 157.386 79.3758C157.419 79.5322 157.525 79.6941 157.704 79.8616C157.883 80.0292 158.134 80.1185 158.458 80.1297C159.251 80.1297 159.882 79.4484 160.351 78.0857C160.452 77.8289 160.563 77.4659 160.686 76.9968C160.809 76.5277 160.876 76.1926 160.887 75.9915C160.887 75.623 160.815 75.3326 160.67 75.1203C160.524 74.9081 160.379 74.7294 160.234 74.5842C160.089 74.439 160.016 74.2827 160.016 74.1151Z" fill="black"/>
<path d="M163.317 68.0168L163.384 68C163.44 68 163.495 68 163.551 68H163.752L164.221 68.4021C165.271 69.3515 166.036 70.5354 166.517 71.9539C166.997 73.3724 167.237 74.8467 167.237 76.3769C167.237 77.1364 167.181 77.8679 167.07 78.5716C166.958 79.2753 166.829 79.8728 166.684 80.3642C166.539 80.8557 166.332 81.3471 166.064 81.8386C165.796 82.33 165.584 82.7042 165.428 82.9611C165.271 83.218 165.042 83.5028 164.741 83.8155C164.439 84.1283 164.26 84.3125 164.205 84.3684C164.149 84.4242 164.02 84.5303 163.819 84.6867C163.786 84.7202 163.763 84.7426 163.752 84.7537H163.551C163.462 84.7537 163.4 84.7537 163.367 84.7537C163.333 84.7537 163.306 84.737 163.283 84.7035C163.261 84.67 163.244 84.6197 163.233 84.5527C163.244 84.5415 163.306 84.4689 163.417 84.3349C165.148 82.5366 166.014 79.884 166.014 76.3769C166.014 72.8698 165.148 70.2171 163.417 68.4189C163.306 68.2848 163.244 68.2122 163.233 68.2011C163.233 68.1117 163.261 68.0503 163.317 68.0168Z" fill="black"/>
<path d="M58.9541 101.248L52.4875 91.6816L47.436 102.065L58.9541 101.248ZM4.56253 75.8992L50.4235 98.21L51.2985 96.4115L5.43747 74.1008L4.56253 75.8992Z" fill="#318B1A"/>
<path d="M63 98.2398C63 98.2063 63.0279 98.1672 63.0838 98.1225H75.314C75.3698 98.1672 75.3977 98.2063 75.3977 98.2398C75.3977 98.2622 74.454 100.217 72.5664 104.104C70.6788 107.99 69.7127 109.956 69.668 110.001C69.6121 110.079 69.4558 110.118 69.1989 110.118C68.942 110.118 68.7856 110.079 68.7298 110.001C68.6963 109.956 67.7357 107.99 65.8481 104.104C63.9605 100.217 63.0112 98.2622 63 98.2398ZM73.9067 99.5801C73.9067 99.5689 72.4994 99.5634 69.6847 99.5634C66.8701 99.5634 65.4628 99.5689 65.4628 99.5801C65.4851 99.636 66.1888 101.088 67.5738 103.936C68.9587 106.784 69.6624 108.214 69.6847 108.225L73.9067 99.5801Z" fill="#318B1A"/>
<path d="M83.6741 99.0942C83.6741 98.9601 83.1547 98.8931 82.116 98.8931H81.6972C81.6302 98.8373 81.5967 98.7926 81.5967 98.7591C81.5967 98.7256 81.6078 98.6195 81.6302 98.4408C81.6748 98.2956 81.7307 98.1895 81.7977 98.1225H82.0825C82.5404 98.1448 83.3558 98.156 84.5286 98.156C85.0088 98.156 85.3997 98.156 85.7013 98.156C86.0029 98.156 86.2095 98.1504 86.3212 98.1392C86.4329 98.128 86.5111 98.128 86.5558 98.1392C86.7121 98.1392 86.7903 98.1951 86.7903 98.3067C86.7903 98.3291 86.7736 98.4073 86.74 98.5413C86.6954 98.72 86.6563 98.8205 86.6228 98.8429C86.5893 98.8652 86.4832 98.882 86.3044 98.8931C85.7237 98.8931 85.3942 98.9713 85.316 99.1277C85.2713 99.2729 84.9251 100.652 84.2772 103.266C83.5736 106.036 83.2162 107.426 83.205 107.438C82.9593 108.141 82.479 108.733 81.7642 109.213C81.0494 109.694 80.2787 109.934 79.4522 109.934C78.8044 109.934 78.2571 109.766 77.8103 109.431C77.3636 109.096 77.1402 108.649 77.1402 108.091C77.1402 107.622 77.2686 107.264 77.5255 107.019C77.7824 106.773 78.0728 106.65 78.3967 106.65C78.8993 106.65 79.1785 106.896 79.2344 107.387C79.2344 107.745 79.1339 108.024 78.9328 108.225C78.7318 108.426 78.5028 108.56 78.2459 108.627C78.1566 108.649 78.1119 108.666 78.1119 108.677C78.1119 108.688 78.151 108.739 78.2292 108.828C78.5196 109.152 78.9384 109.314 79.4857 109.314C79.9101 109.314 80.3234 109.135 80.7255 108.778C81.1276 108.42 81.4235 107.957 81.6134 107.387C81.6581 107.253 82.0099 105.857 82.6689 103.199C83.3279 100.541 83.6629 99.1724 83.6741 99.0942Z" fill="#318B1A"/>
<path d="M88.382 105.377C88.382 104.606 88.4378 103.875 88.5495 103.182C88.6612 102.49 88.7897 101.892 88.9349 101.389C89.0801 100.887 89.2867 100.395 89.5547 99.9152C89.8228 99.4349 90.035 99.0607 90.1914 98.7927C90.3478 98.5246 90.5823 98.2342 90.895 97.9215C91.2078 97.6087 91.3921 97.4189 91.4479 97.3518C91.5038 97.2848 91.6434 97.1675 91.8668 97H92.0846H92.1516C92.3079 97 92.3861 97.0503 92.3861 97.1508C92.3861 97.1843 92.2912 97.3016 92.1013 97.5026C91.9114 97.7037 91.6825 97.9996 91.4144 98.3906C91.1464 98.7815 90.8727 99.2618 90.5935 99.8314C90.3143 100.401 90.0797 101.172 89.8898 102.143C89.6999 103.115 89.605 104.193 89.605 105.377C89.605 106.561 89.6999 107.633 89.8898 108.594C90.0797 109.554 90.3087 110.33 90.5767 110.922C90.8448 111.514 91.1184 111.995 91.3977 112.363C91.6769 112.732 91.9114 113.028 92.1013 113.251C92.2912 113.474 92.3861 113.592 92.3861 113.603C92.3861 113.703 92.3024 113.754 92.1348 113.754H92.0846H91.8668L91.3977 113.352C90.3478 112.402 89.5827 111.218 89.1024 109.8C88.6221 108.381 88.382 106.907 88.382 105.377Z" fill="#318B1A"/>
<path d="M103.041 103.115C103.041 102.881 103.147 102.663 103.36 102.462C103.572 102.261 103.806 102.155 104.063 102.143C104.264 102.143 104.449 102.244 104.616 102.445C104.784 102.646 104.873 102.964 104.884 103.4C104.884 103.724 104.778 104.366 104.566 105.327C104.398 105.952 104.248 106.466 104.114 106.868C103.98 107.27 103.784 107.722 103.527 108.225C103.27 108.728 102.963 109.107 102.606 109.364C102.248 109.621 101.846 109.75 101.4 109.75C100.908 109.75 100.472 109.66 100.093 109.482C99.713 109.303 99.4393 109.063 99.2718 108.761C99.2606 108.772 99.2439 108.795 99.2215 108.828C98.7636 109.442 98.2051 109.75 97.5462 109.75C97.2558 109.75 96.9765 109.716 96.7085 109.649C96.4404 109.582 96.1779 109.476 95.9211 109.331C95.6642 109.186 95.4575 108.968 95.3012 108.677C95.1448 108.387 95.0666 108.035 95.0666 107.622C95.0666 107.019 95.2565 106.203 95.6362 105.176C96.016 104.148 96.2115 103.495 96.2226 103.216C96.2226 103.204 96.2226 103.193 96.2226 103.182C96.2226 103.082 96.2226 103.015 96.2226 102.981C96.2226 102.948 96.2003 102.908 96.1556 102.864C96.1109 102.819 96.0495 102.797 95.9713 102.797H95.9043C95.6474 102.797 95.4129 102.903 95.2006 103.115C94.9884 103.327 94.8209 103.556 94.698 103.802C94.5752 104.048 94.4802 104.282 94.4132 104.506C94.3462 104.729 94.3015 104.852 94.2792 104.874C94.2569 104.897 94.1675 104.908 94.0111 104.908H93.7766C93.7096 104.841 93.6761 104.79 93.6761 104.757C93.6761 104.69 93.7207 104.534 93.8101 104.288C93.8994 104.042 94.0279 103.757 94.1954 103.433C94.363 103.11 94.6087 102.819 94.9326 102.562C95.2565 102.305 95.6195 102.177 96.0216 102.177C96.5018 102.177 96.8704 102.317 97.1273 102.596C97.3842 102.875 97.5127 103.199 97.5127 103.567C97.5127 103.768 97.3284 104.372 96.9598 105.377C96.5912 106.382 96.4069 107.158 96.4069 107.706C96.4069 108.219 96.5242 108.582 96.7587 108.795C96.9933 109.007 97.2893 109.119 97.6467 109.13C98.127 109.13 98.5514 108.789 98.92 108.108L99.0037 107.957V107.572C99.0037 107.538 99.0037 107.488 99.0037 107.421C99.0037 107.354 99.0093 107.309 99.0205 107.287C99.0317 107.264 99.0372 107.225 99.0372 107.17C99.0372 107.114 99.0428 107.063 99.054 107.019C99.0652 106.974 99.0819 106.901 99.1043 106.801C99.1266 106.7 99.1434 106.605 99.1545 106.516C99.1657 106.427 99.1992 106.293 99.255 106.114C99.3109 105.935 99.3556 105.757 99.3891 105.578C99.4226 105.399 99.484 105.159 99.5734 104.857C99.8973 103.584 100.082 102.897 100.126 102.797C100.271 102.495 100.512 102.344 100.847 102.344C101.059 102.344 101.204 102.4 101.282 102.512C101.36 102.624 101.405 102.73 101.416 102.83C101.416 102.975 101.254 103.69 100.93 104.975C100.607 106.259 100.428 106.996 100.394 107.186C100.372 107.309 100.361 107.505 100.361 107.773V107.89C100.361 108.057 100.378 108.219 100.411 108.376C100.445 108.532 100.551 108.694 100.729 108.862C100.908 109.029 101.159 109.119 101.483 109.13C102.276 109.13 102.907 108.448 103.376 107.086C103.477 106.829 103.589 106.466 103.712 105.997C103.834 105.528 103.901 105.193 103.913 104.992C103.913 104.623 103.84 104.333 103.695 104.12C103.55 103.908 103.404 103.729 103.259 103.584C103.114 103.439 103.041 103.283 103.041 103.115Z" fill="#318B1A"/>
<path d="M106.342 97.0168L106.409 97C106.465 97 106.521 97 106.576 97H106.777L107.247 97.4021C108.296 98.3515 109.062 99.5354 109.542 100.954C110.022 102.372 110.262 103.847 110.262 105.377C110.262 106.136 110.206 106.868 110.095 107.572C109.983 108.275 109.855 108.873 109.709 109.364C109.564 109.856 109.358 110.347 109.089 110.839C108.821 111.33 108.609 111.704 108.453 111.961C108.296 112.218 108.067 112.503 107.766 112.816C107.464 113.128 107.286 113.313 107.23 113.368C107.174 113.424 107.046 113.53 106.844 113.687C106.811 113.72 106.789 113.743 106.777 113.754H106.576C106.487 113.754 106.426 113.754 106.392 113.754C106.359 113.754 106.331 113.737 106.308 113.703C106.286 113.67 106.269 113.62 106.258 113.553C106.269 113.542 106.331 113.469 106.442 113.335C108.174 111.537 109.039 108.884 109.039 105.377C109.039 101.87 108.174 99.2171 106.442 97.4189C106.331 97.2848 106.269 97.2122 106.258 97.2011C106.258 97.1117 106.286 97.0503 106.342 97.0168Z" fill="#318B1A"/>
<path d="M109 27.7692C109 26.7231 109.213 25.6205 109.639 24.4615C110.066 23.3026 110.645 22.3026 111.377 21.4615C112.109 20.6205 112.869 20.1385 113.656 20.0154C113.667 20.0154 113.71 20.0154 113.787 20.0154C113.863 20.0154 113.929 20.0103 113.984 20C114.574 20.041 115.033 20.2923 115.361 20.7538C115.787 21.3692 116 22.1949 116 23.2308C116 24.4103 115.754 25.6103 115.262 26.8308C114.77 28.0513 114.142 29.0513 113.377 29.8308C112.612 30.6103 111.88 31 111.18 31H111.066C110.672 31 110.333 30.8974 110.049 30.6923C109.765 30.4872 109.552 30.2154 109.41 29.8769C109.268 29.5385 109.164 29.1949 109.098 28.8462C109.033 28.4974 109 28.1385 109 27.7692ZM114.705 22.1385C114.705 21.0923 114.415 20.5692 113.836 20.5692C113.443 20.5692 113.06 20.8 112.689 21.2615C112.317 21.7231 112.011 22.2462 111.77 22.8308C111.53 23.4154 111.344 23.9282 111.213 24.3692C111.082 24.8103 111.011 25.0667 111 25.1385C111.536 25.1487 112.066 25.1538 112.59 25.1538L114.18 25.1385C114.191 25.1282 114.235 24.959 114.311 24.6308C114.388 24.3026 114.475 23.8923 114.574 23.4C114.672 22.9077 114.716 22.4872 114.705 22.1385ZM110.279 28.8154C110.279 29.9026 110.568 30.4462 111.148 30.4462C111.311 30.4462 111.486 30.3949 111.672 30.2923C111.858 30.1897 112.082 29.9949 112.344 29.7077C112.607 29.4205 112.869 28.9744 113.131 28.3692C113.393 27.7641 113.656 27.0154 113.918 26.1231L114 25.8615H110.803C110.803 25.8923 110.754 26.0872 110.656 26.4462C110.557 26.8051 110.47 27.2051 110.393 27.6462C110.317 28.0872 110.279 28.4769 110.279 28.8154Z" fill="black"/>
<rect x="0.5" y="70.5" width="9" height="9" rx="4.5" fill="#303030" stroke="white"/>
</svg>
