<svg width="180" height="150" viewBox="0 0 180 150" fill="none" xmlns="http://www.w3.org/2000/svg">
<g clip-path="url(#clip0)">
<rect width="180" height="150" fill="white"/>
<circle cx="105" cy="75" r="75" fill="#C9CCE9"/>
<line x1="104.536" y1="74.8135" x2="132.512" y2="5.22661" stroke="#3B3B3B" stroke-dasharray="4 2"/>
<path d="M105 75L95 69.2265V80.7735L105 75ZM5 76H96V74H5V76Z" fill="black"/>
<path d="M29.8282 129.622L30.9462 118.129L20.4341 122.907L29.8282 129.622ZM4.08963 75.4138L25.1936 121.842L27.0143 121.015L5.91037 74.5862L4.08963 75.4138Z" fill="#A42323"/>
<path d="M1 134.24C1 134.206 1.02792 134.167 1.08377 134.123H13.314C13.3698 134.167 13.3977 134.206 13.3977 134.24C13.3977 134.262 12.454 136.217 10.5664 140.104C8.67879 143.99 7.71265 145.956 7.66798 146.001C7.61213 146.079 7.45576 146.118 7.19887 146.118C6.94198 146.118 6.78562 146.079 6.72977 146.001C6.69626 145.956 5.73572 143.99 3.84813 140.104C1.96055 136.217 1.01117 134.262 1 134.24ZM11.9067 135.58C11.9067 135.569 10.4994 135.563 7.68473 135.563C4.87011 135.563 3.4628 135.569 3.4628 135.58C3.48513 135.636 4.18879 137.088 5.57376 139.936C6.95874 142.784 7.66239 144.214 7.68473 144.225L11.9067 135.58Z" fill="#A42323"/>
<path d="M21.6741 135.094C21.6741 134.96 21.1547 134.893 20.116 134.893H19.6971C19.6301 134.837 19.5966 134.793 19.5966 134.759C19.5966 134.726 19.6078 134.62 19.6301 134.441C19.6748 134.296 19.7307 134.19 19.7977 134.123H20.0825C20.5404 134.145 21.3558 134.156 22.5285 134.156C23.0088 134.156 23.3997 134.156 23.7013 134.156C24.0029 134.156 24.2095 134.15 24.3212 134.139C24.4329 134.128 24.511 134.128 24.5557 134.139C24.7121 134.139 24.7903 134.195 24.7903 134.307C24.7903 134.329 24.7735 134.407 24.74 134.541C24.6953 134.72 24.6562 134.821 24.6227 134.843C24.5892 134.865 24.4831 134.882 24.3044 134.893C23.7236 134.893 23.3941 134.971 23.3159 135.128C23.2713 135.273 22.925 136.652 22.2772 139.266C21.5736 142.036 21.2161 143.426 21.205 143.438C20.9593 144.141 20.479 144.733 19.7642 145.214C19.0493 145.694 18.2787 145.934 17.4521 145.934C16.8043 145.934 16.2571 145.766 15.8103 145.431C15.3635 145.096 15.1401 144.649 15.1401 144.091C15.1401 143.622 15.2686 143.265 15.5255 143.019C15.7824 142.773 16.0728 142.65 16.3967 142.65C16.8993 142.65 17.1785 142.896 17.2344 143.387C17.2344 143.745 17.1338 144.024 16.9328 144.225C16.7317 144.426 16.5028 144.56 16.2459 144.627C16.1565 144.649 16.1119 144.666 16.1119 144.677C16.1119 144.689 16.1509 144.739 16.2291 144.828C16.5195 145.152 16.9384 145.314 17.4857 145.314C17.9101 145.314 18.3233 145.135 18.7254 144.778C19.1275 144.421 19.4235 143.957 19.6134 143.387C19.6581 143.253 20.0099 141.857 20.6689 139.199C21.3278 136.541 21.6629 135.172 21.6741 135.094Z" fill="#A42323"/>
<path d="M30.0456 142.095C29.9035 142.095 29.8324 142.055 29.8324 141.976C29.8324 141.953 29.8443 141.885 29.868 141.775C29.8917 141.664 29.9035 141.566 29.9035 141.479C29.9035 141.289 29.8482 141.131 29.7377 141.005C29.635 140.91 29.4534 140.827 29.1928 140.756C28.9322 140.685 28.648 140.646 28.34 140.638C28.0557 140.638 27.8149 140.681 27.6174 140.768C27.42 140.855 27.2739 140.973 27.1792 141.123C27.0844 141.273 27.0173 141.404 26.9778 141.514C26.9383 141.625 26.9186 141.739 26.9186 141.858C26.9186 142.071 26.9699 142.268 27.0726 142.45C27.1752 142.632 27.3292 142.79 27.5345 142.924C27.7398 143.058 27.882 143.149 27.9609 143.196C28.0399 143.244 28.1623 143.303 28.3281 143.374C28.5334 143.477 28.6993 143.56 28.8256 143.623C28.952 143.686 29.1217 143.789 29.335 143.931C29.5482 144.073 29.71 144.207 29.8206 144.333C29.9311 144.46 30.0377 144.622 30.1404 144.819C30.2431 145.016 30.2904 145.218 30.2825 145.423C30.2825 146.197 29.8482 146.888 28.9796 147.496C28.111 148.104 27.1476 148.412 26.0895 148.42C25.4419 148.42 24.8813 148.25 24.4075 147.911C23.9337 147.571 23.6968 147.168 23.6968 146.702C23.6968 146.221 23.8666 145.81 24.2061 145.471C24.5457 145.131 24.9208 144.945 25.3314 144.914C25.5051 144.914 25.592 144.957 25.592 145.044C25.592 145.068 25.588 145.088 25.5801 145.103C25.5406 145.19 25.4893 145.265 25.4261 145.328C25.363 145.392 25.3116 145.439 25.2722 145.471C25.2327 145.502 25.1735 145.538 25.0945 145.577L24.9879 145.636L24.9523 145.767C24.905 145.893 24.8813 146.047 24.8813 146.229C24.8971 146.537 25.0826 146.841 25.438 147.141C25.7933 147.441 26.2948 147.591 26.9423 147.591C27.5898 147.591 28.107 147.441 28.494 147.141C28.8809 146.841 29.0783 146.446 29.0862 145.956V145.873C29.0862 145.289 28.5887 144.76 27.5938 144.286C26.9699 143.994 26.5435 143.749 26.3145 143.552C25.9355 143.22 25.746 142.837 25.746 142.403C25.746 141.921 25.9473 141.471 26.35 141.052C26.7528 140.634 27.2029 140.322 27.7004 140.117C28.1978 139.911 28.648 139.809 29.0507 139.809C29.0665 139.809 29.0981 139.809 29.1454 139.809C29.1928 139.809 29.2362 139.813 29.2757 139.821C29.7653 139.821 30.1878 139.907 30.5431 140.081C30.8985 140.255 31.0801 140.539 31.088 140.934C31.088 141.281 31.0051 141.538 30.8393 141.704C30.6103 141.933 30.3457 142.063 30.0456 142.095Z" fill="#A42323"/>
<path d="M34.3566 141.377C34.3566 140.606 34.4125 139.875 34.5242 139.182C34.6359 138.49 34.7643 137.892 34.9095 137.389C35.0547 136.887 35.2613 136.395 35.5294 135.915C35.7974 135.435 36.0097 135.061 36.166 134.793C36.3224 134.525 36.5569 134.234 36.8697 133.921C37.1824 133.609 37.3667 133.419 37.4226 133.352C37.4784 133.285 37.618 133.168 37.8414 133H38.0592H38.1262C38.2826 133 38.3608 133.05 38.3608 133.151C38.3608 133.184 38.2658 133.302 38.076 133.503C37.8861 133.704 37.6571 134 37.3891 134.391C37.121 134.781 36.8473 135.262 36.5681 135.831C36.2889 136.401 36.0543 137.172 35.8645 138.143C35.6746 139.115 35.5796 140.193 35.5796 141.377C35.5796 142.561 35.6746 143.633 35.8645 144.594C36.0543 145.554 36.2833 146.33 36.5514 146.922C36.8194 147.514 37.0931 147.995 37.3723 148.363C37.6515 148.732 37.8861 149.028 38.076 149.251C38.2658 149.474 38.3608 149.592 38.3608 149.603C38.3608 149.703 38.277 149.754 38.1095 149.754H38.0592H37.8414L37.3723 149.352C36.3224 148.402 35.5573 147.218 35.077 145.8C34.5968 144.381 34.3566 142.907 34.3566 141.377Z" fill="#A42323"/>
<path d="M49.0162 139.115C49.0162 138.881 49.1223 138.663 49.3345 138.462C49.5467 138.261 49.7813 138.155 50.0382 138.143C50.2392 138.143 50.4235 138.244 50.5911 138.445C50.7586 138.646 50.8479 138.964 50.8591 139.4C50.8591 139.724 50.753 140.366 50.5408 141.327C50.3733 141.952 50.2225 142.466 50.0884 142.868C49.9544 143.27 49.759 143.722 49.5021 144.225C49.2452 144.728 48.938 145.107 48.5806 145.364C48.2232 145.621 47.8211 145.75 47.3743 145.75C46.8829 145.75 46.4473 145.66 46.0676 145.482C45.6878 145.303 45.4142 145.063 45.2466 144.761C45.2355 144.772 45.2187 144.795 45.1964 144.828C44.7384 145.442 44.18 145.75 43.521 145.75C43.2306 145.75 42.9514 145.716 42.6833 145.649C42.4152 145.582 42.1528 145.476 41.8959 145.331C41.639 145.186 41.4324 144.968 41.276 144.677C41.1196 144.387 41.0414 144.035 41.0414 143.622C41.0414 143.019 41.2313 142.203 41.6111 141.176C41.9908 140.148 42.1863 139.495 42.1974 139.216C42.1974 139.204 42.1974 139.193 42.1974 139.182C42.1974 139.082 42.1974 139.015 42.1974 138.981C42.1974 138.948 42.1751 138.908 42.1304 138.864C42.0858 138.819 42.0243 138.797 41.9461 138.797H41.8791C41.6222 138.797 41.3877 138.903 41.1755 139.115C40.9633 139.327 40.7957 139.556 40.6729 139.802C40.55 140.048 40.4551 140.282 40.388 140.506C40.321 140.729 40.2764 140.852 40.254 140.874C40.2317 140.897 40.1423 140.908 39.986 140.908H39.7514C39.6844 140.841 39.6509 140.79 39.6509 140.757C39.6509 140.69 39.6956 140.534 39.7849 140.288C39.8743 140.042 40.0027 139.757 40.1702 139.433C40.3378 139.11 40.5835 138.819 40.9074 138.562C41.2313 138.305 41.5943 138.177 41.9964 138.177C42.4767 138.177 42.8453 138.317 43.1021 138.596C43.359 138.875 43.4875 139.199 43.4875 139.567C43.4875 139.768 43.3032 140.372 42.9346 141.377C42.566 142.382 42.3817 143.158 42.3817 143.706C42.3817 144.219 42.499 144.582 42.7336 144.795C42.9681 145.007 43.2641 145.119 43.6215 145.13C44.1018 145.13 44.5262 144.789 44.8948 144.108L44.9786 143.957V143.572C44.9786 143.538 44.9786 143.488 44.9786 143.421C44.9786 143.354 44.9841 143.309 44.9953 143.287C45.0065 143.264 45.0121 143.225 45.0121 143.17C45.0121 143.114 45.0177 143.063 45.0288 143.019C45.04 142.974 45.0567 142.901 45.0791 142.801C45.1014 142.7 45.1182 142.605 45.1293 142.516C45.1405 142.427 45.174 142.293 45.2299 142.114C45.2857 141.935 45.3304 141.757 45.3639 141.578C45.3974 141.399 45.4588 141.159 45.5482 140.857C45.8721 139.584 46.0564 138.897 46.1011 138.797C46.2463 138.495 46.4864 138.344 46.8215 138.344C47.0337 138.344 47.1789 138.4 47.2571 138.512C47.3352 138.624 47.3799 138.73 47.3911 138.83C47.3911 138.975 47.2291 139.69 46.9052 140.975C46.5813 142.259 46.4026 142.996 46.3691 143.186C46.3468 143.309 46.3356 143.505 46.3356 143.773V143.89C46.3356 144.057 46.3524 144.219 46.3859 144.376C46.4194 144.532 46.5255 144.694 46.7042 144.862C46.8829 145.029 47.1342 145.119 47.4581 145.13C48.2511 145.13 48.8822 144.448 49.3513 143.086C49.4518 142.829 49.5635 142.466 49.6864 141.997C49.8092 141.528 49.8762 141.193 49.8874 140.992C49.8874 140.623 49.8148 140.333 49.6696 140.12C49.5244 139.908 49.3792 139.729 49.234 139.584C49.0888 139.439 49.0162 139.283 49.0162 139.115Z" fill="#A42323"/>
<path d="M52.3167 133.017L52.3837 133C52.4395 133 52.4954 133 52.5512 133H52.7523L53.2214 133.402C54.2713 134.351 55.0364 135.535 55.5166 136.954C55.9969 138.372 56.237 139.847 56.237 141.377C56.237 142.136 56.1812 142.868 56.0695 143.572C55.9578 144.275 55.8294 144.873 55.6842 145.364C55.539 145.856 55.3323 146.347 55.0643 146.839C54.7962 147.33 54.584 147.704 54.4276 147.961C54.2713 148.218 54.0423 148.503 53.7407 148.815C53.4392 149.128 53.2605 149.313 53.2046 149.368C53.1488 149.424 53.0203 149.53 52.8193 149.687C52.7858 149.72 52.7634 149.743 52.7523 149.754H52.5512C52.4619 149.754 52.4004 149.754 52.3669 149.754C52.3334 149.754 52.3055 149.737 52.2832 149.703C52.2608 149.67 52.2441 149.62 52.2329 149.553C52.2441 149.541 52.3055 149.469 52.4172 149.335C54.1484 147.537 55.014 144.884 55.014 141.377C55.014 137.87 54.1484 135.217 52.4172 133.419C52.3055 133.285 52.2441 133.212 52.2329 133.201C52.2329 133.112 52.2608 133.05 52.3167 133.017Z" fill="#A42323"/>
<path d="M110 71.2398C110 71.2063 110.028 71.1672 110.084 71.1225H122.314C122.37 71.1672 122.398 71.2063 122.398 71.2398C122.398 71.2621 121.454 73.2167 119.566 77.1036C117.679 80.9905 116.713 82.9562 116.668 83.0009C116.612 83.0791 116.456 83.1182 116.199 83.1182C115.942 83.1182 115.786 83.0791 115.73 83.0009C115.696 82.9562 114.736 80.9905 112.848 77.1036C110.961 73.2167 110.011 71.2621 110 71.2398ZM120.907 72.5801C120.907 72.5689 119.499 72.5633 116.685 72.5633C113.87 72.5633 112.463 72.5689 112.463 72.5801C112.485 72.6359 113.189 74.0879 114.574 76.9361C115.959 79.7842 116.662 81.2138 116.685 81.225L120.907 72.5801Z" fill="black"/>
<path d="M130.674 72.0942C130.674 71.9601 130.155 71.8931 129.116 71.8931H128.697C128.63 71.8373 128.597 71.7926 128.597 71.7591C128.597 71.7256 128.608 71.6195 128.63 71.4408C128.675 71.2956 128.731 71.1895 128.798 71.1224H129.082C129.54 71.1448 130.356 71.1559 131.529 71.1559C132.009 71.1559 132.4 71.1559 132.701 71.1559C133.003 71.1559 133.209 71.1504 133.321 71.1392C133.433 71.128 133.511 71.128 133.556 71.1392C133.712 71.1392 133.79 71.195 133.79 71.3067C133.79 71.3291 133.774 71.4073 133.74 71.5413C133.695 71.72 133.656 71.8205 133.623 71.8428C133.589 71.8652 133.483 71.8819 133.304 71.8931C132.724 71.8931 132.394 71.9713 132.316 72.1277C132.271 72.2729 131.925 73.6523 131.277 76.2658C130.574 79.0358 130.216 80.4263 130.205 80.4375C129.959 81.1412 129.479 81.7331 128.764 82.2134C128.049 82.6937 127.279 82.9338 126.452 82.9338C125.804 82.9338 125.257 82.7663 124.81 82.4312C124.364 82.0961 124.14 81.6494 124.14 81.0909C124.14 80.6218 124.269 80.2644 124.525 80.0187C124.782 79.7729 125.073 79.6501 125.397 79.6501C125.899 79.6501 126.179 79.8958 126.234 80.3872C126.234 80.7447 126.134 81.0239 125.933 81.2249C125.732 81.426 125.503 81.56 125.246 81.627C125.157 81.6494 125.112 81.6661 125.112 81.6773C125.112 81.6884 125.151 81.7387 125.229 81.8281C125.52 82.152 125.938 82.3139 126.486 82.3139C126.91 82.3139 127.323 82.1352 127.725 81.7778C128.128 81.4204 128.424 80.9569 128.613 80.3872C128.658 80.2532 129.01 78.8571 129.669 76.1988C130.328 73.5406 130.663 72.1723 130.674 72.0942Z" fill="black"/>
<path d="M135.382 78.3769C135.382 77.6062 135.438 76.8746 135.549 76.1821C135.661 75.4896 135.79 74.8921 135.935 74.3895C136.08 73.8869 136.287 73.3954 136.555 72.9151C136.823 72.4349 137.035 72.0607 137.191 71.7926C137.348 71.5246 137.582 71.2342 137.895 70.9214C138.208 70.6087 138.392 70.4188 138.448 70.3518C138.504 70.2848 138.643 70.1675 138.867 70H139.085H139.152C139.308 70 139.386 70.0503 139.386 70.1508C139.386 70.1843 139.291 70.3016 139.101 70.5026C138.911 70.7036 138.682 70.9996 138.414 71.3906C138.146 71.7815 137.873 72.2617 137.593 72.8314C137.314 73.401 137.08 74.1717 136.89 75.1434C136.7 76.1151 136.605 77.1929 136.605 78.3769C136.605 79.5608 136.7 80.633 136.89 81.5936C137.08 82.5541 137.309 83.3304 137.577 83.9223C137.845 84.5143 138.118 84.9946 138.398 85.3631C138.677 85.7317 138.911 86.0277 139.101 86.2511C139.291 86.4745 139.386 86.5918 139.386 86.6029C139.386 86.7034 139.302 86.7537 139.135 86.7537H139.085H138.867L138.398 86.3516C137.348 85.4022 136.583 84.2183 136.102 82.7998C135.622 81.3814 135.382 79.907 135.382 78.3769Z" fill="black"/>
<path d="M150.041 76.1151C150.041 75.8805 150.147 75.6627 150.36 75.4617C150.572 75.2606 150.806 75.1545 151.063 75.1434C151.264 75.1434 151.449 75.2439 151.616 75.4449C151.784 75.646 151.873 75.9643 151.884 76.3999C151.884 76.7238 151.778 77.366 151.566 78.3266C151.398 78.952 151.248 79.4658 151.114 79.8679C150.98 80.27 150.784 80.7224 150.527 81.225C150.27 81.7276 149.963 82.1073 149.606 82.3642C149.248 82.6211 148.846 82.7496 148.399 82.7496C147.908 82.7496 147.472 82.6602 147.093 82.4815C146.713 82.3028 146.439 82.0627 146.272 81.7611C146.261 81.7723 146.244 81.7946 146.222 81.8281C145.764 82.4424 145.205 82.7496 144.546 82.7496C144.256 82.7496 143.977 82.7161 143.708 82.649C143.44 82.582 143.178 82.4759 142.921 82.3307C142.664 82.1855 142.458 81.9677 142.301 81.6773C142.145 81.3869 142.067 81.0351 142.067 80.6218C142.067 80.0187 142.256 79.2034 142.636 78.1758C143.016 77.1482 143.211 76.4948 143.223 76.2156C143.223 76.2044 143.223 76.1933 143.223 76.1821C143.223 76.0816 143.223 76.0146 143.223 75.9811C143.223 75.9476 143.2 75.9085 143.156 75.8638C143.111 75.8191 143.049 75.7968 142.971 75.7968H142.904C142.647 75.7968 142.413 75.9029 142.201 76.1151C141.988 76.3273 141.821 76.5563 141.698 76.802C141.575 77.0477 141.48 77.2823 141.413 77.5056C141.346 77.729 141.301 77.8519 141.279 77.8742C141.257 77.8966 141.167 77.9077 141.011 77.9077H140.777C140.71 77.8407 140.676 77.7905 140.676 77.757C140.676 77.6899 140.721 77.5336 140.81 77.2878C140.899 77.0421 141.028 76.7573 141.195 76.4334C141.363 76.1095 141.609 75.8191 141.933 75.5622C142.256 75.3053 142.619 75.1769 143.022 75.1769C143.502 75.1769 143.87 75.3165 144.127 75.5957C144.384 75.875 144.513 76.1989 144.513 76.5674C144.513 76.7685 144.328 77.3716 143.96 78.3768C143.591 79.3821 143.407 80.1583 143.407 80.7056C143.407 81.2194 143.524 81.5824 143.759 81.7946C143.993 82.0068 144.289 82.1185 144.647 82.1297C145.127 82.1297 145.551 81.789 145.92 81.1077L146.004 80.9569V80.5716C146.004 80.5381 146.004 80.4878 146.004 80.4208C146.004 80.3538 146.009 80.3091 146.02 80.2868C146.032 80.2644 146.037 80.2253 146.037 80.1695C146.037 80.1136 146.043 80.0634 146.054 80.0187C146.065 79.974 146.082 79.9014 146.104 79.8009C146.127 79.7004 146.143 79.6054 146.154 79.5161C146.166 79.4267 146.199 79.2927 146.255 79.114C146.311 78.9353 146.356 78.7566 146.389 78.5779C146.423 78.3992 146.484 78.159 146.573 77.8575C146.897 76.5842 147.082 75.8973 147.126 75.7968C147.271 75.4952 147.512 75.3444 147.847 75.3444C148.059 75.3444 148.204 75.4003 148.282 75.512C148.36 75.6236 148.405 75.7298 148.416 75.8303C148.416 75.9755 148.254 76.6903 147.93 77.9747C147.606 79.2592 147.428 79.9964 147.394 80.1862C147.372 80.3091 147.361 80.5046 147.361 80.7726V80.8899C147.361 81.0574 147.378 81.2194 147.411 81.3758C147.445 81.5321 147.551 81.6941 147.729 81.8616C147.908 82.0291 148.159 82.1185 148.483 82.1297C149.276 82.1297 149.907 81.4484 150.376 80.0857C150.477 79.8288 150.589 79.4658 150.712 78.9967C150.834 78.5276 150.901 78.1925 150.913 77.9915C150.913 77.6229 150.84 77.3325 150.695 77.1203C150.55 76.9081 150.404 76.7294 150.259 76.5842C150.114 76.439 150.041 76.2826 150.041 76.1151Z" fill="black"/>
<path d="M153.342 70.0167L153.409 70C153.465 70 153.521 70 153.576 70H153.777L154.247 70.4021C155.296 71.3515 156.062 72.5354 156.542 73.9539C157.022 75.3724 157.262 76.8467 157.262 78.3769C157.262 79.1364 157.206 79.8679 157.095 80.5716C156.983 81.2752 156.855 81.8728 156.709 82.3642C156.564 82.8557 156.357 83.3471 156.089 83.8386C155.821 84.33 155.609 84.7042 155.453 84.9611C155.296 85.218 155.067 85.5028 154.766 85.8155C154.464 86.1282 154.286 86.3125 154.23 86.3684C154.174 86.4242 154.045 86.5303 153.844 86.6867C153.811 86.7202 153.789 86.7425 153.777 86.7537H153.576C153.487 86.7537 153.426 86.7537 153.392 86.7537C153.359 86.7537 153.331 86.737 153.308 86.7034C153.286 86.6699 153.269 86.6197 153.258 86.5527C153.269 86.5415 153.331 86.4689 153.442 86.3349C155.174 84.5366 156.039 81.884 156.039 78.3769C156.039 74.8697 155.174 72.2171 153.442 70.4188C153.331 70.2848 153.269 70.2122 153.258 70.201C153.258 70.1117 153.286 70.0503 153.342 70.0167Z" fill="black"/>
<path d="M109 27.7692C109 26.7231 109.213 25.6205 109.639 24.4615C110.066 23.3026 110.645 22.3026 111.377 21.4615C112.109 20.6205 112.869 20.1385 113.656 20.0154C113.667 20.0154 113.71 20.0154 113.787 20.0154C113.863 20.0154 113.929 20.0103 113.984 20C114.574 20.041 115.033 20.2923 115.361 20.7538C115.787 21.3692 116 22.1949 116 23.2308C116 24.4103 115.754 25.6103 115.262 26.8308C114.77 28.0513 114.142 29.0513 113.377 29.8308C112.612 30.6103 111.88 31 111.18 31H111.066C110.672 31 110.333 30.8974 110.049 30.6923C109.765 30.4872 109.552 30.2154 109.41 29.8769C109.268 29.5385 109.164 29.1949 109.098 28.8462C109.033 28.4974 109 28.1385 109 27.7692ZM114.705 22.1385C114.705 21.0923 114.415 20.5692 113.836 20.5692C113.443 20.5692 113.06 20.8 112.689 21.2615C112.317 21.7231 112.011 22.2462 111.77 22.8308C111.53 23.4154 111.344 23.9282 111.213 24.3692C111.082 24.8103 111.011 25.0667 111 25.1385C111.536 25.1487 112.066 25.1538 112.59 25.1538L114.18 25.1385C114.191 25.1282 114.235 24.959 114.311 24.6308C114.388 24.3026 114.475 23.8923 114.574 23.4C114.672 22.9077 114.716 22.4872 114.705 22.1385ZM110.279 28.8154C110.279 29.9026 110.568 30.4462 111.148 30.4462C111.311 30.4462 111.486 30.3949 111.672 30.2923C111.858 30.1897 112.082 29.9949 112.344 29.7077C112.607 29.4205 112.869 28.9744 113.131 28.3692C113.393 27.7641 113.656 27.0154 113.918 26.1231L114 25.8615H110.803C110.803 25.8923 110.754 26.0872 110.656 26.4462C110.557 26.8051 110.47 27.2051 110.393 27.6462C110.317 28.0872 110.279 28.4769 110.279 28.8154Z" fill="black"/>
<rect x="0.5" y="70.5" width="9" height="9" rx="4.5" fill="#303030" stroke="white"/>
</g>
<defs>
<clipPath id="clip0">
<rect width="180" height="150" fill="white"/>
</clipPath>
</defs>
</svg>
