<svg width="180" height="150" viewBox="0 0 180 150" fill="none" xmlns="http://www.w3.org/2000/svg">
<g clip-path="url(#clip0)">
<rect width="180" height="150" fill="white"/>
<circle cx="105" cy="75" r="75" fill="#C9CCE9"/>
<line x1="104.536" y1="74.8135" x2="132.512" y2="5.22661" stroke="#3B3B3B" stroke-dasharray="4 2"/>
<path d="M105 75L95 69.2265V80.7735L105 75ZM5 76H96V74H5V76Z" fill="black"/>
<path d="M29.8282 129.622L30.9462 118.129L20.4341 122.907L29.8282 129.622ZM4.08963 75.4138L25.1936 121.842L27.0143 121.015L5.91037 74.5862L4.08963 75.4138Z" fill="#A42323"/>
<path d="M112 69.2398C112 69.2063 112.028 69.1672 112.084 69.1225H124.314C124.37 69.1672 124.398 69.2063 124.398 69.2398C124.398 69.2622 123.454 71.2168 121.566 75.1036C119.679 78.9905 118.713 80.9562 118.668 81.0009C118.612 81.0791 118.456 81.1182 118.199 81.1182C117.942 81.1182 117.786 81.0791 117.73 81.0009C117.696 80.9562 116.736 78.9905 114.848 75.1036C112.961 71.2168 112.011 69.2622 112 69.2398ZM122.907 70.5801C122.907 70.5689 121.499 70.5634 118.685 70.5634C115.87 70.5634 114.463 70.5689 114.463 70.5801C114.485 70.636 115.189 72.0879 116.574 74.9361C117.959 77.7842 118.662 79.2139 118.685 79.225L122.907 70.5801Z" fill="black"/>
<path d="M132.674 70.0943C132.674 69.9603 132.155 69.8932 131.116 69.8932H130.697C130.63 69.8374 130.597 69.7927 130.597 69.7592C130.597 69.7257 130.608 69.6196 130.63 69.4409C130.675 69.2957 130.731 69.1896 130.798 69.1226H131.082C131.54 69.1449 132.356 69.1561 133.529 69.1561C134.009 69.1561 134.4 69.1561 134.701 69.1561C135.003 69.1561 135.209 69.1505 135.321 69.1393C135.433 69.1282 135.511 69.1282 135.556 69.1393C135.712 69.1393 135.79 69.1952 135.79 69.3069C135.79 69.3292 135.774 69.4074 135.74 69.5414C135.695 69.7201 135.656 69.8206 135.623 69.843C135.589 69.8653 135.483 69.8821 135.304 69.8932C134.724 69.8932 134.394 69.9714 134.316 70.1278C134.271 70.273 133.925 71.6524 133.277 74.266C132.574 77.0359 132.216 78.4265 132.205 78.4376C131.959 79.1413 131.479 79.7333 130.764 80.2135C130.049 80.6938 129.279 80.9339 128.452 80.9339C127.804 80.9339 127.257 80.7664 126.81 80.4313C126.364 80.0963 126.14 79.6495 126.14 79.091C126.14 78.6219 126.269 78.2645 126.525 78.0188C126.782 77.7731 127.073 77.6502 127.397 77.6502C127.899 77.6502 128.179 77.8959 128.234 78.3874C128.234 78.7448 128.134 79.024 127.933 79.2251C127.732 79.4261 127.503 79.5601 127.246 79.6272C127.157 79.6495 127.112 79.6662 127.112 79.6774C127.112 79.6886 127.151 79.7388 127.229 79.8282C127.52 80.1521 127.938 80.3141 128.486 80.3141C128.91 80.3141 129.323 80.1354 129.725 79.7779C130.128 79.4205 130.424 78.957 130.613 78.3874C130.658 78.2534 131.01 76.8572 131.669 74.199C132.328 71.5407 132.663 70.1725 132.674 70.0943Z" fill="black"/>
<path d="M141.046 77.0948C140.903 77.0948 140.832 77.0553 140.832 76.9763C140.832 76.9526 140.844 76.8855 140.868 76.7749C140.892 76.6644 140.903 76.5657 140.903 76.4788C140.903 76.2893 140.848 76.1314 140.738 76.005C140.635 75.9103 140.453 75.8274 140.193 75.7563C139.932 75.6852 139.648 75.6457 139.34 75.6378C139.056 75.6378 138.815 75.6813 138.617 75.7681C138.42 75.855 138.274 75.9734 138.179 76.1235C138.084 76.2735 138.017 76.4038 137.978 76.5144C137.938 76.6249 137.919 76.7394 137.919 76.8579C137.919 77.0711 137.97 77.2685 138.073 77.4501C138.175 77.6317 138.329 77.7897 138.535 77.9239C138.74 78.0581 138.882 78.149 138.961 78.1963C139.04 78.2437 139.162 78.3029 139.328 78.374C139.533 78.4767 139.699 78.5596 139.826 78.6227C139.952 78.6859 140.122 78.7886 140.335 78.9307C140.548 79.0729 140.71 79.2071 140.821 79.3334C140.931 79.4598 141.038 79.6217 141.14 79.8191C141.243 80.0165 141.29 80.2179 141.283 80.4232C141.283 81.197 140.848 81.888 139.98 82.496C139.111 83.1041 138.148 83.412 137.089 83.4199C136.442 83.4199 135.881 83.2501 135.407 82.9106C134.934 82.571 134.697 82.1683 134.697 81.7024C134.697 81.2207 134.867 80.8101 135.206 80.4705C135.546 80.131 135.921 79.9454 136.331 79.9138C136.505 79.9138 136.592 79.9573 136.592 80.0441C136.592 80.0678 136.588 80.0876 136.58 80.1034C136.541 80.1902 136.489 80.2652 136.426 80.3284C136.363 80.3916 136.312 80.439 136.272 80.4705C136.233 80.5021 136.173 80.5377 136.094 80.5772L135.988 80.6364L135.952 80.7667C135.905 80.893 135.881 81.047 135.881 81.2286C135.897 81.5366 136.083 81.8406 136.438 82.1407C136.793 82.4407 137.295 82.5908 137.942 82.5908C138.59 82.5908 139.107 82.4407 139.494 82.1407C139.881 81.8406 140.078 81.4458 140.086 80.9562V80.8733C140.086 80.2889 139.589 79.7599 138.594 79.2861C137.97 78.9939 137.543 78.7491 137.314 78.5517C136.935 78.22 136.746 77.837 136.746 77.4027C136.746 76.921 136.947 76.4709 137.35 76.0524C137.753 75.6339 138.203 75.322 138.7 75.1167C139.198 74.9114 139.648 74.8087 140.051 74.8087C140.066 74.8087 140.098 74.8087 140.145 74.8087C140.193 74.8087 140.236 74.8126 140.276 74.8205C140.765 74.8205 141.188 74.9074 141.543 75.0811C141.898 75.2549 142.08 75.5391 142.088 75.934C142.088 76.2814 142.005 76.538 141.839 76.7039C141.61 76.9329 141.346 77.0632 141.046 77.0948Z" fill="black"/>
<path d="M145.357 76.3769C145.357 75.6062 145.412 74.8746 145.524 74.1821C145.636 73.4896 145.764 72.8921 145.91 72.3895C146.055 71.8869 146.261 71.3954 146.529 70.9152C146.797 70.4349 147.01 70.0607 147.166 69.7927C147.322 69.5246 147.557 69.2342 147.87 68.9215C148.182 68.6087 148.367 68.4189 148.423 68.3518C148.478 68.2848 148.618 68.1675 148.841 68H149.059H149.126C149.283 68 149.361 68.0503 149.361 68.1508C149.361 68.1843 149.266 68.3016 149.076 68.5026C148.886 68.7037 148.657 68.9996 148.389 69.3906C148.121 69.7815 147.847 70.2618 147.568 70.8314C147.289 71.401 147.054 72.1717 146.864 73.1434C146.675 74.1151 146.58 75.1929 146.58 76.3769C146.58 77.5608 146.675 78.633 146.864 79.5936C147.054 80.5541 147.283 81.3304 147.551 81.9223C147.819 82.5143 148.093 82.9946 148.372 83.3632C148.652 83.7317 148.886 84.0277 149.076 84.2511C149.266 84.4745 149.361 84.5918 149.361 84.6029C149.361 84.7035 149.277 84.7537 149.109 84.7537H149.059H148.841L148.372 84.3516C147.322 83.4023 146.557 82.2183 146.077 80.7998C145.597 79.3814 145.357 77.907 145.357 76.3769Z" fill="black"/>
<path d="M160.016 74.1151C160.016 73.8806 160.122 73.6628 160.335 73.4617C160.547 73.2607 160.781 73.1546 161.038 73.1434C161.239 73.1434 161.424 73.2439 161.591 73.445C161.759 73.646 161.848 73.9643 161.859 74.3999C161.859 74.7238 161.753 75.3661 161.541 76.3266C161.373 76.9521 161.222 77.4659 161.088 77.8679C160.954 78.27 160.759 78.7224 160.502 79.225C160.245 79.7276 159.938 80.1074 159.581 80.3643C159.223 80.6211 158.821 80.7496 158.374 80.7496C157.883 80.7496 157.447 80.6602 157.068 80.4815C156.688 80.3028 156.414 80.0627 156.247 79.7611C156.235 79.7723 156.219 79.7946 156.196 79.8281C155.738 80.4424 155.18 80.7496 154.521 80.7496C154.231 80.7496 153.951 80.7161 153.683 80.6491C153.415 80.5821 153.153 80.4759 152.896 80.3307C152.639 80.1855 152.432 79.9677 152.276 79.6774C152.12 79.387 152.041 79.0351 152.041 78.6219C152.041 78.0187 152.231 77.2034 152.611 76.1758C152.991 75.1483 153.186 74.4949 153.197 74.2156C153.197 74.2045 153.197 74.1933 153.197 74.1821C153.197 74.0816 153.197 74.0146 153.197 73.9811C153.197 73.9476 153.175 73.9085 153.13 73.8638C153.086 73.8191 153.024 73.7968 152.946 73.7968H152.879C152.622 73.7968 152.388 73.9029 152.175 74.1151C151.963 74.3273 151.796 74.5563 151.673 74.802C151.55 75.0477 151.455 75.2823 151.388 75.5057C151.321 75.7291 151.276 75.8519 151.254 75.8743C151.232 75.8966 151.142 75.9078 150.986 75.9078H150.751C150.684 75.8408 150.651 75.7905 150.651 75.757C150.651 75.69 150.696 75.5336 150.785 75.2879C150.874 75.0422 151.003 74.7573 151.17 74.4334C151.338 74.1095 151.584 73.8191 151.907 73.5622C152.231 73.3054 152.594 73.1769 152.996 73.1769C153.477 73.1769 153.845 73.3165 154.102 73.5958C154.359 73.875 154.487 74.1989 154.487 74.5675C154.487 74.7685 154.303 75.3716 153.935 76.3769C153.566 77.3821 153.382 78.1583 153.382 78.7056C153.382 79.2194 153.499 79.5824 153.734 79.7946C153.968 80.0068 154.264 80.1185 154.622 80.1297C155.102 80.1297 155.526 79.789 155.895 79.1077L155.979 78.9569V78.5716C155.979 78.5381 155.979 78.4878 155.979 78.4208C155.979 78.3538 155.984 78.3091 155.995 78.2868C156.006 78.2645 156.012 78.2254 156.012 78.1695C156.012 78.1137 156.018 78.0634 156.029 78.0187C156.04 77.9741 156.057 77.9015 156.079 77.8009C156.101 77.7004 156.118 77.6055 156.129 77.5161C156.141 77.4268 156.174 77.2927 156.23 77.114C156.286 76.9353 156.33 76.7566 156.364 76.5779C156.397 76.3992 156.459 76.1591 156.548 75.8575C156.872 74.5842 157.056 73.8973 157.101 73.7968C157.246 73.4952 157.486 73.3444 157.821 73.3444C158.034 73.3444 158.179 73.4003 158.257 73.512C158.335 73.6237 158.38 73.7298 158.391 73.8303C158.391 73.9755 158.229 74.6903 157.905 75.9748C157.581 77.2592 157.403 77.9964 157.369 78.1863C157.347 78.3091 157.336 78.5046 157.336 78.7726V78.8899C157.336 79.0575 157.352 79.2194 157.386 79.3758C157.419 79.5322 157.525 79.6941 157.704 79.8616C157.883 80.0292 158.134 80.1185 158.458 80.1297C159.251 80.1297 159.882 79.4484 160.351 78.0857C160.452 77.8289 160.563 77.4659 160.686 76.9968C160.809 76.5277 160.876 76.1926 160.887 75.9915C160.887 75.623 160.815 75.3326 160.67 75.1203C160.524 74.9081 160.379 74.7294 160.234 74.5842C160.089 74.439 160.016 74.2827 160.016 74.1151Z" fill="black"/>
<path d="M163.317 68.0168L163.384 68C163.44 68 163.495 68 163.551 68H163.752L164.221 68.4021C165.271 69.3515 166.036 70.5354 166.517 71.9539C166.997 73.3724 167.237 74.8467 167.237 76.3769C167.237 77.1364 167.181 77.8679 167.07 78.5716C166.958 79.2753 166.829 79.8728 166.684 80.3642C166.539 80.8557 166.332 81.3471 166.064 81.8386C165.796 82.33 165.584 82.7042 165.428 82.9611C165.271 83.218 165.042 83.5028 164.741 83.8155C164.439 84.1283 164.26 84.3125 164.205 84.3684C164.149 84.4242 164.02 84.5303 163.819 84.6867C163.786 84.7202 163.763 84.7426 163.752 84.7537H163.551C163.462 84.7537 163.4 84.7537 163.367 84.7537C163.333 84.7537 163.306 84.737 163.283 84.7035C163.261 84.67 163.244 84.6197 163.233 84.5527C163.244 84.5415 163.306 84.4689 163.417 84.3349C165.148 82.5366 166.014 79.884 166.014 76.3769C166.014 72.8698 165.148 70.2171 163.417 68.4189C163.306 68.2848 163.244 68.2122 163.233 68.2011C163.233 68.1117 163.261 68.0503 163.317 68.0168Z" fill="black"/>
<path d="M7 134.24C7 134.206 7.02792 134.167 7.08377 134.123H19.314C19.3698 134.167 19.3977 134.206 19.3977 134.24C19.3977 134.262 18.454 136.217 16.5664 140.104C14.6788 143.99 13.7127 145.956 13.668 146.001C13.6121 146.079 13.4558 146.118 13.1989 146.118C12.942 146.118 12.7856 146.079 12.7298 146.001C12.6963 145.956 11.7357 143.99 9.84813 140.104C7.96055 136.217 7.01117 134.262 7 134.24ZM17.9067 135.58C17.9067 135.569 16.4994 135.563 13.6847 135.563C10.8701 135.563 9.4628 135.569 9.4628 135.58C9.48513 135.636 10.1888 137.088 11.5738 139.936C12.9587 142.784 13.6624 144.214 13.6847 144.225L17.9067 135.58Z" fill="#A42323"/>
<path d="M27.6741 135.094C27.6741 134.96 27.1547 134.893 26.116 134.893H25.6972C25.6302 134.837 25.5967 134.793 25.5967 134.759C25.5967 134.726 25.6078 134.619 25.6302 134.441C25.6748 134.296 25.7307 134.189 25.7977 134.122H26.0825C26.5404 134.145 27.3558 134.156 28.5286 134.156C29.0088 134.156 29.3997 134.156 29.7013 134.156C30.0029 134.156 30.2095 134.15 30.3212 134.139C30.4329 134.128 30.5111 134.128 30.5558 134.139C30.7121 134.139 30.7903 134.195 30.7903 134.307C30.7903 134.329 30.7736 134.407 30.74 134.541C30.6954 134.72 30.6563 134.821 30.6228 134.843C30.5893 134.865 30.4832 134.882 30.3044 134.893C29.7237 134.893 29.3942 134.971 29.316 135.128C29.2713 135.273 28.9251 136.652 28.2772 139.266C27.5736 142.036 27.2162 143.426 27.205 143.438C26.9593 144.141 26.479 144.733 25.7642 145.213C25.0494 145.694 24.2787 145.934 23.4522 145.934C22.8044 145.934 22.2571 145.766 21.8103 145.431C21.3636 145.096 21.1402 144.649 21.1402 144.091C21.1402 143.622 21.2686 143.264 21.5255 143.019C21.7824 142.773 22.0728 142.65 22.3967 142.65C22.8993 142.65 23.1785 142.896 23.2344 143.387C23.2344 143.745 23.1339 144.024 22.9328 144.225C22.7318 144.426 22.5028 144.56 22.2459 144.627C22.1566 144.649 22.1119 144.666 22.1119 144.677C22.1119 144.688 22.151 144.739 22.2292 144.828C22.5196 145.152 22.9384 145.314 23.4857 145.314C23.9101 145.314 24.3234 145.135 24.7255 144.778C25.1276 144.42 25.4235 143.957 25.6134 143.387C25.6581 143.253 26.0099 141.857 26.6689 139.199C27.3279 136.541 27.6629 135.172 27.6741 135.094Z" fill="#A42323"/>
<path d="M32.382 141.377C32.382 140.606 32.4378 139.875 32.5495 139.182C32.6612 138.49 32.7897 137.892 32.9349 137.389C33.0801 136.887 33.2867 136.395 33.5547 135.915C33.8228 135.435 34.035 135.061 34.1914 134.793C34.3478 134.525 34.5823 134.234 34.895 133.921C35.2078 133.609 35.3921 133.419 35.4479 133.352C35.5038 133.285 35.6434 133.168 35.8668 133H36.0846H36.1516C36.3079 133 36.3861 133.05 36.3861 133.151C36.3861 133.184 36.2912 133.302 36.1013 133.503C35.9114 133.704 35.6825 134 35.4144 134.391C35.1464 134.781 34.8727 135.262 34.5935 135.831C34.3143 136.401 34.0797 137.172 33.8898 138.143C33.6999 139.115 33.605 140.193 33.605 141.377C33.605 142.561 33.6999 143.633 33.8898 144.594C34.0797 145.554 34.3087 146.33 34.5767 146.922C34.8448 147.514 35.1184 147.995 35.3977 148.363C35.6769 148.732 35.9114 149.028 36.1013 149.251C36.2912 149.474 36.3861 149.592 36.3861 149.603C36.3861 149.703 36.3024 149.754 36.1348 149.754H36.0846H35.8668L35.3977 149.352C34.3478 148.402 33.5827 147.218 33.1024 145.8C32.6221 144.381 32.382 142.907 32.382 141.377Z" fill="#A42323"/>
<path d="M47.0414 139.115C47.0414 138.881 47.1475 138.663 47.3597 138.462C47.5719 138.261 47.8065 138.155 48.0634 138.143C48.2644 138.143 48.4487 138.244 48.6162 138.445C48.7838 138.646 48.8731 138.964 48.8843 139.4C48.8843 139.724 48.7782 140.366 48.566 141.327C48.3984 141.952 48.2477 142.466 48.1136 142.868C47.9796 143.27 47.7841 143.722 47.5272 144.225C47.2703 144.728 46.9632 145.107 46.6058 145.364C46.2484 145.621 45.8463 145.75 45.3995 145.75C44.9081 145.75 44.4725 145.66 44.0927 145.481C43.713 145.303 43.4393 145.063 43.2718 144.761C43.2606 144.772 43.2439 144.795 43.2215 144.828C42.7636 145.442 42.2051 145.75 41.5462 145.75C41.2558 145.75 40.9765 145.716 40.7085 145.649C40.4404 145.582 40.1779 145.476 39.9211 145.331C39.6642 145.186 39.4575 144.968 39.3012 144.677C39.1448 144.387 39.0666 144.035 39.0666 143.622C39.0666 143.019 39.2565 142.203 39.6362 141.176C40.016 140.148 40.2115 139.495 40.2226 139.216C40.2226 139.204 40.2226 139.193 40.2226 139.182C40.2226 139.082 40.2226 139.015 40.2226 138.981C40.2226 138.948 40.2003 138.908 40.1556 138.864C40.1109 138.819 40.0495 138.797 39.9713 138.797H39.9043C39.6474 138.797 39.4129 138.903 39.2006 139.115C38.9884 139.327 38.8209 139.556 38.698 139.802C38.5752 140.048 38.4802 140.282 38.4132 140.506C38.3462 140.729 38.3015 140.852 38.2792 140.874C38.2569 140.897 38.1675 140.908 38.0111 140.908H37.7766C37.7096 140.841 37.6761 140.79 37.6761 140.757C37.6761 140.69 37.7207 140.534 37.8101 140.288C37.8994 140.042 38.0279 139.757 38.1954 139.433C38.363 139.11 38.6087 138.819 38.9326 138.562C39.2565 138.305 39.6195 138.177 40.0216 138.177C40.5018 138.177 40.8704 138.316 41.1273 138.596C41.3842 138.875 41.5127 139.199 41.5127 139.567C41.5127 139.768 41.3284 140.372 40.9598 141.377C40.5912 142.382 40.4069 143.158 40.4069 143.706C40.4069 144.219 40.5242 144.582 40.7587 144.795C40.9933 145.007 41.2893 145.119 41.6467 145.13C42.127 145.13 42.5514 144.789 42.92 144.108L43.0037 143.957V143.572C43.0037 143.538 43.0037 143.488 43.0037 143.421C43.0037 143.354 43.0093 143.309 43.0205 143.287C43.0317 143.264 43.0372 143.225 43.0372 143.169C43.0372 143.114 43.0428 143.063 43.054 143.019C43.0652 142.974 43.0819 142.901 43.1043 142.801C43.1266 142.7 43.1434 142.605 43.1545 142.516C43.1657 142.427 43.1992 142.293 43.255 142.114C43.3109 141.935 43.3556 141.757 43.3891 141.578C43.4226 141.399 43.484 141.159 43.5734 140.857C43.8973 139.584 44.0816 138.897 44.1262 138.797C44.2714 138.495 44.5116 138.344 44.8466 138.344C45.0589 138.344 45.2041 138.4 45.2822 138.512C45.3604 138.624 45.4051 138.73 45.4163 138.83C45.4163 138.975 45.2543 139.69 44.9304 140.975C44.6065 142.259 44.4278 142.996 44.3943 143.186C44.372 143.309 44.3608 143.505 44.3608 143.773V143.89C44.3608 144.057 44.3775 144.219 44.411 144.376C44.4446 144.532 44.5507 144.694 44.7294 144.862C44.9081 145.029 45.1594 145.119 45.4833 145.13C46.2763 145.13 46.9074 144.448 47.3765 143.086C47.477 142.829 47.5887 142.466 47.7115 141.997C47.8344 141.528 47.9014 141.193 47.9126 140.992C47.9126 140.623 47.84 140.333 47.6948 140.12C47.5496 139.908 47.4044 139.729 47.2592 139.584C47.114 139.439 47.0414 139.283 47.0414 139.115Z" fill="#A42323"/>
<path d="M50.3419 133.017L50.4089 133C50.4647 133 50.5206 133 50.5764 133H50.7775L51.2466 133.402C52.2965 134.351 53.0615 135.535 53.5418 136.954C54.0221 138.372 54.2622 139.847 54.2622 141.377C54.2622 142.136 54.2064 142.868 54.0947 143.572C53.983 144.275 53.8546 144.873 53.7094 145.364C53.5642 145.856 53.3575 146.347 53.0895 146.839C52.8214 147.33 52.6092 147.704 52.4528 147.961C52.2965 148.218 52.0675 148.503 51.7659 148.815C51.4644 149.128 51.2856 149.313 51.2298 149.368C51.174 149.424 51.0455 149.53 50.8445 149.687C50.811 149.72 50.7886 149.743 50.7775 149.754H50.5764C50.4871 149.754 50.4256 149.754 50.3921 149.754C50.3586 149.754 50.3307 149.737 50.3083 149.703C50.286 149.67 50.2693 149.62 50.2581 149.553C50.2693 149.541 50.3307 149.469 50.4424 149.335C52.1736 147.537 53.0392 144.884 53.0392 141.377C53.0392 137.87 52.1736 135.217 50.4424 133.419C50.3307 133.285 50.2693 133.212 50.2581 133.201C50.2581 133.112 50.286 133.05 50.3419 133.017Z" fill="#A42323"/>
<path d="M109 27.7692C109 26.7231 109.213 25.6205 109.639 24.4615C110.066 23.3026 110.645 22.3026 111.377 21.4615C112.109 20.6205 112.869 20.1385 113.656 20.0154C113.667 20.0154 113.71 20.0154 113.787 20.0154C113.863 20.0154 113.929 20.0103 113.984 20C114.574 20.041 115.033 20.2923 115.361 20.7538C115.787 21.3692 116 22.1949 116 23.2308C116 24.4103 115.754 25.6103 115.262 26.8308C114.77 28.0513 114.142 29.0513 113.377 29.8308C112.612 30.6103 111.88 31 111.18 31H111.066C110.672 31 110.333 30.8974 110.049 30.6923C109.765 30.4872 109.552 30.2154 109.41 29.8769C109.268 29.5385 109.164 29.1949 109.098 28.8462C109.033 28.4974 109 28.1385 109 27.7692ZM114.705 22.1385C114.705 21.0923 114.415 20.5692 113.836 20.5692C113.443 20.5692 113.06 20.8 112.689 21.2615C112.317 21.7231 112.011 22.2462 111.77 22.8308C111.53 23.4154 111.344 23.9282 111.213 24.3692C111.082 24.8103 111.011 25.0667 111 25.1385C111.536 25.1487 112.066 25.1538 112.59 25.1538L114.18 25.1385C114.191 25.1282 114.235 24.959 114.311 24.6308C114.388 24.3026 114.475 23.8923 114.574 23.4C114.672 22.9077 114.716 22.4872 114.705 22.1385ZM110.279 28.8154C110.279 29.9026 110.568 30.4462 111.148 30.4462C111.311 30.4462 111.486 30.3949 111.672 30.2923C111.858 30.1897 112.082 29.9949 112.344 29.7077C112.607 29.4205 112.869 28.9744 113.131 28.3692C113.393 27.7641 113.656 27.0154 113.918 26.1231L114 25.8615H110.803C110.803 25.8923 110.754 26.0872 110.656 26.4462C110.557 26.8051 110.47 27.2051 110.393 27.6462C110.317 28.0872 110.279 28.4769 110.279 28.8154Z" fill="black"/>
<rect x="0.5" y="70.5" width="9" height="9" rx="4.5" fill="#303030" stroke="white"/>
</g>
<defs>
<clipPath id="clip0">
<rect width="180" height="150" fill="white"/>
</clipPath>
</defs>
</svg>
