<svg width="273" height="273" viewBox="0 0 273 273" fill="none" xmlns="http://www.w3.org/2000/svg">
<rect x="-20" y="-73" width="500" height="500" fill="url(#paint0_radial)"/>
<path d="M83.5 130.5L82.2716 131.361L82.4289 131.585L82.6553 131.74L83.5 130.5ZM140 169L139.155 170.24L139.321 170.352L139.51 170.418L140 169ZM193.5 187.5L193.01 188.918L193.451 189.07L193.901 188.945L193.5 187.5ZM34.2716 62.8608L82.2716 131.361L84.7284 129.639L36.7284 61.1392L34.2716 62.8608ZM82.6553 131.74L139.155 170.24L140.845 167.76L84.3447 129.26L82.6553 131.74ZM139.51 170.418L193.01 188.918L193.99 186.082L140.49 167.582L139.51 170.418ZM193.901 188.945L229.901 178.945L229.099 176.055L193.099 186.055L193.901 188.945Z" fill="white"/>
<path d="M73 51.5L74.4017 52.034L75.2598 49.7816L72.86 50.0065L73 51.5ZM121 76L120.228 77.2862L120.841 77.6539L121.513 77.4097L121 76ZM150 51.5L151.099 50.4793L150.296 49.6148L149.267 50.1912L150 51.5ZM137.5 70L138.013 71.4097L139 71.0506V70H137.5ZM137.5 58.5L136.767 57.1912L136 57.6208V58.5H137.5ZM150 67L148.808 66.0888L147.259 68.1149L149.783 68.4842L150 67ZM156.5 58.5L157.692 59.4112L158.46 58.4063L157.599 57.4793L156.5 58.5ZM170.5 70L171.561 71.0607L173.673 68.9484L170.717 68.5158L170.5 70ZM156.5 84L155.439 82.9393L152.879 85.5H156.5V84ZM173 84L174.309 84.7329L175.559 82.5H173V84ZM166 96.5L164.691 95.7671L163.607 97.7036L165.808 97.9877L166 96.5ZM197 100.5L198.149 101.465L199.914 99.3635L197.192 99.0123L197 100.5ZM186.5 113L186.026 114.423L186.993 114.745L187.649 113.965L186.5 113ZM173 108.5L173.474 107.077L172.624 106.793L171.971 107.408L173 108.5ZM163.982 117L162.953 115.908L162.633 116.211L162.526 116.638L163.982 117ZM160.5 131L160.266 132.482L161.624 132.696L161.956 131.362L160.5 131ZM141.5 128L141.734 126.518L138.311 125.978L140.26 128.843L141.5 128ZM150 140.5L151.331 139.808L151.29 139.73L151.24 139.657L150 140.5ZM156.5 153L155.169 153.692L155.76 154.828L156.974 154.423L156.5 153ZM173 147.5L174.091 146.47L173.433 145.774L172.526 146.077L173 147.5ZM181.5 156.5L180.409 157.53L180.853 158H181.5V156.5ZM194 156.5V158H194.734L195.184 157.421L194 156.5ZM201 147.5L202.355 146.856L201.31 144.658L199.816 146.579L201 147.5ZM210.5 167.5L209.145 168.144L209.359 168.595L209.801 168.827L210.5 167.5ZM69 62L67.5983 61.466L66.8234 63.5H69V62ZM85 62L85.9965 60.8789L85.5703 60.5H85V62ZM106 67L106.772 65.7138L106.239 65.3941L105.636 65.5448L106 67ZM51.5 67L51.0526 68.4317L52.3855 68.8483L52.8961 67.5485L51.5 67ZM57 53L56.86 51.5065L55.9413 51.5927L55.6039 52.4515L57 53ZM94 70L93.0035 71.1211L93.5954 71.6473L94.3638 71.4552L94 70ZM35.0526 63.4317L36.3859 63.8484L37.2807 60.9849L35.9474 60.5683L35.0526 63.4317ZM39.0526 64.6817L41.7193 65.5151L42.6141 62.6516L39.9474 61.8183L39.0526 64.6817ZM44.3859 66.3484L47.0526 67.1817L47.9474 64.3183L45.2807 63.4849L44.3859 66.3484ZM49.7193 68.0151L51.0526 68.4317L51.9474 65.5683L50.6141 65.1516L49.7193 68.0151ZM52.8961 67.5485L53.3545 66.3818L50.5622 65.2849L50.1039 66.4515L52.8961 67.5485ZM54.2711 64.0485L55.1878 61.7151L52.3955 60.6182L51.4789 62.9515L54.2711 64.0485ZM56.1045 59.3818L57.0211 57.0485L54.2289 55.9515L53.3122 58.2849L56.1045 59.3818ZM57.9378 54.7151L58.3961 53.5485L55.6039 52.4515L55.1455 53.6182L57.9378 54.7151ZM57.14 54.4935L58.4733 54.3685L58.1933 51.3815L56.86 51.5065L57.14 54.4935ZM61.14 54.1185L63.8067 53.8685L63.5267 50.8815L60.86 51.1315L61.14 54.1185ZM66.4733 53.6185L69.14 53.3685L68.86 50.3815L66.1933 50.6315L66.4733 53.6185ZM71.8067 53.1185L73.14 52.9935L72.86 50.0065L71.5267 50.1315L71.8067 53.1185ZM71.5983 50.966L71.0983 52.2785L73.9017 53.3465L74.4017 52.034L71.5983 50.966ZM70.0983 54.9035L69.0983 57.5285L71.9017 58.5965L72.9017 55.9715L70.0983 54.9035ZM68.0983 60.1535L67.5983 61.466L70.4017 62.534L70.9017 61.2215L68.0983 60.1535ZM69 63.5H70.3333V60.5H69V63.5ZM73 63.5H75.6667V60.5H73V63.5ZM78.3333 63.5H81V60.5H78.3333V63.5ZM83.6667 63.5H85V60.5H83.6667V63.5ZM84.0035 63.1211L85.1285 64.1211L87.1215 61.8789L85.9965 60.8789L84.0035 63.1211ZM87.3785 66.1211L89.6285 68.1211L91.6215 65.8789L89.3715 63.8789L87.3785 66.1211ZM91.8785 70.1211L93.0035 71.1211L94.9965 68.8789L93.8715 67.8789L91.8785 70.1211ZM94.3638 71.4552L95.8638 71.0802L95.1362 68.1698L93.6362 68.5448L94.3638 71.4552ZM98.8638 70.3302L101.864 69.5802L101.136 66.6698L98.1362 67.4198L98.8638 70.3302ZM104.864 68.8302L106.364 68.4552L105.636 65.5448L104.136 65.9198L104.864 68.8302ZM105.228 68.2862L106.478 69.0362L108.022 66.4638L106.772 65.7138L105.228 68.2862ZM108.978 70.5362L111.478 72.0362L113.022 69.4638L110.522 67.9638L108.978 70.5362ZM113.978 73.5362L116.478 75.0362L118.022 72.4638L115.522 70.9638L113.978 73.5362ZM118.978 76.5362L120.228 77.2862L121.772 74.7138L120.522 73.9638L118.978 76.5362ZM121.513 77.4097L122.888 76.9097L121.862 74.0903L120.487 74.5903L121.513 77.4097ZM125.638 75.9097L128.388 74.9097L127.362 72.0903L124.612 73.0903L125.638 75.9097ZM131.138 73.9097L133.888 72.9097L132.862 70.0903L130.112 71.0903L131.138 73.9097ZM136.638 71.9097L138.013 71.4097L136.987 68.5903L135.612 69.0903L136.638 71.9097ZM139 70V68.5625H136V70H139ZM139 65.6875V62.8125H136V65.6875H139ZM139 59.9375V58.5H136V59.9375H139ZM138.233 59.8088L139.795 58.9338L138.33 56.3162L136.767 57.1912L138.233 59.8088ZM142.92 57.1838L146.045 55.4338L144.58 52.8162L141.455 54.5662L142.92 57.1838ZM149.17 53.6838L150.733 52.8088L149.267 50.1912L147.705 51.0662L149.17 53.6838ZM148.901 52.5207L149.713 53.3957L151.912 51.3543L151.099 50.4793L148.901 52.5207ZM151.338 55.1457L152.963 56.8957L155.162 54.8543L153.537 53.1043L151.338 55.1457ZM154.588 58.6457L155.401 59.5207L157.599 57.4793L156.787 56.6043L154.588 58.6457ZM155.308 57.5888L154.496 58.6513L156.879 60.4737L157.692 59.4112L155.308 57.5888ZM152.871 60.7763L151.246 62.9013L153.629 64.7237L155.254 62.5987L152.871 60.7763ZM149.621 65.0263L148.808 66.0888L151.192 67.9112L152.004 66.8487L149.621 65.0263ZM149.783 68.4842L151.491 68.7342L151.926 65.7658L150.217 65.5158L149.783 68.4842ZM154.908 69.2342L158.324 69.7342L158.759 66.7658L155.342 66.2658L154.908 69.2342ZM161.741 70.2342L165.158 70.7342L165.592 67.7658L162.176 67.2658L161.741 70.2342ZM168.574 71.2342L170.283 71.4842L170.717 68.5158L169.009 68.2658L168.574 71.2342ZM169.439 68.9393L168.273 70.106L170.394 72.2273L171.561 71.0607L169.439 68.9393ZM165.939 72.4393L163.606 74.7727L165.727 76.894L168.061 74.5607L165.939 72.4393ZM161.273 77.106L158.939 79.4393L161.061 81.5607L163.394 79.2273L161.273 77.106ZM156.606 81.7727L155.439 82.9393L157.561 85.0607L158.727 83.894L156.606 81.7727ZM156.5 85.5H157.875V82.5H156.5V85.5ZM160.625 85.5H163.375V82.5H160.625V85.5ZM166.125 85.5H168.875V82.5H166.125V85.5ZM171.625 85.5H173V82.5H171.625V85.5ZM171.691 83.2671L170.816 84.8296L173.434 86.2954L174.309 84.7329L171.691 83.2671ZM169.066 87.9546L167.316 91.0796L169.934 92.5454L171.684 89.4204L169.066 87.9546ZM165.566 94.2046L164.691 95.7671L167.309 97.2329L168.184 95.6704L165.566 94.2046ZM165.808 97.9877L167.358 98.1877L167.742 95.2123L166.192 95.0123L165.808 97.9877ZM170.458 98.5877L173.558 98.9877L173.942 96.0123L170.842 95.6123L170.458 98.5877ZM176.658 99.3877L179.758 99.7877L180.142 96.8123L177.042 96.4123L176.658 99.3877ZM182.858 100.188L185.958 100.588L186.342 97.6123L183.242 97.2123L182.858 100.188ZM189.058 100.988L192.158 101.388L192.542 98.4123L189.442 98.0123L189.058 100.988ZM195.258 101.788L196.808 101.988L197.192 99.0123L195.642 98.8123L195.258 101.788ZM195.851 99.5352L194.976 100.577L197.274 102.506L198.149 101.465L195.851 99.5352ZM193.226 102.66L191.476 104.744L193.774 106.673L195.524 104.59L193.226 102.66ZM189.726 106.827L187.976 108.91L190.274 110.84L192.024 108.756L189.726 106.827ZM186.226 110.994L185.351 112.035L187.649 113.965L188.524 112.923L186.226 110.994ZM186.974 111.577L185.287 111.014L184.338 113.861L186.026 114.423L186.974 111.577ZM181.912 109.889L178.537 108.764L177.588 111.611L180.963 112.736L181.912 109.889ZM175.162 107.639L173.474 107.077L172.526 109.923L174.213 110.486L175.162 107.639ZM171.971 107.408L170.844 108.471L172.902 110.654L174.029 109.592L171.971 107.408ZM168.589 110.596L166.335 112.721L168.393 114.904L170.647 112.779L168.589 110.596ZM164.08 114.846L162.953 115.908L165.011 118.092L166.138 117.029L164.08 114.846ZM162.526 116.638L162.091 118.388L165.002 119.112L165.438 117.362L162.526 116.638ZM161.221 121.888L160.35 125.388L163.261 126.112L164.132 122.612L161.221 121.888ZM159.48 128.888L159.044 130.638L161.956 131.362L162.391 129.612L159.48 128.888ZM160.734 129.518L159.151 129.268L158.683 132.232L160.266 132.482L160.734 129.518ZM155.984 128.768L152.817 128.268L152.349 131.232L155.516 131.732L155.984 128.768ZM149.651 127.768L146.484 127.268L146.016 130.232L149.183 130.732L149.651 127.768ZM143.317 126.768L141.734 126.518L141.266 129.482L142.849 129.732L143.317 126.768ZM140.26 128.843L140.968 129.885L143.449 128.198L142.74 127.157L140.26 128.843ZM142.385 131.968L143.801 134.052L146.282 132.365L144.865 130.282L142.385 131.968ZM145.218 136.135L146.635 138.218L149.115 136.532L147.699 134.448L145.218 136.135ZM148.051 140.302L148.76 141.343L151.24 139.657L150.532 138.615L148.051 140.302ZM148.669 141.192L149.482 142.755L152.143 141.37L151.331 139.808L148.669 141.192ZM151.107 145.88L152.732 149.005L155.393 147.62L153.768 144.495L151.107 145.88ZM154.357 152.13L155.169 153.692L157.831 152.308L157.018 150.745L154.357 152.13ZM156.974 154.423L158.349 153.965L157.401 151.119L156.026 151.577L156.974 154.423ZM161.099 153.048L163.849 152.131L162.901 149.285L160.151 150.202L161.099 153.048ZM166.599 151.215L169.349 150.298L168.401 147.452L165.651 148.369L166.599 151.215ZM172.099 149.381L173.474 148.923L172.526 146.077L171.151 146.535L172.099 149.381ZM171.909 148.53L172.972 149.655L175.153 147.595L174.091 146.47L171.909 148.53ZM175.097 151.905L177.222 154.155L179.403 152.095L177.278 149.845L175.097 151.905ZM179.347 156.405L180.409 157.53L182.591 155.47L181.528 154.345L179.347 156.405ZM181.5 158H183.062V155H181.5V158ZM186.188 158H189.312V155H186.188V158ZM192.438 158H194V155H192.438V158ZM195.184 157.421L196.059 156.296L193.691 154.454L192.816 155.579L195.184 157.421ZM197.809 154.046L199.559 151.796L197.191 149.954L195.441 152.204L197.809 154.046ZM201.309 149.546L202.184 148.421L199.816 146.579L198.941 147.704L201.309 149.546ZM199.645 148.144L200.239 149.394L202.949 148.106L202.355 146.856L199.645 148.144ZM201.426 151.894L202.614 154.394L205.324 153.106L204.136 150.606L201.426 151.894ZM203.801 156.894L204.989 159.394L207.699 158.106L206.511 155.606L203.801 156.894ZM206.176 161.894L207.364 164.394L210.074 163.106L208.886 160.606L206.176 161.894ZM208.551 166.894L209.145 168.144L211.855 166.856L211.261 165.606L208.551 166.894ZM209.801 168.827L210.989 169.452L212.386 166.798L211.199 166.173L209.801 168.827ZM213.364 170.702L215.739 171.952L217.136 169.298L214.761 168.048L213.364 170.702ZM218.114 173.202L220.489 174.452L221.886 171.798L219.511 170.548L218.114 173.202ZM222.864 175.702L225.239 176.952L226.636 174.298L224.261 173.048L222.864 175.702ZM227.614 178.202L228.801 178.827L230.199 176.173L229.011 175.548L227.614 178.202Z" fill="white"/>
<mask id="path-4-inside-1" fill="white">
<path fill-rule="evenodd" clip-rule="evenodd" d="M224.697 168.161L221.161 171.697L226.464 177L221.161 182.303L224.697 185.839L230 180.536L235.303 185.839L238.839 182.303L233.536 177L238.839 171.697L235.303 168.161L230 173.464L224.697 168.161Z"/>
</mask>
<path fill-rule="evenodd" clip-rule="evenodd" d="M224.697 168.161L221.161 171.697L226.464 177L221.161 182.303L224.697 185.839L230 180.536L235.303 185.839L238.839 182.303L233.536 177L238.839 171.697L235.303 168.161L230 173.464L224.697 168.161Z" fill="#FF0000"/>
<path d="M221.161 171.697L220.454 170.99L219.747 171.697L220.454 172.404L221.161 171.697ZM224.697 168.161L225.404 167.454L224.697 166.747L223.99 167.454L224.697 168.161ZM226.464 177L227.172 177.707L227.879 177L227.172 176.293L226.464 177ZM221.161 182.303L220.454 181.596L219.747 182.303L220.454 183.01L221.161 182.303ZM224.697 185.839L223.99 186.546L224.697 187.253L225.404 186.546L224.697 185.839ZM230 180.536L230.707 179.828L230 179.121L229.293 179.828L230 180.536ZM235.303 185.839L234.596 186.546L235.303 187.253L236.01 186.546L235.303 185.839ZM238.839 182.303L239.546 183.01L240.253 182.303L239.546 181.596L238.839 182.303ZM233.536 177L232.828 176.293L232.121 177L232.828 177.707L233.536 177ZM238.839 171.697L239.546 172.404L240.253 171.697L239.546 170.99L238.839 171.697ZM235.303 168.161L236.01 167.454L235.303 166.747L234.596 167.454L235.303 168.161ZM230 173.464L229.293 174.172L230 174.879L230.707 174.172L230 173.464ZM221.868 172.404L225.404 168.868L223.99 167.454L220.454 170.99L221.868 172.404ZM227.172 176.293L221.868 170.99L220.454 172.404L225.757 177.707L227.172 176.293ZM221.868 183.01L227.172 177.707L225.757 176.293L220.454 181.596L221.868 183.01ZM225.404 185.132L221.868 181.596L220.454 183.01L223.99 186.546L225.404 185.132ZM229.293 179.828L223.99 185.132L225.404 186.546L230.707 181.243L229.293 179.828ZM236.01 185.132L230.707 179.828L229.293 181.243L234.596 186.546L236.01 185.132ZM238.132 181.596L234.596 185.132L236.01 186.546L239.546 183.01L238.132 181.596ZM232.828 177.707L238.132 183.01L239.546 181.596L234.243 176.293L232.828 177.707ZM238.132 170.99L232.828 176.293L234.243 177.707L239.546 172.404L238.132 170.99ZM234.596 168.868L238.132 172.404L239.546 170.99L236.01 167.454L234.596 168.868ZM230.707 174.172L236.01 168.868L234.596 167.454L229.293 172.757L230.707 174.172ZM223.99 168.868L229.293 174.172L230.707 172.757L225.404 167.454L223.99 168.868Z" fill="white" mask="url(#path-4-inside-1)"/>
<rect x="31" y="58" width="8" height="8" rx="4" fill="#303030" stroke="white" stroke-width="2"/>
<path d="M140 31.2398C140 31.2063 140.028 31.1672 140.084 31.1225H152.314C152.37 31.1672 152.398 31.2063 152.398 31.2398C152.398 31.2622 151.454 33.2168 149.566 37.1036C147.679 40.9905 146.713 42.9562 146.668 43.0009C146.612 43.0791 146.456 43.1182 146.199 43.1182C145.942 43.1182 145.786 43.0791 145.73 43.0009C145.696 42.9562 144.736 40.9905 142.848 37.1036C140.961 33.2168 140.011 31.2622 140 31.2398ZM150.907 32.5801C150.907 32.5689 149.499 32.5634 146.685 32.5634C143.87 32.5634 142.463 32.5689 142.463 32.5801C142.485 32.636 143.189 34.0879 144.574 36.9361C145.959 39.7842 146.662 41.2139 146.685 41.225L150.907 32.5801Z" fill="white"/>
<path d="M160.674 32.0943C160.674 31.9603 160.155 31.8932 159.116 31.8932H158.697C158.63 31.8374 158.597 31.7927 158.597 31.7592C158.597 31.7257 158.608 31.6196 158.63 31.4409C158.675 31.2957 158.731 31.1896 158.798 31.1226H159.082C159.54 31.1449 160.356 31.1561 161.529 31.1561C162.009 31.1561 162.4 31.1561 162.701 31.1561C163.003 31.1561 163.209 31.1505 163.321 31.1393C163.433 31.1282 163.511 31.1282 163.556 31.1393C163.712 31.1393 163.79 31.1952 163.79 31.3069C163.79 31.3292 163.774 31.4074 163.74 31.5414C163.695 31.7201 163.656 31.8206 163.623 31.843C163.589 31.8653 163.483 31.8821 163.304 31.8932C162.724 31.8932 162.394 31.9714 162.316 32.1278C162.271 32.273 161.925 33.6524 161.277 36.266C160.574 39.0359 160.216 40.4265 160.205 40.4376C159.959 41.1413 159.479 41.7333 158.764 42.2135C158.049 42.6938 157.279 42.9339 156.452 42.9339C155.804 42.9339 155.257 42.7664 154.81 42.4313C154.364 42.0963 154.14 41.6495 154.14 41.091C154.14 40.6219 154.269 40.2645 154.525 40.0188C154.782 39.7731 155.073 39.6502 155.397 39.6502C155.899 39.6502 156.179 39.8959 156.234 40.3874C156.234 40.7448 156.134 41.024 155.933 41.2251C155.732 41.4261 155.503 41.5601 155.246 41.6272C155.157 41.6495 155.112 41.6662 155.112 41.6774C155.112 41.6886 155.151 41.7388 155.229 41.8282C155.52 42.1521 155.938 42.3141 156.486 42.3141C156.91 42.3141 157.323 42.1354 157.725 41.7779C158.128 41.4205 158.424 40.957 158.613 40.3874C158.658 40.2534 159.01 38.8572 159.669 36.199C160.328 33.5407 160.663 32.1725 160.674 32.0943Z" fill="white"/>
<path d="M169.046 39.0948C168.904 39.0948 168.832 39.0553 168.832 38.9763C168.832 38.9526 168.844 38.8855 168.868 38.7749C168.892 38.6644 168.904 38.5657 168.904 38.4788C168.904 38.2893 168.848 38.1314 168.738 38.005C168.635 37.9103 168.453 37.8274 168.193 37.7563C167.932 37.6852 167.648 37.6457 167.34 37.6378C167.056 37.6378 166.815 37.6813 166.617 37.7681C166.42 37.855 166.274 37.9734 166.179 38.1235C166.084 38.2735 166.017 38.4038 165.978 38.5144C165.938 38.6249 165.919 38.7394 165.919 38.8579C165.919 39.0711 165.97 39.2685 166.073 39.4501C166.175 39.6317 166.329 39.7897 166.535 39.9239C166.74 40.0581 166.882 40.149 166.961 40.1963C167.04 40.2437 167.162 40.3029 167.328 40.374C167.533 40.4767 167.699 40.5596 167.826 40.6227C167.952 40.6859 168.122 40.7886 168.335 40.9307C168.548 41.0729 168.71 41.2071 168.821 41.3334C168.931 41.4598 169.038 41.6217 169.14 41.8191C169.243 42.0165 169.29 42.2179 169.283 42.4232C169.283 43.197 168.848 43.888 167.98 44.496C167.111 45.1041 166.148 45.412 165.089 45.4199C164.442 45.4199 163.881 45.2501 163.407 44.9106C162.934 44.571 162.697 44.1683 162.697 43.7024C162.697 43.2207 162.867 42.8101 163.206 42.4705C163.546 42.131 163.921 41.9454 164.331 41.9138C164.505 41.9138 164.592 41.9573 164.592 42.0441C164.592 42.0678 164.588 42.0876 164.58 42.1034C164.541 42.1902 164.489 42.2652 164.426 42.3284C164.363 42.3916 164.312 42.439 164.272 42.4705C164.233 42.5021 164.173 42.5377 164.094 42.5772L163.988 42.6364L163.952 42.7667C163.905 42.893 163.881 43.047 163.881 43.2286C163.897 43.5366 164.083 43.8406 164.438 44.1407C164.793 44.4407 165.295 44.5908 165.942 44.5908C166.59 44.5908 167.107 44.4407 167.494 44.1407C167.881 43.8406 168.078 43.4458 168.086 42.9562V42.8733C168.086 42.2889 167.589 41.7599 166.594 41.2861C165.97 40.9939 165.544 40.7491 165.315 40.5517C164.935 40.22 164.746 39.837 164.746 39.4027C164.746 38.921 164.947 38.4709 165.35 38.0524C165.753 37.6339 166.203 37.322 166.7 37.1167C167.198 36.9114 167.648 36.8087 168.051 36.8087C168.066 36.8087 168.098 36.8087 168.145 36.8087C168.193 36.8087 168.236 36.8126 168.276 36.8205C168.765 36.8205 169.188 36.9074 169.543 37.0811C169.898 37.2549 170.08 37.5391 170.088 37.934C170.088 38.2814 170.005 38.538 169.839 38.7039C169.61 38.9329 169.346 39.0632 169.046 39.0948Z" fill="white"/>
<path d="M173.357 38.3769C173.357 37.6062 173.412 36.8746 173.524 36.1821C173.636 35.4896 173.764 34.8921 173.91 34.3895C174.055 33.8869 174.261 33.3954 174.529 32.9152C174.797 32.4349 175.01 32.0607 175.166 31.7927C175.322 31.5246 175.557 31.2342 175.87 30.9215C176.182 30.6087 176.367 30.4189 176.423 30.3518C176.478 30.2848 176.618 30.1675 176.841 30H177.059H177.126C177.283 30 177.361 30.0503 177.361 30.1508C177.361 30.1843 177.266 30.3016 177.076 30.5026C176.886 30.7037 176.657 30.9996 176.389 31.3906C176.121 31.7815 175.847 32.2618 175.568 32.8314C175.289 33.401 175.054 34.1717 174.864 35.1434C174.675 36.1151 174.58 37.1929 174.58 38.3769C174.58 39.5608 174.675 40.633 174.864 41.5936C175.054 42.5541 175.283 43.3304 175.551 43.9223C175.819 44.5143 176.093 44.9946 176.372 45.3632C176.652 45.7317 176.886 46.0277 177.076 46.2511C177.266 46.4745 177.361 46.5918 177.361 46.6029C177.361 46.7035 177.277 46.7537 177.109 46.7537H177.059H176.841L176.372 46.3516C175.322 45.4023 174.557 44.2183 174.077 42.7998C173.597 41.3814 173.357 39.907 173.357 38.3769Z" fill="white"/>
<path d="M188.016 36.1151C188.016 35.8806 188.122 35.6628 188.335 35.4617C188.547 35.2607 188.781 35.1546 189.038 35.1434C189.239 35.1434 189.424 35.2439 189.591 35.445C189.759 35.646 189.848 35.9643 189.859 36.3999C189.859 36.7238 189.753 37.3661 189.541 38.3266C189.373 38.9521 189.222 39.4659 189.088 39.8679C188.954 40.27 188.759 40.7224 188.502 41.225C188.245 41.7276 187.938 42.1074 187.581 42.3643C187.223 42.6211 186.821 42.7496 186.374 42.7496C185.883 42.7496 185.447 42.6602 185.068 42.4815C184.688 42.3028 184.414 42.0627 184.247 41.7611C184.235 41.7723 184.219 41.7946 184.196 41.8281C183.738 42.4424 183.18 42.7496 182.521 42.7496C182.231 42.7496 181.951 42.7161 181.683 42.6491C181.415 42.5821 181.153 42.4759 180.896 42.3307C180.639 42.1855 180.432 41.9677 180.276 41.6774C180.12 41.387 180.041 41.0351 180.041 40.6219C180.041 40.0187 180.231 39.2034 180.611 38.1758C180.991 37.1483 181.186 36.4949 181.197 36.2156C181.197 36.2045 181.197 36.1933 181.197 36.1821C181.197 36.0816 181.197 36.0146 181.197 35.9811C181.197 35.9476 181.175 35.9085 181.13 35.8638C181.086 35.8191 181.024 35.7968 180.946 35.7968H180.879C180.622 35.7968 180.388 35.9029 180.175 36.1151C179.963 36.3273 179.796 36.5563 179.673 36.802C179.55 37.0477 179.455 37.2823 179.388 37.5057C179.321 37.7291 179.276 37.8519 179.254 37.8743C179.232 37.8966 179.142 37.9078 178.986 37.9078H178.751C178.684 37.8408 178.651 37.7905 178.651 37.757C178.651 37.69 178.696 37.5336 178.785 37.2879C178.874 37.0422 179.003 36.7573 179.17 36.4334C179.338 36.1095 179.584 35.8191 179.907 35.5622C180.231 35.3054 180.594 35.1769 180.996 35.1769C181.477 35.1769 181.845 35.3165 182.102 35.5958C182.359 35.875 182.487 36.1989 182.487 36.5675C182.487 36.7685 182.303 37.3716 181.935 38.3769C181.566 39.3821 181.382 40.1583 181.382 40.7056C181.382 41.2194 181.499 41.5824 181.734 41.7946C181.968 42.0068 182.264 42.1185 182.622 42.1297C183.102 42.1297 183.526 41.789 183.895 41.1077L183.979 40.9569V40.5716C183.979 40.5381 183.979 40.4878 183.979 40.4208C183.979 40.3538 183.984 40.3091 183.995 40.2868C184.006 40.2645 184.012 40.2254 184.012 40.1695C184.012 40.1137 184.018 40.0634 184.029 40.0187C184.04 39.9741 184.057 39.9015 184.079 39.8009C184.101 39.7004 184.118 39.6055 184.129 39.5161C184.141 39.4268 184.174 39.2927 184.23 39.114C184.286 38.9353 184.33 38.7566 184.364 38.5779C184.397 38.3992 184.459 38.1591 184.548 37.8575C184.872 36.5842 185.056 35.8973 185.101 35.7968C185.246 35.4952 185.486 35.3444 185.821 35.3444C186.034 35.3444 186.179 35.4003 186.257 35.512C186.335 35.6237 186.38 35.7298 186.391 35.8303C186.391 35.9755 186.229 36.6903 185.905 37.9748C185.581 39.2592 185.403 39.9964 185.369 40.1863C185.347 40.3091 185.336 40.5046 185.336 40.7726V40.8899C185.336 41.0575 185.352 41.2194 185.386 41.3758C185.419 41.5322 185.525 41.6941 185.704 41.8616C185.883 42.0292 186.134 42.1185 186.458 42.1297C187.251 42.1297 187.882 41.4484 188.351 40.0857C188.452 39.8289 188.563 39.4659 188.686 38.9968C188.809 38.5277 188.876 38.1926 188.887 37.9915C188.887 37.623 188.815 37.3326 188.67 37.1203C188.524 36.9081 188.379 36.7294 188.234 36.5842C188.089 36.439 188.016 36.2827 188.016 36.1151Z" fill="white"/>
<path d="M191.317 30.0168L191.384 30C191.44 30 191.495 30 191.551 30H191.752L192.221 30.4021C193.271 31.3515 194.036 32.5354 194.517 33.9539C194.997 35.3724 195.237 36.8467 195.237 38.3769C195.237 39.1364 195.181 39.8679 195.07 40.5716C194.958 41.2753 194.829 41.8728 194.684 42.3642C194.539 42.8557 194.332 43.3471 194.064 43.8386C193.796 44.33 193.584 44.7042 193.428 44.9611C193.271 45.218 193.042 45.5028 192.741 45.8155C192.439 46.1283 192.26 46.3125 192.205 46.3684C192.149 46.4242 192.02 46.5303 191.819 46.6867C191.786 46.7202 191.763 46.7426 191.752 46.7537H191.551C191.462 46.7537 191.4 46.7537 191.367 46.7537C191.333 46.7537 191.306 46.737 191.283 46.7035C191.261 46.67 191.244 46.6197 191.233 46.5527C191.244 46.5415 191.306 46.4689 191.417 46.3349C193.148 44.5366 194.014 41.884 194.014 38.3769C194.014 34.8698 193.148 32.2171 191.417 30.4189C191.306 30.2848 191.244 30.2122 191.233 30.2011C191.233 30.1117 191.261 30.0503 191.317 30.0168Z" fill="white"/>
<path d="M47 147.24C47 147.206 47.0279 147.167 47.0837 147.123H59.3139C59.3698 147.167 59.3977 147.206 59.3977 147.24C59.3977 147.262 58.4539 149.217 56.5663 153.104C54.6788 156.99 53.7126 158.956 53.6679 159.001C53.6121 159.079 53.4557 159.118 53.1988 159.118C52.942 159.118 52.7856 159.079 52.7297 159.001C52.6962 158.956 51.7357 156.99 49.8481 153.104C47.9605 149.217 47.0111 147.262 47 147.24ZM57.9066 148.58C57.9066 148.569 56.4993 148.563 53.6847 148.563C50.8701 148.563 49.4628 148.569 49.4628 148.58C49.4851 148.636 50.1888 150.088 51.5737 152.936C52.9587 155.784 53.6624 157.214 53.6847 157.225L57.9066 148.58Z" fill="white"/>
<path d="M67.6741 148.094C67.6741 147.96 67.1547 147.893 66.116 147.893H65.6971C65.6301 147.837 65.5966 147.793 65.5966 147.759C65.5966 147.726 65.6078 147.619 65.6301 147.441C65.6748 147.296 65.7307 147.189 65.7977 147.122H66.0825C66.5404 147.145 67.3558 147.156 68.5285 147.156C69.0088 147.156 69.3997 147.156 69.7013 147.156C70.0029 147.156 70.2095 147.15 70.3212 147.139C70.4329 147.128 70.511 147.128 70.5557 147.139C70.7121 147.139 70.7903 147.195 70.7903 147.307C70.7903 147.329 70.7735 147.407 70.74 147.541C70.6953 147.72 70.6562 147.821 70.6227 147.843C70.5892 147.865 70.4831 147.882 70.3044 147.893C69.7236 147.893 69.3941 147.971 69.3159 148.128C69.2713 148.273 68.925 149.652 68.2772 152.266C67.5736 155.036 67.2161 156.426 67.205 156.438C66.9593 157.141 66.479 157.733 65.7642 158.213C65.0493 158.694 64.2787 158.934 63.4521 158.934C62.8043 158.934 62.2571 158.766 61.8103 158.431C61.3635 158.096 61.1401 157.649 61.1401 157.091C61.1401 156.622 61.2686 156.264 61.5255 156.019C61.7824 155.773 62.0728 155.65 62.3967 155.65C62.8993 155.65 63.1785 155.896 63.2344 156.387C63.2344 156.745 63.1338 157.024 62.9328 157.225C62.7317 157.426 62.5028 157.56 62.2459 157.627C62.1565 157.649 62.1119 157.666 62.1119 157.677C62.1119 157.688 62.1509 157.739 62.2291 157.828C62.5195 158.152 62.9384 158.314 63.4857 158.314C63.9101 158.314 64.3233 158.135 64.7254 157.778C65.1275 157.42 65.4235 156.957 65.6134 156.387C65.6581 156.253 66.0099 154.857 66.6689 152.199C67.3278 149.541 67.6629 148.172 67.6741 148.094Z" fill="white"/>
<path d="M72.382 154.377C72.382 153.606 72.4378 152.875 72.5495 152.182C72.6612 151.49 72.7897 150.892 72.9349 150.389C73.0801 149.887 73.2867 149.395 73.5547 148.915C73.8228 148.435 74.035 148.061 74.1914 147.793C74.3478 147.525 74.5823 147.234 74.895 146.921C75.2078 146.609 75.3921 146.419 75.4479 146.352C75.5038 146.285 75.6434 146.168 75.8668 146H76.0846H76.1516C76.3079 146 76.3861 146.05 76.3861 146.151C76.3861 146.184 76.2912 146.302 76.1013 146.503C75.9114 146.704 75.6825 147 75.4144 147.391C75.1464 147.781 74.8727 148.262 74.5935 148.831C74.3143 149.401 74.0797 150.172 73.8898 151.143C73.6999 152.115 73.605 153.193 73.605 154.377C73.605 155.561 73.6999 156.633 73.8898 157.594C74.0797 158.554 74.3087 159.33 74.5767 159.922C74.8448 160.514 75.1184 160.995 75.3977 161.363C75.6769 161.732 75.9114 162.028 76.1013 162.251C76.2912 162.474 76.3861 162.592 76.3861 162.603C76.3861 162.703 76.3024 162.754 76.1348 162.754H76.0846H75.8668L75.3977 162.352C74.3478 161.402 73.5827 160.218 73.1024 158.8C72.6221 157.381 72.382 155.907 72.382 154.377Z" fill="white"/>
<path d="M87.0414 152.115C87.0414 151.881 87.1475 151.663 87.3597 151.462C87.5719 151.261 87.8064 151.155 88.0633 151.143C88.2644 151.143 88.4487 151.244 88.6162 151.445C88.7837 151.646 88.8731 151.964 88.8843 152.4C88.8843 152.724 88.7782 153.366 88.5659 154.327C88.3984 154.952 88.2476 155.466 88.1136 155.868C87.9796 156.27 87.7841 156.722 87.5272 157.225C87.2703 157.728 86.9632 158.107 86.6058 158.364C86.2483 158.621 85.8463 158.75 85.3995 158.75C84.908 158.75 84.4724 158.66 84.0927 158.482C83.7129 158.303 83.4393 158.063 83.2718 157.761C83.2606 157.772 83.2438 157.795 83.2215 157.828C82.7636 158.442 82.2051 158.75 81.5461 158.75C81.2557 158.75 80.9765 158.716 80.7084 158.649C80.4404 158.582 80.1779 158.476 79.921 158.331C79.6641 158.186 79.4575 157.968 79.3011 157.677C79.1448 157.387 79.0666 157.035 79.0666 156.622C79.0666 156.019 79.2565 155.203 79.6362 154.176C80.016 153.148 80.2114 152.495 80.2226 152.216C80.2226 152.204 80.2226 152.193 80.2226 152.182C80.2226 152.082 80.2226 152.015 80.2226 151.981C80.2226 151.948 80.2003 151.908 80.1556 151.864C80.1109 151.819 80.0495 151.797 79.9713 151.797H79.9043C79.6474 151.797 79.4128 151.903 79.2006 152.115C78.9884 152.327 78.8209 152.556 78.698 152.802C78.5751 153.048 78.4802 153.282 78.4132 153.506C78.3462 153.729 78.3015 153.852 78.2792 153.874C78.2568 153.897 78.1675 153.908 78.0111 153.908H77.7765C77.7095 153.841 77.676 153.79 77.676 153.757C77.676 153.69 77.7207 153.534 77.8101 153.288C77.8994 153.042 78.0279 152.757 78.1954 152.433C78.3629 152.11 78.6086 151.819 78.9326 151.562C79.2565 151.305 79.6195 151.177 80.0215 151.177C80.5018 151.177 80.8704 151.316 81.1273 151.596C81.3842 151.875 81.5126 152.199 81.5126 152.567C81.5126 152.768 81.3283 153.372 80.9598 154.377C80.5912 155.382 80.4069 156.158 80.4069 156.706C80.4069 157.219 80.5242 157.582 80.7587 157.795C80.9933 158.007 81.2892 158.119 81.6467 158.13C82.1269 158.13 82.5514 157.789 82.9199 157.108L83.0037 156.957V156.572C83.0037 156.538 83.0037 156.488 83.0037 156.421C83.0037 156.354 83.0093 156.309 83.0205 156.287C83.0316 156.264 83.0372 156.225 83.0372 156.169C83.0372 156.114 83.0428 156.063 83.054 156.019C83.0651 155.974 83.0819 155.901 83.1042 155.801C83.1266 155.7 83.1433 155.605 83.1545 155.516C83.1657 155.427 83.1992 155.293 83.255 155.114C83.3109 154.935 83.3555 154.757 83.389 154.578C83.4225 154.399 83.484 154.159 83.5733 153.857C83.8972 152.584 84.0815 151.897 84.1262 151.797C84.2714 151.495 84.5115 151.344 84.8466 151.344C85.0588 151.344 85.204 151.4 85.2822 151.512C85.3604 151.624 85.4051 151.73 85.4162 151.83C85.4162 151.975 85.2543 152.69 84.9304 153.975C84.6065 155.259 84.4278 155.996 84.3943 156.186C84.3719 156.309 84.3608 156.505 84.3608 156.773V156.89C84.3608 157.057 84.3775 157.219 84.411 157.376C84.4445 157.532 84.5506 157.694 84.7293 157.862C84.908 158.029 85.1594 158.119 85.4833 158.13C86.2763 158.13 86.9073 157.448 87.3764 156.086C87.4769 155.829 87.5886 155.466 87.7115 154.997C87.8344 154.528 87.9014 154.193 87.9125 153.992C87.9125 153.623 87.8399 153.333 87.6947 153.12C87.5495 152.908 87.4043 152.729 87.2592 152.584C87.114 152.439 87.0414 152.283 87.0414 152.115Z" fill="white"/>
<path d="M90.3418 146.017L90.4088 146C90.4647 146 90.5205 146 90.5764 146H90.7774L91.2465 146.402C92.2964 147.351 93.0615 148.535 93.5418 149.954C94.0221 151.372 94.2622 152.847 94.2622 154.377C94.2622 155.136 94.2063 155.868 94.0947 156.572C93.983 157.275 93.8545 157.873 93.7093 158.364C93.5641 158.856 93.3575 159.347 93.0894 159.839C92.8214 160.33 92.6092 160.704 92.4528 160.961C92.2964 161.218 92.0675 161.503 91.7659 161.815C91.4643 162.128 91.2856 162.313 91.2298 162.368C91.1739 162.424 91.0455 162.53 90.8444 162.687C90.8109 162.72 90.7886 162.743 90.7774 162.754H90.5764C90.487 162.754 90.4256 162.754 90.3921 162.754C90.3586 162.754 90.3307 162.737 90.3083 162.703C90.286 162.67 90.2692 162.62 90.2581 162.553C90.2692 162.541 90.3307 162.469 90.4423 162.335C92.1736 160.537 93.0392 157.884 93.0392 154.377C93.0392 150.87 92.1736 148.217 90.4423 146.419C90.3307 146.285 90.2692 146.212 90.2581 146.201C90.2581 146.112 90.286 146.05 90.3418 146.017Z" fill="white"/>
<defs>
<radialGradient id="paint0_radial" cx="0" cy="0" r="1" gradientUnits="userSpaceOnUse" gradientTransform="translate(230 177) rotate(47.8012) scale(190.066 299.924)">
<stop offset="0.133005" stop-color="#E56666"/>
<stop offset="1" stop-color="#6673E5"/>
</radialGradient>
</defs>
</svg>
