<svg width="500" height="500" viewBox="0 0 500 500" fill="none" xmlns="http://www.w3.org/2000/svg">
<rect width="500" height="500" fill="url(#paint0_radial)"/>
<mask id="path-2-inside-1" fill="white">
<path fill-rule="evenodd" clip-rule="evenodd" d="M244.697 241.161L241.161 244.697L246.464 250L241.161 255.303L244.697 258.839L250 253.536L255.303 258.839L258.839 255.303L253.536 250L258.839 244.697L255.303 241.161L250 246.464L244.697 241.161Z"/>
</mask>
<path fill-rule="evenodd" clip-rule="evenodd" d="M244.697 241.161L241.161 244.697L246.464 250L241.161 255.303L244.697 258.839L250 253.536L255.303 258.839L258.839 255.303L253.536 250L258.839 244.697L255.303 241.161L250 246.464L244.697 241.161Z" fill="#FF0000"/>
<path d="M241.161 244.697L240.454 243.99L239.747 244.697L240.454 245.404L241.161 244.697ZM244.697 241.161L245.404 240.454L244.697 239.747L243.99 240.454L244.697 241.161ZM246.464 250L247.172 250.707L247.879 250L247.172 249.293L246.464 250ZM241.161 255.303L240.454 254.596L239.747 255.303L240.454 256.01L241.161 255.303ZM244.697 258.839L243.99 259.546L244.697 260.253L245.404 259.546L244.697 258.839ZM250 253.536L250.707 252.828L250 252.121L249.293 252.828L250 253.536ZM255.303 258.839L254.596 259.546L255.303 260.253L256.01 259.546L255.303 258.839ZM258.839 255.303L259.546 256.01L260.253 255.303L259.546 254.596L258.839 255.303ZM253.536 250L252.828 249.293L252.121 250L252.828 250.707L253.536 250ZM258.839 244.697L259.546 245.404L260.253 244.697L259.546 243.99L258.839 244.697ZM255.303 241.161L256.01 240.454L255.303 239.747L254.596 240.454L255.303 241.161ZM250 246.464L249.293 247.172L250 247.879L250.707 247.172L250 246.464ZM241.868 245.404L245.404 241.868L243.99 240.454L240.454 243.99L241.868 245.404ZM247.172 249.293L241.868 243.99L240.454 245.404L245.757 250.707L247.172 249.293ZM241.868 256.01L247.172 250.707L245.757 249.293L240.454 254.596L241.868 256.01ZM245.404 258.132L241.868 254.596L240.454 256.01L243.99 259.546L245.404 258.132ZM249.293 252.828L243.99 258.132L245.404 259.546L250.707 254.243L249.293 252.828ZM256.01 258.132L250.707 252.828L249.293 254.243L254.596 259.546L256.01 258.132ZM258.132 254.596L254.596 258.132L256.01 259.546L259.546 256.01L258.132 254.596ZM252.828 250.707L258.132 256.01L259.546 254.596L254.243 249.293L252.828 250.707ZM258.132 243.99L252.828 249.293L254.243 250.707L259.546 245.404L258.132 243.99ZM254.596 241.868L258.132 245.404L259.546 243.99L256.01 240.454L254.596 241.868ZM250.707 247.172L256.01 241.868L254.596 240.454L249.293 245.757L250.707 247.172ZM243.99 241.868L249.293 247.172L250.707 245.757L245.404 240.454L243.99 241.868Z" fill="white" mask="url(#path-2-inside-1)"/>
<defs>
<radialGradient id="paint0_radial" cx="0" cy="0" r="1" gradientUnits="userSpaceOnUse" gradientTransform="translate(250 250) rotate(47.8012) scale(190.066 299.924)">
<stop offset="0.133005" stop-color="#E56666"/>
<stop offset="1" stop-color="#6673E5"/>
</radialGradient>
</defs>
</svg>
