<svg width="500" height="500" viewBox="0 0 500 500" fill="none" xmlns="http://www.w3.org/2000/svg">
<rect x="21" y="21" width="8" height="8" rx="3" fill="#303030" stroke="white" stroke-width="2"/>
<rect x="71" y="21" width="8" height="8" rx="3" fill="#303030" stroke="white" stroke-width="2"/>
<rect x="121" y="21" width="8" height="8" rx="3" fill="#303030" stroke="white" stroke-width="2"/>
<rect x="171" y="21" width="8" height="8" rx="3" fill="#303030" stroke="white" stroke-width="2"/>
<rect x="221" y="21" width="8" height="8" rx="3" fill="#303030" stroke="white" stroke-width="2"/>
<rect x="271" y="21" width="8" height="8" rx="3" fill="#303030" stroke="white" stroke-width="2"/>
<rect x="321" y="21" width="8" height="8" rx="3" fill="#303030" stroke="white" stroke-width="2"/>
<rect x="371" y="21" width="8" height="8" rx="3" fill="#303030" stroke="white" stroke-width="2"/>
<rect x="421" y="21" width="8" height="8" rx="3" fill="#303030" stroke="white" stroke-width="2"/>
<rect x="471" y="21" width="8" height="8" rx="3" fill="#303030" stroke="white" stroke-width="2"/>
<rect x="21" y="71" width="8" height="8" rx="3" fill="#303030" stroke="white" stroke-width="2"/>
<rect x="71" y="71" width="8" height="8" rx="3" fill="#303030" stroke="white" stroke-width="2"/>
<rect x="121" y="71" width="8" height="8" rx="3" fill="#303030" stroke="white" stroke-width="2"/>
<rect x="171" y="71" width="8" height="8" rx="3" fill="#303030" stroke="white" stroke-width="2"/>
<rect x="221" y="71" width="8" height="8" rx="3" fill="#303030" stroke="white" stroke-width="2"/>
<rect x="271" y="71" width="8" height="8" rx="3" fill="#303030" stroke="white" stroke-width="2"/>
<rect x="321" y="71" width="8" height="8" rx="3" fill="#303030" stroke="white" stroke-width="2"/>
<rect x="371" y="71" width="8" height="8" rx="3" fill="#303030" stroke="white" stroke-width="2"/>
<rect x="421" y="71" width="8" height="8" rx="3" fill="#303030" stroke="white" stroke-width="2"/>
<rect x="471" y="71" width="8" height="8" rx="3" fill="#303030" stroke="white" stroke-width="2"/>
<rect x="21" y="121" width="8" height="8" rx="3" fill="#303030" stroke="white" stroke-width="2"/>
<rect x="71" y="121" width="8" height="8" rx="3" fill="#303030" stroke="white" stroke-width="2"/>
<rect x="121" y="121" width="8" height="8" rx="3" fill="#303030" stroke="white" stroke-width="2"/>
<rect x="171" y="121" width="8" height="8" rx="3" fill="#303030" stroke="white" stroke-width="2"/>
<rect x="221" y="121" width="8" height="8" rx="3" fill="#303030" stroke="white" stroke-width="2"/>
<rect x="271" y="121" width="8" height="8" rx="3" fill="#303030" stroke="white" stroke-width="2"/>
<rect x="321" y="121" width="8" height="8" rx="3" fill="#303030" stroke="white" stroke-width="2"/>
<rect x="371" y="121" width="8" height="8" rx="3" fill="#303030" stroke="white" stroke-width="2"/>
<rect x="421" y="121" width="8" height="8" rx="3" fill="#303030" stroke="white" stroke-width="2"/>
<rect x="471" y="121" width="8" height="8" rx="3" fill="#303030" stroke="white" stroke-width="2"/>
<rect x="21" y="171" width="8" height="8" rx="3" fill="#303030" stroke="white" stroke-width="2"/>
<rect x="71" y="171" width="8" height="8" rx="3" fill="#303030" stroke="white" stroke-width="2"/>
<rect x="121" y="171" width="8" height="8" rx="3" fill="#303030" stroke="white" stroke-width="2"/>
<rect x="171" y="171" width="8" height="8" rx="3" fill="#303030" stroke="white" stroke-width="2"/>
<rect x="221" y="171" width="8" height="8" rx="3" fill="#303030" stroke="white" stroke-width="2"/>
<rect x="271" y="171" width="8" height="8" rx="3" fill="#303030" stroke="white" stroke-width="2"/>
<rect x="321" y="171" width="8" height="8" rx="3" fill="#303030" stroke="white" stroke-width="2"/>
<rect x="371" y="171" width="8" height="8" rx="3" fill="#303030" stroke="white" stroke-width="2"/>
<rect x="421" y="171" width="8" height="8" rx="3" fill="#303030" stroke="white" stroke-width="2"/>
<rect x="471" y="171" width="8" height="8" rx="3" fill="#303030" stroke="white" stroke-width="2"/>
<rect x="21" y="221" width="8" height="8" rx="3" fill="#303030" stroke="white" stroke-width="2"/>
<rect x="71" y="221" width="8" height="8" rx="3" fill="#303030" stroke="white" stroke-width="2"/>
<rect x="121" y="221" width="8" height="8" rx="3" fill="#303030" stroke="white" stroke-width="2"/>
<rect x="171" y="221" width="8" height="8" rx="3" fill="#303030" stroke="white" stroke-width="2"/>
<rect x="221" y="221" width="8" height="8" rx="3" fill="#303030" stroke="white" stroke-width="2"/>
<rect x="271" y="221" width="8" height="8" rx="3" fill="#303030" stroke="white" stroke-width="2"/>
<rect x="321" y="221" width="8" height="8" rx="3" fill="#303030" stroke="white" stroke-width="2"/>
<rect x="371" y="221" width="8" height="8" rx="3" fill="#303030" stroke="white" stroke-width="2"/>
<rect x="421" y="221" width="8" height="8" rx="3" fill="#303030" stroke="white" stroke-width="2"/>
<rect x="471" y="221" width="8" height="8" rx="3" fill="#303030" stroke="white" stroke-width="2"/>
<rect x="21" y="271" width="8" height="8" rx="3" fill="#303030" stroke="white" stroke-width="2"/>
<rect x="71" y="271" width="8" height="8" rx="3" fill="#303030" stroke="white" stroke-width="2"/>
<rect x="121" y="271" width="8" height="8" rx="3" fill="#303030" stroke="white" stroke-width="2"/>
<rect x="171" y="271" width="8" height="8" rx="3" fill="#303030" stroke="white" stroke-width="2"/>
<rect x="221" y="271" width="8" height="8" rx="3" fill="#303030" stroke="white" stroke-width="2"/>
<rect x="271" y="271" width="8" height="8" rx="3" fill="#303030" stroke="white" stroke-width="2"/>
<rect x="321" y="271" width="8" height="8" rx="3" fill="#303030" stroke="white" stroke-width="2"/>
<rect x="371" y="271" width="8" height="8" rx="3" fill="#303030" stroke="white" stroke-width="2"/>
<rect x="421" y="271" width="8" height="8" rx="3" fill="#303030" stroke="white" stroke-width="2"/>
<rect x="471" y="271" width="8" height="8" rx="3" fill="#303030" stroke="white" stroke-width="2"/>
<rect x="21" y="321" width="8" height="8" rx="3" fill="#303030" stroke="white" stroke-width="2"/>
<rect x="71" y="321" width="8" height="8" rx="3" fill="#303030" stroke="white" stroke-width="2"/>
<rect x="121" y="321" width="8" height="8" rx="3" fill="#303030" stroke="white" stroke-width="2"/>
<rect x="171" y="321" width="8" height="8" rx="3" fill="#303030" stroke="white" stroke-width="2"/>
<rect x="221" y="321" width="8" height="8" rx="3" fill="#303030" stroke="white" stroke-width="2"/>
<rect x="271" y="321" width="8" height="8" rx="3" fill="#303030" stroke="white" stroke-width="2"/>
<rect x="321" y="321" width="8" height="8" rx="3" fill="#303030" stroke="white" stroke-width="2"/>
<rect x="371" y="321" width="8" height="8" rx="3" fill="#303030" stroke="white" stroke-width="2"/>
<rect x="421" y="321" width="8" height="8" rx="3" fill="#303030" stroke="white" stroke-width="2"/>
<rect x="471" y="321" width="8" height="8" rx="3" fill="#303030" stroke="white" stroke-width="2"/>
<rect x="21" y="371" width="8" height="8" rx="3" fill="#303030" stroke="white" stroke-width="2"/>
<rect x="71" y="371" width="8" height="8" rx="3" fill="#303030" stroke="white" stroke-width="2"/>
<rect x="121" y="371" width="8" height="8" rx="3" fill="#303030" stroke="white" stroke-width="2"/>
<rect x="171" y="371" width="8" height="8" rx="3" fill="#303030" stroke="white" stroke-width="2"/>
<rect x="221" y="371" width="8" height="8" rx="3" fill="#303030" stroke="white" stroke-width="2"/>
<rect x="271" y="371" width="8" height="8" rx="3" fill="#303030" stroke="white" stroke-width="2"/>
<rect x="321" y="371" width="8" height="8" rx="3" fill="#303030" stroke="white" stroke-width="2"/>
<rect x="371" y="371" width="8" height="8" rx="3" fill="#303030" stroke="white" stroke-width="2"/>
<rect x="421" y="371" width="8" height="8" rx="3" fill="#303030" stroke="white" stroke-width="2"/>
<rect x="471" y="371" width="8" height="8" rx="3" fill="#303030" stroke="white" stroke-width="2"/>
<rect x="21" y="421" width="8" height="8" rx="3" fill="#303030" stroke="white" stroke-width="2"/>
<rect x="71" y="421" width="8" height="8" rx="3" fill="#303030" stroke="white" stroke-width="2"/>
<rect x="121" y="421" width="8" height="8" rx="3" fill="#303030" stroke="white" stroke-width="2"/>
<rect x="171" y="421" width="8" height="8" rx="3" fill="#303030" stroke="white" stroke-width="2"/>
<rect x="221" y="421" width="8" height="8" rx="3" fill="#303030" stroke="white" stroke-width="2"/>
<rect x="271" y="421" width="8" height="8" rx="3" fill="#303030" stroke="white" stroke-width="2"/>
<rect x="321" y="421" width="8" height="8" rx="3" fill="#303030" stroke="white" stroke-width="2"/>
<rect x="371" y="421" width="8" height="8" rx="3" fill="#303030" stroke="white" stroke-width="2"/>
<rect x="421" y="421" width="8" height="8" rx="3" fill="#303030" stroke="white" stroke-width="2"/>
<rect x="471" y="421" width="8" height="8" rx="3" fill="#303030" stroke="white" stroke-width="2"/>
<rect x="21" y="471" width="8" height="8" rx="3" fill="#303030" stroke="white" stroke-width="2"/>
<rect x="71" y="471" width="8" height="8" rx="3" fill="#303030" stroke="white" stroke-width="2"/>
<rect x="121" y="471" width="8" height="8" rx="3" fill="#303030" stroke="white" stroke-width="2"/>
<rect x="171" y="471" width="8" height="8" rx="3" fill="#303030" stroke="white" stroke-width="2"/>
<rect x="221" y="471" width="8" height="8" rx="3" fill="#303030" stroke="white" stroke-width="2"/>
<rect x="271" y="471" width="8" height="8" rx="3" fill="#303030" stroke="white" stroke-width="2"/>
<rect x="321" y="471" width="8" height="8" rx="3" fill="#303030" stroke="white" stroke-width="2"/>
<rect x="371" y="471" width="8" height="8" rx="3" fill="#303030" stroke="white" stroke-width="2"/>
<rect x="421" y="471" width="8" height="8" rx="3" fill="#303030" stroke="white" stroke-width="2"/>
<rect x="471" y="471" width="8" height="8" rx="3" fill="#303030" stroke="white" stroke-width="2"/>
</svg>
