<svg width="500" height="500" viewBox="0 0 500 500" fill="none" xmlns="http://www.w3.org/2000/svg">
<rect x="37" y="36" width="8" height="8" rx="3" fill="#303030" stroke="white" stroke-width="2"/>
<rect x="141" y="74" width="8" height="8" rx="3" fill="#303030" stroke="white" stroke-width="2"/>
<rect x="275" y="64" width="8" height="8" rx="3" fill="#303030" stroke="white" stroke-width="2"/>
<rect x="167" y="158" width="8" height="8" rx="3" fill="#303030" stroke="white" stroke-width="2"/>
<rect x="386" y="195" width="8" height="8" rx="3" fill="#303030" stroke="white" stroke-width="2"/>
<rect x="261" y="271" width="8" height="8" rx="3" fill="#303030" stroke="white" stroke-width="2"/>
<rect x="270" y="205" width="8" height="8" rx="3" fill="#303030" stroke="white" stroke-width="2"/>
<rect x="157" y="266" width="8" height="8" rx="3" fill="#303030" stroke="white" stroke-width="2"/>
<rect x="191" y="316" width="8" height="8" rx="3" fill="#303030" stroke="white" stroke-width="2"/>
<rect x="225" y="237" width="8" height="8" rx="3" fill="#303030" stroke="white" stroke-width="2"/>
<rect x="326" y="291" width="8" height="8" rx="3" fill="#303030" stroke="white" stroke-width="2"/>
<rect x="421" y="246" width="8" height="8" rx="3" fill="#303030" stroke="white" stroke-width="2"/>
<rect x="376" y="368" width="8" height="8" rx="3" fill="#303030" stroke="white" stroke-width="2"/>
<rect x="260" y="396" width="8" height="8" rx="3" fill="#303030" stroke="white" stroke-width="2"/>
<rect x="261" y="351" width="8" height="8" rx="3" fill="#303030" stroke="white" stroke-width="2"/>
<rect x="181" y="371" width="8" height="8" rx="3" fill="#303030" stroke="white" stroke-width="2"/>
<rect x="81" y="373" width="8" height="8" rx="3" fill="#303030" stroke="white" stroke-width="2"/>
<rect x="27" y="266" width="8" height="8" rx="3" fill="#303030" stroke="white" stroke-width="2"/>
<rect x="17" y="331" width="8" height="8" rx="3" fill="#303030" stroke="white" stroke-width="2"/>
<rect x="31" y="386" width="8" height="8" rx="3" fill="#303030" stroke="white" stroke-width="2"/>
<rect x="26" y="426" width="8" height="8" rx="3" fill="#303030" stroke="white" stroke-width="2"/>
<rect x="51" y="451" width="8" height="8" rx="3" fill="#303030" stroke="white" stroke-width="2"/>
<rect x="118" y="476" width="8" height="8" rx="3" fill="#303030" stroke="white" stroke-width="2"/>
<rect x="131" y="406" width="8" height="8" rx="3" fill="#303030" stroke="white" stroke-width="2"/>
<rect x="118" y="301" width="8" height="8" rx="3" fill="#303030" stroke="white" stroke-width="2"/>
<rect x="81" y="227" width="8" height="8" rx="3" fill="#303030" stroke="white" stroke-width="2"/>
<rect x="47" y="171" width="8" height="8" rx="3" fill="#303030" stroke="white" stroke-width="2"/>
<rect x="95" y="138" width="8" height="8" rx="3" fill="#303030" stroke="white" stroke-width="2"/>
<rect x="36" y="84" width="8" height="8" rx="3" fill="#303030" stroke="white" stroke-width="2"/>
<rect x="201" y="21" width="8" height="8" rx="3" fill="#303030" stroke="white" stroke-width="2"/>
<rect x="348" y="96" width="8" height="8" rx="3" fill="#303030" stroke="white" stroke-width="2"/>
<rect x="250" y="143" width="8" height="8" rx="3" fill="#303030" stroke="white" stroke-width="2"/>
<rect x="437" y="31" width="8" height="8" rx="3" fill="#303030" stroke="white" stroke-width="2"/>
<rect x="447" y="94" width="8" height="8" rx="3" fill="#303030" stroke="white" stroke-width="2"/>
<rect x="457" y="346" width="8" height="8" rx="3" fill="#303030" stroke="white" stroke-width="2"/>
<rect x="431" y="426" width="8" height="8" rx="3" fill="#303030" stroke="white" stroke-width="2"/>
<rect x="366" y="461" width="8" height="8" rx="3" fill="#303030" stroke="white" stroke-width="2"/>
<rect x="316" y="396" width="8" height="8" rx="3" fill="#303030" stroke="white" stroke-width="2"/>
<rect x="256" y="451" width="8" height="8" rx="3" fill="#303030" stroke="white" stroke-width="2"/>
<rect x="201" y="441" width="8" height="8" rx="3" fill="#303030" stroke="white" stroke-width="2"/>
<rect x="241" y="311" width="8" height="8" rx="3" fill="#303030" stroke="white" stroke-width="2"/>
<rect x="441" y="316" width="8" height="8" rx="3" fill="#303030" stroke="white" stroke-width="2"/>
<rect x="481" y="181" width="8" height="8" rx="3" fill="#303030" stroke="white" stroke-width="2"/>
<rect x="381" y="6" width="8" height="8" rx="3" fill="#303030" stroke="white" stroke-width="2"/>
<rect x="108" y="9" width="8" height="8" rx="3" fill="#303030" stroke="white" stroke-width="2"/>
<rect x="136" y="16" width="8" height="8" rx="3" fill="#303030" stroke="white" stroke-width="2"/>
<rect x="321" y="19" width="8" height="8" rx="3" fill="#303030" stroke="white" stroke-width="2"/>
<rect x="481" y="481" width="8" height="8" rx="3" fill="#303030" stroke="white" stroke-width="2"/>
<rect x="404" y="128" width="8" height="8" rx="3" fill="#303030" stroke="white" stroke-width="2"/>
<rect x="371" y="143" width="8" height="8" rx="3" fill="#303030" stroke="white" stroke-width="2"/>
<rect x="321" y="123" width="8" height="8" rx="3" fill="#303030" stroke="white" stroke-width="2"/>
<rect x="338" y="163" width="8" height="8" rx="3" fill="#303030" stroke="white" stroke-width="2"/>
<rect x="376" y="261" width="8" height="8" rx="3" fill="#303030" stroke="white" stroke-width="2"/>
<rect x="391" y="321" width="8" height="8" rx="3" fill="#303030" stroke="white" stroke-width="2"/>
<rect x="172" y="176" width="8" height="8" rx="3" fill="#303030" stroke="white" stroke-width="2"/>
</svg>
