<svg width="500" height="500" viewBox="0 0 500 500" fill="none" xmlns="http://www.w3.org/2000/svg">
<g clip-path="url(#clip0)">
<rect width="500" height="500" fill="white"/>
<rect x="160.5" y="110.5" width="9" height="9" rx="4.5" fill="#318B1A" stroke="white"/>
<rect x="215.5" y="185.5" width="9" height="9" rx="4.5" fill="#318B1A" stroke="white"/>
<rect x="215.5" y="145.5" width="9" height="9" rx="4.5" fill="#318B1A" stroke="white"/>
<rect x="120.5" y="85.5" width="9" height="9" rx="4.5" fill="#318B1A" stroke="white"/>
<rect x="75.5" y="50.5" width="9" height="9" rx="4.5" fill="#318B1A" stroke="white"/>
<rect x="100.5" y="65.5" width="9" height="9" rx="4.5" fill="#318B1A" stroke="white"/>
<rect x="135.5" y="110.5" width="9" height="9" rx="4.5" fill="#318B1A" stroke="white"/>
<rect x="150.5" y="80.5" width="9" height="9" rx="4.5" fill="#318B1A" stroke="white"/>
<rect x="125.5" y="50.5" width="9" height="9" rx="4.5" fill="#318B1A" stroke="white"/>
<rect x="194.5" y="115.5" width="9" height="9" rx="4.5" fill="#318B1A" stroke="white"/>
<rect x="235.5" y="167.5" width="9" height="9" rx="4.5" fill="#318B1A" stroke="white"/>
<rect x="280.5" y="245.5" width="9" height="9" rx="4.5" fill="#318B1A" stroke="white"/>
<rect x="310.5" y="225.5" width="9" height="9" rx="4.5" fill="#318B1A" stroke="white"/>
<rect x="315.5" y="260.5" width="9" height="9" rx="4.5" fill="#318B1A" stroke="white"/>
<rect x="270.5" y="205.5" width="9" height="9" rx="4.5" fill="#318B1A" stroke="white"/>
<rect x="340.5" y="290.5" width="9" height="9" rx="4.5" fill="#318B1A" stroke="white"/>
<rect x="385.5" y="340.5" width="9" height="9" rx="4.5" fill="#318B1A" stroke="white"/>
<rect x="410.5" y="330.5" width="9" height="9" rx="4.5" fill="#318B1A" stroke="white"/>
<rect x="430.5" y="375.5" width="9" height="9" rx="4.5" fill="#318B1A" stroke="white"/>
<rect x="445.5" y="345.5" width="9" height="9" rx="4.5" fill="#318B1A" stroke="white"/>
<rect x="465.5" y="405.5" width="9" height="9" rx="4.5" fill="#318B1A" stroke="white"/>
<rect x="455.5" y="300.5" width="9" height="9" rx="4.5" fill="#318B1A" stroke="white"/>
<rect x="410.5" y="290.5" width="9" height="9" rx="4.5" fill="#318B1A" stroke="white"/>
<rect x="430.5" y="245.5" width="9" height="9" rx="4.5" fill="#318B1A" stroke="white"/>
<rect x="420.5" y="152.5" width="9" height="9" rx="4.5" fill="#318B1A" stroke="white"/>
<rect x="460.5" y="125.5" width="9" height="9" rx="4.5" fill="#318B1A" stroke="white"/>
<rect x="405.5" y="90.5" width="9" height="9" rx="4.5" fill="#318B1A" stroke="white"/>
<rect x="385.5" y="120.5" width="9" height="9" rx="4.5" fill="#318B1A" stroke="white"/>
<rect x="345.5" y="65.5" width="9" height="9" rx="4.5" fill="#318B1A" stroke="white"/>
<rect x="425.5" y="50.5" width="9" height="9" rx="4.5" fill="#318B1A" stroke="white"/>
<rect x="370.5" y="45.5" width="9" height="9" rx="4.5" fill="#318B1A" stroke="white"/>
<rect x="300.5" y="20.5" width="9" height="9" rx="4.5" fill="#318B1A" stroke="white"/>
<rect x="325.5" y="120.5" width="9" height="9" rx="4.5" fill="#318B1A" stroke="white"/>
<rect x="270.5" y="40.5" width="9" height="9" rx="4.5" fill="#318B1A" stroke="white"/>
<rect x="360.5" y="100.5" width="9" height="9" rx="4.5" fill="#318B1A" stroke="white"/>
<rect x="245.5" y="75.5" width="9" height="9" rx="4.5" fill="#318B1A" stroke="white"/>
<rect x="260.5" y="60.5" width="9" height="9" rx="4.5" fill="#318B1A" stroke="white"/>
<rect x="295.5" y="50.5" width="9" height="9" rx="4.5" fill="#318B1A" stroke="white"/>
<rect x="105.5" y="80.5" width="9" height="9" rx="4.5" fill="#318B1A" stroke="white"/>
<rect x="100.5" y="40.5" width="9" height="9" rx="4.5" fill="#318B1A" stroke="white"/>
<rect x="245.5" y="205.5" width="9" height="9" rx="4.5" fill="#318B1A" stroke="white"/>
<rect x="290.5" y="225.5" width="9" height="9" rx="4.5" fill="#318B1A" stroke="white"/>
<rect x="425.5" y="350.5" width="9" height="9" rx="4.5" fill="#318B1A" stroke="white"/>
<rect x="260.5" y="140.5" width="9" height="9" rx="4.5" fill="#318B1A" stroke="white"/>
<rect x="310.5" y="195.5" width="9" height="9" rx="4.5" fill="#318B1A" stroke="white"/>
<rect x="345.5" y="177.5" width="9" height="9" rx="4.5" fill="#318B1A" stroke="white"/>
<rect x="290.5" y="70.5" width="9" height="9" rx="4.5" fill="#318B1A" stroke="white"/>
<rect x="330.5" y="240.5" width="9" height="9" rx="4.5" fill="#318B1A" stroke="white"/>
<rect x="380.5" y="270.5" width="9" height="9" rx="4.5" fill="#318B1A" stroke="white"/>
<rect x="390.5" y="180.5" width="9" height="9" rx="4.5" fill="#318B1A" stroke="white"/>
<rect x="140.5" y="25.5" width="9" height="9" rx="4.5" fill="#318B1A" stroke="white"/>
<rect x="355.5" y="25.5" width="9" height="9" rx="4.5" fill="#318B1A" stroke="white"/>
<rect x="450.5" y="90.5" width="9" height="9" rx="4.5" fill="#318B1A" stroke="white"/>
<rect x="460.5" y="190.5" width="9" height="9" rx="4.5" fill="#318B1A" stroke="white"/>
<rect x="405.5" y="355.5" width="9" height="9" rx="4.5" fill="#318B1A" stroke="white"/>
<rect x="350.5" y="424.5" width="9" height="9" transform="rotate(-90 350.5 424.5)" fill="#A42323" stroke="white"/>
<rect x="240.5" y="439.5" width="9" height="9" transform="rotate(-90 240.5 439.5)" fill="#A42323" stroke="white"/>
<rect x="160.5" y="444.5" width="9" height="9" transform="rotate(-90 160.5 444.5)" fill="#A42323" stroke="white"/>
<rect x="230.5" y="339.5" width="9" height="9" transform="rotate(-90 230.5 339.5)" fill="#A42323" stroke="white"/>
<rect x="170.5" y="289.5" width="9" height="9" transform="rotate(-90 170.5 289.5)" fill="#A42323" stroke="white"/>
<rect x="130.5" y="349.5" width="9" height="9" transform="rotate(-90 130.5 349.5)" fill="#A42323" stroke="white"/>
<rect x="310.5" y="324.5" width="9" height="9" transform="rotate(-90 310.5 324.5)" fill="#A42323" stroke="white"/>
<rect x="280.5" y="314.5" width="9" height="9" transform="rotate(-90 280.5 314.5)" fill="#A42323" stroke="white"/>
<rect x="290.5" y="344.5" width="9" height="9" transform="rotate(-90 290.5 344.5)" fill="#A42323" stroke="white"/>
<rect x="260.5" y="284.5" width="9" height="9" transform="rotate(-90 260.5 284.5)" fill="#A42323" stroke="white"/>
<rect x="250.5" y="309.5" width="9" height="9" transform="rotate(-90 250.5 309.5)" fill="#A42323" stroke="white"/>
<rect x="205.5" y="229.5" width="9" height="9" transform="rotate(-90 205.5 229.5)" fill="#A42323" stroke="white"/>
<rect x="175.5" y="196.5" width="9" height="9" transform="rotate(-90 175.5 196.5)" fill="#A42323" stroke="white"/>
<rect x="184.5" y="229.5" width="9" height="9" transform="rotate(-90 184.5 229.5)" fill="#A42323" stroke="white"/>
<rect x="135.5" y="171.5" width="9" height="9" transform="rotate(-90 135.5 171.5)" fill="#A42323" stroke="white"/>
<rect x="100.5" y="139.5" width="9" height="9" transform="rotate(-90 100.5 139.5)" fill="#A42323" stroke="white"/>
<rect x="115.5" y="164.5" width="9" height="9" transform="rotate(-90 115.5 164.5)" fill="#A42323" stroke="white"/>
<rect x="75.5" y="124.5" width="9" height="9" transform="rotate(-90 75.5 124.5)" fill="#A42323" stroke="white"/>
<rect x="80.5" y="176.5" width="9" height="9" transform="rotate(-90 80.5 176.5)" fill="#A42323" stroke="white"/>
<rect x="85.5" y="222.5" width="9" height="9" transform="rotate(-90 85.5 222.5)" fill="#A42323" stroke="white"/>
<rect x="110.5" y="194.5" width="9" height="9" transform="rotate(-90 110.5 194.5)" fill="#A42323" stroke="white"/>
<rect x="70.5" y="156.5" width="9" height="9" transform="rotate(-90 70.5 156.5)" fill="#A42323" stroke="white"/>
<rect x="45.5" y="139.5" width="9" height="9" transform="rotate(-90 45.5 139.5)" fill="#A42323" stroke="white"/>
<rect x="65.5" y="199.5" width="9" height="9" transform="rotate(-90 65.5 199.5)" fill="#A42323" stroke="white"/>
<rect x="65.5" y="236.5" width="9" height="9" transform="rotate(-90 65.5 236.5)" fill="#A42323" stroke="white"/>
<rect x="40.5" y="294.5" width="9" height="9" transform="rotate(-90 40.5 294.5)" fill="#A42323" stroke="white"/>
<rect x="120.5" y="429.5" width="9" height="9" transform="rotate(-90 120.5 429.5)" fill="#A42323" stroke="white"/>
<rect x="70.5" y="449.5" width="9" height="9" transform="rotate(-90 70.5 449.5)" fill="#A42323" stroke="white"/>
<rect x="70.5" y="399.5" width="9" height="9" transform="rotate(-90 70.5 399.5)" fill="#A42323" stroke="white"/>
<rect x="145.5" y="394.5" width="9" height="9" transform="rotate(-90 145.5 394.5)" fill="#A42323" stroke="white"/>
<rect x="175.5" y="369.5" width="9" height="9" transform="rotate(-90 175.5 369.5)" fill="#A42323" stroke="white"/>
<rect x="200.5" y="404.5" width="9" height="9" transform="rotate(-90 200.5 404.5)" fill="#A42323" stroke="white"/>
<rect x="189.5" y="449.5" width="9" height="9" transform="rotate(-90 189.5 449.5)" fill="#A42323" stroke="white"/>
<rect x="265.5" y="462.5" width="9" height="9" transform="rotate(-90 265.5 462.5)" fill="#A42323" stroke="white"/>
<rect x="285.5" y="419.5" width="9" height="9" transform="rotate(-90 285.5 419.5)" fill="#A42323" stroke="white"/>
<rect x="265.5" y="389.5" width="9" height="9" transform="rotate(-90 265.5 389.5)" fill="#A42323" stroke="white"/>
<rect x="385.5" y="404.5" width="9" height="9" transform="rotate(-90 385.5 404.5)" fill="#A42323" stroke="white"/>
<rect x="375.5" y="429.5" width="9" height="9" transform="rotate(-90 375.5 429.5)" fill="#A42323" stroke="white"/>
<rect x="345.5" y="384.5" width="9" height="9" transform="rotate(-90 345.5 384.5)" fill="#A42323" stroke="white"/>
<rect x="315.5" y="424.5" width="9" height="9" transform="rotate(-90 315.5 424.5)" fill="#A42323" stroke="white"/>
<rect x="320.5" y="469.5" width="9" height="9" transform="rotate(-90 320.5 469.5)" fill="#A42323" stroke="white"/>
<rect x="350.5" y="449.5" width="9" height="9" transform="rotate(-90 350.5 449.5)" fill="#A42323" stroke="white"/>
<rect x="325.5" y="399.5" width="9" height="9" transform="rotate(-90 325.5 399.5)" fill="#A42323" stroke="white"/>
<rect x="355.5" y="359.5" width="9" height="9" transform="rotate(-90 355.5 359.5)" fill="#A42323" stroke="white"/>
<rect x="285.5" y="294.5" width="9" height="9" transform="rotate(-90 285.5 294.5)" fill="#A42323" stroke="white"/>
<rect x="195.5" y="204.5" width="9" height="9" transform="rotate(-90 195.5 204.5)" fill="#A42323" stroke="white"/>
<rect x="200.5" y="259.5" width="9" height="9" transform="rotate(-90 200.5 259.5)" fill="#A42323" stroke="white"/>
<rect x="170.5" y="259.5" width="9" height="9" transform="rotate(-90 170.5 259.5)" fill="#A42323" stroke="white"/>
<rect x="200.5" y="279.5" width="9" height="9" transform="rotate(-90 200.5 279.5)" fill="#A42323" stroke="white"/>
<rect x="170.5" y="414.5" width="9" height="9" transform="rotate(-90 170.5 414.5)" fill="#A42323" stroke="white"/>
<rect x="65.5" y="339.5" width="9" height="9" transform="rotate(-90 65.5 339.5)" fill="#A42323" stroke="white"/>
<rect x="70.5" y="104.5" width="9" height="9" transform="rotate(-90 70.5 104.5)" fill="#A42323" stroke="white"/>
<rect x="220.5" y="259.5" width="9" height="9" transform="rotate(-90 220.5 259.5)" fill="#A42323" stroke="white"/>
<rect x="40.5" y="394.5" width="9" height="9" transform="rotate(-90 40.5 394.5)" fill="#A42323" stroke="white"/>
<rect x="90.5" y="269.5" width="9" height="9" transform="rotate(-90 90.5 269.5)" fill="#A42323" stroke="white"/>
<rect x="130.5" y="239.5" width="9" height="9" transform="rotate(-90 130.5 239.5)" fill="#A42323" stroke="white"/>
<rect x="50.5" y="209.5" width="9" height="9" transform="rotate(-90 50.5 209.5)" fill="#A42323" stroke="white"/>
<rect x="370.5" y="389.5" width="9" height="9" transform="rotate(-90 370.5 389.5)" fill="#A42323" stroke="white"/>
<line x1="0.679437" y1="-0.733734" x2="501.178" y2="462.728" stroke="#003E58" stroke-width="2" stroke-dasharray="4 4"/>
</g>
<defs>
<clipPath id="clip0">
<rect width="500" height="500" fill="white"/>
</clipPath>
</defs>
</svg>
