<?xml version="1.0" encoding="utf-8" standalone="no"?>
<!DOCTYPE svg PUBLIC "-//W3C//DTD SVG 1.1//EN"
  "http://www.w3.org/Graphics/SVG/1.1/DTD/svg11.dtd">
<!-- Created with matplotlib (http://matplotlib.org/) -->
<svg height="144pt" version="1.1" viewBox="0 0 288 144" width="288pt" xmlns="http://www.w3.org/2000/svg" xmlns:xlink="http://www.w3.org/1999/xlink">
 <defs>
  <style type="text/css">
*{stroke-linecap:butt;stroke-linejoin:round;}
  </style>
 </defs>
 <g id="figure_1">
  <g id="patch_1">
   <path d="M 0 144 
L 288 144 
L 288 0 
L 0 0 
z
" style="fill:#ffffff;"/>
  </g>
  <g id="axes_1">
   <g id="patch_2">
    <path d="M 36 126 
L 259.2 126 
L 259.2 17.28 
L 36 17.28 
z
" style="fill:#ffffff;"/>
   </g>
   <g id="PolyCollection_1">
    <defs>
     <path d="M 36 -60.125352 
L 36 -36.026543 
L 36.746488 -35.999183 
L 37.492977 -35.980709 
L 38.239465 -35.97132 
L 38.985953 -35.971214 
L 39.732441 -35.980582 
L 40.47893 -35.999612 
L 41.225418 -36.028488 
L 41.971906 -36.067389 
L 42.718395 -36.116487 
L 43.464883 -36.175953 
L 44.211371 -36.245948 
L 44.95786 -36.326631 
L 45.704348 -36.418153 
L 46.450836 -36.52066 
L 47.197324 -36.63429 
L 47.943813 -36.759177 
L 48.690301 -36.895446 
L 49.436789 -37.043218 
L 50.183278 -37.202604 
L 50.929766 -37.37371 
L 51.676254 -37.556634 
L 52.422742 -37.751467 
L 53.169231 -37.958291 
L 53.915719 -38.177183 
L 54.662207 -38.408211 
L 55.408696 -38.651436 
L 56.155184 -38.90691 
L 56.901672 -39.174679 
L 57.648161 -39.454781 
L 58.394649 -39.747247 
L 59.141137 -40.0521 
L 59.887625 -40.369355 
L 60.634114 -40.699023 
L 61.380602 -41.041105 
L 62.12709 -41.395597 
L 62.873579 -41.76249 
L 63.620067 -42.141769 
L 64.366555 -42.533414 
L 65.113043 -42.937399 
L 65.859532 -43.353699 
L 66.60602 -43.782283 
L 67.352508 -44.223121 
L 68.098997 -44.676183 
L 68.845485 -45.141442 
L 69.591973 -45.618875 
L 70.338462 -46.108468 
L 71.08495 -46.610218 
L 71.831438 -47.124141 
L 72.577926 -47.650273 
L 73.324415 -48.188685 
L 74.070903 -48.739493 
L 74.817391 -49.302875 
L 75.56388 -49.8791 
L 76.310368 -50.468572 
L 77.056856 -51.071895 
L 77.803344 -51.690012 
L 78.549833 -52.324468 
L 79.296321 -52.97808 
L 80.042809 -53.657289 
L 80.789298 -54.28325 
L 81.535786 -54.574402 
L 82.282274 -54.916479 
L 83.028763 -55.293798 
L 83.775251 -55.70091 
L 84.521739 -56.134736 
L 85.268227 -56.593176 
L 86.014716 -57.074637 
L 86.761204 -57.577818 
L 87.507692 -58.101607 
L 88.254181 -58.645019 
L 89.000669 -59.207156 
L 89.747157 -59.787181 
L 90.493645 -60.38431 
L 91.240134 -60.997793 
L 91.986622 -61.626912 
L 92.73311 -62.270974 
L 93.479599 -62.929309 
L 94.226087 -63.601273 
L 94.972575 -64.286246 
L 95.719064 -64.983637 
L 96.465552 -65.69289 
L 97.21204 -66.413501 
L 97.958528 -67.145031 
L 98.705017 -67.88714 
L 99.451505 -68.639646 
L 100.197993 -69.402633 
L 100.944482 -70.176688 
L 101.69097 -70.963533 
L 102.437458 -71.768491 
L 103.183946 -72.459019 
L 103.930435 -72.829628 
L 104.676923 -73.20951 
L 105.423411 -73.588654 
L 106.1699 -73.963973 
L 106.916388 -74.33398 
L 107.662876 -74.697814 
L 108.409365 -75.054926 
L 109.155853 -75.404941 
L 109.902341 -75.747593 
L 110.648829 -76.082688 
L 111.395318 -76.410087 
L 112.141806 -76.729687 
L 112.888294 -77.041417 
L 113.634783 -77.345233 
L 114.381271 -77.641108 
L 115.127759 -77.929038 
L 115.874247 -78.209031 
L 116.620736 -78.481111 
L 117.367224 -78.745318 
L 118.113712 -79.001699 
L 118.860201 -79.250317 
L 119.606689 -79.491243 
L 120.353177 -79.72456 
L 121.099666 -79.950359 
L 121.846154 -80.168741 
L 122.592642 -80.379815 
L 123.33913 -80.583699 
L 124.085619 -80.780518 
L 124.832107 -80.970405 
L 125.578595 -81.153498 
L 126.325084 -81.329945 
L 127.071572 -81.499897 
L 127.81806 -81.663513 
L 128.564548 -81.820957 
L 129.311037 -81.972397 
L 130.057525 -82.118007 
L 130.804013 -82.257966 
L 131.550502 -82.392454 
L 132.29699 -82.52166 
L 133.043478 -82.64577 
L 133.789967 -82.764978 
L 134.536455 -82.87948 
L 135.282943 -82.989471 
L 136.029431 -83.095151 
L 136.77592 -83.196722 
L 137.522408 -83.294385 
L 138.268896 -83.388344 
L 139.015385 -83.478803 
L 139.761873 -83.565965 
L 140.508361 -83.650036 
L 141.254849 -83.731219 
L 142.001338 -83.809717 
L 142.747826 -83.885733 
L 143.494314 -83.959468 
L 144.240803 -84.031122 
L 144.987291 -84.100893 
L 145.733779 -84.168976 
L 146.480268 -84.235565 
L 147.226756 -84.30085 
L 147.973244 -84.365021 
L 148.719732 -84.428262 
L 149.466221 -84.490755 
L 150.212709 -84.552677 
L 150.959197 -84.614204 
L 151.705686 -84.675504 
L 152.452174 -84.736745 
L 153.198662 -84.798089 
L 153.945151 -84.859691 
L 154.691639 -84.921705 
L 155.438127 -84.984279 
L 156.184615 -85.047554 
L 156.931104 -85.111668 
L 157.677592 -85.176754 
L 158.42408 -85.242937 
L 159.170569 -85.310339 
L 159.917057 -85.379074 
L 160.663545 -85.449254 
L 161.410033 -85.520982 
L 162.156522 -85.594355 
L 162.90301 -85.669467 
L 163.649498 -85.746403 
L 164.395987 -85.825244 
L 165.142475 -85.906064 
L 165.888963 -85.988933 
L 166.635452 -86.073912 
L 167.38194 -86.161058 
L 168.128428 -86.250423 
L 168.874916 -86.342051 
L 169.621405 -86.435982 
L 170.367893 -86.532251 
L 171.114381 -86.630886 
L 171.86087 -86.731909 
L 172.607358 -86.83534 
L 173.353846 -86.941191 
L 174.100334 -87.049472 
L 174.846823 -87.160186 
L 175.593311 -87.273334 
L 176.339799 -87.388911 
L 177.086288 -87.506911 
L 177.832776 -87.627324 
L 178.579264 -87.750138 
L 179.325753 -87.875338 
L 180.072241 -88.002911 
L 180.818729 -88.132842 
L 181.565217 -88.265119 
L 182.311706 -88.399731 
L 183.058194 -88.536676 
L 183.804682 -88.675956 
L 184.551171 -88.817588 
L 185.297659 -88.961603 
L 186.044147 -89.10806 
L 186.790635 -89.257052 
L 187.537124 -89.408726 
L 188.283612 -89.563311 
L 189.0301 -89.721174 
L 189.776589 -89.882923 
L 190.523077 -90.049652 
L 191.269565 -90.223677 
L 192.016054 -90.412535 
L 192.762542 -90.140146 
L 193.50903 -89.679935 
L 194.255518 -89.22762 
L 195.002007 -88.779019 
L 195.748495 -88.332554 
L 196.494983 -87.887465 
L 197.241472 -87.443355 
L 197.98796 -87.000017 
L 198.734448 -86.557357 
L 199.480936 -86.11535 
L 200.227425 -85.674018 
L 200.973913 -85.233414 
L 201.720401 -84.793615 
L 202.46689 -84.354711 
L 203.213378 -83.916806 
L 203.959866 -83.480009 
L 204.706355 -83.044437 
L 205.452843 -82.61021 
L 206.199331 -82.177449 
L 206.945819 -81.746279 
L 207.692308 -81.316824 
L 208.438796 -80.889206 
L 209.185284 -80.463549 
L 209.931773 -80.039974 
L 210.678261 -79.618601 
L 211.424749 -79.199548 
L 212.171237 -78.78293 
L 212.917726 -78.36886 
L 213.664214 -77.95745 
L 214.410702 -77.548806 
L 215.157191 -77.143033 
L 215.903679 -76.740232 
L 216.650167 -76.340503 
L 217.396656 -75.94394 
L 218.143144 -75.550634 
L 218.889632 -75.160676 
L 219.63612 -74.774148 
L 220.382609 -74.391134 
L 221.129097 -74.011711 
L 221.875585 -73.635954 
L 222.622074 -73.263934 
L 223.368562 -72.895719 
L 224.11505 -72.531372 
L 224.861538 -72.170955 
L 225.608027 -71.814525 
L 226.354515 -71.462135 
L 227.101003 -71.113835 
L 227.847492 -70.769672 
L 228.59398 -70.429691 
L 229.340468 -70.093929 
L 230.086957 -69.762425 
L 230.833445 -69.435212 
L 231.579933 -69.11232 
L 232.326421 -68.793775 
L 233.07291 -68.479602 
L 233.819398 -68.169821 
L 234.565886 -67.864449 
L 235.312375 -67.563502 
L 236.058863 -67.26699 
L 236.805351 -66.974922 
L 237.551839 -66.687305 
L 238.298328 -66.404141 
L 239.044816 -66.125431 
L 239.791304 -65.851172 
L 240.537793 -65.581359 
L 241.284281 -65.315985 
L 242.030769 -65.05504 
L 242.777258 -64.798512 
L 243.523746 -64.546386 
L 244.270234 -64.298646 
L 245.016722 -64.055272 
L 245.763211 -63.816243 
L 246.509699 -63.581536 
L 247.256187 -63.351127 
L 248.002676 -63.124987 
L 248.749164 -62.903089 
L 249.495652 -62.685402 
L 250.24214 -62.471893 
L 250.988629 -62.262529 
L 251.735117 -62.057275 
L 252.481605 -61.856094 
L 253.228094 -61.658947 
L 253.974582 -61.465795 
L 254.72107 -61.276599 
L 255.467559 -61.091315 
L 256.214047 -60.909901 
L 256.960535 -60.732313 
L 257.707023 -60.558506 
L 258.453512 -60.388435 
L 259.2 -60.222053 
L 259.2 -93.825987 
L 259.2 -93.825987 
L 258.453512 -93.874163 
L 257.707023 -93.921796 
L 256.960535 -93.968835 
L 256.214047 -94.015228 
L 255.467559 -94.06092 
L 254.72107 -94.105859 
L 253.974582 -94.14999 
L 253.228094 -94.193256 
L 252.481605 -94.235604 
L 251.735117 -94.276976 
L 250.988629 -94.317316 
L 250.24214 -94.356568 
L 249.495652 -94.394674 
L 248.749164 -94.431577 
L 248.002676 -94.46722 
L 247.256187 -94.501545 
L 246.509699 -94.534496 
L 245.763211 -94.566014 
L 245.016722 -94.596044 
L 244.270234 -94.624527 
L 243.523746 -94.651407 
L 242.777258 -94.676628 
L 242.030769 -94.700135 
L 241.284281 -94.721872 
L 240.537793 -94.741784 
L 239.791304 -94.759817 
L 239.044816 -94.775918 
L 238.298328 -94.790035 
L 237.551839 -94.802116 
L 236.805351 -94.81211 
L 236.058863 -94.819968 
L 235.312375 -94.825642 
L 234.565886 -94.829083 
L 233.819398 -94.830246 
L 233.07291 -94.829086 
L 232.326421 -94.82556 
L 231.579933 -94.819626 
L 230.833445 -94.811243 
L 230.086957 -94.800371 
L 229.340468 -94.786975 
L 228.59398 -94.771018 
L 227.847492 -94.752466 
L 227.101003 -94.731287 
L 226.354515 -94.70745 
L 225.608027 -94.680926 
L 224.861538 -94.65169 
L 224.11505 -94.619715 
L 223.368562 -94.58498 
L 222.622074 -94.547462 
L 221.875585 -94.507143 
L 221.129097 -94.464005 
L 220.382609 -94.418034 
L 219.63612 -94.369215 
L 218.889632 -94.317537 
L 218.143144 -94.262991 
L 217.396656 -94.205569 
L 216.650167 -94.145264 
L 215.903679 -94.082072 
L 215.157191 -94.015991 
L 214.410702 -93.947019 
L 213.664214 -93.875156 
L 212.917726 -93.800404 
L 212.171237 -93.722766 
L 211.424749 -93.642244 
L 210.678261 -93.558842 
L 209.931773 -93.472566 
L 209.185284 -93.38342 
L 208.438796 -93.291409 
L 207.692308 -93.196535 
L 206.945819 -93.098803 
L 206.199331 -92.998211 
L 205.452843 -92.89476 
L 204.706355 -92.788444 
L 203.959866 -92.679252 
L 203.213378 -92.567171 
L 202.46689 -92.452176 
L 201.720401 -92.334236 
L 200.973913 -92.213305 
L 200.227425 -92.08932 
L 199.480936 -91.962198 
L 198.734448 -91.831827 
L 197.98796 -91.698052 
L 197.241472 -91.560664 
L 196.494983 -91.419368 
L 195.748495 -91.273742 
L 195.002007 -91.123148 
L 194.255518 -90.966548 
L 193.50903 -90.802025 
L 192.762542 -90.624927 
L 192.016054 -90.629926 
L 191.269565 -91.089759 
L 190.523077 -91.529527 
L 189.776589 -91.957132 
L 189.0301 -92.375052 
L 188.283612 -92.784466 
L 187.537124 -93.186018 
L 186.790635 -93.580081 
L 186.044147 -93.966874 
L 185.297659 -94.346513 
L 184.551171 -94.71905 
L 183.804682 -95.084488 
L 183.058194 -95.442797 
L 182.311706 -95.793922 
L 181.565217 -96.137788 
L 180.818729 -96.474303 
L 180.072241 -96.803365 
L 179.325753 -97.124862 
L 178.579264 -97.438673 
L 177.832776 -97.744672 
L 177.086288 -98.042725 
L 176.339799 -98.332698 
L 175.593311 -98.614451 
L 174.846823 -98.88784 
L 174.100334 -99.152721 
L 173.353846 -99.408948 
L 172.607358 -99.656373 
L 171.86087 -99.894846 
L 171.114381 -100.124219 
L 170.367893 -100.344342 
L 169.621405 -100.555065 
L 168.874916 -100.756238 
L 168.128428 -100.947712 
L 167.38194 -101.129339 
L 166.635452 -101.30097 
L 165.888963 -101.462461 
L 165.142475 -101.613664 
L 164.395987 -101.754437 
L 163.649498 -101.884637 
L 162.90301 -102.004124 
L 162.156522 -102.11276 
L 161.410033 -102.210409 
L 160.663545 -102.296936 
L 159.917057 -102.372211 
L 159.170569 -102.436105 
L 158.42408 -102.488493 
L 157.677592 -102.529253 
L 156.931104 -102.558264 
L 156.184615 -102.575412 
L 155.438127 -102.580584 
L 154.691639 -102.573672 
L 153.945151 -102.554571 
L 153.198662 -102.523181 
L 152.452174 -102.479407 
L 151.705686 -102.423156 
L 150.959197 -102.354342 
L 150.212709 -102.272883 
L 149.466221 -102.178702 
L 148.719732 -102.071727 
L 147.973244 -101.951893 
L 147.226756 -101.819138 
L 146.480268 -101.673407 
L 145.733779 -101.514651 
L 144.987291 -101.342828 
L 144.240803 -101.1579 
L 143.494314 -100.959836 
L 142.747826 -100.748614 
L 142.001338 -100.524216 
L 141.254849 -100.286631 
L 140.508361 -100.035857 
L 139.761873 -99.771897 
L 139.015385 -99.494762 
L 138.268896 -99.204471 
L 137.522408 -98.901049 
L 136.77592 -98.584531 
L 136.029431 -98.254958 
L 135.282943 -97.912379 
L 134.536455 -97.55685 
L 133.789967 -97.188438 
L 133.043478 -96.807215 
L 132.29699 -96.413262 
L 131.550502 -96.006668 
L 130.804013 -95.58753 
L 130.057525 -95.155954 
L 129.311037 -94.712053 
L 128.564548 -94.255948 
L 127.81806 -93.787769 
L 127.071572 -93.307652 
L 126.325084 -92.815743 
L 125.578595 -92.312193 
L 124.832107 -91.797162 
L 124.085619 -91.270817 
L 123.33913 -90.733332 
L 122.592642 -90.184886 
L 121.846154 -89.625666 
L 121.099666 -89.055864 
L 120.353177 -88.475677 
L 119.606689 -87.885307 
L 118.860201 -87.284959 
L 118.113712 -86.674842 
L 117.367224 -86.055166 
L 116.620736 -85.426143 
L 115.874247 -84.787984 
L 115.127759 -84.140897 
L 114.381271 -83.485086 
L 113.634783 -82.820746 
L 112.888294 -82.148065 
L 112.141806 -81.467212 
L 111.395318 -80.778339 
L 110.648829 -80.081566 
L 109.902341 -79.376979 
L 109.155853 -78.664606 
L 108.409365 -77.944402 
L 107.662876 -77.216215 
L 106.916388 -76.479729 
L 106.1699 -75.734373 
L 105.423411 -74.979138 
L 104.676923 -74.212167 
L 103.930435 -73.429591 
L 103.183946 -72.61953 
L 102.437458 -72.104804 
L 101.69097 -71.68397 
L 100.944482 -71.230518 
L 100.197993 -70.752651 
L 99.451505 -70.254272 
L 98.705017 -69.737832 
L 97.958528 -69.205097 
L 97.21204 -68.657459 
L 96.465552 -68.096077 
L 95.719064 -67.52196 
L 94.972575 -66.936012 
L 94.226087 -66.339063 
L 93.479599 -65.731889 
L 92.73311 -65.11522 
L 91.986622 -64.489754 
L 91.240134 -63.85616 
L 90.493645 -63.215081 
L 89.747157 -62.567137 
L 89.000669 -61.912923 
L 88.254181 -61.253006 
L 87.507692 -60.587921 
L 86.761204 -59.918165 
L 86.014716 -59.244175 
L 85.268227 -58.566316 
L 84.521739 -57.884829 
L 83.775251 -57.199764 
L 83.028763 -56.510828 
L 82.282274 -55.817015 
L 81.535786 -55.115484 
L 80.789298 -54.394596 
L 80.042809 -54.049376 
L 79.296321 -53.793407 
L 78.549833 -53.543106 
L 77.803344 -53.303272 
L 77.056856 -53.075816 
L 76.310368 -52.861721 
L 75.56388 -52.66156 
L 74.817391 -52.475684 
L 74.070903 -52.304318 
L 73.324415 -52.1476 
L 72.577926 -52.005611 
L 71.831438 -51.87839 
L 71.08495 -51.765941 
L 70.338462 -51.668242 
L 69.591973 -51.585248 
L 68.845485 -51.516894 
L 68.098997 -51.463099 
L 67.352508 -51.423764 
L 66.60602 -51.398779 
L 65.859532 -51.388016 
L 65.113043 -51.391339 
L 64.366555 -51.408599 
L 63.620067 -51.439634 
L 62.873579 -51.484274 
L 62.12709 -51.542337 
L 61.380602 -51.613634 
L 60.634114 -51.697963 
L 59.887625 -51.795117 
L 59.141137 -51.90488 
L 58.394649 -52.027027 
L 57.648161 -52.161327 
L 56.901672 -52.30754 
L 56.155184 -52.465422 
L 55.408696 -52.63472 
L 54.662207 -52.815178 
L 53.915719 -53.006534 
L 53.169231 -53.208517 
L 52.422742 -53.420858 
L 51.676254 -53.643278 
L 50.929766 -53.875496 
L 50.183278 -54.117229 
L 49.436789 -54.368188 
L 48.690301 -54.628084 
L 47.943813 -54.896622 
L 47.197324 -55.173509 
L 46.450836 -55.458447 
L 45.704348 -55.751138 
L 44.95786 -56.051283 
L 44.211371 -56.358581 
L 43.464883 -56.672732 
L 42.718395 -56.993435 
L 41.971906 -57.32039 
L 41.225418 -57.653297 
L 40.47893 -57.991857 
L 39.732441 -58.335771 
L 38.985953 -58.684744 
L 38.239465 -59.03848 
L 37.492977 -59.396687 
L 36.746488 -59.759074 
L 36 -60.125352 
z
" id="m411f21511f" style="stroke:#d9d9d9;"/>
    </defs>
    <g clip-path="url(#p8e112de5d4)">
     <use style="fill:#d9d9d9;stroke:#d9d9d9;" x="0" xlink:href="#m411f21511f" y="144"/>
    </g>
   </g>
   <g id="matplotlib.axis_1">
    <g id="xtick_1">
     <g id="line2d_1">
      <defs>
       <path d="M 0 0 
L 0 3.5 
" id="mb5877c8ac2" style="stroke:#000000;stroke-width:0.8;"/>
      </defs>
      <g>
       <use style="stroke:#000000;stroke-width:0.8;" x="36" xlink:href="#mb5877c8ac2" y="126"/>
      </g>
     </g>
     <g id="text_1">
      <!-- 0 -->
      <defs>
       <path d="M 31.78125 66.40625 
Q 24.171875 66.40625 20.328125 58.90625 
Q 16.5 51.421875 16.5 36.375 
Q 16.5 21.390625 20.328125 13.890625 
Q 24.171875 6.390625 31.78125 6.390625 
Q 39.453125 6.390625 43.28125 13.890625 
Q 47.125 21.390625 47.125 36.375 
Q 47.125 51.421875 43.28125 58.90625 
Q 39.453125 66.40625 31.78125 66.40625 
z
M 31.78125 74.21875 
Q 44.046875 74.21875 50.515625 64.515625 
Q 56.984375 54.828125 56.984375 36.375 
Q 56.984375 17.96875 50.515625 8.265625 
Q 44.046875 -1.421875 31.78125 -1.421875 
Q 19.53125 -1.421875 13.0625 8.265625 
Q 6.59375 17.96875 6.59375 36.375 
Q 6.59375 54.828125 13.0625 64.515625 
Q 19.53125 74.21875 31.78125 74.21875 
z
" id="DejaVuSans-30"/>
      </defs>
      <g transform="translate(32.81875 140.598437)scale(0.1 -0.1)">
       <use xlink:href="#DejaVuSans-30"/>
      </g>
     </g>
    </g>
    <g id="xtick_2">
     <g id="line2d_2">
      <g>
       <use style="stroke:#000000;stroke-width:0.8;" x="80.64" xlink:href="#mb5877c8ac2" y="126"/>
      </g>
     </g>
     <g id="text_2">
      <!-- 2 -->
      <defs>
       <path d="M 19.1875 8.296875 
L 53.609375 8.296875 
L 53.609375 0 
L 7.328125 0 
L 7.328125 8.296875 
Q 12.9375 14.109375 22.625 23.890625 
Q 32.328125 33.6875 34.8125 36.53125 
Q 39.546875 41.84375 41.421875 45.53125 
Q 43.3125 49.21875 43.3125 52.78125 
Q 43.3125 58.59375 39.234375 62.25 
Q 35.15625 65.921875 28.609375 65.921875 
Q 23.96875 65.921875 18.8125 64.3125 
Q 13.671875 62.703125 7.8125 59.421875 
L 7.8125 69.390625 
Q 13.765625 71.78125 18.9375 73 
Q 24.125 74.21875 28.421875 74.21875 
Q 39.75 74.21875 46.484375 68.546875 
Q 53.21875 62.890625 53.21875 53.421875 
Q 53.21875 48.921875 51.53125 44.890625 
Q 49.859375 40.875 45.40625 35.40625 
Q 44.1875 33.984375 37.640625 27.21875 
Q 31.109375 20.453125 19.1875 8.296875 
z
" id="DejaVuSans-32"/>
      </defs>
      <g transform="translate(77.45875 140.598437)scale(0.1 -0.1)">
       <use xlink:href="#DejaVuSans-32"/>
      </g>
     </g>
    </g>
    <g id="xtick_3">
     <g id="line2d_3">
      <g>
       <use style="stroke:#000000;stroke-width:0.8;" x="125.28" xlink:href="#mb5877c8ac2" y="126"/>
      </g>
     </g>
     <g id="text_3">
      <!-- 4 -->
      <defs>
       <path d="M 37.796875 64.3125 
L 12.890625 25.390625 
L 37.796875 25.390625 
z
M 35.203125 72.90625 
L 47.609375 72.90625 
L 47.609375 25.390625 
L 58.015625 25.390625 
L 58.015625 17.1875 
L 47.609375 17.1875 
L 47.609375 0 
L 37.796875 0 
L 37.796875 17.1875 
L 4.890625 17.1875 
L 4.890625 26.703125 
z
" id="DejaVuSans-34"/>
      </defs>
      <g transform="translate(122.09875 140.598437)scale(0.1 -0.1)">
       <use xlink:href="#DejaVuSans-34"/>
      </g>
     </g>
    </g>
    <g id="xtick_4">
     <g id="line2d_4">
      <g>
       <use style="stroke:#000000;stroke-width:0.8;" x="169.92" xlink:href="#mb5877c8ac2" y="126"/>
      </g>
     </g>
     <g id="text_4">
      <!-- 6 -->
      <defs>
       <path d="M 33.015625 40.375 
Q 26.375 40.375 22.484375 35.828125 
Q 18.609375 31.296875 18.609375 23.390625 
Q 18.609375 15.53125 22.484375 10.953125 
Q 26.375 6.390625 33.015625 6.390625 
Q 39.65625 6.390625 43.53125 10.953125 
Q 47.40625 15.53125 47.40625 23.390625 
Q 47.40625 31.296875 43.53125 35.828125 
Q 39.65625 40.375 33.015625 40.375 
z
M 52.59375 71.296875 
L 52.59375 62.3125 
Q 48.875 64.0625 45.09375 64.984375 
Q 41.3125 65.921875 37.59375 65.921875 
Q 27.828125 65.921875 22.671875 59.328125 
Q 17.53125 52.734375 16.796875 39.40625 
Q 19.671875 43.65625 24.015625 45.921875 
Q 28.375 48.1875 33.59375 48.1875 
Q 44.578125 48.1875 50.953125 41.515625 
Q 57.328125 34.859375 57.328125 23.390625 
Q 57.328125 12.15625 50.6875 5.359375 
Q 44.046875 -1.421875 33.015625 -1.421875 
Q 20.359375 -1.421875 13.671875 8.265625 
Q 6.984375 17.96875 6.984375 36.375 
Q 6.984375 53.65625 15.1875 63.9375 
Q 23.390625 74.21875 37.203125 74.21875 
Q 40.921875 74.21875 44.703125 73.484375 
Q 48.484375 72.75 52.59375 71.296875 
z
" id="DejaVuSans-36"/>
      </defs>
      <g transform="translate(166.73875 140.598437)scale(0.1 -0.1)">
       <use xlink:href="#DejaVuSans-36"/>
      </g>
     </g>
    </g>
    <g id="xtick_5">
     <g id="line2d_5">
      <g>
       <use style="stroke:#000000;stroke-width:0.8;" x="214.56" xlink:href="#mb5877c8ac2" y="126"/>
      </g>
     </g>
     <g id="text_5">
      <!-- 8 -->
      <defs>
       <path d="M 31.78125 34.625 
Q 24.75 34.625 20.71875 30.859375 
Q 16.703125 27.09375 16.703125 20.515625 
Q 16.703125 13.921875 20.71875 10.15625 
Q 24.75 6.390625 31.78125 6.390625 
Q 38.8125 6.390625 42.859375 10.171875 
Q 46.921875 13.96875 46.921875 20.515625 
Q 46.921875 27.09375 42.890625 30.859375 
Q 38.875 34.625 31.78125 34.625 
z
M 21.921875 38.8125 
Q 15.578125 40.375 12.03125 44.71875 
Q 8.5 49.078125 8.5 55.328125 
Q 8.5 64.0625 14.71875 69.140625 
Q 20.953125 74.21875 31.78125 74.21875 
Q 42.671875 74.21875 48.875 69.140625 
Q 55.078125 64.0625 55.078125 55.328125 
Q 55.078125 49.078125 51.53125 44.71875 
Q 48 40.375 41.703125 38.8125 
Q 48.828125 37.15625 52.796875 32.3125 
Q 56.78125 27.484375 56.78125 20.515625 
Q 56.78125 9.90625 50.3125 4.234375 
Q 43.84375 -1.421875 31.78125 -1.421875 
Q 19.734375 -1.421875 13.25 4.234375 
Q 6.78125 9.90625 6.78125 20.515625 
Q 6.78125 27.484375 10.78125 32.3125 
Q 14.796875 37.15625 21.921875 38.8125 
z
M 18.3125 54.390625 
Q 18.3125 48.734375 21.84375 45.5625 
Q 25.390625 42.390625 31.78125 42.390625 
Q 38.140625 42.390625 41.71875 45.5625 
Q 45.3125 48.734375 45.3125 54.390625 
Q 45.3125 60.0625 41.71875 63.234375 
Q 38.140625 66.40625 31.78125 66.40625 
Q 25.390625 66.40625 21.84375 63.234375 
Q 18.3125 60.0625 18.3125 54.390625 
z
" id="DejaVuSans-38"/>
      </defs>
      <g transform="translate(211.37875 140.598437)scale(0.1 -0.1)">
       <use xlink:href="#DejaVuSans-38"/>
      </g>
     </g>
    </g>
    <g id="xtick_6">
     <g id="line2d_6">
      <g>
       <use style="stroke:#000000;stroke-width:0.8;" x="259.2" xlink:href="#mb5877c8ac2" y="126"/>
      </g>
     </g>
     <g id="text_6">
      <!-- 10 -->
      <defs>
       <path d="M 12.40625 8.296875 
L 28.515625 8.296875 
L 28.515625 63.921875 
L 10.984375 60.40625 
L 10.984375 69.390625 
L 28.421875 72.90625 
L 38.28125 72.90625 
L 38.28125 8.296875 
L 54.390625 8.296875 
L 54.390625 0 
L 12.40625 0 
z
" id="DejaVuSans-31"/>
      </defs>
      <g transform="translate(252.8375 140.598437)scale(0.1 -0.1)">
       <use xlink:href="#DejaVuSans-31"/>
       <use x="63.623047" xlink:href="#DejaVuSans-30"/>
      </g>
     </g>
    </g>
   </g>
   <g id="matplotlib.axis_2">
    <g id="ytick_1">
     <g id="line2d_7">
      <defs>
       <path d="M 0 0 
L -3.5 0 
" id="me0945755b5" style="stroke:#000000;stroke-width:0.8;"/>
      </defs>
      <g>
       <use style="stroke:#000000;stroke-width:0.8;" x="36" xlink:href="#me0945755b5" y="107.88"/>
      </g>
     </g>
     <g id="text_7">
      <!-- −2 -->
      <defs>
       <path d="M 10.59375 35.5 
L 73.1875 35.5 
L 73.1875 27.203125 
L 10.59375 27.203125 
z
" id="DejaVuSans-2212"/>
      </defs>
      <g transform="translate(14.257812 111.679219)scale(0.1 -0.1)">
       <use xlink:href="#DejaVuSans-2212"/>
       <use x="83.789062" xlink:href="#DejaVuSans-32"/>
      </g>
     </g>
    </g>
    <g id="ytick_2">
     <g id="line2d_8">
      <g>
       <use style="stroke:#000000;stroke-width:0.8;" x="36" xlink:href="#me0945755b5" y="71.64"/>
      </g>
     </g>
     <g id="text_8">
      <!-- 0 -->
      <g transform="translate(22.6375 75.439219)scale(0.1 -0.1)">
       <use xlink:href="#DejaVuSans-30"/>
      </g>
     </g>
    </g>
    <g id="ytick_3">
     <g id="line2d_9">
      <g>
       <use style="stroke:#000000;stroke-width:0.8;" x="36" xlink:href="#me0945755b5" y="35.4"/>
      </g>
     </g>
     <g id="text_9">
      <!-- 2 -->
      <g transform="translate(22.6375 39.199219)scale(0.1 -0.1)">
       <use xlink:href="#DejaVuSans-32"/>
      </g>
     </g>
    </g>
   </g>
   <g id="line2d_10">
    <path clip-path="url(#p8e112de5d4)" d="M 36 95.924052 
L 40.47893 97.004266 
L 44.211371 97.697735 
L 47.943813 98.172101 
L 51.676254 98.400044 
L 54.662207 98.388305 
L 57.648161 98.191946 
L 60.634114 97.801507 
L 63.620067 97.209298 
L 66.60602 96.409469 
L 69.591973 95.397939 
L 72.577926 94.172058 
L 75.56388 92.72967 
L 78.549833 91.066213 
L 81.535786 89.155057 
L 85.268227 86.420254 
L 89.747157 82.822841 
L 97.21204 76.46452 
L 103.183946 71.460725 
L 107.662876 68.042986 
L 112.141806 64.901551 
L 116.620736 62.046373 
L 120.353177 59.899882 
L 124.085619 57.974332 
L 127.81806 56.274359 
L 131.550502 54.800439 
L 135.282943 53.549075 
L 139.015385 52.513218 
L 142.747826 51.682826 
L 147.226756 50.940006 
L 151.705686 50.45067 
L 156.184615 50.188517 
L 161.410033 50.134305 
L 166.635452 50.312559 
L 172.607358 50.754144 
L 179.325753 51.4999 
L 186.790635 52.581433 
L 194.255518 53.902916 
L 203.213378 55.758012 
L 221.875585 59.928451 
L 235.312375 62.805428 
L 245.763211 64.808871 
L 254.72107 66.308771 
L 259.2 66.97598 
L 259.2 66.97598 
" style="fill:none;stroke:#1f77b4;stroke-linecap:square;stroke-width:1.5;"/>
   </g>
   <g id="line2d_11">
    <defs>
     <path d="M 0 3 
C 0.795609 3 1.55874 2.683901 2.12132 2.12132 
C 2.683901 1.55874 3 0.795609 3 0 
C 3 -0.795609 2.683901 -1.55874 2.12132 -2.12132 
C 1.55874 -2.683901 0.795609 -3 0 -3 
C -0.795609 -3 -1.55874 -2.683901 -2.12132 -2.12132 
C -2.683901 -1.55874 -3 -0.795609 -3 0 
C -3 0.795609 -2.683901 1.55874 -2.12132 2.12132 
C -1.55874 2.683901 -0.795609 3 0 3 
z
" id="m7f59763ece" style="stroke:#000000;"/>
    </defs>
    <g clip-path="url(#p8e112de5d4)">
     <use style="stroke:#000000;" x="80.64" xlink:href="#m7f59763ece" y="89.76"/>
     <use style="stroke:#000000;" x="102.96" xlink:href="#m7f59763ece" y="71.64"/>
     <use style="stroke:#000000;" x="192.24" xlink:href="#m7f59763ece" y="53.52"/>
    </g>
   </g>
   <g id="patch_3">
    <path d="M 36 126 
L 36 17.28 
" style="fill:none;stroke:#000000;stroke-linecap:square;stroke-linejoin:miter;stroke-width:0.8;"/>
   </g>
   <g id="patch_4">
    <path d="M 259.2 126 
L 259.2 17.28 
" style="fill:none;stroke:#000000;stroke-linecap:square;stroke-linejoin:miter;stroke-width:0.8;"/>
   </g>
   <g id="patch_5">
    <path d="M 36 126 
L 259.2 126 
" style="fill:none;stroke:#000000;stroke-linecap:square;stroke-linejoin:miter;stroke-width:0.8;"/>
   </g>
   <g id="patch_6">
    <path d="M 36 17.28 
L 259.2 17.28 
" style="fill:none;stroke:#000000;stroke-linecap:square;stroke-linejoin:miter;stroke-width:0.8;"/>
   </g>
  </g>
 </g>
 <defs>
  <clipPath id="p8e112de5d4">
   <rect height="108.72" width="223.2" x="36" y="17.28"/>
  </clipPath>
 </defs>
</svg>
