<?xml version="1.0" encoding="utf-8" standalone="no"?>
<!DOCTYPE svg PUBLIC "-//W3C//DTD SVG 1.1//EN"
  "http://www.w3.org/Graphics/SVG/1.1/DTD/svg11.dtd">
<!-- Created with matplotlib (http://matplotlib.org/) -->
<svg height="144pt" version="1.1" viewBox="0 0 288 144" width="288pt" xmlns="http://www.w3.org/2000/svg" xmlns:xlink="http://www.w3.org/1999/xlink">
 <defs>
  <style type="text/css">
*{stroke-linecap:butt;stroke-linejoin:round;}
  </style>
 </defs>
 <g id="figure_1">
  <g id="patch_1">
   <path d="M 0 144 
L 288 144 
L 288 0 
L 0 0 
z
" style="fill:#ffffff;"/>
  </g>
  <g id="axes_1">
   <g id="patch_2">
    <path d="M 36 126 
L 259.2 126 
L 259.2 17.28 
L 36 17.28 
z
" style="fill:#ffffff;"/>
   </g>
   <g id="PolyCollection_1">
    <defs>
     <path d="M 36 -90.48 
L 36 -54.24 
L 36.746488 -54.24 
L 37.492977 -54.24 
L 38.239465 -54.24 
L 38.985953 -54.24 
L 39.732441 -54.24 
L 40.47893 -54.24 
L 41.225418 -54.24 
L 41.971906 -54.24 
L 42.718395 -54.24 
L 43.464883 -54.24 
L 44.211371 -54.24 
L 44.95786 -54.24 
L 45.704348 -54.24 
L 46.450836 -54.24 
L 47.197324 -54.24 
L 47.943813 -54.24 
L 48.690301 -54.24 
L 49.436789 -54.24 
L 50.183278 -54.24 
L 50.929766 -54.24 
L 51.676254 -54.24 
L 52.422742 -54.24 
L 53.169231 -54.24 
L 53.915719 -54.24 
L 54.662207 -54.24 
L 55.408696 -54.24 
L 56.155184 -54.24 
L 56.901672 -54.24 
L 57.648161 -54.24 
L 58.394649 -54.24 
L 59.141137 -54.24 
L 59.887625 -54.24 
L 60.634114 -54.24 
L 61.380602 -54.24 
L 62.12709 -54.24 
L 62.873579 -54.24 
L 63.620067 -54.24 
L 64.366555 -54.24 
L 65.113043 -54.24 
L 65.859532 -54.24 
L 66.60602 -54.24 
L 67.352508 -54.24 
L 68.098997 -54.24 
L 68.845485 -54.24 
L 69.591973 -54.24 
L 70.338462 -54.24 
L 71.08495 -54.24 
L 71.831438 -54.24 
L 72.577926 -54.24 
L 73.324415 -54.24 
L 74.070903 -54.24 
L 74.817391 -54.24 
L 75.56388 -54.24 
L 76.310368 -54.24 
L 77.056856 -54.24 
L 77.803344 -54.24 
L 78.549833 -54.24 
L 79.296321 -54.24 
L 80.042809 -54.24 
L 80.789298 -54.24 
L 81.535786 -54.24 
L 82.282274 -54.24 
L 83.028763 -54.24 
L 83.775251 -54.24 
L 84.521739 -54.24 
L 85.268227 -54.24 
L 86.014716 -54.24 
L 86.761204 -54.24 
L 87.507692 -54.24 
L 88.254181 -54.24 
L 89.000669 -54.24 
L 89.747157 -54.24 
L 90.493645 -54.24 
L 91.240134 -54.24 
L 91.986622 -54.24 
L 92.73311 -54.24 
L 93.479599 -54.24 
L 94.226087 -54.24 
L 94.972575 -54.24 
L 95.719064 -54.24 
L 96.465552 -54.24 
L 97.21204 -54.24 
L 97.958528 -54.24 
L 98.705017 -54.24 
L 99.451505 -54.24 
L 100.197993 -54.24 
L 100.944482 -54.24 
L 101.69097 -54.24 
L 102.437458 -54.24 
L 103.183946 -54.24 
L 103.930435 -54.24 
L 104.676923 -54.24 
L 105.423411 -54.24 
L 106.1699 -54.24 
L 106.916388 -54.24 
L 107.662876 -54.24 
L 108.409365 -54.24 
L 109.155853 -54.24 
L 109.902341 -54.24 
L 110.648829 -54.24 
L 111.395318 -54.24 
L 112.141806 -54.24 
L 112.888294 -54.24 
L 113.634783 -54.24 
L 114.381271 -54.24 
L 115.127759 -54.24 
L 115.874247 -54.24 
L 116.620736 -54.24 
L 117.367224 -54.24 
L 118.113712 -54.24 
L 118.860201 -54.24 
L 119.606689 -54.24 
L 120.353177 -54.24 
L 121.099666 -54.24 
L 121.846154 -54.24 
L 122.592642 -54.24 
L 123.33913 -54.24 
L 124.085619 -54.24 
L 124.832107 -54.24 
L 125.578595 -54.24 
L 126.325084 -54.24 
L 127.071572 -54.24 
L 127.81806 -54.24 
L 128.564548 -54.24 
L 129.311037 -54.24 
L 130.057525 -54.24 
L 130.804013 -54.24 
L 131.550502 -54.24 
L 132.29699 -54.24 
L 133.043478 -54.24 
L 133.789967 -54.24 
L 134.536455 -54.24 
L 135.282943 -54.24 
L 136.029431 -54.24 
L 136.77592 -54.24 
L 137.522408 -54.24 
L 138.268896 -54.24 
L 139.015385 -54.24 
L 139.761873 -54.24 
L 140.508361 -54.24 
L 141.254849 -54.24 
L 142.001338 -54.24 
L 142.747826 -54.24 
L 143.494314 -54.24 
L 144.240803 -54.24 
L 144.987291 -54.24 
L 145.733779 -54.24 
L 146.480268 -54.24 
L 147.226756 -54.24 
L 147.973244 -54.24 
L 148.719732 -54.24 
L 149.466221 -54.24 
L 150.212709 -54.24 
L 150.959197 -54.24 
L 151.705686 -54.24 
L 152.452174 -54.24 
L 153.198662 -54.24 
L 153.945151 -54.24 
L 154.691639 -54.24 
L 155.438127 -54.24 
L 156.184615 -54.24 
L 156.931104 -54.24 
L 157.677592 -54.24 
L 158.42408 -54.24 
L 159.170569 -54.24 
L 159.917057 -54.24 
L 160.663545 -54.24 
L 161.410033 -54.24 
L 162.156522 -54.24 
L 162.90301 -54.24 
L 163.649498 -54.24 
L 164.395987 -54.24 
L 165.142475 -54.24 
L 165.888963 -54.24 
L 166.635452 -54.24 
L 167.38194 -54.24 
L 168.128428 -54.24 
L 168.874916 -54.24 
L 169.621405 -54.24 
L 170.367893 -54.24 
L 171.114381 -54.24 
L 171.86087 -54.24 
L 172.607358 -54.24 
L 173.353846 -54.24 
L 174.100334 -54.24 
L 174.846823 -54.24 
L 175.593311 -54.24 
L 176.339799 -54.24 
L 177.086288 -54.24 
L 177.832776 -54.24 
L 178.579264 -54.24 
L 179.325753 -54.24 
L 180.072241 -54.24 
L 180.818729 -54.24 
L 181.565217 -54.24 
L 182.311706 -54.24 
L 183.058194 -54.24 
L 183.804682 -54.24 
L 184.551171 -54.24 
L 185.297659 -54.24 
L 186.044147 -54.24 
L 186.790635 -54.24 
L 187.537124 -54.24 
L 188.283612 -54.24 
L 189.0301 -54.24 
L 189.776589 -54.24 
L 190.523077 -54.24 
L 191.269565 -54.24 
L 192.016054 -54.24 
L 192.762542 -54.24 
L 193.50903 -54.24 
L 194.255518 -54.24 
L 195.002007 -54.24 
L 195.748495 -54.24 
L 196.494983 -54.24 
L 197.241472 -54.24 
L 197.98796 -54.24 
L 198.734448 -54.24 
L 199.480936 -54.24 
L 200.227425 -54.24 
L 200.973913 -54.24 
L 201.720401 -54.24 
L 202.46689 -54.24 
L 203.213378 -54.24 
L 203.959866 -54.24 
L 204.706355 -54.24 
L 205.452843 -54.24 
L 206.199331 -54.24 
L 206.945819 -54.24 
L 207.692308 -54.24 
L 208.438796 -54.24 
L 209.185284 -54.24 
L 209.931773 -54.24 
L 210.678261 -54.24 
L 211.424749 -54.24 
L 212.171237 -54.24 
L 212.917726 -54.24 
L 213.664214 -54.24 
L 214.410702 -54.24 
L 215.157191 -54.24 
L 215.903679 -54.24 
L 216.650167 -54.24 
L 217.396656 -54.24 
L 218.143144 -54.24 
L 218.889632 -54.24 
L 219.63612 -54.24 
L 220.382609 -54.24 
L 221.129097 -54.24 
L 221.875585 -54.24 
L 222.622074 -54.24 
L 223.368562 -54.24 
L 224.11505 -54.24 
L 224.861538 -54.24 
L 225.608027 -54.24 
L 226.354515 -54.24 
L 227.101003 -54.24 
L 227.847492 -54.24 
L 228.59398 -54.24 
L 229.340468 -54.24 
L 230.086957 -54.24 
L 230.833445 -54.24 
L 231.579933 -54.24 
L 232.326421 -54.24 
L 233.07291 -54.24 
L 233.819398 -54.24 
L 234.565886 -54.24 
L 235.312375 -54.24 
L 236.058863 -54.24 
L 236.805351 -54.24 
L 237.551839 -54.24 
L 238.298328 -54.24 
L 239.044816 -54.24 
L 239.791304 -54.24 
L 240.537793 -54.24 
L 241.284281 -54.24 
L 242.030769 -54.24 
L 242.777258 -54.24 
L 243.523746 -54.24 
L 244.270234 -54.24 
L 245.016722 -54.24 
L 245.763211 -54.24 
L 246.509699 -54.24 
L 247.256187 -54.24 
L 248.002676 -54.24 
L 248.749164 -54.24 
L 249.495652 -54.24 
L 250.24214 -54.24 
L 250.988629 -54.24 
L 251.735117 -54.24 
L 252.481605 -54.24 
L 253.228094 -54.24 
L 253.974582 -54.24 
L 254.72107 -54.24 
L 255.467559 -54.24 
L 256.214047 -54.24 
L 256.960535 -54.24 
L 257.707023 -54.24 
L 258.453512 -54.24 
L 259.2 -54.24 
L 259.2 -90.48 
L 259.2 -90.48 
L 258.453512 -90.48 
L 257.707023 -90.48 
L 256.960535 -90.48 
L 256.214047 -90.48 
L 255.467559 -90.48 
L 254.72107 -90.48 
L 253.974582 -90.48 
L 253.228094 -90.48 
L 252.481605 -90.48 
L 251.735117 -90.48 
L 250.988629 -90.48 
L 250.24214 -90.48 
L 249.495652 -90.48 
L 248.749164 -90.48 
L 248.002676 -90.48 
L 247.256187 -90.48 
L 246.509699 -90.48 
L 245.763211 -90.48 
L 245.016722 -90.48 
L 244.270234 -90.48 
L 243.523746 -90.48 
L 242.777258 -90.48 
L 242.030769 -90.48 
L 241.284281 -90.48 
L 240.537793 -90.48 
L 239.791304 -90.48 
L 239.044816 -90.48 
L 238.298328 -90.48 
L 237.551839 -90.48 
L 236.805351 -90.48 
L 236.058863 -90.48 
L 235.312375 -90.48 
L 234.565886 -90.48 
L 233.819398 -90.48 
L 233.07291 -90.48 
L 232.326421 -90.48 
L 231.579933 -90.48 
L 230.833445 -90.48 
L 230.086957 -90.48 
L 229.340468 -90.48 
L 228.59398 -90.48 
L 227.847492 -90.48 
L 227.101003 -90.48 
L 226.354515 -90.48 
L 225.608027 -90.48 
L 224.861538 -90.48 
L 224.11505 -90.48 
L 223.368562 -90.48 
L 222.622074 -90.48 
L 221.875585 -90.48 
L 221.129097 -90.48 
L 220.382609 -90.48 
L 219.63612 -90.48 
L 218.889632 -90.48 
L 218.143144 -90.48 
L 217.396656 -90.48 
L 216.650167 -90.48 
L 215.903679 -90.48 
L 215.157191 -90.48 
L 214.410702 -90.48 
L 213.664214 -90.48 
L 212.917726 -90.48 
L 212.171237 -90.48 
L 211.424749 -90.48 
L 210.678261 -90.48 
L 209.931773 -90.48 
L 209.185284 -90.48 
L 208.438796 -90.48 
L 207.692308 -90.48 
L 206.945819 -90.48 
L 206.199331 -90.48 
L 205.452843 -90.48 
L 204.706355 -90.48 
L 203.959866 -90.48 
L 203.213378 -90.48 
L 202.46689 -90.48 
L 201.720401 -90.48 
L 200.973913 -90.48 
L 200.227425 -90.48 
L 199.480936 -90.48 
L 198.734448 -90.48 
L 197.98796 -90.48 
L 197.241472 -90.48 
L 196.494983 -90.48 
L 195.748495 -90.48 
L 195.002007 -90.48 
L 194.255518 -90.48 
L 193.50903 -90.48 
L 192.762542 -90.48 
L 192.016054 -90.48 
L 191.269565 -90.48 
L 190.523077 -90.48 
L 189.776589 -90.48 
L 189.0301 -90.48 
L 188.283612 -90.48 
L 187.537124 -90.48 
L 186.790635 -90.48 
L 186.044147 -90.48 
L 185.297659 -90.48 
L 184.551171 -90.48 
L 183.804682 -90.48 
L 183.058194 -90.48 
L 182.311706 -90.48 
L 181.565217 -90.48 
L 180.818729 -90.48 
L 180.072241 -90.48 
L 179.325753 -90.48 
L 178.579264 -90.48 
L 177.832776 -90.48 
L 177.086288 -90.48 
L 176.339799 -90.48 
L 175.593311 -90.48 
L 174.846823 -90.48 
L 174.100334 -90.48 
L 173.353846 -90.48 
L 172.607358 -90.48 
L 171.86087 -90.48 
L 171.114381 -90.48 
L 170.367893 -90.48 
L 169.621405 -90.48 
L 168.874916 -90.48 
L 168.128428 -90.48 
L 167.38194 -90.48 
L 166.635452 -90.48 
L 165.888963 -90.48 
L 165.142475 -90.48 
L 164.395987 -90.48 
L 163.649498 -90.48 
L 162.90301 -90.48 
L 162.156522 -90.48 
L 161.410033 -90.48 
L 160.663545 -90.48 
L 159.917057 -90.48 
L 159.170569 -90.48 
L 158.42408 -90.48 
L 157.677592 -90.48 
L 156.931104 -90.48 
L 156.184615 -90.48 
L 155.438127 -90.48 
L 154.691639 -90.48 
L 153.945151 -90.48 
L 153.198662 -90.48 
L 152.452174 -90.48 
L 151.705686 -90.48 
L 150.959197 -90.48 
L 150.212709 -90.48 
L 149.466221 -90.48 
L 148.719732 -90.48 
L 147.973244 -90.48 
L 147.226756 -90.48 
L 146.480268 -90.48 
L 145.733779 -90.48 
L 144.987291 -90.48 
L 144.240803 -90.48 
L 143.494314 -90.48 
L 142.747826 -90.48 
L 142.001338 -90.48 
L 141.254849 -90.48 
L 140.508361 -90.48 
L 139.761873 -90.48 
L 139.015385 -90.48 
L 138.268896 -90.48 
L 137.522408 -90.48 
L 136.77592 -90.48 
L 136.029431 -90.48 
L 135.282943 -90.48 
L 134.536455 -90.48 
L 133.789967 -90.48 
L 133.043478 -90.48 
L 132.29699 -90.48 
L 131.550502 -90.48 
L 130.804013 -90.48 
L 130.057525 -90.48 
L 129.311037 -90.48 
L 128.564548 -90.48 
L 127.81806 -90.48 
L 127.071572 -90.48 
L 126.325084 -90.48 
L 125.578595 -90.48 
L 124.832107 -90.48 
L 124.085619 -90.48 
L 123.33913 -90.48 
L 122.592642 -90.48 
L 121.846154 -90.48 
L 121.099666 -90.48 
L 120.353177 -90.48 
L 119.606689 -90.48 
L 118.860201 -90.48 
L 118.113712 -90.48 
L 117.367224 -90.48 
L 116.620736 -90.48 
L 115.874247 -90.48 
L 115.127759 -90.48 
L 114.381271 -90.48 
L 113.634783 -90.48 
L 112.888294 -90.48 
L 112.141806 -90.48 
L 111.395318 -90.48 
L 110.648829 -90.48 
L 109.902341 -90.48 
L 109.155853 -90.48 
L 108.409365 -90.48 
L 107.662876 -90.48 
L 106.916388 -90.48 
L 106.1699 -90.48 
L 105.423411 -90.48 
L 104.676923 -90.48 
L 103.930435 -90.48 
L 103.183946 -90.48 
L 102.437458 -90.48 
L 101.69097 -90.48 
L 100.944482 -90.48 
L 100.197993 -90.48 
L 99.451505 -90.48 
L 98.705017 -90.48 
L 97.958528 -90.48 
L 97.21204 -90.48 
L 96.465552 -90.48 
L 95.719064 -90.48 
L 94.972575 -90.48 
L 94.226087 -90.48 
L 93.479599 -90.48 
L 92.73311 -90.48 
L 91.986622 -90.48 
L 91.240134 -90.48 
L 90.493645 -90.48 
L 89.747157 -90.48 
L 89.000669 -90.48 
L 88.254181 -90.48 
L 87.507692 -90.48 
L 86.761204 -90.48 
L 86.014716 -90.48 
L 85.268227 -90.48 
L 84.521739 -90.48 
L 83.775251 -90.48 
L 83.028763 -90.48 
L 82.282274 -90.48 
L 81.535786 -90.48 
L 80.789298 -90.48 
L 80.042809 -90.48 
L 79.296321 -90.48 
L 78.549833 -90.48 
L 77.803344 -90.48 
L 77.056856 -90.48 
L 76.310368 -90.48 
L 75.56388 -90.48 
L 74.817391 -90.48 
L 74.070903 -90.48 
L 73.324415 -90.48 
L 72.577926 -90.48 
L 71.831438 -90.48 
L 71.08495 -90.48 
L 70.338462 -90.48 
L 69.591973 -90.48 
L 68.845485 -90.48 
L 68.098997 -90.48 
L 67.352508 -90.48 
L 66.60602 -90.48 
L 65.859532 -90.48 
L 65.113043 -90.48 
L 64.366555 -90.48 
L 63.620067 -90.48 
L 62.873579 -90.48 
L 62.12709 -90.48 
L 61.380602 -90.48 
L 60.634114 -90.48 
L 59.887625 -90.48 
L 59.141137 -90.48 
L 58.394649 -90.48 
L 57.648161 -90.48 
L 56.901672 -90.48 
L 56.155184 -90.48 
L 55.408696 -90.48 
L 54.662207 -90.48 
L 53.915719 -90.48 
L 53.169231 -90.48 
L 52.422742 -90.48 
L 51.676254 -90.48 
L 50.929766 -90.48 
L 50.183278 -90.48 
L 49.436789 -90.48 
L 48.690301 -90.48 
L 47.943813 -90.48 
L 47.197324 -90.48 
L 46.450836 -90.48 
L 45.704348 -90.48 
L 44.95786 -90.48 
L 44.211371 -90.48 
L 43.464883 -90.48 
L 42.718395 -90.48 
L 41.971906 -90.48 
L 41.225418 -90.48 
L 40.47893 -90.48 
L 39.732441 -90.48 
L 38.985953 -90.48 
L 38.239465 -90.48 
L 37.492977 -90.48 
L 36.746488 -90.48 
L 36 -90.48 
z
" id="mec77b6599b" style="stroke:#d9d9d9;"/>
    </defs>
    <g clip-path="url(#p5206dade85)">
     <use style="fill:#d9d9d9;stroke:#d9d9d9;" x="0" xlink:href="#mec77b6599b" y="144"/>
    </g>
   </g>
   <g id="matplotlib.axis_1">
    <g id="xtick_1">
     <g id="line2d_1">
      <defs>
       <path d="M 0 0 
L 0 3.5 
" id="m72dba7e966" style="stroke:#000000;stroke-width:0.8;"/>
      </defs>
      <g>
       <use style="stroke:#000000;stroke-width:0.8;" x="36" xlink:href="#m72dba7e966" y="126"/>
      </g>
     </g>
     <g id="text_1">
      <!-- 0 -->
      <defs>
       <path d="M 31.78125 66.40625 
Q 24.171875 66.40625 20.328125 58.90625 
Q 16.5 51.421875 16.5 36.375 
Q 16.5 21.390625 20.328125 13.890625 
Q 24.171875 6.390625 31.78125 6.390625 
Q 39.453125 6.390625 43.28125 13.890625 
Q 47.125 21.390625 47.125 36.375 
Q 47.125 51.421875 43.28125 58.90625 
Q 39.453125 66.40625 31.78125 66.40625 
z
M 31.78125 74.21875 
Q 44.046875 74.21875 50.515625 64.515625 
Q 56.984375 54.828125 56.984375 36.375 
Q 56.984375 17.96875 50.515625 8.265625 
Q 44.046875 -1.421875 31.78125 -1.421875 
Q 19.53125 -1.421875 13.0625 8.265625 
Q 6.59375 17.96875 6.59375 36.375 
Q 6.59375 54.828125 13.0625 64.515625 
Q 19.53125 74.21875 31.78125 74.21875 
z
" id="DejaVuSans-30"/>
      </defs>
      <g transform="translate(32.81875 140.598437)scale(0.1 -0.1)">
       <use xlink:href="#DejaVuSans-30"/>
      </g>
     </g>
    </g>
    <g id="xtick_2">
     <g id="line2d_2">
      <g>
       <use style="stroke:#000000;stroke-width:0.8;" x="80.64" xlink:href="#m72dba7e966" y="126"/>
      </g>
     </g>
     <g id="text_2">
      <!-- 2 -->
      <defs>
       <path d="M 19.1875 8.296875 
L 53.609375 8.296875 
L 53.609375 0 
L 7.328125 0 
L 7.328125 8.296875 
Q 12.9375 14.109375 22.625 23.890625 
Q 32.328125 33.6875 34.8125 36.53125 
Q 39.546875 41.84375 41.421875 45.53125 
Q 43.3125 49.21875 43.3125 52.78125 
Q 43.3125 58.59375 39.234375 62.25 
Q 35.15625 65.921875 28.609375 65.921875 
Q 23.96875 65.921875 18.8125 64.3125 
Q 13.671875 62.703125 7.8125 59.421875 
L 7.8125 69.390625 
Q 13.765625 71.78125 18.9375 73 
Q 24.125 74.21875 28.421875 74.21875 
Q 39.75 74.21875 46.484375 68.546875 
Q 53.21875 62.890625 53.21875 53.421875 
Q 53.21875 48.921875 51.53125 44.890625 
Q 49.859375 40.875 45.40625 35.40625 
Q 44.1875 33.984375 37.640625 27.21875 
Q 31.109375 20.453125 19.1875 8.296875 
z
" id="DejaVuSans-32"/>
      </defs>
      <g transform="translate(77.45875 140.598437)scale(0.1 -0.1)">
       <use xlink:href="#DejaVuSans-32"/>
      </g>
     </g>
    </g>
    <g id="xtick_3">
     <g id="line2d_3">
      <g>
       <use style="stroke:#000000;stroke-width:0.8;" x="125.28" xlink:href="#m72dba7e966" y="126"/>
      </g>
     </g>
     <g id="text_3">
      <!-- 4 -->
      <defs>
       <path d="M 37.796875 64.3125 
L 12.890625 25.390625 
L 37.796875 25.390625 
z
M 35.203125 72.90625 
L 47.609375 72.90625 
L 47.609375 25.390625 
L 58.015625 25.390625 
L 58.015625 17.1875 
L 47.609375 17.1875 
L 47.609375 0 
L 37.796875 0 
L 37.796875 17.1875 
L 4.890625 17.1875 
L 4.890625 26.703125 
z
" id="DejaVuSans-34"/>
      </defs>
      <g transform="translate(122.09875 140.598437)scale(0.1 -0.1)">
       <use xlink:href="#DejaVuSans-34"/>
      </g>
     </g>
    </g>
    <g id="xtick_4">
     <g id="line2d_4">
      <g>
       <use style="stroke:#000000;stroke-width:0.8;" x="169.92" xlink:href="#m72dba7e966" y="126"/>
      </g>
     </g>
     <g id="text_4">
      <!-- 6 -->
      <defs>
       <path d="M 33.015625 40.375 
Q 26.375 40.375 22.484375 35.828125 
Q 18.609375 31.296875 18.609375 23.390625 
Q 18.609375 15.53125 22.484375 10.953125 
Q 26.375 6.390625 33.015625 6.390625 
Q 39.65625 6.390625 43.53125 10.953125 
Q 47.40625 15.53125 47.40625 23.390625 
Q 47.40625 31.296875 43.53125 35.828125 
Q 39.65625 40.375 33.015625 40.375 
z
M 52.59375 71.296875 
L 52.59375 62.3125 
Q 48.875 64.0625 45.09375 64.984375 
Q 41.3125 65.921875 37.59375 65.921875 
Q 27.828125 65.921875 22.671875 59.328125 
Q 17.53125 52.734375 16.796875 39.40625 
Q 19.671875 43.65625 24.015625 45.921875 
Q 28.375 48.1875 33.59375 48.1875 
Q 44.578125 48.1875 50.953125 41.515625 
Q 57.328125 34.859375 57.328125 23.390625 
Q 57.328125 12.15625 50.6875 5.359375 
Q 44.046875 -1.421875 33.015625 -1.421875 
Q 20.359375 -1.421875 13.671875 8.265625 
Q 6.984375 17.96875 6.984375 36.375 
Q 6.984375 53.65625 15.1875 63.9375 
Q 23.390625 74.21875 37.203125 74.21875 
Q 40.921875 74.21875 44.703125 73.484375 
Q 48.484375 72.75 52.59375 71.296875 
z
" id="DejaVuSans-36"/>
      </defs>
      <g transform="translate(166.73875 140.598437)scale(0.1 -0.1)">
       <use xlink:href="#DejaVuSans-36"/>
      </g>
     </g>
    </g>
    <g id="xtick_5">
     <g id="line2d_5">
      <g>
       <use style="stroke:#000000;stroke-width:0.8;" x="214.56" xlink:href="#m72dba7e966" y="126"/>
      </g>
     </g>
     <g id="text_5">
      <!-- 8 -->
      <defs>
       <path d="M 31.78125 34.625 
Q 24.75 34.625 20.71875 30.859375 
Q 16.703125 27.09375 16.703125 20.515625 
Q 16.703125 13.921875 20.71875 10.15625 
Q 24.75 6.390625 31.78125 6.390625 
Q 38.8125 6.390625 42.859375 10.171875 
Q 46.921875 13.96875 46.921875 20.515625 
Q 46.921875 27.09375 42.890625 30.859375 
Q 38.875 34.625 31.78125 34.625 
z
M 21.921875 38.8125 
Q 15.578125 40.375 12.03125 44.71875 
Q 8.5 49.078125 8.5 55.328125 
Q 8.5 64.0625 14.71875 69.140625 
Q 20.953125 74.21875 31.78125 74.21875 
Q 42.671875 74.21875 48.875 69.140625 
Q 55.078125 64.0625 55.078125 55.328125 
Q 55.078125 49.078125 51.53125 44.71875 
Q 48 40.375 41.703125 38.8125 
Q 48.828125 37.15625 52.796875 32.3125 
Q 56.78125 27.484375 56.78125 20.515625 
Q 56.78125 9.90625 50.3125 4.234375 
Q 43.84375 -1.421875 31.78125 -1.421875 
Q 19.734375 -1.421875 13.25 4.234375 
Q 6.78125 9.90625 6.78125 20.515625 
Q 6.78125 27.484375 10.78125 32.3125 
Q 14.796875 37.15625 21.921875 38.8125 
z
M 18.3125 54.390625 
Q 18.3125 48.734375 21.84375 45.5625 
Q 25.390625 42.390625 31.78125 42.390625 
Q 38.140625 42.390625 41.71875 45.5625 
Q 45.3125 48.734375 45.3125 54.390625 
Q 45.3125 60.0625 41.71875 63.234375 
Q 38.140625 66.40625 31.78125 66.40625 
Q 25.390625 66.40625 21.84375 63.234375 
Q 18.3125 60.0625 18.3125 54.390625 
z
" id="DejaVuSans-38"/>
      </defs>
      <g transform="translate(211.37875 140.598437)scale(0.1 -0.1)">
       <use xlink:href="#DejaVuSans-38"/>
      </g>
     </g>
    </g>
    <g id="xtick_6">
     <g id="line2d_6">
      <g>
       <use style="stroke:#000000;stroke-width:0.8;" x="259.2" xlink:href="#m72dba7e966" y="126"/>
      </g>
     </g>
     <g id="text_6">
      <!-- 10 -->
      <defs>
       <path d="M 12.40625 8.296875 
L 28.515625 8.296875 
L 28.515625 63.921875 
L 10.984375 60.40625 
L 10.984375 69.390625 
L 28.421875 72.90625 
L 38.28125 72.90625 
L 38.28125 8.296875 
L 54.390625 8.296875 
L 54.390625 0 
L 12.40625 0 
z
" id="DejaVuSans-31"/>
      </defs>
      <g transform="translate(252.8375 140.598437)scale(0.1 -0.1)">
       <use xlink:href="#DejaVuSans-31"/>
       <use x="63.623047" xlink:href="#DejaVuSans-30"/>
      </g>
     </g>
    </g>
   </g>
   <g id="matplotlib.axis_2">
    <g id="ytick_1">
     <g id="line2d_7">
      <defs>
       <path d="M 0 0 
L -3.5 0 
" id="mae14ae810a" style="stroke:#000000;stroke-width:0.8;"/>
      </defs>
      <g>
       <use style="stroke:#000000;stroke-width:0.8;" x="36" xlink:href="#mae14ae810a" y="107.88"/>
      </g>
     </g>
     <g id="text_7">
      <!-- −2 -->
      <defs>
       <path d="M 10.59375 35.5 
L 73.1875 35.5 
L 73.1875 27.203125 
L 10.59375 27.203125 
z
" id="DejaVuSans-2212"/>
      </defs>
      <g transform="translate(14.257812 111.679219)scale(0.1 -0.1)">
       <use xlink:href="#DejaVuSans-2212"/>
       <use x="83.789062" xlink:href="#DejaVuSans-32"/>
      </g>
     </g>
    </g>
    <g id="ytick_2">
     <g id="line2d_8">
      <g>
       <use style="stroke:#000000;stroke-width:0.8;" x="36" xlink:href="#mae14ae810a" y="71.64"/>
      </g>
     </g>
     <g id="text_8">
      <!-- 0 -->
      <g transform="translate(22.6375 75.439219)scale(0.1 -0.1)">
       <use xlink:href="#DejaVuSans-30"/>
      </g>
     </g>
    </g>
    <g id="ytick_3">
     <g id="line2d_9">
      <g>
       <use style="stroke:#000000;stroke-width:0.8;" x="36" xlink:href="#mae14ae810a" y="35.4"/>
      </g>
     </g>
     <g id="text_9">
      <!-- 2 -->
      <g transform="translate(22.6375 39.199219)scale(0.1 -0.1)">
       <use xlink:href="#DejaVuSans-32"/>
      </g>
     </g>
    </g>
   </g>
   <g id="line2d_10">
    <path clip-path="url(#p5206dade85)" d="M 36 71.64 
L 259.2 71.64 
L 259.2 71.64 
" style="fill:none;stroke:#1f77b4;stroke-linecap:square;stroke-width:1.5;"/>
   </g>
   <g id="patch_3">
    <path d="M 36 126 
L 36 17.28 
" style="fill:none;stroke:#000000;stroke-linecap:square;stroke-linejoin:miter;stroke-width:0.8;"/>
   </g>
   <g id="patch_4">
    <path d="M 259.2 126 
L 259.2 17.28 
" style="fill:none;stroke:#000000;stroke-linecap:square;stroke-linejoin:miter;stroke-width:0.8;"/>
   </g>
   <g id="patch_5">
    <path d="M 36 126 
L 259.2 126 
" style="fill:none;stroke:#000000;stroke-linecap:square;stroke-linejoin:miter;stroke-width:0.8;"/>
   </g>
   <g id="patch_6">
    <path d="M 36 17.28 
L 259.2 17.28 
" style="fill:none;stroke:#000000;stroke-linecap:square;stroke-linejoin:miter;stroke-width:0.8;"/>
   </g>
  </g>
 </g>
 <defs>
  <clipPath id="p5206dade85">
   <rect height="108.72" width="223.2" x="36" y="17.28"/>
  </clipPath>
 </defs>
</svg>
