<?xml version="1.0" encoding="utf-8" standalone="no"?>
<!DOCTYPE svg PUBLIC "-//W3C//DTD SVG 1.1//EN"
  "http://www.w3.org/Graphics/SVG/1.1/DTD/svg11.dtd">
<!-- Created with matplotlib (http://matplotlib.org/) -->
<svg height="144pt" version="1.1" viewBox="0 0 288 144" width="288pt" xmlns="http://www.w3.org/2000/svg" xmlns:xlink="http://www.w3.org/1999/xlink">
 <defs>
  <style type="text/css">
*{stroke-linecap:butt;stroke-linejoin:round;}
  </style>
 </defs>
 <g id="figure_1">
  <g id="patch_1">
   <path d="M 0 144 
L 288 144 
L 288 0 
L 0 0 
z
" style="fill:#ffffff;"/>
  </g>
  <g id="axes_1">
   <g id="patch_2">
    <path d="M 36 126 
L 259.2 126 
L 259.2 17.28 
L 36 17.28 
z
" style="fill:#ffffff;"/>
   </g>
   <g id="matplotlib.axis_1">
    <g id="xtick_1">
     <g id="line2d_1">
      <defs>
       <path d="M 0 0 
L 0 3.5 
" id="mf5a73123cb" style="stroke:#000000;stroke-width:0.8;"/>
      </defs>
      <g>
       <use style="stroke:#000000;stroke-width:0.8;" x="36" xlink:href="#mf5a73123cb" y="126"/>
      </g>
     </g>
     <g id="text_1">
      <!-- 0 -->
      <defs>
       <path d="M 31.78125 66.40625 
Q 24.171875 66.40625 20.328125 58.90625 
Q 16.5 51.421875 16.5 36.375 
Q 16.5 21.390625 20.328125 13.890625 
Q 24.171875 6.390625 31.78125 6.390625 
Q 39.453125 6.390625 43.28125 13.890625 
Q 47.125 21.390625 47.125 36.375 
Q 47.125 51.421875 43.28125 58.90625 
Q 39.453125 66.40625 31.78125 66.40625 
z
M 31.78125 74.21875 
Q 44.046875 74.21875 50.515625 64.515625 
Q 56.984375 54.828125 56.984375 36.375 
Q 56.984375 17.96875 50.515625 8.265625 
Q 44.046875 -1.421875 31.78125 -1.421875 
Q 19.53125 -1.421875 13.0625 8.265625 
Q 6.59375 17.96875 6.59375 36.375 
Q 6.59375 54.828125 13.0625 64.515625 
Q 19.53125 74.21875 31.78125 74.21875 
z
" id="DejaVuSans-30"/>
      </defs>
      <g transform="translate(32.81875 140.598437)scale(0.1 -0.1)">
       <use xlink:href="#DejaVuSans-30"/>
      </g>
     </g>
    </g>
    <g id="xtick_2">
     <g id="line2d_2">
      <g>
       <use style="stroke:#000000;stroke-width:0.8;" x="80.64" xlink:href="#mf5a73123cb" y="126"/>
      </g>
     </g>
     <g id="text_2">
      <!-- 2 -->
      <defs>
       <path d="M 19.1875 8.296875 
L 53.609375 8.296875 
L 53.609375 0 
L 7.328125 0 
L 7.328125 8.296875 
Q 12.9375 14.109375 22.625 23.890625 
Q 32.328125 33.6875 34.8125 36.53125 
Q 39.546875 41.84375 41.421875 45.53125 
Q 43.3125 49.21875 43.3125 52.78125 
Q 43.3125 58.59375 39.234375 62.25 
Q 35.15625 65.921875 28.609375 65.921875 
Q 23.96875 65.921875 18.8125 64.3125 
Q 13.671875 62.703125 7.8125 59.421875 
L 7.8125 69.390625 
Q 13.765625 71.78125 18.9375 73 
Q 24.125 74.21875 28.421875 74.21875 
Q 39.75 74.21875 46.484375 68.546875 
Q 53.21875 62.890625 53.21875 53.421875 
Q 53.21875 48.921875 51.53125 44.890625 
Q 49.859375 40.875 45.40625 35.40625 
Q 44.1875 33.984375 37.640625 27.21875 
Q 31.109375 20.453125 19.1875 8.296875 
z
" id="DejaVuSans-32"/>
      </defs>
      <g transform="translate(77.45875 140.598437)scale(0.1 -0.1)">
       <use xlink:href="#DejaVuSans-32"/>
      </g>
     </g>
    </g>
    <g id="xtick_3">
     <g id="line2d_3">
      <g>
       <use style="stroke:#000000;stroke-width:0.8;" x="125.28" xlink:href="#mf5a73123cb" y="126"/>
      </g>
     </g>
     <g id="text_3">
      <!-- 4 -->
      <defs>
       <path d="M 37.796875 64.3125 
L 12.890625 25.390625 
L 37.796875 25.390625 
z
M 35.203125 72.90625 
L 47.609375 72.90625 
L 47.609375 25.390625 
L 58.015625 25.390625 
L 58.015625 17.1875 
L 47.609375 17.1875 
L 47.609375 0 
L 37.796875 0 
L 37.796875 17.1875 
L 4.890625 17.1875 
L 4.890625 26.703125 
z
" id="DejaVuSans-34"/>
      </defs>
      <g transform="translate(122.09875 140.598437)scale(0.1 -0.1)">
       <use xlink:href="#DejaVuSans-34"/>
      </g>
     </g>
    </g>
    <g id="xtick_4">
     <g id="line2d_4">
      <g>
       <use style="stroke:#000000;stroke-width:0.8;" x="169.92" xlink:href="#mf5a73123cb" y="126"/>
      </g>
     </g>
     <g id="text_4">
      <!-- 6 -->
      <defs>
       <path d="M 33.015625 40.375 
Q 26.375 40.375 22.484375 35.828125 
Q 18.609375 31.296875 18.609375 23.390625 
Q 18.609375 15.53125 22.484375 10.953125 
Q 26.375 6.390625 33.015625 6.390625 
Q 39.65625 6.390625 43.53125 10.953125 
Q 47.40625 15.53125 47.40625 23.390625 
Q 47.40625 31.296875 43.53125 35.828125 
Q 39.65625 40.375 33.015625 40.375 
z
M 52.59375 71.296875 
L 52.59375 62.3125 
Q 48.875 64.0625 45.09375 64.984375 
Q 41.3125 65.921875 37.59375 65.921875 
Q 27.828125 65.921875 22.671875 59.328125 
Q 17.53125 52.734375 16.796875 39.40625 
Q 19.671875 43.65625 24.015625 45.921875 
Q 28.375 48.1875 33.59375 48.1875 
Q 44.578125 48.1875 50.953125 41.515625 
Q 57.328125 34.859375 57.328125 23.390625 
Q 57.328125 12.15625 50.6875 5.359375 
Q 44.046875 -1.421875 33.015625 -1.421875 
Q 20.359375 -1.421875 13.671875 8.265625 
Q 6.984375 17.96875 6.984375 36.375 
Q 6.984375 53.65625 15.1875 63.9375 
Q 23.390625 74.21875 37.203125 74.21875 
Q 40.921875 74.21875 44.703125 73.484375 
Q 48.484375 72.75 52.59375 71.296875 
z
" id="DejaVuSans-36"/>
      </defs>
      <g transform="translate(166.73875 140.598437)scale(0.1 -0.1)">
       <use xlink:href="#DejaVuSans-36"/>
      </g>
     </g>
    </g>
    <g id="xtick_5">
     <g id="line2d_5">
      <g>
       <use style="stroke:#000000;stroke-width:0.8;" x="214.56" xlink:href="#mf5a73123cb" y="126"/>
      </g>
     </g>
     <g id="text_5">
      <!-- 8 -->
      <defs>
       <path d="M 31.78125 34.625 
Q 24.75 34.625 20.71875 30.859375 
Q 16.703125 27.09375 16.703125 20.515625 
Q 16.703125 13.921875 20.71875 10.15625 
Q 24.75 6.390625 31.78125 6.390625 
Q 38.8125 6.390625 42.859375 10.171875 
Q 46.921875 13.96875 46.921875 20.515625 
Q 46.921875 27.09375 42.890625 30.859375 
Q 38.875 34.625 31.78125 34.625 
z
M 21.921875 38.8125 
Q 15.578125 40.375 12.03125 44.71875 
Q 8.5 49.078125 8.5 55.328125 
Q 8.5 64.0625 14.71875 69.140625 
Q 20.953125 74.21875 31.78125 74.21875 
Q 42.671875 74.21875 48.875 69.140625 
Q 55.078125 64.0625 55.078125 55.328125 
Q 55.078125 49.078125 51.53125 44.71875 
Q 48 40.375 41.703125 38.8125 
Q 48.828125 37.15625 52.796875 32.3125 
Q 56.78125 27.484375 56.78125 20.515625 
Q 56.78125 9.90625 50.3125 4.234375 
Q 43.84375 -1.421875 31.78125 -1.421875 
Q 19.734375 -1.421875 13.25 4.234375 
Q 6.78125 9.90625 6.78125 20.515625 
Q 6.78125 27.484375 10.78125 32.3125 
Q 14.796875 37.15625 21.921875 38.8125 
z
M 18.3125 54.390625 
Q 18.3125 48.734375 21.84375 45.5625 
Q 25.390625 42.390625 31.78125 42.390625 
Q 38.140625 42.390625 41.71875 45.5625 
Q 45.3125 48.734375 45.3125 54.390625 
Q 45.3125 60.0625 41.71875 63.234375 
Q 38.140625 66.40625 31.78125 66.40625 
Q 25.390625 66.40625 21.84375 63.234375 
Q 18.3125 60.0625 18.3125 54.390625 
z
" id="DejaVuSans-38"/>
      </defs>
      <g transform="translate(211.37875 140.598437)scale(0.1 -0.1)">
       <use xlink:href="#DejaVuSans-38"/>
      </g>
     </g>
    </g>
    <g id="xtick_6">
     <g id="line2d_6">
      <g>
       <use style="stroke:#000000;stroke-width:0.8;" x="259.2" xlink:href="#mf5a73123cb" y="126"/>
      </g>
     </g>
     <g id="text_6">
      <!-- 10 -->
      <defs>
       <path d="M 12.40625 8.296875 
L 28.515625 8.296875 
L 28.515625 63.921875 
L 10.984375 60.40625 
L 10.984375 69.390625 
L 28.421875 72.90625 
L 38.28125 72.90625 
L 38.28125 8.296875 
L 54.390625 8.296875 
L 54.390625 0 
L 12.40625 0 
z
" id="DejaVuSans-31"/>
      </defs>
      <g transform="translate(252.8375 140.598437)scale(0.1 -0.1)">
       <use xlink:href="#DejaVuSans-31"/>
       <use x="63.623047" xlink:href="#DejaVuSans-30"/>
      </g>
     </g>
    </g>
   </g>
   <g id="matplotlib.axis_2">
    <g id="ytick_1">
     <g id="line2d_7">
      <defs>
       <path d="M 0 0 
L -3.5 0 
" id="m02caf45386" style="stroke:#000000;stroke-width:0.8;"/>
      </defs>
      <g>
       <use style="stroke:#000000;stroke-width:0.8;" x="36" xlink:href="#m02caf45386" y="107.88"/>
      </g>
     </g>
     <g id="text_7">
      <!-- −2 -->
      <defs>
       <path d="M 10.59375 35.5 
L 73.1875 35.5 
L 73.1875 27.203125 
L 10.59375 27.203125 
z
" id="DejaVuSans-2212"/>
      </defs>
      <g transform="translate(14.257812 111.679219)scale(0.1 -0.1)">
       <use xlink:href="#DejaVuSans-2212"/>
       <use x="83.789062" xlink:href="#DejaVuSans-32"/>
      </g>
     </g>
    </g>
    <g id="ytick_2">
     <g id="line2d_8">
      <g>
       <use style="stroke:#000000;stroke-width:0.8;" x="36" xlink:href="#m02caf45386" y="71.64"/>
      </g>
     </g>
     <g id="text_8">
      <!-- 0 -->
      <g transform="translate(22.6375 75.439219)scale(0.1 -0.1)">
       <use xlink:href="#DejaVuSans-30"/>
      </g>
     </g>
    </g>
    <g id="ytick_3">
     <g id="line2d_9">
      <g>
       <use style="stroke:#000000;stroke-width:0.8;" x="36" xlink:href="#m02caf45386" y="35.4"/>
      </g>
     </g>
     <g id="text_9">
      <!-- 2 -->
      <g transform="translate(22.6375 39.199219)scale(0.1 -0.1)">
       <use xlink:href="#DejaVuSans-32"/>
      </g>
     </g>
    </g>
   </g>
   <g id="line2d_10">
    <path clip-path="url(#pd45b58b0a9)" d="M 36 99.82205 
L 36.746488 100.085616 
L 38.239465 101.046319 
L 43.464883 101.466098 
L 44.211371 101.739429 
L 45.704348 102.638104 
L 46.450836 102.793219 
L 50.929766 102.387213 
L 51.676254 102.05574 
L 52.422742 101.998403 
L 53.169231 101.772461 
L 53.915719 101.700118 
L 56.155184 101.052884 
L 56.901672 100.819005 
L 57.648161 100.425446 
L 59.141137 99.980751 
L 59.887625 99.432969 
L 60.634114 99.301999 
L 61.380602 99.048426 
L 62.12709 98.525766 
L 62.873579 98.193574 
L 65.113043 96.547331 
L 65.859532 96.21826 
L 67.352508 95.919441 
L 68.098997 95.966423 
L 68.845485 95.668609 
L 70.338462 94.954116 
L 73.324415 94.023933 
L 74.070903 93.605975 
L 74.817391 93.049092 
L 77.803344 91.368077 
L 78.549833 90.901533 
L 79.296321 90.774802 
L 83.028763 87.934654 
L 84.521739 86.919352 
L 86.014716 85.62751 
L 86.761204 84.863746 
L 89.747157 82.687947 
L 91.240134 81.57159 
L 94.226087 78.244566 
L 97.21204 75.648357 
L 98.705017 74.114958 
L 99.451505 73.504731 
L 100.197993 72.669409 
L 100.944482 72.289477 
L 101.69097 72.058991 
L 102.437458 71.622053 
L 103.930435 71.781077 
L 104.676923 71.640196 
L 105.423411 71.667452 
L 106.916388 72.206063 
L 108.409365 72.029486 
L 111.395318 70.862255 
L 112.141806 70.701561 
L 112.888294 70.687997 
L 114.381271 69.730382 
L 115.127759 69.338753 
L 117.367224 69.267643 
L 118.860201 69.147739 
L 122.592642 67.165533 
L 123.33913 66.898044 
L 124.832107 67.30119 
L 125.578595 67.584052 
L 127.81806 67.982329 
L 128.564548 68.292393 
L 129.311037 68.42786 
L 130.804013 69.063686 
L 131.550502 69.186025 
L 133.789967 70.207293 
L 134.536455 70.524569 
L 136.029431 70.888484 
L 136.77592 70.898435 
L 137.522408 71.116106 
L 139.015385 71.899324 
L 140.508361 72.28497 
L 141.254849 72.490387 
L 142.001338 72.484723 
L 143.494314 72.769518 
L 144.240803 72.585802 
L 145.733779 71.659402 
L 146.480268 71.33897 
L 148.719732 69.387945 
L 149.466221 68.738239 
L 150.212709 68.410119 
L 152.452174 68.572057 
L 153.945151 68.368876 
L 154.691639 67.927464 
L 155.438127 67.285561 
L 157.677592 66.123056 
L 158.42408 66.082414 
L 159.917057 65.30931 
L 160.663545 64.789497 
L 161.410033 64.434719 
L 164.395987 63.587032 
L 167.38194 63.448803 
L 170.367893 62.958574 
L 171.114381 62.912497 
L 171.86087 62.679737 
L 173.353846 61.973683 
L 174.100334 61.848149 
L 174.846823 61.85099 
L 176.339799 62.09326 
L 177.086288 61.954248 
L 177.832776 62.04743 
L 179.325753 61.319387 
L 180.072241 60.718153 
L 180.818729 59.949262 
L 182.311706 59.353313 
L 183.058194 59.073052 
L 183.804682 58.652193 
L 185.297659 57.447152 
L 186.044147 56.916225 
L 186.790635 56.084898 
L 187.537124 55.47419 
L 188.283612 55.065326 
L 189.0301 54.526657 
L 191.269565 53.62402 
L 192.016054 53.542744 
L 192.762542 53.260707 
L 196.494983 50.718391 
L 197.241472 50.409428 
L 198.734448 50.157058 
L 199.480936 49.619636 
L 200.227425 49.300185 
L 200.973913 49.25389 
L 201.720401 48.968532 
L 202.46689 49.035284 
L 203.959866 48.574278 
L 207.692308 48.310926 
L 209.931773 48.604671 
L 212.917726 48.061226 
L 213.664214 48.038731 
L 214.410702 47.811417 
L 215.903679 47.696997 
L 216.650167 47.7773 
L 221.129097 49.142875 
L 221.875585 49.485909 
L 222.622074 49.97145 
L 223.368562 50.628494 
L 224.11505 51.114172 
L 226.354515 52.10828 
L 227.101003 52.776409 
L 228.59398 53.687169 
L 229.340468 54.092864 
L 230.833445 55.089867 
L 233.07291 56.630952 
L 233.819398 57.249152 
L 235.312375 58.93704 
L 236.058863 59.628515 
L 238.298328 62.050826 
L 239.791304 63.423909 
L 244.270234 67.23767 
L 245.763211 68.397366 
L 246.509699 69.095517 
L 247.256187 69.613733 
L 248.749164 71.114008 
L 251.735117 74.596104 
L 253.228094 75.798618 
L 256.214047 78.463892 
L 256.960535 79.232071 
L 257.707023 79.715584 
L 259.2 80.929336 
L 259.2 80.929336 
" style="fill:none;stroke:#1f77b4;stroke-linecap:square;stroke-width:1.5;"/>
   </g>
   <g id="line2d_11">
    <path clip-path="url(#pd45b58b0a9)" d="M 36 72.845357 
L 37.492977 74.125888 
L 38.239465 74.617452 
L 40.47893 76.94622 
L 44.211371 80.281899 
L 45.704348 81.163818 
L 46.450836 81.767278 
L 49.436789 84.889168 
L 50.183278 85.390353 
L 52.422742 87.702056 
L 55.408696 90.6889 
L 56.901672 92.3066 
L 58.394649 93.023342 
L 59.887625 93.200837 
L 63.620067 93.399316 
L 64.366555 93.687955 
L 66.60602 93.91944 
L 68.098997 93.584159 
L 70.338462 93.701101 
L 72.577926 92.679418 
L 73.324415 92.376473 
L 74.817391 91.111824 
L 77.056856 90.434156 
L 77.803344 90.014291 
L 78.549833 89.816265 
L 79.296321 89.961108 
L 80.042809 89.894011 
L 80.789298 89.676666 
L 81.535786 89.257185 
L 83.028763 88.566899 
L 83.775251 88.222606 
L 84.521739 87.719653 
L 85.268227 87.398348 
L 87.507692 85.669003 
L 88.254181 85.384286 
L 89.000669 84.901461 
L 89.747157 84.200546 
L 90.493645 83.330039 
L 91.240134 82.921474 
L 93.479599 80.989634 
L 97.958528 75.775271 
L 98.705017 74.812721 
L 100.944482 72.995919 
L 103.183946 71.427127 
L 103.930435 70.666147 
L 104.676923 70.218656 
L 106.916388 68.356236 
L 108.409365 67.419027 
L 109.902341 66.142487 
L 118.113712 59.899213 
L 118.860201 58.996063 
L 119.606689 58.466983 
L 120.353177 57.773608 
L 121.099666 57.39432 
L 121.846154 57.342105 
L 125.578595 55.625083 
L 127.81806 55.396554 
L 129.311037 55.075959 
L 130.057525 54.860005 
L 132.29699 53.334445 
L 134.536455 52.233957 
L 137.522408 50.094025 
L 139.015385 49.430385 
L 141.254849 48.275214 
L 142.001338 48.249297 
L 143.494314 47.853877 
L 144.240803 47.37258 
L 144.987291 47.405842 
L 145.733779 47.703217 
L 147.226756 47.906743 
L 147.973244 48.281111 
L 149.466221 48.40042 
L 152.452174 49.760298 
L 153.198662 49.88841 
L 154.691639 50.525929 
L 156.184615 51.001603 
L 157.677592 50.859814 
L 159.170569 50.960738 
L 159.917057 50.888153 
L 161.410033 50.476842 
L 162.156522 50.261495 
L 162.90301 50.206002 
L 163.649498 50.286216 
L 164.395987 50.547787 
L 165.888963 50.573806 
L 167.38194 50.906409 
L 168.874916 50.920605 
L 169.621405 50.720989 
L 171.86087 50.964438 
L 174.100334 50.720778 
L 177.832776 51.22857 
L 178.579264 51.502242 
L 179.325753 51.570191 
L 180.818729 52.168439 
L 181.565217 52.268066 
L 182.311706 52.590104 
L 183.058194 52.72776 
L 183.804682 53.056038 
L 184.551171 52.98035 
L 186.790635 53.58609 
L 190.523077 53.838418 
L 191.269565 53.481255 
L 192.762542 53.511182 
L 193.50903 53.734976 
L 194.255518 53.733114 
L 195.002007 53.486536 
L 195.748495 53.612239 
L 196.494983 53.868747 
L 197.241472 53.902783 
L 197.98796 54.084308 
L 198.734448 54.030528 
L 200.227425 53.509861 
L 201.720401 53.098903 
L 203.959866 53.259637 
L 204.706355 52.901974 
L 205.452843 52.818358 
L 206.199331 53.08516 
L 208.438796 53.072953 
L 209.185284 53.243233 
L 209.931773 53.188289 
L 210.678261 53.315611 
L 212.171237 53.306613 
L 214.410702 54.058117 
L 215.157191 53.980619 
L 215.903679 54.060661 
L 216.650167 54.018998 
L 218.889632 54.327862 
L 220.382609 55.246697 
L 222.622074 55.830503 
L 225.608027 57.461534 
L 227.101003 58.193689 
L 228.59398 59.548822 
L 229.340468 59.983046 
L 233.819398 63.374183 
L 234.565886 63.870924 
L 235.312375 64.216976 
L 236.805351 65.472025 
L 238.298328 66.786381 
L 241.284281 69.042497 
L 242.777258 70.490001 
L 243.523746 71.3322 
L 244.270234 71.9295 
L 245.763211 73.488866 
L 248.002676 74.723575 
L 248.749164 74.910815 
L 250.24214 74.796919 
L 250.988629 74.919445 
L 251.735117 75.257223 
L 252.481605 75.267243 
L 253.228094 75.526152 
L 258.453512 78.84157 
L 259.2 79.566697 
L 259.2 79.566697 
" style="fill:none;stroke:#ff7f0e;stroke-linecap:square;stroke-width:1.5;"/>
   </g>
   <g id="line2d_12">
    <path clip-path="url(#pd45b58b0a9)" d="M 36 82.020619 
L 36.746488 82.224166 
L 37.492977 82.218333 
L 38.239465 81.874463 
L 38.985953 81.872508 
L 39.732441 81.71345 
L 40.47893 81.764789 
L 41.225418 81.649535 
L 41.971906 81.769765 
L 42.718395 82.208301 
L 44.211371 83.399388 
L 45.704348 83.55569 
L 47.197324 84.175507 
L 48.690301 84.25005 
L 50.183278 84.69177 
L 50.929766 84.785612 
L 52.422742 84.74415 
L 53.915719 85.624188 
L 54.662207 85.752981 
L 56.155184 86.594367 
L 56.901672 86.716777 
L 58.394649 87.344269 
L 59.141137 87.761531 
L 60.634114 87.784265 
L 61.380602 87.774585 
L 62.12709 88.063671 
L 62.873579 88.148028 
L 64.366555 87.841917 
L 65.859532 88.257594 
L 66.60602 88.529316 
L 67.352508 88.937845 
L 70.338462 89.737348 
L 71.08495 89.556635 
L 71.831438 89.866079 
L 73.324415 90.242578 
L 74.070903 90.240313 
L 74.817391 90.476047 
L 75.56388 90.39388 
L 77.056856 89.966054 
L 78.549833 90.004353 
L 80.042809 89.777677 
L 80.789298 89.705954 
L 82.282274 89.145141 
L 84.521739 88.087194 
L 86.761204 86.934798 
L 87.507692 86.192819 
L 89.000669 85.060125 
L 91.240134 82.935046 
L 91.986622 82.347476 
L 93.479599 81.493207 
L 94.226087 80.736865 
L 94.972575 80.188246 
L 97.958528 77.227787 
L 99.451505 75.429023 
L 100.197993 74.860783 
L 103.183946 71.386231 
L 105.423411 69.133952 
L 106.916388 67.48846 
L 109.155853 64.663696 
L 111.395318 61.734074 
L 112.141806 60.951599 
L 115.127759 57.138913 
L 115.874247 56.181206 
L 116.620736 55.810427 
L 117.367224 55.124152 
L 118.860201 53.24532 
L 120.353177 52.111263 
L 121.099666 51.600485 
L 123.33913 49.527582 
L 124.085619 49.146081 
L 124.832107 48.63608 
L 125.578595 47.843423 
L 128.564548 45.830999 
L 129.311037 45.262446 
L 132.29699 43.71713 
L 134.536455 41.229561 
L 136.029431 40.125651 
L 136.77592 39.720792 
L 137.522408 39.171321 
L 139.015385 37.799657 
L 141.254849 36.155604 
L 143.494314 34.742693 
L 144.987291 34.480011 
L 145.733779 34.556798 
L 146.480268 34.234134 
L 149.466221 33.919555 
L 150.212709 33.591721 
L 152.452174 33.113195 
L 153.945151 32.653037 
L 155.438127 32.358227 
L 156.184615 32.294535 
L 156.931104 32.112342 
L 157.677592 32.135452 
L 159.170569 32.50945 
L 159.917057 32.961169 
L 161.410033 34.065617 
L 162.156522 34.318004 
L 163.649498 35.187754 
L 165.142475 35.420099 
L 165.888963 35.52483 
L 166.635452 35.752107 
L 167.38194 36.101294 
L 168.874916 37.478628 
L 171.114381 39.682242 
L 171.86087 40.379881 
L 174.846823 42.378333 
L 175.593311 42.881267 
L 177.086288 43.488683 
L 179.325753 45.04442 
L 180.818729 46.48176 
L 181.565217 47.021414 
L 183.058194 47.689113 
L 186.044147 50.010111 
L 187.537124 50.581262 
L 188.283612 51.00791 
L 190.523077 51.873866 
L 191.269565 52.477674 
L 193.50903 55.0642 
L 194.255518 56.003955 
L 195.748495 57.284385 
L 196.494983 57.937369 
L 197.241472 58.367327 
L 198.734448 59.797715 
L 200.227425 61.467315 
L 201.720401 63.513131 
L 203.959866 66.027211 
L 206.945819 70.050947 
L 207.692308 70.85153 
L 208.438796 71.487331 
L 209.931773 73.728946 
L 210.678261 74.74184 
L 213.664214 77.412991 
L 214.410702 78.431934 
L 215.157191 79.015736 
L 216.650167 80.72102 
L 221.129097 84.537916 
L 221.875585 85.02811 
L 224.11505 85.93135 
L 226.354515 87.934871 
L 228.59398 88.62327 
L 231.579933 91.265335 
L 232.326421 91.562114 
L 233.819398 92.506727 
L 239.791304 97.584269 
L 241.284281 98.401684 
L 242.777258 98.450664 
L 244.270234 98.792051 
L 245.763211 98.840131 
L 247.256187 99.066979 
L 248.002676 99.420213 
L 248.749164 99.433691 
L 249.495652 99.033199 
L 250.988629 98.606986 
L 252.481605 98.68382 
L 254.72107 99.324972 
L 255.467559 99.449615 
L 257.707023 99.124545 
L 258.453512 98.80659 
L 259.2 98.357916 
L 259.2 98.357916 
" style="fill:none;stroke:#2ca02c;stroke-linecap:square;stroke-width:1.5;"/>
   </g>
   <g id="line2d_13">
    <path clip-path="url(#pd45b58b0a9)" d="M 36 93.107934 
L 37.492977 93.118938 
L 38.985953 93.524989 
L 41.225418 94.575078 
L 44.95786 95.989579 
L 45.704348 96.252915 
L 46.450836 96.349071 
L 47.197324 96.309621 
L 49.436789 96.48976 
L 50.929766 97.071975 
L 51.676254 96.983783 
L 52.422742 96.741339 
L 53.169231 96.629859 
L 53.915719 96.887568 
L 54.662207 96.849591 
L 55.408696 96.616774 
L 56.155184 96.629371 
L 56.901672 96.78077 
L 59.887625 96.942231 
L 60.634114 97.100402 
L 62.12709 96.704367 
L 64.366555 96.559535 
L 65.113043 96.557958 
L 65.859532 96.421339 
L 67.352508 95.883489 
L 68.845485 95.896557 
L 71.08495 94.992799 
L 74.817391 92.852871 
L 76.310368 92.486399 
L 78.549833 90.907394 
L 80.042809 90.325733 
L 80.789298 89.617113 
L 81.535786 89.257221 
L 91.986622 80.705074 
L 92.73311 80.176158 
L 94.226087 79.625826 
L 96.465552 77.87897 
L 98.705017 75.621488 
L 99.451505 74.931813 
L 100.944482 73.085293 
L 101.69097 72.283789 
L 102.437458 71.882054 
L 105.423411 70.867015 
L 106.1699 70.501894 
L 109.902341 69.660385 
L 110.648829 69.24054 
L 111.395318 68.955289 
L 112.141806 68.841981 
L 113.634783 68.255845 
L 115.127759 67.519105 
L 118.113712 65.84545 
L 121.846154 63.753266 
L 123.33913 63.189773 
L 124.085619 62.720081 
L 124.832107 62.486841 
L 126.325084 61.719185 
L 127.071572 61.785892 
L 127.81806 61.333735 
L 128.564548 61.263131 
L 129.311037 61.390743 
L 131.550502 61.167856 
L 132.29699 61.253896 
L 133.043478 61.529229 
L 134.536455 61.628217 
L 136.029431 61.509598 
L 136.77592 61.691628 
L 137.522408 61.702658 
L 138.268896 61.857584 
L 140.508361 61.325504 
L 141.254849 61.581266 
L 142.001338 62.01368 
L 142.747826 62.15576 
L 144.987291 61.798009 
L 145.733779 61.885218 
L 147.226756 62.204382 
L 147.973244 62.710072 
L 148.719732 62.721763 
L 149.466221 62.901181 
L 150.212709 63.19841 
L 151.705686 64.067312 
L 153.945151 64.145746 
L 155.438127 64.095112 
L 156.184615 64.213276 
L 156.931104 64.086824 
L 157.677592 63.684005 
L 158.42408 63.596691 
L 160.663545 63.804076 
L 161.410033 63.622958 
L 162.90301 63.395331 
L 163.649498 63.257045 
L 166.635452 63.677503 
L 168.874916 62.920059 
L 172.607358 62.739422 
L 174.100334 61.646932 
L 175.593311 60.750579 
L 176.339799 60.233818 
L 177.086288 60.010728 
L 177.832776 59.439606 
L 178.579264 59.048473 
L 180.072241 57.668755 
L 180.818729 57.187172 
L 182.311706 56.764596 
L 183.058194 56.40816 
L 184.551171 56.176642 
L 187.537124 54.21375 
L 188.283612 54.091288 
L 189.776589 53.540424 
L 191.269565 53.60695 
L 192.016054 53.496722 
L 192.762542 53.546653 
L 193.50903 53.878742 
L 194.255518 54.009791 
L 195.002007 53.983247 
L 195.748495 54.088561 
L 200.227425 53.956016 
L 200.973913 54.164739 
L 201.720401 54.210186 
L 204.706355 53.975959 
L 206.199331 54.285993 
L 206.945819 54.731429 
L 207.692308 54.933414 
L 208.438796 54.870051 
L 209.185284 54.993183 
L 209.931773 55.232855 
L 210.678261 55.12182 
L 211.424749 55.321418 
L 212.917726 55.48455 
L 214.410702 55.065825 
L 215.157191 54.996114 
L 217.396656 55.252658 
L 218.143144 55.450671 
L 219.63612 55.126582 
L 220.382609 54.896669 
L 221.129097 54.541127 
L 221.875585 54.488325 
L 222.622074 54.316206 
L 223.368562 54.004603 
L 224.861538 52.887074 
L 227.847492 52.022689 
L 229.340468 51.718675 
L 230.086957 51.543613 
L 231.579933 51.665777 
L 232.326421 51.723473 
L 233.07291 52.008185 
L 233.819398 52.092578 
L 235.312375 52.613822 
L 236.058863 52.696274 
L 237.551839 53.00658 
L 239.791304 53.194766 
L 243.523746 54.019826 
L 244.270234 54.295579 
L 245.763211 53.905987 
L 246.509699 53.971303 
L 248.002676 54.426179 
L 249.495652 54.525019 
L 252.481605 55.646697 
L 254.72107 55.742983 
L 256.960535 54.922476 
L 257.707023 54.928801 
L 258.453512 55.202394 
L 259.2 55.090889 
L 259.2 55.090889 
" style="fill:none;stroke:#d62728;stroke-linecap:square;stroke-width:1.5;"/>
   </g>
   <g id="line2d_14">
    <path clip-path="url(#pd45b58b0a9)" d="M 36 116.455203 
L 37.492977 116.824995 
L 38.239465 116.695616 
L 38.985953 116.323578 
L 43.464883 115.576872 
L 44.211371 115.792042 
L 44.95786 115.806994 
L 46.450836 115.461421 
L 49.436789 112.93587 
L 53.169231 109.647994 
L 56.155184 106.509139 
L 56.901672 105.862264 
L 57.648161 105.449619 
L 58.394649 105.302095 
L 59.141137 104.836408 
L 60.634114 103.295736 
L 62.12709 102.477375 
L 63.620067 101.500749 
L 64.366555 100.976654 
L 65.113043 100.259831 
L 67.352508 98.835133 
L 68.845485 98.551575 
L 70.338462 97.969487 
L 71.08495 97.60607 
L 71.831438 96.910697 
L 72.577926 96.79008 
L 73.324415 96.484807 
L 75.56388 94.721149 
L 76.310368 93.92309 
L 78.549833 91.982581 
L 80.042809 90.177204 
L 81.535786 89.164912 
L 83.028763 87.855052 
L 83.775251 87.306593 
L 86.014716 86.395173 
L 88.254181 85.176506 
L 89.747157 83.682761 
L 91.240134 82.431393 
L 93.479599 80.021512 
L 94.226087 79.482999 
L 101.69097 72.519014 
L 103.930435 70.963642 
L 105.423411 69.90214 
L 106.1699 69.548687 
L 106.916388 69.498561 
L 107.662876 68.93016 
L 109.155853 68.16676 
L 110.648829 67.794946 
L 114.381271 66.288257 
L 115.127759 65.738127 
L 116.620736 64.865098 
L 117.367224 64.209838 
L 118.113712 63.728323 
L 118.860201 63.625376 
L 119.606689 63.258044 
L 123.33913 63.021809 
L 124.085619 63.083872 
L 124.832107 62.874742 
L 127.81806 62.564734 
L 128.564548 61.994558 
L 129.311037 61.586472 
L 130.057525 61.317498 
L 130.804013 61.269591 
L 131.550502 61.38215 
L 132.29699 61.088188 
L 133.043478 60.516395 
L 135.282943 59.562566 
L 136.77592 59.253238 
L 137.522408 59.302443 
L 139.015385 59.787451 
L 141.254849 59.85476 
L 142.001338 59.583835 
L 143.494314 59.338468 
L 144.240803 59.047051 
L 145.733779 58.794286 
L 150.212709 57.061911 
L 151.705686 55.907061 
L 155.438127 53.749589 
L 156.184615 53.120919 
L 159.170569 51.162529 
L 160.663545 50.241558 
L 161.410033 50.121559 
L 162.156522 50.328788 
L 163.649498 50.445602 
L 165.142475 50.483369 
L 166.635452 50.821035 
L 168.128428 51.280555 
L 169.621405 51.324281 
L 171.114381 51.83962 
L 171.86087 52.052858 
L 172.607358 51.946594 
L 173.353846 52.034213 
L 174.100334 52.567847 
L 174.846823 52.854464 
L 175.593311 52.887094 
L 176.339799 52.772845 
L 177.832776 53.246543 
L 179.325753 53.361955 
L 180.072241 53.561491 
L 181.565217 53.487699 
L 182.311706 53.22201 
L 183.804682 53.470428 
L 186.044147 53.039675 
L 186.790635 53.032986 
L 188.283612 53.303221 
L 192.016054 53.473633 
L 193.50903 53.918292 
L 195.002007 54.294511 
L 196.494983 54.430221 
L 197.241472 54.559098 
L 198.734448 54.526784 
L 200.227425 54.741753 
L 200.973913 55.03978 
L 203.213378 56.259381 
L 203.959866 56.904161 
L 206.199331 58.131504 
L 208.438796 60.657801 
L 209.185284 61.618135 
L 209.931773 62.390887 
L 211.424749 63.519762 
L 212.171237 64.098137 
L 212.917726 64.314289 
L 213.664214 64.817701 
L 214.410702 65.572177 
L 223.368562 72.405432 
L 224.11505 73.143696 
L 224.861538 73.629502 
L 225.608027 73.930095 
L 229.340468 76.034016 
L 230.086957 76.251508 
L 232.326421 77.439966 
L 233.07291 77.404908 
L 234.565886 76.870131 
L 236.058863 76.892981 
L 238.298328 76.977247 
L 239.044816 76.800926 
L 240.537793 77.76755 
L 241.284281 77.915527 
L 242.777258 78.407421 
L 245.016722 78.427943 
L 246.509699 78.334542 
L 247.256187 78.386127 
L 248.002676 78.663717 
L 249.495652 78.467169 
L 250.24214 78.571092 
L 250.988629 78.791795 
L 251.735117 78.890553 
L 252.481605 78.869325 
L 253.974582 79.243968 
L 255.467559 79.253086 
L 258.453512 80.465726 
L 259.2 80.969786 
L 259.2 80.969786 
" style="fill:none;stroke:#9467bd;stroke-linecap:square;stroke-width:1.5;"/>
   </g>
   <g id="line2d_15">
    <path clip-path="url(#pd45b58b0a9)" d="M 36 99.333511 
L 36.746488 99.134307 
L 38.239465 99.328106 
L 39.732441 99.68179 
L 41.225418 99.94604 
L 42.718395 99.84907 
L 44.211371 99.790918 
L 45.704348 99.134961 
L 47.197324 98.083668 
L 47.943813 97.774663 
L 49.436789 97.491883 
L 50.929766 97.055138 
L 52.422742 97.023566 
L 53.169231 97.118952 
L 54.662207 97.816603 
L 59.887625 98.367508 
L 60.634114 98.337354 
L 67.352508 96.271474 
L 68.845485 95.609148 
L 71.08495 94.916087 
L 71.831438 94.893525 
L 72.577926 94.539054 
L 73.324415 94.338124 
L 75.56388 93.302627 
L 76.310368 93.115442 
L 77.056856 92.431266 
L 80.042809 90.413857 
L 80.789298 89.68726 
L 81.535786 89.311823 
L 85.268227 86.703681 
L 87.507692 84.237642 
L 88.254181 83.74962 
L 90.493645 82.755174 
L 92.73311 81.78209 
L 94.972575 79.869033 
L 96.465552 78.397776 
L 97.958528 76.878507 
L 98.705017 75.76735 
L 99.451505 74.960368 
L 101.69097 73.227552 
L 103.930435 70.340202 
L 104.676923 69.549594 
L 105.423411 68.932779 
L 106.916388 67.06939 
L 108.409365 65.670017 
L 109.155853 65.177851 
L 110.648829 63.704229 
L 111.395318 62.51579 
L 112.888294 60.739676 
L 113.634783 59.942083 
L 115.127759 58.782972 
L 116.620736 58.077217 
L 120.353177 56.358056 
L 121.846154 55.505742 
L 123.33913 54.05835 
L 124.085619 53.681252 
L 124.832107 53.030306 
L 125.578595 52.647061 
L 126.325084 52.503037 
L 128.564548 51.48426 
L 129.311037 51.274667 
L 130.057525 51.22111 
L 130.804013 51.288357 
L 132.29699 50.965003 
L 133.043478 50.918188 
L 133.789967 51.032974 
L 135.282943 51.045921 
L 136.029431 51.687068 
L 137.522408 52.009873 
L 139.015385 52.679008 
L 141.254849 53.655328 
L 142.747826 54.588986 
L 143.494314 54.513872 
L 144.240803 54.817122 
L 146.480268 56.19206 
L 147.973244 56.658639 
L 148.719732 56.850202 
L 149.466221 56.898038 
L 151.705686 57.482135 
L 152.452174 57.425482 
L 153.198662 57.596455 
L 154.691639 57.253093 
L 157.677592 56.457282 
L 158.42408 56.083621 
L 159.170569 55.946467 
L 159.917057 55.406142 
L 163.649498 53.693777 
L 164.395987 53.637495 
L 167.38194 52.411564 
L 168.874916 52.113581 
L 169.621405 51.792759 
L 170.367893 51.61995 
L 171.86087 50.841895 
L 174.100334 50.713123 
L 175.593311 50.956053 
L 177.086288 51.717521 
L 178.579264 51.862773 
L 179.325753 51.827055 
L 180.072241 51.98421 
L 180.818729 51.969031 
L 181.565217 51.783248 
L 186.044147 51.812049 
L 186.790635 51.98917 
L 187.537124 52.471484 
L 188.283612 52.669345 
L 189.0301 52.996423 
L 189.776589 53.003495 
L 191.269565 53.359689 
L 194.255518 54.082178 
L 195.748495 54.130137 
L 197.98796 54.355766 
L 199.480936 54.317803 
L 200.973913 54.658192 
L 201.720401 54.851141 
L 203.959866 54.609299 
L 206.199331 55.343359 
L 206.945819 55.148843 
L 209.185284 55.564789 
L 209.931773 55.783443 
L 210.678261 55.881769 
L 211.424749 56.159761 
L 212.171237 56.778678 
L 213.664214 57.54701 
L 215.157191 57.823991 
L 215.903679 58.028193 
L 218.143144 58.317416 
L 218.889632 58.429537 
L 219.63612 58.412396 
L 220.382609 58.55707 
L 223.368562 58.610399 
L 225.608027 58.231557 
L 226.354515 58.125402 
L 227.101003 57.848742 
L 227.847492 57.721494 
L 228.59398 57.850897 
L 229.340468 57.8448 
L 230.086957 57.616204 
L 233.07291 57.488223 
L 234.565886 56.676115 
L 235.312375 56.441545 
L 236.058863 56.37705 
L 237.551839 55.798354 
L 238.298328 55.8144 
L 239.791304 55.564347 
L 240.537793 55.456978 
L 241.284281 55.483356 
L 242.030769 55.091687 
L 242.777258 54.94169 
L 245.016722 54.877336 
L 245.763211 54.704649 
L 246.509699 54.345185 
L 247.256187 54.201099 
L 248.002676 54.201661 
L 249.495652 53.761873 
L 253.974582 51.936648 
L 254.72107 51.466046 
L 256.960535 50.541411 
L 257.707023 50.11611 
L 258.453512 50.146727 
L 259.2 50.064775 
L 259.2 50.064775 
" style="fill:none;stroke:#8c564b;stroke-linecap:square;stroke-width:1.5;"/>
   </g>
   <g id="line2d_16">
    <path clip-path="url(#pd45b58b0a9)" d="M 36 97.644905 
L 36.746488 97.634066 
L 37.492977 97.388391 
L 38.985953 97.372033 
L 39.732441 97.541634 
L 41.225418 98.273918 
L 41.971906 98.338119 
L 42.718395 98.738016 
L 43.464883 98.777378 
L 44.211371 98.61695 
L 45.704348 98.693775 
L 46.450836 98.711098 
L 47.197324 99.063258 
L 47.943813 98.92108 
L 48.690301 98.910692 
L 50.183278 98.380115 
L 50.929766 97.98841 
L 53.169231 97.422406 
L 54.662207 97.352533 
L 55.408696 97.417057 
L 56.155184 97.299216 
L 56.901672 97.406341 
L 58.394649 97.880276 
L 59.141137 98.025318 
L 59.887625 97.918695 
L 61.380602 97.024638 
L 62.873579 96.546522 
L 64.366555 96.11587 
L 65.859532 95.594791 
L 67.352508 95.23517 
L 68.098997 94.81152 
L 68.845485 94.606169 
L 71.08495 93.521868 
L 71.831438 92.849141 
L 74.070903 92.093938 
L 74.817391 92.059883 
L 75.56388 92.138994 
L 76.310368 91.944778 
L 77.056856 91.524096 
L 77.803344 90.937448 
L 79.296321 90.282448 
L 82.282274 88.806676 
L 86.014716 86.877209 
L 86.761204 86.574915 
L 87.507692 86.407884 
L 89.000669 85.487334 
L 90.493645 84.438065 
L 93.479599 82.719649 
L 94.972575 80.961649 
L 97.21204 77.700491 
L 98.705017 76.140646 
L 100.197993 74.728566 
L 102.437458 72.467174 
L 103.930435 70.539632 
L 104.676923 69.773049 
L 105.423411 69.35696 
L 108.409365 66.671214 
L 111.395318 63.754328 
L 112.141806 63.054245 
L 112.888294 62.186495 
L 113.634783 61.509025 
L 114.381271 61.000003 
L 115.127759 60.715367 
L 115.874247 60.306052 
L 118.860201 58.225486 
L 119.606689 58.151466 
L 120.353177 57.870492 
L 123.33913 56.235037 
L 124.832107 55.133963 
L 129.311037 54.471696 
L 131.550502 53.584431 
L 132.29699 53.641305 
L 133.043478 53.379924 
L 134.536455 52.435738 
L 135.282943 52.231157 
L 140.508361 49.743572 
L 141.254849 49.425208 
L 142.747826 49.246576 
L 145.733779 47.895375 
L 146.480268 47.908563 
L 150.212709 49.054126 
L 150.959197 48.953472 
L 153.945151 49.372635 
L 155.438127 49.26827 
L 156.184615 49.182925 
L 158.42408 49.53653 
L 159.170569 49.728085 
L 161.410033 50.688206 
L 162.90301 51.195798 
L 163.649498 51.513377 
L 164.395987 51.671978 
L 165.142475 51.983741 
L 165.888963 52.037826 
L 167.38194 51.888091 
L 168.128428 51.991952 
L 171.86087 53.511695 
L 172.607358 54.003453 
L 173.353846 54.173029 
L 174.100334 54.227905 
L 176.339799 54.868274 
L 177.832776 55.191271 
L 178.579264 55.254117 
L 180.072241 55.764603 
L 180.818729 55.92744 
L 181.565217 55.927486 
L 183.058194 56.073811 
L 183.804682 56.016545 
L 184.551171 55.606212 
L 186.790635 54.764998 
L 187.537124 54.434092 
L 189.0301 54.040554 
L 189.776589 53.747643 
L 191.269565 53.726495 
L 192.016054 53.511485 
L 192.762542 53.698563 
L 194.255518 53.345375 
L 195.002007 53.247169 
L 195.748495 52.993804 
L 199.480936 52.638619 
L 200.227425 52.955491 
L 200.973913 52.783565 
L 201.720401 53.047295 
L 203.213378 53.292933 
L 204.706355 53.598154 
L 206.199331 53.74818 
L 206.945819 53.930682 
L 208.438796 54.926805 
L 212.171237 56.078281 
L 214.410702 56.675763 
L 215.157191 56.866508 
L 216.650167 57.602695 
L 217.396656 57.740646 
L 218.143144 58.106944 
L 218.889632 58.214949 
L 219.63612 58.814872 
L 221.875585 59.948408 
L 222.622074 59.946463 
L 225.608027 60.746142 
L 227.101003 60.746456 
L 228.59398 61.341233 
L 231.579933 61.578123 
L 233.07291 62.092089 
L 235.312375 63.5301 
L 236.058863 63.668169 
L 241.284281 66.77164 
L 242.777258 67.476665 
L 243.523746 67.771703 
L 245.016722 67.724297 
L 245.763211 67.989293 
L 246.509699 68.541759 
L 248.002676 69.095773 
L 248.749164 69.498163 
L 250.988629 70.265377 
L 251.735117 70.331711 
L 252.481605 70.572147 
L 253.974582 71.456177 
L 255.467559 72.137962 
L 259.2 73.950059 
L 259.2 73.950059 
" style="fill:none;stroke:#e377c2;stroke-linecap:square;stroke-width:1.5;"/>
   </g>
   <g id="line2d_17">
    <path clip-path="url(#pd45b58b0a9)" d="M 36 79.863239 
L 37.492977 80.986738 
L 38.239465 81.513784 
L 39.732441 82.930966 
L 41.225418 84.103652 
L 41.971906 84.741347 
L 43.464883 85.168831 
L 44.95786 85.41221 
L 46.450836 86.180007 
L 50.929766 88.65967 
L 51.676254 88.754671 
L 55.408696 88.510238 
L 56.901672 89.092834 
L 57.648161 89.0107 
L 58.394649 88.718612 
L 59.141137 88.611818 
L 59.887625 88.646481 
L 60.634114 88.879937 
L 61.380602 88.788017 
L 62.12709 88.950913 
L 63.620067 88.917627 
L 64.366555 89.253084 
L 65.113043 89.418496 
L 65.859532 89.436123 
L 66.60602 89.771075 
L 67.352508 89.740717 
L 68.845485 89.934725 
L 69.591973 89.999752 
L 71.08495 89.675879 
L 71.831438 89.560236 
L 73.324415 89.643375 
L 74.817391 89.963859 
L 75.56388 89.961403 
L 76.310368 89.620732 
L 77.056856 89.573279 
L 77.803344 89.799649 
L 78.549833 89.640613 
L 80.042809 89.638239 
L 80.789298 89.764492 
L 81.535786 89.50783 
L 82.282274 89.456695 
L 83.028763 89.024281 
L 84.521739 88.395934 
L 86.014716 87.536912 
L 87.507692 86.031483 
L 88.254181 85.644142 
L 89.000669 85.021719 
L 89.747157 84.21525 
L 90.493645 83.228679 
L 93.479599 80.325531 
L 94.972575 78.764715 
L 97.958528 77.232112 
L 98.705017 76.665657 
L 99.451505 75.835548 
L 100.197993 75.196547 
L 101.69097 73.321764 
L 102.437458 72.273581 
L 103.930435 70.695349 
L 104.676923 70.084473 
L 109.155853 64.944811 
L 109.902341 64.17733 
L 111.395318 63.275949 
L 112.141806 62.943451 
L 113.634783 62.012312 
L 114.381271 61.696613 
L 116.620736 60.129812 
L 117.367224 59.283885 
L 118.113712 59.026539 
L 118.860201 58.607425 
L 120.353177 56.916982 
L 121.846154 55.741049 
L 122.592642 54.957124 
L 123.33913 54.447999 
L 124.832107 54.045456 
L 126.325084 53.112215 
L 127.81806 52.35585 
L 129.311037 51.472992 
L 130.057525 50.992715 
L 130.804013 50.305881 
L 131.550502 49.879835 
L 133.043478 49.396627 
L 133.789967 48.934821 
L 134.536455 48.254353 
L 135.282943 47.767981 
L 136.029431 47.533385 
L 139.015385 45.818184 
L 142.001338 45.23057 
L 142.747826 44.997011 
L 145.733779 44.596061 
L 149.466221 43.35509 
L 150.212709 43.369804 
L 151.705686 42.705468 
L 153.198662 42.18087 
L 153.945151 42.161024 
L 156.184615 41.597905 
L 156.931104 41.68897 
L 158.42408 41.575023 
L 159.917057 40.807992 
L 160.663545 40.535248 
L 161.410033 40.648706 
L 162.156522 40.646442 
L 163.649498 41.049637 
L 164.395987 41.21849 
L 165.142475 41.625583 
L 165.888963 42.270113 
L 166.635452 42.765268 
L 168.128428 43.949328 
L 168.874916 44.365415 
L 171.114381 45.090479 
L 171.86087 45.086734 
L 174.100334 45.862799 
L 174.846823 45.733637 
L 175.593311 45.985386 
L 176.339799 46.082806 
L 177.086288 46.317276 
L 177.832776 46.759795 
L 178.579264 47.365255 
L 180.072241 47.884485 
L 181.565217 48.600768 
L 183.058194 49.019294 
L 184.551171 49.703056 
L 185.297659 50.362405 
L 186.790635 50.924732 
L 187.537124 51.379376 
L 189.0301 52.054944 
L 189.776589 52.357541 
L 190.523077 52.487774 
L 191.269565 53.032007 
L 192.016054 53.405337 
L 192.762542 53.92073 
L 193.50903 54.26227 
L 195.002007 55.530031 
L 195.748495 56.22055 
L 196.494983 56.588162 
L 197.241472 57.143586 
L 198.734448 57.968588 
L 199.480936 58.409958 
L 200.227425 58.603015 
L 202.46689 59.792275 
L 203.213378 60.20221 
L 203.959866 60.449857 
L 205.452843 61.417904 
L 208.438796 63.857927 
L 209.931773 64.767253 
L 212.171237 66.716403 
L 212.917726 67.20787 
L 213.664214 67.328099 
L 215.157191 68.384895 
L 215.903679 69.028151 
L 216.650167 69.185215 
L 217.396656 69.954737 
L 218.889632 70.69879 
L 219.63612 71.186917 
L 220.382609 71.470987 
L 221.129097 72.066989 
L 223.368562 72.774113 
L 224.861538 73.136905 
L 227.101003 74.086651 
L 227.847492 74.265515 
L 229.340468 75.402863 
L 231.579933 76.749787 
L 233.07291 78.115539 
L 233.819398 78.594009 
L 235.312375 79.23146 
L 236.058863 79.23182 
L 237.551839 79.863878 
L 239.791304 81.231802 
L 240.537793 81.486696 
L 241.284281 81.42877 
L 242.030769 81.608901 
L 245.016722 81.655379 
L 245.763211 82.049333 
L 246.509699 82.067496 
L 249.495652 83.130801 
L 250.24214 83.531452 
L 250.988629 83.581215 
L 251.735117 83.870066 
L 253.228094 84.1257 
L 254.72107 84.583721 
L 256.214047 84.592071 
L 256.960535 84.410671 
L 259.2 84.240958 
L 259.2 84.240958 
" style="fill:none;stroke:#7f7f7f;stroke-linecap:square;stroke-width:1.5;"/>
   </g>
   <g id="line2d_18">
    <defs>
     <path d="M 0 3 
C 0.795609 3 1.55874 2.683901 2.12132 2.12132 
C 2.683901 1.55874 3 0.795609 3 0 
C 3 -0.795609 2.683901 -1.55874 2.12132 -2.12132 
C 1.55874 -2.683901 0.795609 -3 0 -3 
C -0.795609 -3 -1.55874 -2.683901 -2.12132 -2.12132 
C -2.683901 -1.55874 -3 -0.795609 -3 0 
C -3 0.795609 -2.683901 1.55874 -2.12132 2.12132 
C -1.55874 2.683901 -0.795609 3 0 3 
z
" id="m10deabbe59" style="stroke:#000000;"/>
    </defs>
    <g clip-path="url(#pd45b58b0a9)">
     <use style="stroke:#000000;" x="80.64" xlink:href="#m10deabbe59" y="89.76"/>
     <use style="stroke:#000000;" x="102.96" xlink:href="#m10deabbe59" y="71.64"/>
     <use style="stroke:#000000;" x="192.24" xlink:href="#m10deabbe59" y="53.52"/>
    </g>
   </g>
   <g id="patch_3">
    <path d="M 36 126 
L 36 17.28 
" style="fill:none;stroke:#000000;stroke-linecap:square;stroke-linejoin:miter;stroke-width:0.8;"/>
   </g>
   <g id="patch_4">
    <path d="M 259.2 126 
L 259.2 17.28 
" style="fill:none;stroke:#000000;stroke-linecap:square;stroke-linejoin:miter;stroke-width:0.8;"/>
   </g>
   <g id="patch_5">
    <path d="M 36 126 
L 259.2 126 
" style="fill:none;stroke:#000000;stroke-linecap:square;stroke-linejoin:miter;stroke-width:0.8;"/>
   </g>
   <g id="patch_6">
    <path d="M 36 17.28 
L 259.2 17.28 
" style="fill:none;stroke:#000000;stroke-linecap:square;stroke-linejoin:miter;stroke-width:0.8;"/>
   </g>
  </g>
 </g>
 <defs>
  <clipPath id="pd45b58b0a9">
   <rect height="108.72" width="223.2" x="36" y="17.28"/>
  </clipPath>
 </defs>
</svg>
