<?xml version="1.0" encoding="utf-8" standalone="no"?>
<!DOCTYPE svg PUBLIC "-//W3C//DTD SVG 1.1//EN"
  "http://www.w3.org/Graphics/SVG/1.1/DTD/svg11.dtd">
<!-- Created with matplotlib (http://matplotlib.org/) -->
<svg height="144pt" version="1.1" viewBox="0 0 288 144" width="288pt" xmlns="http://www.w3.org/2000/svg" xmlns:xlink="http://www.w3.org/1999/xlink">
 <defs>
  <style type="text/css">
*{stroke-linecap:butt;stroke-linejoin:round;}
  </style>
 </defs>
 <g id="figure_1">
  <g id="patch_1">
   <path d="M 0 144 
L 288 144 
L 288 0 
L 0 0 
z
" style="fill:#ffffff;"/>
  </g>
  <g id="axes_1">
   <g id="patch_2">
    <path d="M 36 126 
L 259.2 126 
L 259.2 17.28 
L 36 17.28 
z
" style="fill:#ffffff;"/>
   </g>
   <g id="matplotlib.axis_1">
    <g id="xtick_1">
     <g id="line2d_1">
      <defs>
       <path d="M 0 0 
L 0 3.5 
" id="m7cbcb532a1" style="stroke:#000000;stroke-width:0.8;"/>
      </defs>
      <g>
       <use style="stroke:#000000;stroke-width:0.8;" x="36" xlink:href="#m7cbcb532a1" y="126"/>
      </g>
     </g>
     <g id="text_1">
      <!-- 0 -->
      <defs>
       <path d="M 31.78125 66.40625 
Q 24.171875 66.40625 20.328125 58.90625 
Q 16.5 51.421875 16.5 36.375 
Q 16.5 21.390625 20.328125 13.890625 
Q 24.171875 6.390625 31.78125 6.390625 
Q 39.453125 6.390625 43.28125 13.890625 
Q 47.125 21.390625 47.125 36.375 
Q 47.125 51.421875 43.28125 58.90625 
Q 39.453125 66.40625 31.78125 66.40625 
z
M 31.78125 74.21875 
Q 44.046875 74.21875 50.515625 64.515625 
Q 56.984375 54.828125 56.984375 36.375 
Q 56.984375 17.96875 50.515625 8.265625 
Q 44.046875 -1.421875 31.78125 -1.421875 
Q 19.53125 -1.421875 13.0625 8.265625 
Q 6.59375 17.96875 6.59375 36.375 
Q 6.59375 54.828125 13.0625 64.515625 
Q 19.53125 74.21875 31.78125 74.21875 
z
" id="DejaVuSans-30"/>
      </defs>
      <g transform="translate(32.81875 140.598437)scale(0.1 -0.1)">
       <use xlink:href="#DejaVuSans-30"/>
      </g>
     </g>
    </g>
    <g id="xtick_2">
     <g id="line2d_2">
      <g>
       <use style="stroke:#000000;stroke-width:0.8;" x="80.64" xlink:href="#m7cbcb532a1" y="126"/>
      </g>
     </g>
     <g id="text_2">
      <!-- 2 -->
      <defs>
       <path d="M 19.1875 8.296875 
L 53.609375 8.296875 
L 53.609375 0 
L 7.328125 0 
L 7.328125 8.296875 
Q 12.9375 14.109375 22.625 23.890625 
Q 32.328125 33.6875 34.8125 36.53125 
Q 39.546875 41.84375 41.421875 45.53125 
Q 43.3125 49.21875 43.3125 52.78125 
Q 43.3125 58.59375 39.234375 62.25 
Q 35.15625 65.921875 28.609375 65.921875 
Q 23.96875 65.921875 18.8125 64.3125 
Q 13.671875 62.703125 7.8125 59.421875 
L 7.8125 69.390625 
Q 13.765625 71.78125 18.9375 73 
Q 24.125 74.21875 28.421875 74.21875 
Q 39.75 74.21875 46.484375 68.546875 
Q 53.21875 62.890625 53.21875 53.421875 
Q 53.21875 48.921875 51.53125 44.890625 
Q 49.859375 40.875 45.40625 35.40625 
Q 44.1875 33.984375 37.640625 27.21875 
Q 31.109375 20.453125 19.1875 8.296875 
z
" id="DejaVuSans-32"/>
      </defs>
      <g transform="translate(77.45875 140.598437)scale(0.1 -0.1)">
       <use xlink:href="#DejaVuSans-32"/>
      </g>
     </g>
    </g>
    <g id="xtick_3">
     <g id="line2d_3">
      <g>
       <use style="stroke:#000000;stroke-width:0.8;" x="125.28" xlink:href="#m7cbcb532a1" y="126"/>
      </g>
     </g>
     <g id="text_3">
      <!-- 4 -->
      <defs>
       <path d="M 37.796875 64.3125 
L 12.890625 25.390625 
L 37.796875 25.390625 
z
M 35.203125 72.90625 
L 47.609375 72.90625 
L 47.609375 25.390625 
L 58.015625 25.390625 
L 58.015625 17.1875 
L 47.609375 17.1875 
L 47.609375 0 
L 37.796875 0 
L 37.796875 17.1875 
L 4.890625 17.1875 
L 4.890625 26.703125 
z
" id="DejaVuSans-34"/>
      </defs>
      <g transform="translate(122.09875 140.598437)scale(0.1 -0.1)">
       <use xlink:href="#DejaVuSans-34"/>
      </g>
     </g>
    </g>
    <g id="xtick_4">
     <g id="line2d_4">
      <g>
       <use style="stroke:#000000;stroke-width:0.8;" x="169.92" xlink:href="#m7cbcb532a1" y="126"/>
      </g>
     </g>
     <g id="text_4">
      <!-- 6 -->
      <defs>
       <path d="M 33.015625 40.375 
Q 26.375 40.375 22.484375 35.828125 
Q 18.609375 31.296875 18.609375 23.390625 
Q 18.609375 15.53125 22.484375 10.953125 
Q 26.375 6.390625 33.015625 6.390625 
Q 39.65625 6.390625 43.53125 10.953125 
Q 47.40625 15.53125 47.40625 23.390625 
Q 47.40625 31.296875 43.53125 35.828125 
Q 39.65625 40.375 33.015625 40.375 
z
M 52.59375 71.296875 
L 52.59375 62.3125 
Q 48.875 64.0625 45.09375 64.984375 
Q 41.3125 65.921875 37.59375 65.921875 
Q 27.828125 65.921875 22.671875 59.328125 
Q 17.53125 52.734375 16.796875 39.40625 
Q 19.671875 43.65625 24.015625 45.921875 
Q 28.375 48.1875 33.59375 48.1875 
Q 44.578125 48.1875 50.953125 41.515625 
Q 57.328125 34.859375 57.328125 23.390625 
Q 57.328125 12.15625 50.6875 5.359375 
Q 44.046875 -1.421875 33.015625 -1.421875 
Q 20.359375 -1.421875 13.671875 8.265625 
Q 6.984375 17.96875 6.984375 36.375 
Q 6.984375 53.65625 15.1875 63.9375 
Q 23.390625 74.21875 37.203125 74.21875 
Q 40.921875 74.21875 44.703125 73.484375 
Q 48.484375 72.75 52.59375 71.296875 
z
" id="DejaVuSans-36"/>
      </defs>
      <g transform="translate(166.73875 140.598437)scale(0.1 -0.1)">
       <use xlink:href="#DejaVuSans-36"/>
      </g>
     </g>
    </g>
    <g id="xtick_5">
     <g id="line2d_5">
      <g>
       <use style="stroke:#000000;stroke-width:0.8;" x="214.56" xlink:href="#m7cbcb532a1" y="126"/>
      </g>
     </g>
     <g id="text_5">
      <!-- 8 -->
      <defs>
       <path d="M 31.78125 34.625 
Q 24.75 34.625 20.71875 30.859375 
Q 16.703125 27.09375 16.703125 20.515625 
Q 16.703125 13.921875 20.71875 10.15625 
Q 24.75 6.390625 31.78125 6.390625 
Q 38.8125 6.390625 42.859375 10.171875 
Q 46.921875 13.96875 46.921875 20.515625 
Q 46.921875 27.09375 42.890625 30.859375 
Q 38.875 34.625 31.78125 34.625 
z
M 21.921875 38.8125 
Q 15.578125 40.375 12.03125 44.71875 
Q 8.5 49.078125 8.5 55.328125 
Q 8.5 64.0625 14.71875 69.140625 
Q 20.953125 74.21875 31.78125 74.21875 
Q 42.671875 74.21875 48.875 69.140625 
Q 55.078125 64.0625 55.078125 55.328125 
Q 55.078125 49.078125 51.53125 44.71875 
Q 48 40.375 41.703125 38.8125 
Q 48.828125 37.15625 52.796875 32.3125 
Q 56.78125 27.484375 56.78125 20.515625 
Q 56.78125 9.90625 50.3125 4.234375 
Q 43.84375 -1.421875 31.78125 -1.421875 
Q 19.734375 -1.421875 13.25 4.234375 
Q 6.78125 9.90625 6.78125 20.515625 
Q 6.78125 27.484375 10.78125 32.3125 
Q 14.796875 37.15625 21.921875 38.8125 
z
M 18.3125 54.390625 
Q 18.3125 48.734375 21.84375 45.5625 
Q 25.390625 42.390625 31.78125 42.390625 
Q 38.140625 42.390625 41.71875 45.5625 
Q 45.3125 48.734375 45.3125 54.390625 
Q 45.3125 60.0625 41.71875 63.234375 
Q 38.140625 66.40625 31.78125 66.40625 
Q 25.390625 66.40625 21.84375 63.234375 
Q 18.3125 60.0625 18.3125 54.390625 
z
" id="DejaVuSans-38"/>
      </defs>
      <g transform="translate(211.37875 140.598437)scale(0.1 -0.1)">
       <use xlink:href="#DejaVuSans-38"/>
      </g>
     </g>
    </g>
    <g id="xtick_6">
     <g id="line2d_6">
      <g>
       <use style="stroke:#000000;stroke-width:0.8;" x="259.2" xlink:href="#m7cbcb532a1" y="126"/>
      </g>
     </g>
     <g id="text_6">
      <!-- 10 -->
      <defs>
       <path d="M 12.40625 8.296875 
L 28.515625 8.296875 
L 28.515625 63.921875 
L 10.984375 60.40625 
L 10.984375 69.390625 
L 28.421875 72.90625 
L 38.28125 72.90625 
L 38.28125 8.296875 
L 54.390625 8.296875 
L 54.390625 0 
L 12.40625 0 
z
" id="DejaVuSans-31"/>
      </defs>
      <g transform="translate(252.8375 140.598437)scale(0.1 -0.1)">
       <use xlink:href="#DejaVuSans-31"/>
       <use x="63.623047" xlink:href="#DejaVuSans-30"/>
      </g>
     </g>
    </g>
   </g>
   <g id="matplotlib.axis_2">
    <g id="ytick_1">
     <g id="line2d_7">
      <defs>
       <path d="M 0 0 
L -3.5 0 
" id="m5fb685e167" style="stroke:#000000;stroke-width:0.8;"/>
      </defs>
      <g>
       <use style="stroke:#000000;stroke-width:0.8;" x="36" xlink:href="#m5fb685e167" y="107.88"/>
      </g>
     </g>
     <g id="text_7">
      <!-- −2 -->
      <defs>
       <path d="M 10.59375 35.5 
L 73.1875 35.5 
L 73.1875 27.203125 
L 10.59375 27.203125 
z
" id="DejaVuSans-2212"/>
      </defs>
      <g transform="translate(14.257812 111.679219)scale(0.1 -0.1)">
       <use xlink:href="#DejaVuSans-2212"/>
       <use x="83.789062" xlink:href="#DejaVuSans-32"/>
      </g>
     </g>
    </g>
    <g id="ytick_2">
     <g id="line2d_8">
      <g>
       <use style="stroke:#000000;stroke-width:0.8;" x="36" xlink:href="#m5fb685e167" y="71.64"/>
      </g>
     </g>
     <g id="text_8">
      <!-- 0 -->
      <g transform="translate(22.6375 75.439219)scale(0.1 -0.1)">
       <use xlink:href="#DejaVuSans-30"/>
      </g>
     </g>
    </g>
    <g id="ytick_3">
     <g id="line2d_9">
      <g>
       <use style="stroke:#000000;stroke-width:0.8;" x="36" xlink:href="#m5fb685e167" y="35.4"/>
      </g>
     </g>
     <g id="text_9">
      <!-- 2 -->
      <g transform="translate(22.6375 39.199219)scale(0.1 -0.1)">
       <use xlink:href="#DejaVuSans-32"/>
      </g>
     </g>
    </g>
   </g>
   <g id="line2d_10">
    <path clip-path="url(#p18ddd71749)" d="M 36 61.846721 
L 37.492977 62.796843 
L 38.239465 62.963753 
L 38.985953 62.889005 
L 39.732441 62.996058 
L 40.47893 63.264013 
L 41.225418 63.369322 
L 41.971906 64.094306 
L 44.95786 66.107928 
L 47.197324 67.010331 
L 48.690301 68.16755 
L 50.183278 69.75145 
L 51.676254 71.199578 
L 53.169231 72.837665 
L 53.915719 73.899535 
L 54.662207 74.666283 
L 55.408696 75.774261 
L 56.901672 77.147132 
L 57.648161 77.954328 
L 59.141137 79.160336 
L 59.887625 79.79247 
L 62.12709 82.227307 
L 63.620067 83.783139 
L 64.366555 84.319815 
L 65.859532 85.938229 
L 68.098997 88.368179 
L 69.591973 89.74749 
L 71.08495 91.518624 
L 72.577926 92.366068 
L 75.56388 93.5158 
L 77.056856 93.73589 
L 77.803344 93.828794 
L 80.042809 93.68784 
L 81.535786 93.320514 
L 83.028763 93.24022 
L 84.521739 93.370183 
L 85.268227 93.441873 
L 86.014716 93.677574 
L 87.507692 94.463314 
L 88.254181 94.686612 
L 89.000669 94.632573 
L 89.747157 94.449249 
L 91.986622 93.457948 
L 93.479599 93.120771 
L 94.972575 92.445573 
L 95.719064 91.838084 
L 96.465552 91.452094 
L 98.705017 89.258599 
L 101.69097 87.466918 
L 102.437458 86.798027 
L 103.930435 86.167063 
L 105.423411 85.106847 
L 106.916388 83.763401 
L 108.409365 82.090321 
L 109.155853 81.831411 
L 109.902341 81.225045 
L 112.141806 78.324979 
L 113.634783 76.199129 
L 115.874247 74.040878 
L 117.367224 72.918291 
L 118.113712 72.092016 
L 118.860201 71.497754 
L 120.353177 70.589762 
L 124.085619 67.973101 
L 124.832107 67.734761 
L 127.071572 65.90669 
L 131.550502 63.526019 
L 133.043478 62.149204 
L 133.789967 61.693265 
L 136.77592 59.115779 
L 138.268896 58.710716 
L 141.254849 57.137088 
L 144.240803 55.811809 
L 144.987291 55.311246 
L 146.480268 54.755677 
L 147.226756 54.748426 
L 148.719732 54.09342 
L 149.466221 54.040871 
L 150.959197 53.484747 
L 151.705686 53.10631 
L 152.452174 52.929314 
L 154.691639 51.988574 
L 156.931104 51.448747 
L 157.677592 51.273374 
L 158.42408 50.920526 
L 159.917057 49.983907 
L 161.410033 49.182475 
L 162.156522 48.915199 
L 163.649498 48.779432 
L 164.395987 48.23914 
L 165.142475 47.896999 
L 166.635452 48.362203 
L 168.128428 48.300294 
L 168.874916 48.298326 
L 169.621405 48.419646 
L 170.367893 48.852078 
L 171.114381 49.453496 
L 171.86087 49.702521 
L 172.607358 50.132077 
L 173.353846 50.330329 
L 174.100334 50.333068 
L 175.593311 50.684799 
L 176.339799 50.669739 
L 177.086288 50.845886 
L 177.832776 51.232705 
L 179.325753 51.287171 
L 180.072241 51.59821 
L 180.818729 51.723309 
L 181.565217 52.21866 
L 183.058194 53.018504 
L 184.551171 52.953996 
L 185.297659 53.149182 
L 188.283612 54.600334 
L 189.776589 55.114727 
L 190.523077 55.379983 
L 191.269565 55.174104 
L 193.50903 55.404664 
L 194.255518 55.544006 
L 198.734448 57.272457 
L 199.480936 57.707742 
L 200.973913 58.287151 
L 203.959866 59.513017 
L 204.706355 59.699694 
L 208.438796 59.862756 
L 209.185284 59.819527 
L 210.678261 60.101482 
L 212.171237 60.362147 
L 213.664214 60.287355 
L 214.410702 60.093461 
L 215.903679 60.247296 
L 216.650167 59.769592 
L 217.396656 59.439451 
L 218.143144 58.920982 
L 218.889632 58.71106 
L 221.129097 58.533043 
L 221.875585 58.77941 
L 223.368562 58.895452 
L 224.861538 58.466394 
L 225.608027 58.789018 
L 228.59398 59.252799 
L 229.340468 59.253716 
L 232.326421 58.652225 
L 233.819398 58.699008 
L 235.312375 58.812568 
L 236.058863 59.010378 
L 236.805351 59.393307 
L 237.551839 59.959989 
L 239.044816 60.612853 
L 239.791304 60.691686 
L 240.537793 60.565589 
L 241.284281 60.65718 
L 242.030769 60.536123 
L 242.777258 60.54282 
L 244.270234 60.901418 
L 245.763211 60.703372 
L 246.509699 60.471228 
L 248.749164 60.41151 
L 249.495652 59.962634 
L 250.24214 59.952371 
L 250.988629 60.111682 
L 252.481605 60.984062 
L 253.974582 61.336763 
L 254.72107 61.454596 
L 255.467559 61.755938 
L 256.960535 61.953568 
L 257.707023 62.454935 
L 259.2 62.737624 
L 259.2 62.737624 
" style="fill:none;stroke:#1f77b4;stroke-linecap:square;stroke-width:1.5;"/>
   </g>
   <g id="line2d_11">
    <path clip-path="url(#p18ddd71749)" d="M 36 64.545411 
L 37.492977 65.095359 
L 38.239465 64.95576 
L 38.985953 65.174818 
L 39.732441 65.260394 
L 40.47893 65.470151 
L 41.225418 65.562635 
L 42.718395 65.993789 
L 43.464883 66.446239 
L 46.450836 67.469834 
L 47.197324 67.588512 
L 48.690301 68.26221 
L 50.929766 69.781924 
L 51.676254 69.835249 
L 52.422742 70.157604 
L 53.169231 70.661586 
L 54.662207 71.201304 
L 56.901672 72.45156 
L 57.648161 73.025525 
L 58.394649 73.351848 
L 59.141137 73.852109 
L 60.634114 74.291405 
L 62.873579 74.722739 
L 64.366555 74.581068 
L 65.113043 74.658026 
L 65.859532 74.865174 
L 66.60602 75.311859 
L 68.098997 75.885638 
L 69.591973 76.128857 
L 71.831438 77.243393 
L 72.577926 77.951316 
L 74.070903 78.787908 
L 75.56388 79.496236 
L 76.310368 79.927241 
L 77.056856 80.128295 
L 77.803344 80.036801 
L 79.296321 80.530032 
L 82.282274 81.756241 
L 83.028763 81.983692 
L 83.775251 81.997149 
L 84.521739 82.49318 
L 86.761204 83.138816 
L 88.254181 83.440434 
L 90.493645 83.07149 
L 91.240134 83.20131 
L 91.986622 83.056261 
L 92.73311 82.755011 
L 93.479599 82.603098 
L 94.972575 82.638617 
L 95.719064 82.677165 
L 96.465552 82.441378 
L 97.958528 81.603868 
L 99.451505 81.006148 
L 100.944482 81.031737 
L 102.437458 80.588432 
L 108.409365 80.836805 
L 109.155853 80.816898 
L 109.902341 80.931413 
L 111.395318 81.715823 
L 112.888294 81.73121 
L 115.127759 82.177146 
L 116.620736 82.207559 
L 118.113712 82.10986 
L 120.353177 81.4909 
L 121.099666 81.420423 
L 121.846154 81.57551 
L 123.33913 81.570071 
L 127.071572 82.546725 
L 129.311037 83.17432 
L 130.804013 83.751217 
L 132.29699 84.435849 
L 133.043478 84.5528 
L 133.789967 84.819576 
L 136.029431 85.937134 
L 137.522408 86.171733 
L 139.015385 86.796212 
L 140.508361 86.899656 
L 142.001338 87.536843 
L 142.747826 87.491475 
L 143.494314 87.711453 
L 144.240803 87.761749 
L 147.226756 88.339214 
L 149.466221 88.574691 
L 150.212709 88.735567 
L 151.705686 89.411623 
L 153.945151 89.624146 
L 154.691639 90.061962 
L 155.438127 90.188309 
L 156.931104 90.130649 
L 157.677592 90.320801 
L 158.42408 90.362892 
L 159.170569 90.265582 
L 160.663545 90.881361 
L 161.410033 90.847165 
L 162.90301 91.349547 
L 164.395987 91.12877 
L 167.38194 91.480849 
L 168.128428 91.692853 
L 169.621405 91.728114 
L 170.367893 91.951644 
L 172.607358 93.250142 
L 173.353846 93.43334 
L 176.339799 93.730189 
L 178.579264 93.304111 
L 179.325753 93.343345 
L 180.072241 93.225311 
L 183.804682 91.698821 
L 184.551171 91.626372 
L 188.283612 90.460632 
L 190.523077 88.98903 
L 193.50903 87.431725 
L 194.255518 86.907809 
L 195.748495 86.205852 
L 196.494983 85.875878 
L 197.241472 85.792212 
L 198.734448 85.300445 
L 199.480936 85.234621 
L 200.973913 84.676002 
L 203.213378 83.983319 
L 206.199331 82.032111 
L 207.692308 80.816763 
L 210.678261 79.33507 
L 213.664214 77.564969 
L 214.410702 77.323761 
L 217.396656 77.076485 
L 218.143144 77.135547 
L 219.63612 76.96225 
L 221.875585 76.462668 
L 223.368562 76.178198 
L 224.11505 75.846903 
L 224.861538 75.897866 
L 226.354515 75.541706 
L 227.101003 75.135132 
L 227.847492 75.020319 
L 231.579933 73.61528 
L 233.819398 73.399637 
L 235.312375 72.96762 
L 236.058863 72.850993 
L 236.805351 72.468048 
L 237.551839 72.257879 
L 239.044816 71.130907 
L 240.537793 70.703058 
L 242.030769 70.174726 
L 243.523746 69.691678 
L 244.270234 69.717093 
L 245.016722 69.447935 
L 245.763211 69.361317 
L 246.509699 69.433938 
L 248.002676 69.41795 
L 248.749164 69.392762 
L 249.495652 69.539756 
L 250.24214 69.316072 
L 252.481605 69.66462 
L 253.228094 69.695117 
L 253.974582 69.99732 
L 254.72107 70.176481 
L 255.467559 70.076877 
L 256.214047 70.254715 
L 258.453512 71.051253 
L 259.2 71.241798 
L 259.2 71.241798 
" style="fill:none;stroke:#ff7f0e;stroke-linecap:square;stroke-width:1.5;"/>
   </g>
   <g id="line2d_12">
    <path clip-path="url(#p18ddd71749)" d="M 36 78.665078 
L 36.746488 78.691349 
L 38.239465 78.561941 
L 38.985953 78.600635 
L 41.225418 79.435537 
L 41.971906 79.493838 
L 43.464883 79.964441 
L 44.211371 79.996439 
L 46.450836 80.632794 
L 48.690301 81.656016 
L 49.436789 81.868306 
L 50.183278 82.212792 
L 50.929766 82.360662 
L 51.676254 82.374858 
L 52.422742 82.186526 
L 53.169231 82.153451 
L 54.662207 82.374514 
L 56.155184 82.905917 
L 56.901672 83.037462 
L 59.141137 84.107787 
L 59.887625 84.504363 
L 62.873579 86.711365 
L 63.620067 87.085115 
L 65.113043 87.466751 
L 65.859532 87.44817 
L 67.352508 87.868687 
L 70.338462 90.008064 
L 71.08495 90.804734 
L 71.831438 91.331906 
L 72.577926 92.210459 
L 74.070903 93.433981 
L 74.817391 93.909517 
L 75.56388 94.162927 
L 76.310368 94.273951 
L 77.056856 94.190249 
L 77.803344 94.294695 
L 78.549833 94.247608 
L 80.042809 94.564297 
L 80.789298 94.977212 
L 81.535786 95.058107 
L 82.282274 95.290515 
L 83.028763 95.322737 
L 83.775251 95.233827 
L 84.521739 95.293281 
L 86.014716 95.72011 
L 87.507692 96.365493 
L 88.254181 96.249674 
L 89.000669 96.00302 
L 89.747157 95.899002 
L 90.493645 95.549053 
L 94.226087 94.737356 
L 95.719064 94.81253 
L 96.465552 94.876025 
L 97.958528 95.259479 
L 98.705017 95.667256 
L 99.451505 95.807475 
L 100.944482 96.447465 
L 101.69097 96.294664 
L 102.437458 96.354236 
L 103.183946 96.276385 
L 103.930435 95.939075 
L 104.676923 96.018049 
L 105.423411 96.46845 
L 106.1699 96.551657 
L 107.662876 97.070633 
L 108.409365 97.343904 
L 109.155853 97.861154 
L 109.902341 98.141967 
L 110.648829 98.835714 
L 111.395318 99.32592 
L 112.888294 99.957946 
L 113.634783 100.110977 
L 114.381271 100.438432 
L 115.127759 100.528603 
L 116.620736 101.200106 
L 117.367224 101.563114 
L 118.113712 101.787712 
L 119.606689 102.564276 
L 121.099666 102.935329 
L 121.846154 102.771517 
L 122.592642 102.416434 
L 123.33913 102.393629 
L 124.085619 102.836807 
L 125.578595 103.248551 
L 127.81806 103.264195 
L 129.311037 103.573695 
L 130.804013 103.739099 
L 131.550502 103.946786 
L 133.043478 103.632216 
L 133.789967 103.29921 
L 134.536455 103.292865 
L 135.282943 103.117016 
L 136.77592 103.267809 
L 138.268896 102.496639 
L 139.015385 102.18617 
L 140.508361 101.222362 
L 142.747826 100.551729 
L 147.973244 98.96324 
L 148.719732 98.659913 
L 150.959197 98.274526 
L 153.945151 96.56689 
L 154.691639 95.917262 
L 155.438127 95.505033 
L 156.184615 95.282689 
L 156.931104 94.924888 
L 158.42408 93.878385 
L 162.90301 92.148524 
L 163.649498 91.748227 
L 165.142475 90.74204 
L 166.635452 90.124641 
L 168.874916 88.705066 
L 171.114381 88.922793 
L 172.607358 88.844933 
L 174.100334 89.119878 
L 179.325753 87.439913 
L 180.072241 87.205279 
L 182.311706 87.037021 
L 184.551171 86.484403 
L 185.297659 86.460195 
L 186.044147 86.617485 
L 186.790635 86.596844 
L 189.0301 86.884888 
L 190.523077 87.818858 
L 192.016054 88.309976 
L 193.50903 88.417859 
L 197.98796 88.55488 
L 198.734448 88.44579 
L 199.480936 88.192209 
L 200.227425 88.166923 
L 202.46689 87.623925 
L 203.959866 87.219327 
L 204.706355 86.804148 
L 206.199331 86.434751 
L 206.945819 86.213463 
L 208.438796 86.233083 
L 209.185284 85.620624 
L 210.678261 85.303296 
L 214.410702 82.599662 
L 215.157191 82.386116 
L 215.903679 81.947344 
L 216.650167 81.658247 
L 218.889632 81.067077 
L 220.382609 80.382816 
L 221.875585 79.136217 
L 223.368562 76.990633 
L 224.11505 76.395622 
L 225.608027 75.534282 
L 226.354515 75.444129 
L 230.086957 72.837676 
L 230.833445 72.259083 
L 234.565886 70.69627 
L 235.312375 70.530541 
L 236.805351 69.459815 
L 238.298328 68.529954 
L 239.791304 67.895525 
L 241.284281 66.692027 
L 242.030769 66.319902 
L 242.777258 66.112052 
L 243.523746 65.423487 
L 244.270234 64.948983 
L 245.763211 64.452938 
L 248.749164 63.026726 
L 249.495652 62.9415 
L 250.24214 62.995633 
L 251.735117 62.440772 
L 252.481605 61.955174 
L 253.228094 61.271841 
L 254.72107 60.482386 
L 256.214047 60.550834 
L 256.960535 60.270395 
L 259.2 59.861473 
L 259.2 59.861473 
" style="fill:none;stroke:#2ca02c;stroke-linecap:square;stroke-width:1.5;"/>
   </g>
   <g id="line2d_13">
    <path clip-path="url(#p18ddd71749)" d="M 36 91.361483 
L 37.492977 91.224934 
L 38.239465 90.769517 
L 38.985953 90.577528 
L 40.47893 90.618139 
L 41.225418 90.452424 
L 42.718395 90.530408 
L 43.464883 90.399828 
L 44.211371 90.041533 
L 45.704348 89.019857 
L 47.197324 88.335088 
L 47.943813 88.069152 
L 49.436789 87.906002 
L 50.929766 87.806468 
L 51.676254 87.428526 
L 52.422742 87.386733 
L 55.408696 85.661363 
L 56.155184 85.491481 
L 56.901672 85.074292 
L 58.394649 84.788441 
L 59.141137 84.437114 
L 59.887625 83.868599 
L 61.380602 83.221677 
L 62.12709 82.768739 
L 62.873579 82.567292 
L 63.620067 82.588935 
L 65.113043 82.019874 
L 67.352508 81.283288 
L 68.098997 80.706783 
L 68.845485 80.279948 
L 69.591973 80.045499 
L 70.338462 79.661976 
L 71.08495 78.95217 
L 71.831438 78.739634 
L 74.070903 79.127311 
L 75.56388 79.270629 
L 76.310368 79.649345 
L 78.549833 79.718596 
L 79.296321 79.882428 
L 80.042809 79.831308 
L 80.789298 79.896711 
L 81.535786 79.711241 
L 85.268227 79.79396 
L 86.014716 79.938771 
L 87.507692 79.796502 
L 89.747157 78.813745 
L 90.493645 78.636471 
L 91.240134 78.690507 
L 91.986622 78.568603 
L 92.73311 78.693421 
L 94.972575 78.645514 
L 95.719064 78.430884 
L 97.21204 77.844909 
L 99.451505 77.01347 
L 100.944482 76.252751 
L 101.69097 75.891503 
L 103.183946 74.905818 
L 105.423411 73.987652 
L 106.916388 73.015215 
L 107.662876 72.42328 
L 108.409365 72.023529 
L 109.155853 71.483485 
L 109.902341 71.172526 
L 111.395318 70.744938 
L 112.141806 70.517185 
L 113.634783 69.262145 
L 116.620736 68.326329 
L 118.860201 66.887354 
L 119.606689 66.566772 
L 120.353177 66.00279 
L 121.099666 65.651197 
L 121.846154 65.047834 
L 124.832107 61.918221 
L 125.578595 61.259301 
L 129.311037 58.612613 
L 131.550502 57.111262 
L 132.29699 56.872348 
L 134.536455 55.628736 
L 136.029431 55.031868 
L 136.77592 55.057163 
L 139.761873 53.710054 
L 140.508361 53.158282 
L 143.494314 50.234007 
L 144.987291 49.304245 
L 145.733779 48.962327 
L 147.973244 48.58864 
L 148.719732 48.745592 
L 153.945151 46.548812 
L 156.184615 46.601922 
L 157.677592 46.372039 
L 158.42408 46.325962 
L 159.170569 46.027083 
L 160.663545 45.852226 
L 161.410033 46.070496 
L 162.156522 46.13363 
L 162.90301 46.346449 
L 165.142475 46.441104 
L 165.888963 46.645355 
L 167.38194 47.357684 
L 170.367893 47.895826 
L 172.607358 48.968836 
L 173.353846 48.982415 
L 174.100334 49.131674 
L 174.846823 49.453507 
L 175.593311 49.450837 
L 177.832776 50.536518 
L 178.579264 51.135989 
L 181.565217 52.670797 
L 182.311706 52.932814 
L 183.804682 53.106039 
L 184.551171 53.61614 
L 186.790635 54.310933 
L 192.016054 57.873153 
L 193.50903 59.202449 
L 195.748495 60.061943 
L 197.241472 60.706556 
L 197.98796 60.90157 
L 198.734448 61.307477 
L 200.227425 61.747064 
L 203.959866 63.713836 
L 206.199331 64.254007 
L 206.945819 64.330624 
L 207.692308 64.628495 
L 208.438796 64.51908 
L 210.678261 64.672712 
L 211.424749 65.118431 
L 212.171237 65.736196 
L 213.664214 66.314937 
L 215.157191 66.602944 
L 215.903679 67.213701 
L 219.63612 68.008299 
L 221.129097 69.226012 
L 222.622074 70.602275 
L 223.368562 70.76659 
L 224.11505 71.051809 
L 224.861538 71.052284 
L 225.608027 71.189929 
L 226.354515 71.821563 
L 227.847492 72.550986 
L 229.340468 73.42155 
L 231.579933 74.457243 
L 233.07291 74.955007 
L 233.819398 75.493861 
L 234.565886 75.780579 
L 236.805351 76.907903 
L 237.551839 77.210393 
L 238.298328 77.388693 
L 239.791304 78.231664 
L 241.284281 78.802874 
L 242.030769 79.290789 
L 243.523746 79.823531 
L 244.270234 79.745194 
L 245.016722 79.993436 
L 245.763211 79.67932 
L 246.509699 79.150903 
L 248.002676 78.730381 
L 248.749164 78.458975 
L 250.24214 78.157924 
L 250.988629 78.033825 
L 253.228094 78.23509 
L 254.72107 77.838072 
L 255.467559 77.947704 
L 256.214047 77.701398 
L 256.960535 77.692352 
L 257.707023 77.508274 
L 258.453512 77.182972 
L 259.2 76.723069 
L 259.2 76.723069 
" style="fill:none;stroke:#d62728;stroke-linecap:square;stroke-width:1.5;"/>
   </g>
   <g id="line2d_14">
    <path clip-path="url(#p18ddd71749)" d="M 36 47.632527 
L 37.492977 44.875899 
L 38.239465 43.793458 
L 39.732441 41.251752 
L 41.971906 38.412685 
L 42.718395 37.853623 
L 44.211371 37.139505 
L 44.95786 37.082635 
L 45.704348 36.731974 
L 46.450836 36.518707 
L 47.943813 35.858242 
L 49.436789 35.219231 
L 51.676254 35.204561 
L 52.422742 35.155159 
L 53.169231 34.710117 
L 53.915719 34.085835 
L 54.662207 33.8243 
L 56.155184 33.612132 
L 57.648161 32.875804 
L 59.887625 32.161502 
L 60.634114 32.083643 
L 61.380602 31.702973 
L 62.12709 31.603462 
L 63.620067 31.193466 
L 65.113043 31.132907 
L 66.60602 31.282039 
L 67.352508 31.23856 
L 70.338462 31.809061 
L 71.831438 31.898614 
L 72.577926 31.724705 
L 74.070903 32.044402 
L 74.817391 32.191154 
L 77.056856 32.983997 
L 79.296321 34.595009 
L 80.042809 35.09847 
L 82.282274 37.040871 
L 83.028763 37.540837 
L 85.268227 39.729644 
L 86.014716 40.066803 
L 87.507692 40.346036 
L 88.254181 40.68557 
L 89.000669 41.186804 
L 90.493645 41.792127 
L 92.73311 42.770019 
L 94.972575 43.837613 
L 95.719064 44.153015 
L 97.958528 45.468717 
L 102.437458 47.782429 
L 103.183946 47.911394 
L 106.1699 49.026516 
L 107.662876 49.929038 
L 109.155853 50.989939 
L 110.648829 51.805503 
L 114.381271 54.484894 
L 116.620736 55.148587 
L 118.113712 55.672006 
L 118.860201 56.010593 
L 119.606689 56.492351 
L 121.846154 57.41677 
L 122.592642 57.546468 
L 124.085619 57.043888 
L 124.832107 57.003978 
L 125.578595 57.209853 
L 127.071572 57.146355 
L 129.311037 56.629876 
L 131.550502 56.833442 
L 132.29699 57.194163 
L 133.789967 57.394006 
L 135.282943 58.181743 
L 136.77592 58.536224 
L 137.522408 58.460967 
L 139.761873 57.881752 
L 142.001338 58.762176 
L 143.494314 59.355748 
L 144.987291 59.547019 
L 146.480268 60.506526 
L 147.226756 60.585423 
L 147.973244 61.029265 
L 149.466221 61.470807 
L 150.212709 61.933336 
L 153.945151 63.209983 
L 155.438127 64.031745 
L 156.184615 64.548198 
L 156.931104 65.254929 
L 158.42408 65.89375 
L 159.170569 66.347464 
L 159.917057 67.067643 
L 160.663545 67.519424 
L 162.156522 68.257215 
L 163.649498 69.232916 
L 164.395987 69.434649 
L 165.142475 69.82451 
L 165.888963 70.523037 
L 167.38194 71.494548 
L 168.128428 72.108634 
L 168.874916 72.922977 
L 169.621405 73.505767 
L 171.86087 75.880416 
L 172.607358 76.295889 
L 173.353846 76.556658 
L 174.846823 77.338855 
L 177.086288 78.421335 
L 177.832776 78.957843 
L 179.325753 79.668137 
L 180.072241 80.07854 
L 181.565217 81.311808 
L 183.058194 82.161173 
L 183.804682 82.211635 
L 184.551171 82.126411 
L 185.297659 82.243748 
L 186.044147 82.144373 
L 186.790635 82.343499 
L 187.537124 82.410168 
L 188.283612 82.64501 
L 189.0301 82.512945 
L 189.776589 82.681188 
L 192.762542 82.678169 
L 194.255518 83.098194 
L 195.002007 83.10471 
L 197.241472 82.759586 
L 197.98796 82.696088 
L 198.734448 82.755877 
L 200.227425 83.563302 
L 201.720401 83.418 
L 202.46689 83.573229 
L 203.213378 83.569747 
L 204.706355 83.327413 
L 206.199331 82.694568 
L 206.945819 82.734745 
L 208.438796 82.277869 
L 210.678261 81.877623 
L 213.664214 82.020953 
L 214.410702 82.297044 
L 215.157191 82.430712 
L 215.903679 82.397282 
L 217.396656 81.977759 
L 218.143144 81.998466 
L 218.889632 81.896168 
L 219.63612 81.640939 
L 221.875585 82.167873 
L 223.368562 82.421981 
L 224.11505 82.663628 
L 224.861538 82.70095 
L 225.608027 82.906908 
L 227.847492 82.344433 
L 230.086957 80.540938 
L 230.833445 79.753606 
L 233.819398 77.505375 
L 236.058863 76.556663 
L 236.805351 76.207186 
L 237.551839 76.112429 
L 238.298328 75.578533 
L 239.791304 74.770108 
L 240.537793 74.668846 
L 241.284281 74.451845 
L 242.030769 74.115082 
L 242.777258 74.119058 
L 243.523746 74.005326 
L 245.016722 73.352853 
L 247.256187 72.051911 
L 248.749164 71.587923 
L 250.988629 71.197714 
L 251.735117 71.403642 
L 253.228094 71.367771 
L 254.72107 70.503267 
L 255.467559 70.229442 
L 259.2 67.924044 
L 259.2 67.924044 
" style="fill:none;stroke:#9467bd;stroke-linecap:square;stroke-width:1.5;"/>
   </g>
   <g id="line2d_15">
    <path clip-path="url(#p18ddd71749)" d="M 36 90.862958 
L 37.492977 91.244521 
L 39.732441 92.787375 
L 41.225418 92.894432 
L 41.971906 93.406526 
L 42.718395 93.75363 
L 44.95786 95.267232 
L 47.197324 96.026395 
L 48.690301 96.347353 
L 50.929766 97.265429 
L 53.915719 98.05115 
L 54.662207 97.965212 
L 55.408696 97.736327 
L 56.155184 97.359548 
L 57.648161 97.300281 
L 59.887625 96.97036 
L 61.380602 96.804716 
L 62.873579 96.195833 
L 63.620067 96.166004 
L 64.366555 95.942989 
L 66.60602 95.723896 
L 67.352508 95.450498 
L 70.338462 93.456282 
L 71.08495 93.036703 
L 71.831438 92.384618 
L 72.577926 92.018745 
L 73.324415 91.834458 
L 74.070903 91.389862 
L 74.817391 90.772732 
L 75.56388 90.458803 
L 76.310368 89.955239 
L 77.056856 89.721431 
L 79.296321 88.393307 
L 83.028763 84.948297 
L 84.521739 83.887544 
L 89.000669 79.914357 
L 90.493645 78.662999 
L 94.226087 74.604425 
L 95.719064 73.676195 
L 97.958528 72.353037 
L 99.451505 71.383392 
L 100.944482 69.594531 
L 103.183946 67.573013 
L 105.423411 65.028413 
L 106.1699 64.42836 
L 107.662876 63.99304 
L 109.155853 62.945408 
L 111.395318 61.445992 
L 112.888294 60.604593 
L 115.127759 59.814061 
L 117.367224 58.063999 
L 118.113712 57.699737 
L 120.353177 55.757541 
L 121.099666 54.903997 
L 121.846154 53.864185 
L 122.592642 53.024877 
L 124.085619 50.968343 
L 125.578595 49.475255 
L 126.325084 48.827133 
L 127.81806 47.313878 
L 133.043478 43.248896 
L 133.789967 42.891771 
L 134.536455 42.672048 
L 135.282943 42.158624 
L 136.029431 41.963159 
L 137.522408 40.625741 
L 139.761873 39.034606 
L 140.508361 38.718214 
L 141.254849 38.045254 
L 142.747826 37.184282 
L 143.494314 36.611897 
L 144.240803 36.261682 
L 146.480268 34.850592 
L 147.973244 34.328685 
L 148.719732 34.335021 
L 149.466221 34.159167 
L 150.212709 33.810666 
L 150.959197 33.651047 
L 153.198662 34.377702 
L 154.691639 34.369639 
L 155.438127 34.030033 
L 156.184615 33.942859 
L 156.931104 34.031518 
L 158.42408 33.96965 
L 159.170569 34.021207 
L 159.917057 33.916147 
L 160.663545 34.110269 
L 161.410033 34.063139 
L 163.649498 34.862208 
L 165.142475 36.174997 
L 166.635452 37.101855 
L 168.128428 38.066324 
L 169.621405 38.780911 
L 171.86087 40.309137 
L 172.607358 40.471655 
L 173.353846 40.910569 
L 176.339799 43.202204 
L 177.086288 43.410536 
L 180.072241 45.356637 
L 181.565217 46.754929 
L 183.058194 48.443992 
L 183.804682 48.846819 
L 184.551171 49.399214 
L 185.297659 49.734839 
L 186.044147 50.452773 
L 186.790635 51.380187 
L 188.283612 53.537957 
L 189.0301 54.2772 
L 189.776589 54.834836 
L 192.016054 56.994998 
L 192.762542 57.376283 
L 194.255518 58.846167 
L 195.002007 59.804065 
L 196.494983 61.237136 
L 198.734448 64.04708 
L 199.480936 64.937771 
L 201.720401 67.175929 
L 206.945819 72.709925 
L 208.438796 73.38782 
L 210.678261 75.373246 
L 211.424749 75.645275 
L 213.664214 77.605424 
L 214.410702 78.578506 
L 215.157191 78.867149 
L 215.903679 78.900068 
L 216.650167 79.070296 
L 217.396656 79.443619 
L 218.889632 80.583147 
L 219.63612 80.981017 
L 220.382609 81.149961 
L 221.875585 81.90167 
L 223.368562 82.778621 
L 224.861538 83.294081 
L 230.086957 86.524359 
L 230.833445 86.692136 
L 231.579933 87.034616 
L 232.326421 87.25002 
L 233.07291 87.739428 
L 234.565886 88.161077 
L 236.805351 88.552459 
L 239.791304 89.431666 
L 240.537793 89.444833 
L 242.777258 90.032552 
L 243.523746 90.332242 
L 245.016722 91.108769 
L 246.509699 91.533498 
L 247.256187 91.68634 
L 248.002676 92.087821 
L 249.495652 92.423777 
L 253.228094 93.656477 
L 253.974582 93.58546 
L 254.72107 93.227858 
L 256.214047 92.797683 
L 256.960535 92.780761 
L 257.707023 92.630868 
L 259.2 91.843743 
L 259.2 91.843743 
" style="fill:none;stroke:#8c564b;stroke-linecap:square;stroke-width:1.5;"/>
   </g>
   <g id="line2d_16">
    <path clip-path="url(#p18ddd71749)" d="M 36 60.908194 
L 36.746488 60.563101 
L 38.239465 60.281796 
L 38.985953 59.961556 
L 40.47893 59.670185 
L 41.971906 59.335653 
L 42.718395 59.264149 
L 44.211371 59.575556 
L 46.450836 59.671095 
L 47.197324 59.694806 
L 47.943813 59.942952 
L 49.436789 60.135405 
L 50.183278 60.140984 
L 50.929766 60.260291 
L 51.676254 60.186403 
L 52.422742 60.231509 
L 55.408696 60.906362 
L 56.155184 61.04095 
L 57.648161 61.448836 
L 59.141137 61.442026 
L 61.380602 61.523462 
L 62.873579 61.830752 
L 63.620067 62.069642 
L 64.366555 62.089721 
L 65.113043 61.874545 
L 65.859532 61.802298 
L 66.60602 62.031511 
L 70.338462 61.833586 
L 71.08495 61.936648 
L 72.577926 62.363772 
L 74.070903 62.446107 
L 74.817391 62.64082 
L 76.310368 62.801879 
L 77.056856 62.527193 
L 77.803344 62.57477 
L 78.549833 62.812297 
L 80.042809 63.974966 
L 80.789298 64.693381 
L 81.535786 65.049031 
L 83.775251 65.804364 
L 85.268227 66.375834 
L 88.254181 66.257455 
L 89.000669 66.500798 
L 89.747157 66.885584 
L 90.493645 67.092834 
L 91.240134 66.964785 
L 91.986622 67.405142 
L 93.479599 67.492148 
L 95.719064 68.061181 
L 97.21204 68.937084 
L 100.197993 69.923323 
L 102.437458 72.093537 
L 103.183946 72.724593 
L 103.930435 73.059475 
L 105.423411 73.544045 
L 106.1699 73.47644 
L 106.916388 73.571644 
L 107.662876 74.091771 
L 108.409365 74.468818 
L 109.155853 74.992712 
L 110.648829 75.761181 
L 112.141806 76.223894 
L 113.634783 77.464878 
L 114.381271 77.908777 
L 116.620736 78.722137 
L 117.367224 79.190905 
L 118.113712 79.797601 
L 118.860201 80.122552 
L 120.353177 81.015305 
L 122.592642 82.920362 
L 123.33913 83.266772 
L 125.578595 84.609817 
L 127.071572 85.039775 
L 127.81806 85.584643 
L 128.564548 86.369114 
L 130.057525 87.23703 
L 131.550502 88.447675 
L 133.789967 89.757141 
L 134.536455 90.345574 
L 136.029431 91.227408 
L 136.77592 91.965423 
L 137.522408 92.46789 
L 139.015385 93.016287 
L 139.761873 93.022573 
L 141.254849 93.478747 
L 142.001338 93.801354 
L 142.747826 93.774519 
L 144.987291 94.461731 
L 148.719732 96.976526 
L 153.198662 98.568722 
L 153.945151 98.568117 
L 154.691639 98.945861 
L 156.184615 99.257443 
L 157.677592 99.914686 
L 159.917057 100.032398 
L 162.156522 100.720443 
L 162.90301 100.552451 
L 164.395987 101.016609 
L 165.142475 101.370597 
L 165.888963 101.594996 
L 168.128428 102.616696 
L 170.367893 103.687677 
L 171.86087 104.199261 
L 173.353846 104.764568 
L 174.846823 105.209067 
L 175.593311 105.65244 
L 176.339799 105.956579 
L 177.086288 106.05695 
L 178.579264 105.595485 
L 180.072241 105.772781 
L 180.818729 105.769851 
L 182.311706 106.271327 
L 184.551171 107.888783 
L 185.297659 108.101286 
L 186.790635 108.984575 
L 187.537124 109.032265 
L 188.283612 109.236621 
L 189.0301 109.191421 
L 189.776589 109.335352 
L 190.523077 109.616965 
L 191.269565 109.764568 
L 195.002007 111.872577 
L 195.748495 112.09382 
L 197.241472 112.309586 
L 198.734448 113.018086 
L 199.480936 113.298002 
L 200.973913 113.527905 
L 201.720401 113.702559 
L 203.213378 114.266497 
L 204.706355 114.389801 
L 205.452843 114.287621 
L 206.199331 114.64792 
L 207.692308 114.555867 
L 209.931773 115.162253 
L 211.424749 114.973612 
L 213.664214 115.183631 
L 215.157191 115.453143 
L 216.650167 116.026371 
L 217.396656 115.970366 
L 218.889632 115.165266 
L 219.63612 114.607891 
L 220.382609 114.413454 
L 221.875585 114.781906 
L 222.622074 115.076366 
L 223.368562 115.171694 
L 224.11505 115.137088 
L 224.861538 114.958223 
L 226.354515 114.18938 
L 227.101003 113.952813 
L 227.847492 113.530448 
L 228.59398 113.373871 
L 229.340468 113.036276 
L 230.833445 112.201314 
L 231.579933 111.843343 
L 232.326421 111.655186 
L 233.819398 110.580476 
L 234.565886 110.154511 
L 235.312375 109.531678 
L 236.058863 109.524369 
L 236.805351 109.242198 
L 237.551839 108.586196 
L 239.044816 107.543855 
L 240.537793 106.167143 
L 241.284281 105.847885 
L 242.777258 104.658948 
L 244.270234 103.042572 
L 245.016722 102.526552 
L 246.509699 102.416987 
L 247.256187 102.291819 
L 248.002676 101.71544 
L 252.481605 99.474373 
L 253.974582 98.667136 
L 256.960535 96.799825 
L 257.707023 96.512126 
L 259.2 95.452227 
L 259.2 95.452227 
" style="fill:none;stroke:#e377c2;stroke-linecap:square;stroke-width:1.5;"/>
   </g>
   <g id="line2d_17">
    <path clip-path="url(#p18ddd71749)" d="M 36 69.642241 
L 36.746488 69.79998 
L 38.239465 69.948296 
L 38.985953 70.133704 
L 39.732441 70.142395 
L 40.47893 70.278193 
L 41.225418 70.189452 
L 43.464883 70.627421 
L 44.211371 71.148048 
L 44.95786 71.510035 
L 45.704348 71.694116 
L 47.943813 72.567902 
L 49.436789 72.520179 
L 50.183278 72.759863 
L 52.422742 72.981201 
L 53.169231 73.294079 
L 58.394649 74.028496 
L 59.887625 73.799956 
L 61.380602 74.13339 
L 62.12709 74.087783 
L 62.873579 74.168833 
L 63.620067 74.03509 
L 65.113043 74.230401 
L 65.859532 74.086865 
L 66.60602 74.257533 
L 67.352508 74.543265 
L 68.845485 74.484669 
L 69.591973 74.432547 
L 71.08495 74.748558 
L 71.831438 74.669626 
L 74.070903 74.84444 
L 74.817391 75.191685 
L 75.56388 75.749795 
L 76.310368 76.158857 
L 77.056856 76.428677 
L 78.549833 77.703251 
L 79.296321 78.459974 
L 80.789298 79.1666 
L 82.282274 79.742038 
L 83.028763 79.900082 
L 84.521739 80.577832 
L 86.014716 81.515488 
L 86.761204 81.54877 
L 88.254181 81.979102 
L 89.747157 82.414181 
L 90.493645 82.715282 
L 95.719064 83.556886 
L 96.465552 83.888957 
L 98.705017 84.208247 
L 99.451505 84.14258 
L 100.197993 84.37252 
L 101.69097 84.272969 
L 103.183946 83.905107 
L 106.1699 82.460767 
L 106.916388 82.324234 
L 107.662876 81.982602 
L 108.409365 81.795853 
L 109.155853 81.452213 
L 109.902341 81.369097 
L 110.648829 81.438767 
L 112.141806 80.88056 
L 114.381271 80.243307 
L 118.113712 79.722247 
L 118.860201 79.351331 
L 119.606689 79.136614 
L 120.353177 78.701 
L 121.099666 78.407319 
L 122.592642 78.170208 
L 124.832107 76.71979 
L 125.578595 76.339787 
L 126.325084 75.828242 
L 127.071572 75.608159 
L 129.311037 75.569052 
L 130.804013 75.050399 
L 132.29699 73.897964 
L 133.043478 73.851641 
L 133.789967 73.575319 
L 135.282943 73.401064 
L 136.029431 73.183948 
L 137.522408 73.097131 
L 139.761873 72.12125 
L 141.254849 71.878307 
L 143.494314 71.098107 
L 144.987291 70.910856 
L 145.733779 70.948345 
L 146.480268 71.18632 
L 147.226756 71.143158 
L 147.973244 71.291817 
L 148.719732 71.198482 
L 150.959197 70.503536 
L 151.705686 70.372653 
L 152.452174 70.43413 
L 154.691639 69.641362 
L 158.42408 67.912101 
L 159.917057 66.913314 
L 161.410033 65.936415 
L 162.90301 65.161961 
L 163.649498 65.066798 
L 165.142475 63.728118 
L 165.888963 63.115246 
L 166.635452 62.731655 
L 167.38194 62.117309 
L 171.86087 59.314081 
L 172.607358 59.030976 
L 174.100334 57.742252 
L 174.846823 57.421103 
L 175.593311 57.285365 
L 177.086288 56.721512 
L 177.832776 56.203729 
L 179.325753 55.421208 
L 180.072241 54.93314 
L 180.818729 54.615625 
L 183.804682 53.894483 
L 184.551171 53.615581 
L 185.297659 53.492977 
L 186.044147 53.614037 
L 186.790635 53.560583 
L 189.776589 52.011625 
L 190.523077 51.898014 
L 191.269565 51.994803 
L 192.762542 51.883371 
L 194.255518 51.349497 
L 195.748495 51.183089 
L 196.494983 51.24579 
L 197.241472 51.129475 
L 198.734448 50.702751 
L 199.480936 50.527058 
L 202.46689 50.860093 
L 203.959866 51.239237 
L 205.452843 51.111999 
L 206.199331 51.147627 
L 207.692308 51.95737 
L 208.438796 52.126369 
L 209.931773 51.621967 
L 212.171237 52.220403 
L 212.917726 52.065804 
L 213.664214 52.200458 
L 215.157191 52.131129 
L 215.903679 52.004672 
L 218.143144 52.364778 
L 218.889632 52.566561 
L 219.63612 52.5263 
L 220.382609 52.782163 
L 221.875585 52.844617 
L 222.622074 53.043719 
L 224.11505 53.09624 
L 225.608027 52.789999 
L 227.101003 53.039813 
L 227.847492 53.194449 
L 229.340468 53.224709 
L 231.579933 54.035671 
L 232.326421 54.247437 
L 234.565886 55.622254 
L 235.312375 56.0738 
L 237.551839 56.909711 
L 238.298328 56.879116 
L 239.791304 57.587563 
L 240.537793 57.822977 
L 242.030769 58.055294 
L 245.016722 58.619335 
L 247.256187 59.848673 
L 250.24214 61.013108 
L 250.988629 61.362486 
L 251.735117 61.85576 
L 252.481605 62.595293 
L 253.228094 62.983017 
L 253.974582 63.065215 
L 254.72107 63.551331 
L 255.467559 63.592135 
L 256.214047 63.812426 
L 259.2 65.338264 
L 259.2 65.338264 
" style="fill:none;stroke:#7f7f7f;stroke-linecap:square;stroke-width:1.5;"/>
   </g>
   <g id="patch_3">
    <path d="M 36 126 
L 36 17.28 
" style="fill:none;stroke:#000000;stroke-linecap:square;stroke-linejoin:miter;stroke-width:0.8;"/>
   </g>
   <g id="patch_4">
    <path d="M 259.2 126 
L 259.2 17.28 
" style="fill:none;stroke:#000000;stroke-linecap:square;stroke-linejoin:miter;stroke-width:0.8;"/>
   </g>
   <g id="patch_5">
    <path d="M 36 126 
L 259.2 126 
" style="fill:none;stroke:#000000;stroke-linecap:square;stroke-linejoin:miter;stroke-width:0.8;"/>
   </g>
   <g id="patch_6">
    <path d="M 36 17.28 
L 259.2 17.28 
" style="fill:none;stroke:#000000;stroke-linecap:square;stroke-linejoin:miter;stroke-width:0.8;"/>
   </g>
  </g>
 </g>
 <defs>
  <clipPath id="p18ddd71749">
   <rect height="108.72" width="223.2" x="36" y="17.28"/>
  </clipPath>
 </defs>
</svg>
